<svg width="1512" height="178" viewBox="0 0 1512 178" fill="none" xmlns="http://www.w3.org/2000/svg">
<path d="M1392.46 91.1369C1394.95 91.1369 1398.57 90.6353 1398.57 87.7419C1398.57 87.5186 1398.55 87.2953 1398.51 87.0769L1397.02 80.7847C1396.67 79.4003 1396.37 78.7722 1393.88 77.5569C1391.94 76.5925 1387.72 75 1386.48 75C1385.31 75 1384.98 76.4583 1383.59 76.4583C1382.26 76.4583 1381.27 75.3694 1380.02 75.3694C1378.82 75.3694 1378.04 76.1647 1377.44 77.8C1377.44 77.8 1375.76 82.4122 1375.54 83.0811C1375.51 83.2039 1375.49 83.3311 1375.5 83.4583C1375.5 85.2511 1382.75 91.1292 1392.46 91.1292M1398.95 88.9164C1399.3 90.5089 1399.3 90.6761 1399.3 90.8861C1399.3 93.6083 1396.15 95.1192 1392.02 95.1192C1382.69 95.125 1374.51 89.7972 1374.51 86.2758C1374.51 85.7857 1374.61 85.3006 1374.81 84.8506C1371.46 85.0139 1367.11 85.5972 1367.11 89.3344C1367.11 95.4556 1382 103 1393.79 103C1402.83 103 1405.11 99.0178 1405.11 95.8736C1405.11 93.4003 1402.91 90.5925 1398.95 88.9164" fill="#6017D8"/>
<path d="M1482.61 93.0916C1482.61 95.6705 1484.04 96.9241 1486.64 96.9241C1487.44 96.9024 1488.23 96.7801 1489.01 96.5597V93.5688C1488.51 93.7395 1487.99 93.8244 1487.48 93.8204C1486.4 93.8204 1486.01 93.456 1486.01 92.3607V87.7777H1489.11V84.6979H1486.01V80.7938L1482.62 81.592V84.6979H1480.37V87.7777H1482.61V93.0916ZM1472.05 93.161C1472.05 92.3628 1472.78 91.9746 1473.89 91.9746C1474.57 91.9789 1475.25 92.0706 1475.91 92.2479V93.7987C1475.26 94.1845 1474.53 94.381 1473.79 94.3691C1472.7 94.3691 1472.05 93.9136 1472.05 93.161ZM1473.09 96.9696C1474.28 96.9696 1475.25 96.6964 1476.15 96.0348V96.7658H1479.5V89.0314C1479.5 86.0903 1477.68 84.4767 1474.64 84.4767C1472.94 84.4767 1471.26 84.9104 1469.46 85.7997L1470.67 88.5152C1471.97 87.9209 1473.06 87.5565 1474.03 87.5565C1475.42 87.5565 1476.14 88.1486 1476.14 89.3589V89.951C1475.32 89.7196 1474.48 89.6044 1473.63 89.6083C1470.78 89.6083 1469.06 90.9097 1469.06 93.2369C1469.06 95.3581 1470.61 96.9761 1473.08 96.9761M1454.66 96.7723H1458.26V90.5149H1464.3V96.7658H1467.92V80.7982H1464.31V86.934H1458.28V80.7982H1454.67L1454.66 96.7723ZM1440.93 90.721C1440.93 88.9858 1442.19 87.6628 1443.85 87.6628C1444.71 87.6438 1445.55 87.9783 1446.19 88.5998V92.8183C1445.88 93.1399 1445.51 93.3909 1445.11 93.5569C1444.71 93.7229 1444.28 93.8007 1443.85 93.7857C1442.21 93.7857 1440.93 92.4626 1440.93 90.7297M1446.24 96.7744H1449.59V80L1446.2 80.7982V85.3377C1445.34 84.8056 1444.36 84.5303 1443.37 84.5396C1440.15 84.5396 1437.61 87.2529 1437.61 90.721C1437.6 91.5347 1437.74 92.3423 1438.02 93.0966C1438.3 93.851 1438.72 94.5369 1439.24 95.1143C1439.77 95.6918 1440.4 96.1492 1441.09 96.46C1441.78 96.7707 1442.52 96.9285 1443.27 96.9241C1444.34 96.9296 1445.38 96.5625 1446.24 95.8765L1446.24 96.7744ZM1430.84 87.4958C1431.91 87.4958 1432.81 88.2484 1433.17 89.4109H1428.55C1428.88 88.2115 1429.72 87.4958 1430.84 87.4958ZM1425.13 90.7492C1425.13 94.2628 1427.77 97 1431.17 97C1433.03 97 1434.39 96.4513 1435.8 95.1738L1433.55 93.0048C1433.03 93.5991 1432.26 93.918 1431.33 93.918C1430.76 93.9357 1430.19 93.7622 1429.7 93.4204C1429.21 93.0785 1428.83 92.5843 1428.61 92.0028H1436.51V91.0854C1436.51 87.2529 1434.14 84.494 1430.91 84.494C1430.15 84.4815 1429.4 84.6343 1428.7 84.9434C1427.99 85.2525 1427.35 85.7117 1426.81 86.2939C1426.28 86.8761 1425.85 87.5695 1425.56 88.3335C1425.27 89.0975 1425.13 89.9166 1425.13 90.7427M1419.28 84.1513C1420.48 84.1513 1421.15 84.9712 1421.15 85.9537C1421.15 86.9362 1420.48 87.7561 1419.28 87.7561H1415.72V84.1513H1419.28ZM1412.11 96.7658H1415.71V90.9487H1418.46L1421.23 96.7658H1425.26L1422.03 90.3783C1422.86 90.0151 1423.56 89.3931 1424.05 88.5922C1424.54 87.7913 1424.8 86.8482 1424.8 85.8843C1424.8 83.0105 1422.73 80.7982 1419.62 80.7982H1412.11V96.7658Z" fill="#6017D8"/>
<path fill-rule="evenodd" clip-rule="evenodd" d="M386.49 101.794H382.723L380.886 84.7252L375.261 101.794H373.796H372.332L366.706 84.7252L364.87 101.794H361.103L364.032 78.3597H367.938L373.796 95.9358L379.655 78.3597H383.561L386.49 101.794ZM453.718 102.189C450.115 102.189 448.048 99.7771 448.048 95.5725V84.9536H451.635V94.8021C451.635 97.6182 452.565 99.1444 455.1 99.1444C457.553 99.1444 458.566 97.586 458.566 94.8109V84.9536H462.153V101.789H459.379L459.003 99.9636C457.674 101.599 456.071 102.189 453.718 102.189ZM441.594 78.3812L445.182 76.8062V101.789H441.594V78.3812ZM396.028 99.1473C393.34 99.1473 391.799 97.0489 391.799 93.3892C391.799 89.7607 393.394 87.5949 396.064 87.5949C398.736 87.5949 400.33 89.7607 400.33 93.3892C400.33 97.0489 398.762 99.1473 396.028 99.1473ZM396.064 84.5533C391.085 84.5533 387.993 87.9387 387.993 93.3892C387.993 98.8173 391.072 102.189 396.028 102.189C401.03 102.189 404.137 98.8173 404.137 93.3892C404.137 87.9387 401.043 84.5533 396.064 84.5533ZM427.624 91.7956L427.651 91.5086C427.89 88.9844 429.249 87.5949 431.478 87.5949C433.842 87.5949 435.163 88.9922 435.198 91.5291L435.202 91.7956H427.624ZM431.551 84.5533C426.707 84.5533 423.698 87.9113 423.698 93.3169C423.698 98.789 426.861 102.189 431.952 102.189C434.427 102.189 436.556 101.54 438.632 100.149L437.275 97.6836C435.573 98.6679 433.925 99.1473 432.243 99.1473C430.665 99.1473 427.961 98.5439 427.578 94.5053L427.551 94.2192H438.947C439.009 93.8403 439.041 93.1636 439.041 92.6246C439.041 88.7227 437.073 84.5533 431.551 84.5533ZM479 101.789H475.142L471.582 96.1262L467.832 101.789H464.095L469.448 93.7036L464.075 84.9536H468.005L471.574 91.0467L475.218 84.9536H478.994L473.668 93.2603L479 101.789ZM413.916 99.1473C410.471 99.1473 410.029 95.4495 410.029 93.3892C410.029 90.6629 410.67 87.5949 413.949 87.5949C416.586 87.5949 417.869 89.4902 417.869 93.3892C417.869 97.0489 416.428 99.1473 413.916 99.1473ZM414.804 84.5533C413.005 84.5533 411.407 85.5112 410.586 86.3324L410.139 86.7796V76.8062L406.55 78.3812V101.789H409.347L409.735 99.7635L410.089 100.168C410.943 101.145 412.564 102.189 414.549 102.189C419.472 102.189 421.676 97.7149 421.676 93.2798C421.676 87.8156 419.107 84.5533 414.804 84.5533Z" fill="#6017D8"/>
<path fill-rule="evenodd" clip-rule="evenodd" d="M50.726 116.76H28.0399C28.0399 116.76 37.114 110.385 30.528 99.952C23.9406 89.5179 19.4043 76.7669 31.2606 66.4771C42.5567 56.6754 61.3845 61.718 65.8354 72.6391C65.62 72.1111 65.3711 71.5968 65.0911 71.0972C61.9787 68.1271 55.7514 68.1681 44.5755 75.7523C35.2736 82.0648 29.0895 77.7931 30.2528 74.3368C31.0477 71.9764 34.4579 70.0616 34.4579 70.0616C34.4579 70.0616 29.0972 69.8647 25.7363 73.4315C23.9931 76.9906 23.6093 80.6956 24.117 84.3914L24.1191 84.3931C24.1471 84.5966 24.1778 84.8002 24.2112 85.0036C24.4617 86.1252 27.1418 89.37 32.0505 89.37C38.4722 89.37 44.9104 84.216 50.3328 79.8752C54.1246 76.8398 57.4197 74.2019 59.8652 74.0022C63.9426 73.6691 66.9472 76.926 67.3243 80.4026C67.2683 78.8257 67.0469 76.9553 66.482 74.6746C66.475 74.6462 66.4679 74.6176 66.4609 74.589C67.6524 79.3482 67.3618 82.3467 67.147 84.5635C66.8966 87.1465 66.7492 88.668 69.1692 90.6766C69.1692 90.6766 71.2909 92.4166 71.2909 93.5762C71.2909 94.0479 71.1787 94.3927 70.9949 94.649L70.8523 94.6621L67.9972 95.2409C67.9972 95.2409 67.3473 95.5113 67.4629 96.2403C67.4313 96.6987 67.5492 97.1968 67.6645 97.6832C67.8506 98.4694 68.0296 99.2252 67.5586 99.7343C67.2376 100.081 66.8704 100.335 66.5632 100.548C66.0996 100.869 65.7729 101.096 65.9485 101.4C66.0241 101.531 66.1629 101.662 66.3124 101.803C66.7423 102.208 67.2595 102.696 66.6076 103.501C66.393 103.767 66.174 103.976 65.9742 104.167C65.3557 104.759 64.9201 105.175 65.363 106.544C65.9485 108.356 65.437 110.385 63.2413 110.458C62.5957 110.479 61.7603 110.4 60.8394 110.313C58.6283 110.104 55.9236 109.848 54.1657 110.82C51.678 112.196 50.726 116.76 50.726 116.76ZM39.2431 77.4581C33.8079 79.6301 31.7384 76.7339 31.7384 76.7339C31.7384 76.7339 33.5743 77.4257 36.929 75.7451C38.881 74.7674 40.5861 73.1577 42.3569 71.4861L42.3569 71.486C44.7402 69.2361 47.2425 66.8739 50.6255 65.7895C56.5215 63.8993 60.9635 68.0557 60.9635 68.0557C60.9635 68.0557 57.1152 66.6869 52.736 68.5022C50.9959 69.2237 49.0761 70.7443 47.0187 72.3737L47.0187 72.3737C44.5947 74.2936 41.9798 76.3646 39.2431 77.4581ZM63.3903 77.0456C63.3903 77.0456 61.8691 74.493 58.8868 75.981C55.4225 77.709 52.6621 80.2868 49.9489 82.8205C47.0503 85.5273 44.2055 88.1838 40.6138 89.7005C33.7899 92.5819 28.6032 90.4498 28.6032 90.4498C28.6032 90.4498 32.9239 96.5349 42.5362 93.812C47.6732 92.3565 51.4695 86.8939 54.5112 82.5172C56.0156 80.3525 57.3354 78.4534 58.5415 77.4361C61.3073 75.1033 63.3903 77.0456 63.3903 77.0456Z" fill="#6017D8"/>
<path d="M85.6494 119.335V102.402H89.6005C91.5342 102.402 92.9578 102.73 93.8713 103.387C94.8762 104.136 95.3787 105.274 95.3787 106.801C95.3787 108.436 94.7544 109.604 93.5059 110.307C95.196 110.994 96.1247 112.155 96.2922 113.79C96.3227 114.004 96.3379 114.233 96.3379 114.477C96.3379 116.05 95.8583 117.265 94.8991 118.12H94.8762L94.4423 118.441C93.4679 119.022 91.93 119.319 89.8289 119.335H85.6494ZM87.3395 117.8H89.6462C91.321 117.8 92.5391 117.593 93.3004 117.181C94.0008 116.83 94.4271 116.157 94.5793 115.165L94.625 114.569C94.625 113.194 94.0997 112.239 93.0491 111.705C92.3944 111.384 91.1611 111.223 89.3493 111.223H87.3395V117.8ZM87.3395 109.688H89.395C90.7348 109.688 91.7245 109.543 92.364 109.253C93.2319 108.856 93.6658 108.046 93.6658 106.824C93.6658 105.846 93.3917 105.121 92.8436 104.647L92.6837 104.533C92.1051 104.136 91.0013 103.937 89.3721 103.937H87.3395V109.688Z" fill="#6017D8"/>
<path d="M98.4669 119.335V106.801H100.157V108.588C100.72 107.412 101.702 106.732 103.103 106.549C103.118 106.549 103.134 106.549 103.149 106.549L103.697 106.503V108.176C101.337 108.405 100.157 109.688 100.157 112.025V119.335H98.4669Z" fill="#6017D8"/>
<path d="M117.411 106.801V119.335H115.721V117.135C114.716 118.479 113.551 119.274 112.226 119.518C111.815 119.594 111.374 119.633 110.902 119.633C108.846 119.633 107.179 118.93 105.9 117.525C104.773 116.318 104.21 114.844 104.21 113.102C104.21 111.117 104.903 109.482 106.288 108.199C107.522 107.069 109.021 106.503 110.787 106.503C112.782 106.503 114.366 107.259 115.538 108.772C115.538 108.772 115.546 108.779 115.561 108.795L115.721 109.024V106.801H117.411ZM110.833 108.061C109.341 108.061 108.108 108.627 107.133 109.757C106.509 110.46 106.128 111.277 105.991 112.209L105.923 112.988C105.923 114.592 106.501 115.89 107.659 116.883C108.587 117.677 109.676 118.074 110.924 118.074C112.417 118.074 113.635 117.494 114.579 116.333C115.34 115.401 115.721 114.294 115.721 113.011C115.721 111.468 115.157 110.208 114.031 109.23C113.437 108.711 112.752 108.367 111.975 108.199C111.61 108.107 111.229 108.061 110.833 108.061Z" fill="#6017D8"/>
<path d="M120.28 119.335V106.801H121.97V119.335H120.28ZM120.28 105.289V102.402H121.97V105.289H120.28Z" fill="#6017D8"/>
<path d="M124.852 119.335V106.801H126.542V108.428C127.592 107.145 128.932 106.503 130.561 106.503C132.358 106.503 133.774 107.153 134.809 108.451C135.464 109.322 135.822 110.475 135.883 111.911L135.906 112.759V119.335H134.216V112.759C134.216 111.246 133.942 110.131 133.393 109.413C132.663 108.512 131.65 108.061 130.356 108.061C129.046 108.061 128.034 108.527 127.318 109.459C127.273 109.505 127.235 109.551 127.204 109.597C126.763 110.253 126.542 111.201 126.542 112.438V119.335H124.852Z" fill="#6017D8"/>
<path d="M84.3115 80.8633C86.4596 80.8633 88.3199 81.5722 89.8924 82.9899L90.4189 83.4855C90.4329 83.4992 90.447 83.513 90.461 83.5268C91.8369 85.0271 92.5249 86.7752 92.5249 88.7711C92.5249 90.7944 91.8018 92.5632 90.3557 94.0773C88.9377 95.5776 87.1967 96.4242 85.1329 96.6169C84.8521 96.6444 84.5783 96.6582 84.3115 96.6582C82.1213 96.6582 80.233 95.9355 78.6464 94.4902C77.1021 93.0725 76.2526 91.3313 76.0982 89.2666L76.0771 88.6678C76.0771 86.6995 76.8002 84.9652 78.2463 83.4648C79.6503 81.9783 81.3702 81.1248 83.406 80.9046C83.7008 80.8771 84.0027 80.8633 84.3115 80.8633ZM84.3115 82.2673C82.5285 82.2673 80.9841 82.8867 79.6784 84.1255C78.3867 85.3643 77.7128 86.8922 77.6566 88.7091C77.6566 90.5123 78.3025 92.0539 79.5941 93.334C80.8998 94.6141 82.4723 95.2542 84.3115 95.2542C86.1086 95.2542 87.653 94.6279 88.9447 93.3753C90.2504 92.1365 90.9173 90.6086 90.9454 88.7917C90.9454 87.0161 90.2995 85.4882 89.0079 84.2081L88.9658 84.1668C87.66 82.9005 86.1086 82.2673 84.3115 82.2673Z" fill="#6017D8"/>
<path d="M103.841 93.0654H105.61C105.077 94.0565 104.515 94.7998 103.926 95.2953H103.905L103.863 95.3366L103.799 95.3779C102.69 96.2313 101.413 96.658 99.9664 96.658C98.1132 96.658 96.5828 96.0455 95.3754 94.8204C94.2522 93.6917 93.6906 92.3222 93.6906 90.7117C93.6906 89.0324 94.3154 87.6147 95.5649 86.4585C96.7443 85.3711 98.1763 84.8274 99.8611 84.8274C101.686 84.8274 103.196 85.4468 104.389 86.6856C104.88 87.1811 105.266 87.7523 105.547 88.3993C105.561 88.4406 105.575 88.4818 105.589 88.5231H103.841C102.929 86.9953 101.595 86.2313 99.8401 86.2313C98.408 86.2313 97.2427 86.7544 96.3441 87.8005C95.9089 88.3098 95.607 88.881 95.4386 89.5142C95.3262 89.9134 95.2701 90.3263 95.2701 90.753C95.2701 92.1294 95.7966 93.265 96.8496 94.1597C97.72 94.8892 98.7379 95.254 99.9032 95.254C101.167 95.254 102.248 94.7929 103.146 93.8707C103.371 93.6367 103.603 93.3683 103.841 93.0654Z" fill="#6017D8"/>
<path d="M118.771 91.2485H108.346C108.417 92.4873 108.978 93.5059 110.031 94.3042C110.859 94.9374 111.793 95.254 112.832 95.254C114.11 95.254 115.184 94.7998 116.054 93.8913C116.405 93.5334 116.672 93.1274 116.855 92.6731H118.476C118.181 93.5541 117.62 94.3799 116.791 95.1508C115.696 96.1556 114.391 96.658 112.874 96.658C111.105 96.658 109.631 96.0455 108.452 94.8204C107.342 93.678 106.788 92.3015 106.788 90.6911C106.788 88.9843 107.406 87.5596 108.641 86.4172C109.778 85.3573 111.154 84.8274 112.769 84.8274C114.44 84.8274 115.858 85.3917 117.023 86.5204C117.402 86.892 117.725 87.305 117.992 87.7592C118.497 88.6539 118.757 89.817 118.771 91.2485ZM108.388 89.8652H117.213C116.848 88.3098 116.012 87.2362 114.706 86.6443C114.117 86.369 113.464 86.2313 112.748 86.2313C111.316 86.2313 110.172 86.7682 109.315 87.8418C108.852 88.4199 108.543 89.0944 108.388 89.8652Z" fill="#6017D8"/>
<path d="M132.284 85.0958V96.3896H130.725V94.4075C129.799 95.6188 128.725 96.3345 127.503 96.5547C127.124 96.6236 126.717 96.658 126.282 96.658C124.386 96.658 122.849 96.0248 121.67 94.7585C120.631 93.6711 120.111 92.3428 120.111 90.7736C120.111 88.9843 120.75 87.5114 122.028 86.3552C123.165 85.3367 124.548 84.8274 126.176 84.8274C128.016 84.8274 129.476 85.5087 130.557 86.8714C130.557 86.8714 130.564 86.8783 130.578 86.892L130.725 87.0985V85.0958H132.284ZM126.219 86.2313C124.843 86.2313 123.705 86.7406 122.807 87.7592C122.231 88.3924 121.88 89.1288 121.754 89.9684L121.691 90.6704C121.691 92.1157 122.224 93.2857 123.291 94.1804C124.148 94.8961 125.151 95.254 126.303 95.254C127.679 95.254 128.802 94.7309 129.672 93.6848C130.374 92.8452 130.725 91.8473 130.725 90.6911C130.725 89.3008 130.206 88.1653 129.167 87.2843C128.619 86.8163 127.988 86.5066 127.271 86.3552C126.935 86.2726 126.584 86.2313 126.219 86.2313Z" fill="#6017D8"/>
<path d="M134.807 96.3896V85.0958H136.366V86.5617C137.334 85.4055 138.57 84.8274 140.072 84.8274C141.729 84.8274 143.034 85.4124 143.989 86.5823C144.593 87.3669 144.923 88.4061 144.979 89.7L145 90.4639V96.3896H143.442V90.4639C143.442 89.1012 143.189 88.0964 142.683 87.4495C142.01 86.6374 141.076 86.2313 139.883 86.2313C138.675 86.2313 137.741 86.6512 137.082 87.4908C137.039 87.5321 137.004 87.5734 136.976 87.6147C136.569 88.2066 136.366 89.06 136.366 90.1749V96.3896H134.807Z" fill="#6017D8"/>
<path d="M84.3115 80.8633C86.4596 80.8633 88.3199 81.5722 89.8924 82.9899L90.4189 83.4855C90.4329 83.4992 90.447 83.513 90.461 83.5268C91.8369 85.0271 92.5249 86.7752 92.5249 88.7711C92.5249 90.7944 91.8018 92.5632 90.3557 94.0773C88.9377 95.5776 87.1967 96.4242 85.1329 96.6169C84.8521 96.6444 84.5783 96.6582 84.3115 96.6582C82.1213 96.6582 80.233 95.9355 78.6464 94.4902C77.1021 93.0725 76.2526 91.3313 76.0982 89.2666L76.0771 88.6678C76.0771 86.6995 76.8002 84.9652 78.2463 83.4648C79.6503 81.9783 81.3702 81.1248 83.406 80.9046C83.7008 80.8771 84.0027 80.8633 84.3115 80.8633ZM84.3115 82.2673C82.5285 82.2673 80.9841 82.8867 79.6784 84.1255C78.3867 85.3643 77.7128 86.8922 77.6566 88.7091C77.6566 90.5123 78.3025 92.0539 79.5941 93.334C80.8998 94.6141 82.4723 95.2542 84.3115 95.2542C86.1086 95.2542 87.653 94.6279 88.9447 93.3753C90.2504 92.1365 90.9173 90.6086 90.9454 88.7917C90.9454 87.0161 90.2995 85.4882 89.0079 84.2081L88.9658 84.1668C87.66 82.9005 86.1086 82.2673 84.3115 82.2673Z" stroke="#6017D8" stroke-width="0.45"/>
<path d="M103.841 93.0654H105.61C105.077 94.0565 104.515 94.7998 103.926 95.2953H103.905L103.863 95.3366L103.799 95.3779C102.69 96.2313 101.413 96.658 99.9664 96.658C98.1132 96.658 96.5828 96.0455 95.3754 94.8204C94.2522 93.6917 93.6906 92.3222 93.6906 90.7117C93.6906 89.0324 94.3154 87.6147 95.5649 86.4585C96.7443 85.3711 98.1763 84.8274 99.8611 84.8274C101.686 84.8274 103.196 85.4468 104.389 86.6856C104.88 87.1811 105.266 87.7523 105.547 88.3993C105.561 88.4406 105.575 88.4818 105.589 88.5231H103.841C102.929 86.9953 101.595 86.2313 99.8401 86.2313C98.408 86.2313 97.2427 86.7544 96.3441 87.8005C95.9089 88.3098 95.607 88.881 95.4386 89.5142C95.3262 89.9134 95.2701 90.3263 95.2701 90.753C95.2701 92.1294 95.7966 93.265 96.8496 94.1597C97.72 94.8892 98.7379 95.254 99.9032 95.254C101.167 95.254 102.248 94.7929 103.146 93.8707C103.371 93.6367 103.603 93.3683 103.841 93.0654Z" stroke="#6017D8" stroke-width="0.45"/>
<path d="M118.771 91.2485H108.346C108.417 92.4873 108.978 93.5059 110.031 94.3042C110.859 94.9374 111.793 95.254 112.832 95.254C114.11 95.254 115.184 94.7998 116.054 93.8913C116.405 93.5334 116.672 93.1274 116.855 92.6731H118.476C118.181 93.5541 117.62 94.3799 116.791 95.1508C115.696 96.1556 114.391 96.658 112.874 96.658C111.105 96.658 109.631 96.0455 108.452 94.8204C107.342 93.678 106.788 92.3015 106.788 90.6911C106.788 88.9843 107.406 87.5596 108.641 86.4172C109.778 85.3573 111.154 84.8274 112.769 84.8274C114.44 84.8274 115.858 85.3917 117.023 86.5204C117.402 86.892 117.725 87.305 117.992 87.7592C118.497 88.6539 118.757 89.817 118.771 91.2485ZM108.388 89.8652H117.213C116.848 88.3098 116.012 87.2362 114.706 86.6443C114.117 86.369 113.464 86.2313 112.748 86.2313C111.316 86.2313 110.172 86.7682 109.315 87.8418C108.852 88.4199 108.543 89.0944 108.388 89.8652Z" stroke="#6017D8" stroke-width="0.45"/>
<path d="M132.284 85.0958V96.3896H130.725V94.4075C129.799 95.6188 128.725 96.3345 127.503 96.5547C127.124 96.6236 126.717 96.658 126.282 96.658C124.386 96.658 122.849 96.0248 121.67 94.7585C120.631 93.6711 120.111 92.3428 120.111 90.7736C120.111 88.9843 120.75 87.5114 122.028 86.3552C123.165 85.3367 124.548 84.8274 126.176 84.8274C128.016 84.8274 129.476 85.5087 130.557 86.8714C130.557 86.8714 130.564 86.8783 130.578 86.892L130.725 87.0985V85.0958H132.284ZM126.219 86.2313C124.843 86.2313 123.705 86.7406 122.807 87.7592C122.231 88.3924 121.88 89.1288 121.754 89.9684L121.691 90.6704C121.691 92.1157 122.224 93.2857 123.291 94.1804C124.148 94.8961 125.151 95.254 126.303 95.254C127.679 95.254 128.802 94.7309 129.672 93.6848C130.374 92.8452 130.725 91.8473 130.725 90.6911C130.725 89.3008 130.206 88.1653 129.167 87.2843C128.619 86.8163 127.988 86.5066 127.271 86.3552C126.935 86.2726 126.584 86.2313 126.219 86.2313Z" stroke="#6017D8" stroke-width="0.45"/>
<path d="M134.807 96.3896V85.0958H136.366V86.5617C137.334 85.4055 138.57 84.8274 140.072 84.8274C141.729 84.8274 143.034 85.4124 143.989 86.5823C144.593 87.3669 144.923 88.4061 144.979 89.7L145 90.4639V96.3896H143.442V90.4639C143.442 89.1012 143.189 88.0964 142.683 87.4495C142.01 86.6374 141.076 86.2313 139.883 86.2313C138.675 86.2313 137.741 86.6512 137.082 87.4908C137.039 87.5321 137.004 87.5734 136.976 87.6147C136.569 88.2066 136.366 89.06 136.366 90.1749V96.3896H134.807Z" stroke="#6017D8" stroke-width="0.45"/>
<path d="M90.4355 75.7709V58.3677H94.4077C96.3517 58.3677 97.7829 58.7052 98.7014 59.3803C99.7116 60.1496 100.217 61.3192 100.217 62.8892C100.217 64.5691 99.5892 65.7701 98.334 66.4923C100.033 67.1988 100.967 68.392 101.135 70.0719C101.166 70.2917 101.181 70.5272 101.181 70.7784C101.181 72.3954 100.699 73.6436 99.7346 74.5228H99.7116L99.2754 74.8525C98.2957 75.449 96.7497 75.7552 94.6373 75.7709H90.4355ZM92.1346 74.1931H94.4536C96.1374 74.1931 97.362 73.9811 98.1273 73.5572C98.8315 73.1961 99.2601 72.5053 99.4131 71.4849L99.4591 70.8726C99.4591 69.4596 98.931 68.4783 97.8748 67.9288C97.2166 67.5992 95.9767 67.4343 94.1552 67.4343H92.1346V74.1931ZM92.1346 65.8565H94.2011C95.5481 65.8565 96.5431 65.7073 97.186 65.409C98.0585 65.0008 98.4947 64.1687 98.4947 62.9128C98.4947 61.908 98.2192 61.1622 97.6681 60.6755L97.5074 60.5578C96.9257 60.1496 95.816 59.9455 94.1781 59.9455H92.1346V65.8565Z" fill="#6017D8"/>
<path d="M103.321 75.7709V58.3677H105.021V75.7709H103.321Z" fill="#6017D8"/>
<path d="M118.985 62.8892V75.7709H117.286V73.7692C116.536 75.1822 115.357 75.9436 113.75 76.0535C113.628 76.0692 113.459 76.077 113.245 76.077C111.316 76.077 109.87 75.3941 108.905 74.0282C108.247 73.1019 107.918 71.7046 107.918 69.8364V62.8892H109.617V69.8364C109.617 71.1709 109.816 72.1756 110.214 72.8507C110.75 73.8084 111.668 74.3422 112.969 74.4521C113.107 74.4678 113.245 74.4757 113.383 74.4757C114.73 74.4757 115.778 73.9419 116.528 72.8743C117.033 72.105 117.286 70.9825 117.286 69.5067V62.8892H118.985Z" fill="#6017D8"/>
<path d="M134.47 69.907H123.104C123.181 71.32 123.793 72.4818 124.941 73.3924C125.844 74.1146 126.862 74.4757 127.995 74.4757C129.388 74.4757 130.559 73.9576 131.508 72.9214C131.89 72.5132 132.181 72.05 132.38 71.5319H134.148C133.827 72.5367 133.214 73.4787 132.311 74.3579C131.117 75.504 129.694 76.077 128.041 76.077C126.112 76.077 124.505 75.3784 123.219 73.9811C122.01 72.678 121.405 71.1081 121.405 69.2712C121.405 67.3244 122.079 65.6995 123.426 64.3964C124.665 63.1875 126.166 62.5831 127.926 62.5831C129.747 62.5831 131.293 63.2268 132.564 64.5141C132.977 64.938 133.329 65.409 133.62 65.9271C134.171 66.9476 134.454 68.2742 134.47 69.907ZM123.15 68.3292H132.771C132.373 66.5551 131.462 65.3305 130.038 64.6554C129.395 64.3414 128.684 64.1844 127.903 64.1844C126.342 64.1844 125.094 64.7967 124.16 66.0213C123.655 66.6807 123.318 67.45 123.15 68.3292Z" fill="#6017D8"/>
<path d="M224.719 97.8108C224.689 97.8108 224.659 97.7958 224.629 97.7958C224.629 97.6159 224.629 97.4211 224.629 97.2413C224.629 87.5158 224.629 77.7904 224.629 68.0649C224.629 67.9 224.629 67.7502 224.629 67.5853C224.644 67.3905 224.54 67.3306 224.36 67.3606C224.105 67.3905 223.865 67.4355 223.625 67.4655C221.722 67.7352 219.804 67.99 217.901 68.2597C215.953 68.5294 214.02 68.7992 212.072 69.0839C211.173 69.2038 210.273 69.3536 209.374 69.4735C209.165 69.5035 209.06 69.5784 209.075 69.8032C209.09 70.1778 209.09 70.5524 209.075 70.9271C209.06 71.2118 209.165 71.3017 209.449 71.3017C210.169 71.3017 210.873 71.4066 211.577 71.5415C213.87 71.9611 215.069 73.1149 215.563 75.3627C215.803 76.4866 215.878 77.6255 215.878 78.7644C215.878 92.2362 215.878 105.708 215.878 119.18C215.878 119.345 215.878 119.495 215.878 119.659C215.878 119.839 215.938 119.929 216.118 119.914C216.223 119.914 216.328 119.914 216.432 119.914C218.965 119.914 221.497 119.914 224.03 119.914C224.135 119.914 224.24 119.914 224.345 119.914C224.554 119.929 224.629 119.824 224.614 119.629C224.599 119.51 224.614 119.375 224.614 119.255C224.614 115.359 224.614 111.477 224.614 107.581C224.614 105.034 225.124 102.591 226.143 100.253C227.087 98.0955 228.376 96.1923 230.204 94.6788C232.032 93.1653 234.085 92.476 236.468 92.9255C238.236 93.2552 239.54 94.1993 240.304 95.8327C240.469 96.1774 240.589 96.522 240.694 96.8817C241.098 98.2753 241.218 99.7139 241.218 101.167C241.218 107.177 241.218 113.201 241.218 119.21C241.218 119.33 241.233 119.465 241.218 119.584C241.188 119.854 241.323 119.929 241.563 119.914C241.653 119.899 241.743 119.914 241.833 119.914C244.35 119.914 246.868 119.914 249.385 119.914C250.06 119.914 249.985 119.974 249.985 119.315C249.985 113.44 249.985 107.566 249.985 101.707C249.985 99.9237 249.925 98.1404 249.67 96.3722C249.46 94.9186 249.115 93.51 248.501 92.1613C247.362 89.6587 245.474 88.0104 242.807 87.2911C240.739 86.7366 238.641 86.7066 236.543 87.0962C233.606 87.6657 231.163 89.1193 229.095 91.2472C227.357 93.0304 226.038 95.0984 224.929 97.3162C224.899 97.4811 224.809 97.6459 224.719 97.8108ZM279.656 92.3411C279.745 92.1613 279.715 92.0414 279.715 91.9215C279.715 90.0484 279.715 88.1752 279.715 86.302C279.715 85.8375 279.715 85.8375 279.236 85.7176C276.883 85.1032 274.516 84.6237 272.088 84.4438C269.436 84.249 266.813 84.3539 264.221 85.0283C262.108 85.5827 260.16 86.4968 258.571 88.0403C256.383 90.1533 255.439 92.7907 255.364 95.7877C255.289 98.62 256.278 101.018 258.197 103.071C259.29 104.254 260.564 105.228 261.913 106.113C263.726 107.311 265.659 108.33 267.547 109.394C268.806 110.114 270.05 110.848 271.204 111.732C272.148 112.451 272.987 113.261 273.631 114.265C275.175 116.647 274.74 120.813 271.054 122.297C269.63 122.866 268.147 123.031 266.648 123.001C264.61 122.941 262.677 122.417 260.804 121.607C259.066 120.843 257.462 119.839 255.904 118.775C255.784 118.7 255.679 118.535 255.469 118.61C255.469 120.753 255.469 122.896 255.469 125.039C255.469 125.309 255.634 125.354 255.829 125.399C258.391 126.088 261.014 126.568 263.666 126.762C266.034 126.942 268.402 126.927 270.769 126.568C272.553 126.298 274.291 125.848 275.939 125.069C278.232 123.99 280.075 122.417 281.214 120.109C281.933 118.67 282.248 117.127 282.323 115.523C282.473 112.406 281.619 109.634 279.611 107.237C278.457 105.858 277.063 104.749 275.58 103.73C273.676 102.441 271.638 101.377 269.63 100.223C268.491 99.564 267.353 98.8897 266.304 98.0805C265.434 97.4211 264.64 96.6719 264.041 95.7428C263.277 94.544 263.037 93.2252 263.352 91.8466C263.711 90.1832 264.82 89.1942 266.379 88.6697C268.192 88.0553 270.02 88.1003 271.863 88.4899C274.036 88.9544 275.999 89.9285 277.842 91.1273C278.457 91.5169 279.041 91.9215 279.656 92.3411ZM298.162 86.8715C297.713 86.9464 297.263 87.0213 296.799 87.1112C293.922 87.6357 291.044 88.1452 288.167 88.6697C287.763 88.7446 286.714 88.9394 286.084 89.0593C285.65 89.1343 285.71 89.9285 285.71 90.2582C285.71 90.8576 285.77 91.3071 286.039 91.3821C287.763 91.8766 288.692 92.9255 289.141 94.8287C289.171 94.9635 289.201 95.1134 289.231 95.2483C289.441 96.3422 289.471 97.8857 289.471 98.9946C289.471 105.723 289.471 112.451 289.471 119.18C289.471 119.3 289.471 119.435 289.471 119.554C289.486 119.929 289.486 119.929 289.876 119.929C289.95 119.929 290.025 119.929 290.085 119.929C292.603 119.929 295.12 119.929 297.638 119.929C298.282 119.929 298.222 119.989 298.222 119.375C298.222 108.72 298.222 98.0655 298.222 87.4259C298.222 87.2311 298.267 87.0513 298.162 86.8715Z" fill="#6017D8"/>
<path d="M298.328 70.3127C298.313 70.2078 298.283 70.1178 298.253 70.0429C297.489 67.5404 295.166 65.7122 292.424 65.7122C289.067 65.7122 286.325 68.4545 286.325 71.8561C286.325 72.7103 286.504 73.5345 286.819 74.2838C287.089 74.9281 286.789 75.6774 286.145 75.9471C286.01 76.0071 285.875 76.037 285.74 76.052C285.53 76.067 285.411 76.082 285.381 76.082C284.047 76.1419 283.373 75.9621 282.189 75.7074C278.322 74.8382 266.964 64.0788 240.035 60.9169C227.118 59.4033 216.898 61.6961 209.045 64.843C200.534 68.2597 185.563 68.5744 202.781 61.9209C217.452 56.2564 237.622 51.2363 262.003 52.0605C290.191 53.0046 305.895 63.4344 308.488 65.3825C310.076 66.5663 308.083 68.4545 300.905 71.6463C299.961 72.0659 298.852 71.6463 298.433 70.7023C298.403 70.5524 298.358 70.4325 298.328 70.3127Z" fill="#6017D8"/>
<path d="M1199 85.4296C1199 79.1796 1202.51 77.7053 1208.41 77.7053H1218.26C1225.69 77.7053 1226.72 80.3867 1226.72 84.5446V85.2237H1220.29C1220.29 83.1009 1219.08 82.8359 1216.99 82.8359H1209.88C1206.58 82.8359 1205.73 83.6311 1205.73 87.2873V89.9402C1205.73 93.5987 1206.58 94.3939 1209.88 94.3939H1216.87C1218.58 94.3939 1220.29 94.1288 1220.29 92.0652V91.4452H1212.15V87.0223H1226.84V93.097C1226.84 99.2287 1223.65 99.5244 1216.28 99.5244H1208.41C1202.51 99.5244 1199 98.0501 1199 91.8001V85.4296Z" fill="#6017D8"/>
<path d="M1228.46 77.9402H1251.81V82.8933H1235.01V86.3151H1250.93V90.7381H1235.01V94.1578H1252.2V99.2883H1228.46V77.9402Z" fill="#6017D8"/>
<path d="M1254.18 77.9399H1260.73V99.2881H1254.18V77.9399Z" fill="#6017D8"/>
<path d="M1262.7 85.4296C1262.7 79.1796 1266.21 77.7053 1272.11 77.7053H1279.8C1289.12 77.7053 1290.33 79.7098 1290.27 85.7539H1283.73V85.1646C1283.73 83.6311 1282.61 83.1886 1280.66 83.1886H1273.52C1270.07 83.1886 1269.43 84.8119 1269.43 87.4648V89.765C1269.43 92.8604 1270.07 94.0412 1273.17 94.0412H1280.16C1283.11 94.0412 1283.99 93.7454 1283.99 91.0903H1290.54V93.097C1290.54 96.6941 1289.24 99.5244 1282.66 99.5244H1272.11C1266.21 99.5244 1262.7 98.0501 1262.7 91.8001V85.4296Z" fill="#6017D8"/>
<path d="M1298.41 89.7645C1298.41 92.8599 1299.06 94.0407 1302.16 94.0407H1310.53C1313.63 94.0407 1314.27 92.8599 1314.27 89.7645V87.4643C1314.27 84.8114 1313.63 83.1881 1310.18 83.1881H1302.51C1299.06 83.1881 1298.41 84.8114 1298.41 87.4643V89.7645ZM1291.69 85.4292C1291.69 79.1792 1295.2 77.7048 1301.1 77.7048H1311.59C1317.49 77.7048 1321 79.1792 1321 85.4292V91.7996C1321 98.0496 1317.49 99.524 1311.59 99.524H1301.1C1295.2 99.524 1291.69 98.0496 1291.69 91.7996V85.4292Z" fill="#6017D8"/>
<g clip-path="url(#clip0_511_976)">
<path fill-rule="evenodd" clip-rule="evenodd" d="M870 62H977L924.088 115H870V62ZM922.912 97.5689V72.6H933.495C943.607 72.6 948.31 75.8978 948.31 83.9067C948.31 90.9733 943.371 94.9778 935.141 94.9778H931.848V104.4H915.857L914.681 100.396C911.154 101.573 907.156 101.338 903.629 100.396L901.982 104.4H893.046L893.516 102.28C890.93 104.636 886.226 105.578 883.169 105.578C878.701 105.578 874.938 104.636 871.411 102.516L874.703 96.1556C878.231 98.2756 880.582 98.7467 883.404 98.5111C885.051 98.5111 887.402 98.04 887.637 95.92C887.637 94.2711 885.286 93.3289 882.229 92.3867C879.877 91.68 877.29 90.7378 875.174 89.3244C872.587 87.44 871.411 85.0844 871.411 81.7867C871.646 79.4311 872.352 77.3111 873.998 75.6622C876.349 73.3067 880.112 71.8933 884.58 71.8933C888.343 71.8933 893.046 72.8356 896.574 74.72L892.811 81.08C889.466 79.4049 887.608 79.2188 885.75 79.0327C885.518 79.0094 885.286 78.9862 885.051 78.96C881.993 78.7244 880.347 79.9022 880.347 81.08C880.347 82.7289 883.404 83.9067 886.226 84.8489C890.459 86.2622 895.868 88.1467 896.809 93.3289L904.569 72.6H913.741L922.912 97.5689ZM909.037 82.7289L905.745 93.3289C907.862 94.0356 910.213 94.0356 912.565 93.3289L909.273 82.7289H909.037ZM931.848 79.4311V87.9111H934.2C937.257 87.9111 939.609 86.7333 939.609 83.4356C939.609 80.3733 937.257 79.4311 934.2 79.4311H931.848Z" fill="#6017D8"/>
</g>
<path d="M550.837 86.0324V88.2016C550.83 89.4287 551.314 90.6084 552.183 91.4812C553.051 92.354 554.234 92.8484 555.47 92.8557H558.322V98.446C558.322 98.8019 558.179 99.1433 557.926 99.3949C557.672 99.6466 557.329 99.788 556.97 99.788H539.294C538.756 99.788 538.241 99.5759 537.86 99.1984C537.48 98.8209 537.266 98.3089 537.266 97.775V81.2263C537.266 80.962 537.318 80.7001 537.42 80.4558C537.522 80.2115 537.671 79.9894 537.859 79.8023C538.047 79.6152 538.27 79.4667 538.516 79.3652C538.762 79.2638 539.026 79.2115 539.292 79.2112H558.272V72H538.766C537.403 71.9989 536.059 72.3146 534.841 72.9216C533.136 73.746 531.759 75.1136 530.928 76.8061C530.317 78.015 529.999 79.3493 530 80.7021V98.294C529.998 99.6486 530.316 100.985 530.928 102.195C531.76 103.886 533.137 105.251 534.841 106.074C536.059 106.681 537.403 106.997 538.766 106.996H553.484C554.797 106.994 556.056 106.475 556.985 105.553C557.914 104.631 558.437 103.381 558.439 102.077V100.12C558.437 100.078 558.444 100.036 558.459 99.9959C558.474 99.9561 558.496 99.9196 558.525 99.8885C558.554 99.8573 558.589 99.8322 558.628 99.8144C558.667 99.7967 558.709 99.7867 558.751 99.785L558.756 99.7848H558.781C562.723 99.6727 565.258 97.7718 565.258 94.4734V86.0324H550.837Z" fill="#6017D8"/>
<path d="M570.576 85.5848C570.576 90.0574 574.349 92.8526 579.474 92.8526H596.706C596.977 92.8326 597.25 92.8709 597.505 92.965C597.76 93.059 597.992 93.2067 598.185 93.3977C598.377 93.5888 598.526 93.8189 598.621 94.0722C598.715 94.3255 598.754 94.5961 598.734 94.8656V97.773C598.754 98.0424 598.715 98.3131 598.621 98.5664C598.526 98.8197 598.377 99.0498 598.185 99.2409C597.992 99.4319 597.76 99.5795 597.505 99.6736C597.25 99.7677 596.977 99.806 596.706 99.786H572.433V106.997H596.874C598.058 107.027 599.237 106.818 600.337 106.382C601.437 105.945 602.437 105.292 603.275 104.46C604.113 103.628 604.772 102.636 605.211 101.544C605.651 100.452 605.862 99.2822 605.832 98.1064V94.9223C605.862 93.7468 605.651 92.5775 605.212 91.4856C604.773 90.3936 604.114 89.4017 603.277 88.5703C602.439 87.7388 601.44 87.0852 600.34 86.6491C599.24 86.213 598.062 86.0036 596.878 86.0335H579.699C579.427 86.0536 579.155 86.0153 578.899 85.9212C578.644 85.8271 578.412 85.6795 578.22 85.4884C578.027 85.2973 577.879 85.0673 577.784 84.814C577.689 84.5606 577.651 84.29 577.671 84.0205V80.5533C577.654 80.3729 577.678 80.1911 577.74 80.0208C577.802 79.8505 577.901 79.6958 578.03 79.5678C578.159 79.4397 578.315 79.3414 578.486 79.2798C578.658 79.2181 578.841 79.1948 579.023 79.2113H602.9V72.0001H582.457C581.151 71.9928 579.895 72.501 578.965 73.4129C578.036 74.3248 577.51 75.5657 577.502 76.8628V78.8758C577.505 78.9614 577.474 79.0448 577.416 79.1077C577.357 79.1706 577.276 79.2078 577.19 79.2111L577.185 79.2113H577.16C573.672 79.3235 570.576 81.2799 570.576 85.5848Z" fill="#6017D8"/>
<path d="M611.747 96.7653V106.996H619.011V90.9548C619.011 90.2283 619.574 90.1161 619.968 90.5072L637.088 106.999H647L628.862 89.4985L646.995 72H637.083L619.963 88.492C619.569 88.8831 619.007 88.772 619.007 88.0444V72H611.747V82.2863C611.747 85.9758 614.168 88.2121 618.506 89.3864C618.675 89.4419 618.675 89.6097 618.506 89.6663C614.168 90.8395 611.747 93.0759 611.747 96.7653Z" fill="#6017D8"/>
<path fill-rule="evenodd" clip-rule="evenodd" d="M1038 74.7439V102.896H1042.03L1042.1 82.9519L1050.67 102.896H1054.2L1062.62 83.1319V102.896H1066.8L1066.73 74.7439H1061.47L1052.44 97.1359L1043.18 74.7439H1038ZM1084.3 84.7519V86.3719C1084.26 86.4559 1084.14 86.5735 1083.94 86.3719L1083.91 86.3431C1083.58 86.0105 1081.99 84.3919 1078.57 84.3919C1073.68 84.3919 1069.61 87.7399 1069.61 93.7159C1069.61 100.088 1073.96 103.256 1078.61 103.256C1080.77 103.256 1082.93 102.356 1083.97 101.204C1084.2 101.031 1084.28 101.204 1084.3 101.312V102.896H1088.18V84.7519H1084.3ZM1091.57 102.896V84.7519H1095.46V87.0919C1095.64 86.9119 1096.16 86.3791 1096.82 85.6879C1097.49 84.9967 1098.19 84.7519 1098.84 84.7519H1105.18V80.8639L1108.2 77.0479H1108.99V84.7519H1112.81V88.2079H1108.99V97.6039C1108.99 99.0799 1110.11 99.7279 1111.3 99.7279C1112.25 99.7279 1112.99 99.4879 1113.24 99.3679V102.896C1112.92 103.016 1111.96 103.256 1110.72 103.256C1106.17 103.256 1105.13 99.9199 1105.18 98.2519V88.2079H1099.81C1096.93 88.2079 1095.59 90.8479 1095.46 92.1679V102.896H1091.57ZM1116.26 84.7519V102.896H1120.12V84.7519H1116.26ZM1123.5 102.896V84.7519H1127.35V86.1559C1127.35 86.4439 1127.42 86.4799 1127.53 86.4799C1127.62 86.4799 1127.66 86.3839 1127.68 86.3359C1128.12 85.6759 1129.63 84.3559 1132.1 84.3559C1137.66 84.3559 1139.22 88.9159 1139.3 91.1959V102.896H1135.45V91.8799C1135.52 90.5239 1134.85 87.8119 1131.56 87.8119C1128.76 87.8119 1127.35 90.4399 1127.35 92.0239V102.896H1123.5ZM1084.66 93.824C1084.66 97.676 1082.28 99.8 1079 99.8C1075.58 99.8 1073.35 97.136 1073.35 93.824C1073.35 90.584 1075.44 87.848 1079 87.848C1082.57 87.848 1084.66 90.08 1084.66 93.824ZM1143.66 103.256C1144.95 103.256 1146 102.208 1146 100.916C1146 99.6236 1144.95 98.5759 1143.66 98.5759C1142.37 98.5759 1141.32 99.6236 1141.32 100.916C1141.32 102.208 1142.37 103.256 1143.66 103.256Z" fill="#6017D8"/>
<path fill-rule="evenodd" clip-rule="evenodd" d="M767.724 81.1191C769.213 81.1191 770.42 79.9122 770.42 78.4235C770.42 76.9347 769.213 75.7278 767.724 75.7278C766.235 75.7278 765.028 76.9347 765.028 78.4235C765.028 79.9122 766.235 81.1191 767.724 81.1191ZM769.778 83.0446H765.67V100.887H769.778V83.0446ZM720.356 91.902C720.356 91.9573 720.356 92.0125 720.355 92.0675V100.887H716.119V99.6924C714.693 100.611 712.997 101.144 711.178 101.144C706.109 101.144 702 97.0064 702 91.902C702 86.7976 706.109 82.6597 711.178 82.6597C716.247 82.6597 720.356 86.7976 720.356 91.902ZM711.178 97.1647C714.05 97.1647 716.377 94.8084 716.377 91.9018C716.377 88.9951 714.05 86.6388 711.178 86.6388C708.307 86.6388 705.98 88.9951 705.98 91.9018C705.98 94.8084 708.307 97.1647 711.178 97.1647ZM781.392 101.144C786.461 101.144 790.57 97.0064 790.57 91.902C790.57 86.7976 786.461 82.6597 781.392 82.6597C776.323 82.6597 772.214 86.7976 772.214 91.902C772.214 97.0064 776.323 101.144 781.392 101.144ZM781.393 97.165C784.264 97.165 786.591 94.8087 786.591 91.9021C786.591 88.9954 784.264 86.6391 781.393 86.6391C778.522 86.6391 776.194 88.9954 776.194 91.9021C776.194 94.8087 778.522 97.165 781.393 97.165ZM722.025 94.9186H725.812C725.812 96.2664 726.839 97.3575 728.379 97.3575C729.599 97.3575 730.561 96.459 730.561 94.7902C730.561 93.3585 728.966 92.9901 727.675 92.6918C727.288 92.6023 726.928 92.5192 726.646 92.4155C725.427 91.9662 723.18 90.8109 723.18 87.7943C723.18 84.7777 725.106 82.7239 728.251 82.7239C730.767 82.7239 732.123 84.1787 732.487 84.9703L730.112 87.345C729.791 86.7032 729.342 86.1897 728.379 86.1897C727.866 86.1897 726.967 86.5107 726.967 87.666C726.967 88.7011 727.611 88.9034 729.305 89.4359C729.817 89.5967 730.424 89.7876 731.139 90.0407C734.22 91.1318 734.412 94.02 734.412 95.3037C734.412 96.5873 734.22 101.144 728.251 101.144C723.476 101.144 722.025 97.5501 722.025 94.9186ZM735.759 83.0447H740.06V93.8916C740.06 94.4692 740.252 97.4216 743.654 97.4216C747.056 97.4216 747.826 94.7901 747.826 93.8916V83.0447H751.805V95.111L751.804 95.1125V100.887H747.696V99.4871C746.402 100.412 744.852 101.08 743.012 101.08C738.648 101.08 735.759 97.9351 735.759 93.8916V83.0447ZM758.866 84.3883C760.132 83.4266 761.626 82.7125 763.357 82.6627V86.5841C763.254 86.5781 763.147 86.575 763.037 86.575C759.635 86.575 758.737 89.2065 758.737 90.1051V100.952H754.757V88.8856L754.758 88.8841V83.1092H758.866V84.3883ZM792.368 90.8751C792.368 86.3379 796.046 82.6597 800.583 82.6597C805.121 82.6597 808.799 86.3379 808.799 90.8751V100.888H804.82V90.8751C804.82 88.5356 802.923 86.6391 800.584 86.6391C798.244 86.6391 796.348 88.5356 796.348 90.8751V100.888H792.368V90.8751Z" fill="#6017D8"/>
<defs>
<clipPath id="clip0_511_976">
<rect width="107" height="53" fill="white" transform="translate(870 62)"/>
</clipPath>
</defs>
</svg>
