<svg width="256" height="256" viewBox="0 0 256 256" fill="none" xmlns="http://www.w3.org/2000/svg">
<g clip-path="url(#clip0_497_746)">
<rect width="256" height="256" fill="white"/>
<path fill-rule="evenodd" clip-rule="evenodd" d="M145.623 73.6438C165.337 75.5242 182.843 61.0674 184.723 41.3535C185.066 37.7612 184.866 34.2421 184.191 30.8776C197.195 42.5462 204.683 60.0204 202.897 78.7482C199.908 110.086 172.08 133.067 140.742 130.078C109.404 127.089 86.4228 99.2611 89.4121 67.9231C91.1438 49.7694 101.211 34.42 115.466 25.299C114.373 28.2057 113.642 31.3037 113.333 34.5437C111.452 54.2576 125.909 71.7633 145.623 73.6438Z" fill="#D9D9D9"/>
<g style="mix-blend-mode:multiply">
<ellipse cx="125" cy="225" rx="64" ry="12" fill="#E4E4F4"/>
</g>
<path d="M176.238 134.754C178.151 126.245 180.373 116.955 184.733 109.401V109.401C197.022 88.1174 187.015 59.3346 162.383 45.1133C137.751 30.892 107.821 36.6174 95.5329 57.9014V57.9014C91.172 65.4546 84.2375 72.0237 77.8244 77.9348C74.3872 81.1031 71.7306 85.1282 69.2207 89.4754C57.6227 109.564 68.9899 137.84 98.8832 155.099C128.776 172.357 158.948 168.064 170.546 147.975C173.056 143.628 175.213 139.315 176.238 134.754Z" fill="black"/>
<path d="M193.879 103.935C186.231 101.887 179.871 97.8805 177.475 95.9731L187.743 74.1885C188.822 79.4928 189.27 92.2496 194.974 102.429C195.41 103.206 194.74 104.166 193.879 103.935Z" fill="black"/>
<path d="M164.852 33.837C153.714 28.3298 145.518 34.9913 142.813 39.0104L156.95 53.5235L172.003 71.4517C176.482 77.6941 185.514 87.4505 185.81 76.5367C186.181 62.8943 178.776 40.721 164.852 33.837Z" fill="black"/>
<path d="M194.148 77.6308C191.17 69.1495 183.117 60.7895 179.829 59.0357C175.815 68.6135 183.382 90.1518 187.3 98.3578C190.824 94.9826 197.126 86.1121 194.148 77.6308Z" fill="black" stroke="black"/>
<path d="M114.047 36.8354C126.229 30.9359 135.702 34.3271 143.497 38.8271L111.292 56.6069C107.135 52.4745 101.865 42.7349 114.047 36.8354Z" fill="black"/>
<path d="M87.6028 57.7995C92.0333 51.0324 103.743 46.0908 110.561 46.3707C106.853 56.5717 97.6286 76.4784 90.3962 74.4969C81.3557 72.02 82.0646 66.2583 87.6028 57.7995Z" fill="black"/>
<path d="M186.653 121.914C190.298 114.694 188.723 102.083 185.071 96.3173C178.091 104.629 165.464 122.571 170.796 127.844C177.461 134.435 182.097 130.94 186.653 121.914Z" fill="black"/>
<path d="M164.648 117.13C165.109 110.622 166.936 103.973 170.198 98.3228V98.3228C179.258 82.6304 171.345 66.453 155.384 57.2375C139.422 48.0221 121.456 49.2584 112.396 64.9508V64.9508C109.134 70.6009 104.288 75.5073 98.8829 79.1603C95.7849 81.2538 93.1915 83.9574 91.2926 87.2464C82.7416 102.057 91.5128 123.13 110.884 134.314C130.254 145.498 152.89 142.557 161.441 127.746C163.34 124.457 164.384 120.86 164.648 117.13Z" fill="white"/>
<path d="M121.472 81.9336C130.08 87.362 132.112 94.0051 132.918 97.1481L109.316 138.028C100.599 130.126 82.2178 112.514 78.4285 105.277C74.6392 98.0406 85.6152 82.8428 91.5769 76.1484C95.6684 72.3907 104.025 65.6638 104.72 68.8188L104.72 68.8188C105.156 70.7995 105.957 74.4381 106.282 77.4608C106.396 78.5126 108.78 79.7982 109.78 79.4541C112.393 78.5553 116.2 78.6081 121.472 81.9336Z" fill="black"/>
<path d="M151.818 99.4533C142.813 94.7133 136.044 96.2749 132.919 97.1481L109.317 138.028C120.518 141.626 144.961 148.739 153.123 148.402C161.285 148.066 168.959 130.961 171.776 122.451C172.984 117.029 174.631 106.428 171.552 107.404L171.552 107.404C169.618 108.017 166.067 109.143 163.286 110.372C162.319 110.8 160.013 109.378 159.811 108.339C159.283 105.627 157.334 102.357 151.818 99.4533Z" fill="black"/>
<path d="M165.421 84.6411C156.586 74.0054 156.604 55.9111 157.718 48.1934C160.392 49.7372 168.223 54.7773 178.154 62.5867C188.085 70.3961 183.086 89.939 179.345 98.7343C178.384 98.4681 174.255 95.2767 165.421 84.6411Z" fill="black"/>
<path d="M124.645 92.4512L127.019 98.0088C128.38 101.196 131.682 103.102 135.123 102.687L141.123 101.965C145.742 101.408 150.067 104.333 151.271 108.827C153.031 115.394 147.414 121.584 140.707 120.469L132.901 119.17C125.432 117.928 118.666 114.021 113.855 108.174L108.828 102.063C104.508 96.8125 107.06 88.853 113.628 87.0932C118.122 85.8891 122.817 88.1727 124.645 92.4512Z" fill="white" stroke="black"/>
<rect x="129.45" y="101.155" width="2" height="16" transform="rotate(30 129.45 101.155)" fill="black"/>
<rect x="122.593" y="89.3035" width="2" height="19.9846" transform="rotate(45 122.593 89.3035)" fill="black"/>
<rect width="2" height="19.9846" transform="matrix(-0.965926 -0.258819 -0.258819 0.965926 144.934 102.201)" fill="black"/>
<g style="mix-blend-mode:multiply">
<path d="M107.938 90.414C108.977 89.2816 110.957 89.3856 114.568 91.932C116.529 93.315 117.822 94.9654 119.965 97.5707C122.344 100.463 125.125 102.646 128.589 104.646C132.053 106.646 135.334 107.963 139.029 108.577C142.356 109.131 144.432 109.425 146.611 110.432C150.621 112.286 151.701 113.948 151.24 115.414L153.99 110.651L151.227 104.437L143.865 100.187L130.089 102.048L124.813 89.1868L117.452 84.9368L110.688 85.6509L107.938 90.414Z" fill="#E4E4F4"/>
</g>
<circle cx="129.741" cy="77.6512" r="11.5" transform="rotate(30 129.741 77.6512)" stroke="black" stroke-width="2"/>
<circle cx="151.392" cy="90.1512" r="11.5" transform="rotate(30 151.392 90.1512)" stroke="black" stroke-width="2"/>
<circle cx="132.389" cy="82.0663" r="6" transform="rotate(30 132.389 82.0663)" fill="black"/>
<circle cx="146.379" cy="87.8343" r="6" transform="rotate(30 146.379 87.8343)" fill="black"/>
<path d="M124.959 63.1536C124.469 62.1634 123.27 61.7576 122.28 62.2472C121.289 62.7368 120.884 63.9363 121.373 64.9265L124.959 63.1536ZM121.373 64.9265L122.971 68.1585L126.557 66.3856L124.959 63.1536L121.373 64.9265Z" fill="black"/>
<path d="M165.473 86.5442C166.575 86.4731 167.526 87.309 167.597 88.4113C167.669 89.5136 166.833 90.4648 165.73 90.5359L165.473 86.5442ZM165.73 90.5359L162.132 90.7679L161.875 86.7762L165.473 86.5442L165.73 90.5359Z" fill="black"/>
<rect x="141.95" y="79.5042" width="2" height="9" transform="rotate(30 141.95 79.5042)" fill="black"/>
<path d="M133.111 58.813C134.427 60.5347 138.097 64.5781 142.254 66.9781" stroke="black" stroke-width="12" stroke-linecap="round"/>
<path d="M166.021 77.813C163.872 77.5347 158.535 76.3781 154.378 73.9781" stroke="black" stroke-width="12" stroke-linecap="round"/>
<g style="mix-blend-mode:multiply">
<path d="M178.718 86.8222L177.146 105.545C175.265 105.689 171.935 105.068 168.005 102.764C168.646 101.232 169.377 99.7459 170.198 98.3229C174.511 90.853 174.975 83.2738 172.558 76.3874L178.718 86.8222ZM153.884 59.8357C161.422 64.1875 166.848 70.0654 169.385 76.4577C171.887 82.7627 171.672 89.7704 167.6 96.8229C166.807 98.1963 166.095 99.621 165.461 101.083C163.925 99.9514 162.329 98.5634 160.72 96.8684C160.952 96.5475 161.172 96.2124 161.375 95.8616C164.55 90.3614 162.665 83.328 157.165 80.1523C155.071 78.943 152.753 78.4687 150.512 78.6473C148.843 70.7283 150.591 63.6077 152.642 59.1447C153.056 59.3675 153.471 59.5973 153.884 59.8357ZM166.675 66.4224C163.668 62.9264 159.84 59.8104 155.384 57.2376C154.948 56.9856 154.509 56.7422 154.07 56.5059C154.082 56.4864 154.095 56.4671 154.108 56.4478L160.621 56.1667L166.675 66.4224Z" fill="#E4E4F4"/>
</g>
<g style="mix-blend-mode:multiply">
<path fill-rule="evenodd" clip-rule="evenodd" d="M169.385 76.458C166.848 70.0655 161.421 64.1876 153.884 59.8356C146.346 55.4837 138.542 53.7228 131.737 54.7219C125.026 55.7073 119.066 59.3983 114.994 66.4508C111.474 72.5468 106.292 77.7742 100.563 81.6459C97.8193 83.4998 95.5491 85.874 93.8907 88.7464C90.1808 95.1722 90.1178 103.133 93.387 110.987C96.6576 118.845 103.218 126.424 112.384 131.716C121.549 137.008 131.393 138.899 139.833 137.803C148.27 136.707 155.133 132.672 158.843 126.246C160.501 123.374 161.422 120.221 161.656 116.918C162.144 110.02 164.08 102.919 167.6 96.8228C171.671 89.7703 171.888 82.763 169.385 76.458ZM170.198 98.3228C166.936 103.973 165.109 110.622 164.648 117.13C164.384 120.86 163.34 124.457 161.441 127.746C152.89 142.557 130.254 145.498 110.884 134.314C91.5128 123.13 82.7416 102.057 91.2926 87.2464C93.1915 83.9574 95.7849 81.2538 98.8829 79.1603C104.288 75.5073 109.134 70.6009 112.396 64.9508C121.456 49.2584 139.422 48.0221 155.384 57.2375C171.345 66.453 179.258 82.6304 170.198 98.3228Z" fill="#E4E4F4"/>
</g>
<circle cx="145.294" cy="74.6971" r="59" transform="rotate(30 145.294 74.6971)" stroke="black" stroke-width="5"/>
<path d="M118.617 154L128.276 156.588L116.171 195.247C115.928 196.025 116.668 196.752 117.442 196.494L128.522 192.801C133.457 191.156 139.366 189.568 143.044 193.246C144.919 195.122 145.973 197.665 145.973 200.317C145.973 202.97 144.919 205.513 143.044 207.388C139.366 211.067 133.457 209.479 128.522 207.834L108.885 201.138C107.39 200.628 106.546 199.047 106.955 197.522L118.617 154Z" fill="black"/>
<path d="M90.3182 137.662L83.2472 130.591L55.8198 160.403C55.2675 161.004 54.2677 160.726 54.1041 159.927L51.7626 148.484C50.7198 143.388 49.1407 137.477 44.1161 136.131C41.5543 135.444 38.8247 135.804 36.5279 137.13C34.231 138.456 32.555 140.64 31.8686 143.202C30.5223 148.227 34.8518 152.55 38.7438 156.001L54.3616 169.659C55.5502 170.699 57.3413 170.639 58.4578 169.522L90.3182 137.662Z" fill="black"/>
<circle cx="12" cy="12" r="15" transform="matrix(-2.58096e-08 1 1 2.58096e-08 203.248 109.699)" fill="white" stroke="black" stroke-width="6"/>
<rect width="8" height="32" transform="matrix(-2.58096e-08 1 1 2.58096e-08 171.248 117.699)" fill="black"/>
<g style="mix-blend-mode:multiply">
<path d="M216.394 120.504C215.93 113.308 210.329 108.342 207.587 106.759L201.587 117.151L200.801 126.512L211.425 136.11C213.275 133.907 216.858 127.7 216.394 120.504Z" fill="#E4E4F4"/>
</g>
<circle cx="71.5569" cy="38.7388" r="15" transform="rotate(150 71.5569 38.7388)" fill="white" stroke="black" stroke-width="6"/>
<rect x="97.0205" y="74.8438" width="8" height="32" transform="rotate(150 97.0205 74.8438)" fill="black"/>
<g style="mix-blend-mode:multiply">
<path d="M72.0188 37.149C78.4829 33.9528 85.5838 36.3205 88.3262 37.9038L82.3262 48.2961L74.6121 53.6573L60.9877 49.2554C61.9714 46.5517 65.5547 40.3452 72.0188 37.149Z" fill="#E4E4F4"/>
</g>
<rect x="63.7314" y="53.5537" width="25" height="17" rx="8.5" transform="rotate(-15 63.7314 53.5537)" fill="black" stroke="black"/>
<rect x="67.873" y="69.0085" width="25" height="17" rx="8.5" transform="rotate(-15 67.873 69.0085)" fill="black" stroke="black"/>
<rect x="67.0439" y="125.229" width="33" height="21" rx="8.5" transform="rotate(45 67.0439 125.229)" fill="black" stroke="black"/>
<rect x="52.9014" y="139.372" width="33" height="21" rx="8.5" transform="rotate(45 52.9014 139.372)" fill="black" stroke="black"/>
<rect x="0.612372" y="-0.353553" width="33" height="21" rx="8.5" transform="matrix(-0.965926 -0.258819 -0.258819 0.965926 141.385 168.362)" fill="black" stroke="black"/>
<rect x="0.612372" y="-0.353553" width="33" height="21" rx="8.5" transform="matrix(-0.965926 -0.258819 -0.258819 0.965926 136.208 187.68)" fill="black" stroke="black"/>
<rect x="0.612372" y="0.353553" width="25" height="17" rx="8.5" transform="matrix(-0.258819 -0.965926 -0.965926 0.258819 205.404 135.56)" fill="black" stroke="black"/>
<rect x="0.612372" y="0.353553" width="25" height="17" rx="8.5" transform="matrix(-0.258819 -0.965926 -0.965926 0.258819 189.949 139.701)" fill="black" stroke="black"/>
<path d="M140.056 152.77C147.079 153.938 161.208 160.133 161.536 175.564C161.865 190.996 172.318 196.223 177.504 196.907" stroke="black" stroke-width="11"/>
<rect x="178.348" y="184.447" width="16" height="24" rx="4" transform="rotate(7.89932 178.348 184.447)" fill="white" stroke="black" stroke-width="4"/>
<rect x="177.427" y="200.96" width="13.4367" height="7" transform="rotate(7.93268 177.427 200.96)" fill="#E4E4F4" style="mix-blend-mode:multiply"/>
<rect width="256" height="256" fill="#6017D8" style="mix-blend-mode:screen"/>
</g>
<defs>
<clipPath id="clip0_497_746">
<rect width="256" height="256" fill="white"/>
</clipPath>
</defs>
</svg>
