<svg width="256" height="256" viewBox="0 0 256 256" fill="none" xmlns="http://www.w3.org/2000/svg">
<g clip-path="url(#clip0_497_687)">
<rect width="256" height="256" fill="white"/>
<g style="mix-blend-mode:multiply">
<ellipse cx="125" cy="215" rx="64" ry="12" fill="#E4E4F4"/>
</g>
<path d="M181.319 110.75C178.721 102.424 176 93.2676 176 84.5459V84.5459C176 59.9692 152.943 40.0459 124.5 40.0459C96.0573 40.0459 73 59.9692 73 84.5459V84.5459C73 93.2676 70.279 102.424 67.6808 110.75C66.2881 115.212 66 120.026 66 125.046C66 148.242 89.9822 167.046 124.5 167.046C159.018 167.046 183 148.242 183 125.046C183 120.026 182.712 115.212 181.319 110.75Z" fill="black"/>
<path d="M181.188 75.2393C173.54 77.2893 166.028 77.0001 163 76.5459L161 52.5459C164.586 56.6001 171.353 67.4237 181.382 73.3872C182.148 73.8425 182.048 75.0087 181.188 75.2393Z" fill="black"/>
<path d="M121 29.046C108.6 29.846 104.833 39.7127 104.5 44.546L124 50.046L146 58.046C153 61.2127 165.7 65.146 160.5 55.546C154 43.546 136.5 28.046 121 29.046Z" fill="black"/>
<path d="M168.268 52.3247C161.448 46.4686 150.294 43.2553 146.569 43.3806C147.883 53.6818 165.204 68.5515 172.701 73.6986C174.065 69.014 175.087 58.1807 168.268 52.3247Z" fill="black" stroke="black"/>
<path d="M78.4998 57.0457C86.0998 45.8457 95.9998 44.0457 105 44.0457L85.9998 75.5457C80.3332 74.0457 70.8998 68.2457 78.4998 57.0457Z" fill="black"/>
<path d="M66.0814 88.4228C66.5348 80.3471 74.2046 70.2128 80.2497 67.0459C82.1388 77.7343 84.1035 99.5863 76.8493 101.486C67.7816 103.862 65.5147 98.5174 66.0814 88.4228Z" fill="black"/>
<path d="M183.919 94.4228C183.465 86.3471 175.795 76.2128 169.75 73.0459C167.861 83.7343 165.896 105.586 173.151 107.486C182.218 109.862 184.485 104.517 183.919 94.4228Z" fill="black"/>
<path d="M59.5 118.546C59.9268 110.864 67.3333 104.046 70.5 101.546L69 138.546C67.3333 139.379 65 140.046 58.5 138.546C54.2781 137.572 51.6951 135.664 50.2725 133.701C49.7108 132.926 50.9611 131.295 51.9024 131.121C53.1057 130.898 54.4461 130.498 55.5 130.046C59 128.546 59 127.546 59.5 118.546Z" fill="black"/>
<path d="M191.107 121.946C191.783 113.964 186.345 106.166 183.542 103.264L176.002 106.786C171.757 115.798 166.198 138.256 180.072 140.131C188.526 141.274 194.519 139.836 198.278 138.359C199.297 137.959 198.868 135.832 197.802 135.581C197.496 135.509 197.183 135.428 196.865 135.338C193.464 134.374 190.263 131.923 191.107 121.946Z" fill="black"/>
<path d="M162.47 101.282C159.615 95.4155 157.872 88.7439 157.872 82.2197V82.2197C157.872 64.0997 142.931 54.0459 124.5 54.0459C106.069 54.0459 91.128 64.0997 91.128 82.2197V82.2197C91.128 88.7439 89.3852 95.4155 86.5303 101.282C84.8942 104.644 84 108.282 84 112.08C84 129.182 102.132 143.046 124.5 143.046C146.868 143.046 165 129.182 165 112.08C165 108.282 164.106 104.644 162.47 101.282Z" fill="white"/>
<path d="M107.48 92.3886C117.649 92.7861 122.73 97.523 125 99.8418V147.046C113.5 144.561 88.7751 138.499 81.8751 134.127C74.9751 129.754 76.8817 111.105 78.6974 102.326C80.3619 97.0262 84.2356 87.0222 86.4145 89.4073L86.4146 89.4073C87.7825 90.9046 90.2954 93.6552 92.0889 96.1101C92.7129 96.9643 95.4206 96.8855 96.1148 96.0874C97.9283 94.0025 101.251 92.145 107.48 92.3886Z" fill="black"/>
<path d="M142.52 92.3886C132.351 92.7861 127.27 97.523 125 99.8418V147.046C136.5 144.561 161.225 138.499 168.125 134.127C175.025 129.754 173.118 111.105 171.303 102.326C169.638 97.0262 165.764 87.0222 163.585 89.4073L163.585 89.4073C162.218 90.9046 159.705 93.6552 157.911 96.1101C157.287 96.9643 154.579 96.8855 153.885 96.0874C152.072 94.0025 148.749 92.145 142.52 92.3886Z" fill="black"/>
<path d="M146.895 72.7591C133.926 67.9655 124.895 52.2863 122 45.0459C125.088 45.0459 134.389 45.4953 146.895 47.2929C159.4 49.0905 164.842 68.5147 166 78.0021C165.035 78.2518 159.863 77.5527 146.895 72.7591Z" fill="black"/>
<path d="M115.487 99.9109L120.321 103.537C123.094 105.616 126.906 105.616 129.679 103.537L134.513 99.9109C138.235 97.1194 143.444 97.4895 146.733 100.779C151.541 105.587 149.772 113.756 143.405 116.144L135.996 118.922C128.906 121.581 121.094 121.581 114.004 118.922L106.595 116.144C100.228 113.756 98.4586 105.587 103.267 100.779C106.556 97.4895 111.765 97.1194 115.487 99.9109Z" fill="white" stroke="black"/>
<rect x="124" y="105.046" width="2" height="16" fill="black"/>
<rect x="112.136" y="98.2109" width="2" height="19.9846" transform="rotate(15 112.136 98.2109)" fill="black"/>
<rect width="2" height="19.9846" transform="matrix(-0.965926 0.258819 0.258819 0.965926 137.932 98.2109)" fill="black"/>
<g style="mix-blend-mode:multiply">
<path d="M100 106.5C100.333 105 102.1 104.1 106.5 104.5C108.89 104.717 110.835 105.5 113.993 106.685C117.5 108 121 108.5 125 108.5C129 108.5 132.5 108 136.007 106.685C139.165 105.5 141.11 104.717 143.5 104.5C147.9 104.1 149.667 105 150 106.5V101L144.5 97H136L125 105.5L114 97H105.5L100 101V106.5Z" fill="#E4E4F4"/>
</g>
<circle cx="112.5" cy="84.5459" r="11.5" stroke="black" stroke-width="2"/>
<circle cx="137.5" cy="84.5459" r="11.5" stroke="black" stroke-width="2"/>
<circle cx="117" cy="87.0459" r="6" fill="black"/>
<circle cx="132" cy="85.0459" r="6" fill="black"/>
<path d="M101.109 74.3818C100.19 73.7691 98.9486 74.0174 98.3359 74.9365C97.7232 75.8556 97.9715 77.0973 98.8906 77.71L101.109 74.3818ZM98.8906 77.71L101.891 79.71L104.109 76.3818L101.109 74.3818L98.8906 77.71Z" fill="black"/>
<path d="M147.891 74.3818C148.81 73.7691 150.051 74.0174 150.664 74.9365C151.277 75.8556 151.028 77.0973 150.109 77.71L147.891 74.3818ZM150.109 77.71L147.109 79.71L144.891 76.3818L147.891 74.3818L150.109 77.71Z" fill="black"/>
<rect x="124" y="80.0459" width="2" height="9" fill="black"/>
<path d="M106 66.5459C108 67.3792 113.2 69.0459 118 69.0459" stroke="black" stroke-width="12" stroke-linecap="round"/>
<path d="M144 66.5459C142 67.3792 136.8 69.0459 132 69.0459" stroke="black" stroke-width="12" stroke-linecap="round"/>
<g style="mix-blend-mode:multiply">
<path d="M159.5 68L167.5 85C165.943 86.0654 162.749 87.1927 158.193 87.1621C157.982 85.5155 157.872 83.8629 157.872 82.2197C157.872 73.5942 154.484 66.7985 148.948 62.043L159.5 68ZM124.5 57.0459C133.204 57.046 140.842 59.4231 146.235 63.6904C151.555 67.8995 154.872 74.0762 154.872 82.2197C154.872 83.8057 154.967 85.3957 155.149 86.9785C153.253 86.7668 151.177 86.3626 148.937 85.6992C148.977 85.305 149 84.905 149 84.5C149 78.1488 143.851 73.0002 137.5 73C135.081 73 132.837 73.7479 130.985 75.0234C125.581 68.9997 123.534 61.9593 123.079 57.0684C123.549 57.0542 124.023 57.0459 124.5 57.0459ZM138.871 56.3545C134.519 54.8305 129.646 54.0459 124.5 54.0459C123.996 54.0459 123.495 54.0543 122.996 54.0693C122.997 54.0461 122.999 54.023 123 54L128.5 50.5L138.871 56.3545Z" fill="#E4E4F4"/>
</g>
<g style="mix-blend-mode:multiply">
<path fill-rule="evenodd" clip-rule="evenodd" d="M146.236 63.6904C140.843 59.4229 133.204 57.0459 124.5 57.0459C115.796 57.0459 108.157 59.4229 102.764 63.6904C97.4443 67.8995 94.128 74.0762 94.128 82.2197C94.128 89.2587 92.2537 96.3769 89.2279 102.595C87.779 105.572 87 108.763 87 112.08C87 119.5 90.926 126.426 97.6844 131.593C104.445 136.762 113.916 140.046 124.5 140.046C135.084 140.046 144.555 136.762 151.316 131.593C158.074 126.426 162 119.5 162 112.08C162 108.763 161.221 105.572 159.772 102.595C156.746 96.3769 154.872 89.2587 154.872 82.2197C154.872 74.0762 151.556 67.8995 146.236 63.6904ZM157.872 82.2197C157.872 88.7439 159.615 95.4155 162.47 101.282C164.106 104.644 165 108.282 165 112.08C165 129.182 146.868 143.046 124.5 143.046C102.132 143.046 84 129.182 84 112.08C84 108.282 84.8942 104.644 86.5303 101.282C89.3852 95.4155 91.128 88.7439 91.128 82.2197C91.128 64.0997 106.069 54.0459 124.5 54.0459C142.931 54.0459 157.872 64.0997 157.872 82.2197Z" fill="#E4E4F4"/>
</g>
<path d="M122.753 165.046H112.753L114.439 205.521C114.473 206.336 113.57 206.846 112.889 206.397L103.142 199.962C98.8013 197.096 93.505 194.032 89 196.633C86.7032 197.959 85.0272 200.144 84.3408 202.705C83.6543 205.267 84.0137 207.997 85.3398 210.294C87.9407 214.799 94.059 214.794 99.2515 214.482L119.953 213.097C121.528 212.991 122.753 211.683 122.753 210.104V165.046Z" fill="black"/>
<path d="M143 163.376L151.66 158.376L170.437 194.272C170.815 194.994 171.853 194.985 172.217 194.255L177.441 183.809C179.767 179.156 182.822 173.855 188.024 173.855C190.676 173.855 193.22 174.909 195.095 176.784C196.97 178.66 198.024 181.203 198.024 183.855C198.024 189.057 192.723 192.112 188.07 194.439L169.45 203.59C168.033 204.286 166.318 203.765 165.529 202.397L143 163.376Z" fill="black"/>
<path fill-rule="evenodd" clip-rule="evenodd" d="M195.318 17.5952C194.812 16.7225 195.385 15.6225 196.4 15.6143C204.272 15.5505 210.698 19.8096 213.939 28.1285C216.561 34.8592 214.677 43.0969 210.149 48.8612C208.328 51.1799 207.249 54.1511 208.043 56.9765L219.519 97.8384C220.077 99.8267 221.548 101.392 223.072 102.793C224.591 104.189 225.743 106.016 226.315 108.152C227.931 114.181 224.317 120.387 218.244 122.015C212.171 123.642 205.938 120.074 204.323 114.045C203.75 111.909 203.835 109.751 204.452 107.782C205.071 105.808 205.562 103.716 205.052 101.715L194.874 61.8248C194.059 58.631 191.118 56.5594 187.964 55.5437C182.998 53.9444 179.04 50.118 176.807 43.8379C175.075 38.9668 175.57 33.2602 177.688 28.2853C178.114 27.2843 179.471 27.2573 180.016 28.1963L187.865 41.7345C188.636 43.0642 190.348 43.517 191.689 42.7461L200.491 37.6854C203.174 36.1434 204.098 32.7374 202.556 30.0778L195.318 17.5952ZM214.003 105.511C211.013 106.312 209.234 109.368 210.029 112.336C210.825 115.304 213.893 117.06 216.883 116.259C219.873 115.458 221.652 112.403 220.857 109.435C220.061 106.467 216.993 104.71 214.003 105.511Z" fill="black"/>
<circle cx="73.3923" cy="171.105" r="15" transform="rotate(30 73.3923 171.105)" fill="white" stroke="black" stroke-width="6"/>
<rect x="91.9277" y="131" width="8" height="32" transform="rotate(30 91.9277 131)" fill="black"/>
<g style="mix-blend-mode:multiply">
<path d="M72.5 171.5C66.5 167.5 65 160.167 65 157H77L85.5 161L88.5 175C85.6667 175.5 78.5 175.5 72.5 171.5Z" fill="#E4E4F4"/>
</g>
<circle cx="12" cy="12" r="15" transform="matrix(0.5 0.866025 0.866025 -0.5 190.183 75.5461)" fill="white" stroke="black" stroke-width="6"/>
<rect width="8" height="32" transform="matrix(0.5 0.866025 0.866025 -0.5 166.47 98.4744)" fill="black"/>
<g style="mix-blend-mode:multiply">
<path d="M206.97 78.3308C202.97 72.3308 195.636 70.8308 192.47 70.8308L192.47 82.8308L196.47 91.3308L210.47 94.3308C210.97 91.4975 210.97 84.3308 206.97 78.3308Z" fill="#E4E4F4"/>
</g>
<path fill-rule="evenodd" clip-rule="evenodd" d="M107.917 25.4835C110.999 25.0985 114.116 25.1571 117.157 25.6647C118.277 25.8516 119.379 26.0981 120.458 26.4021C121.004 25.8801 121.684 25.4839 122.465 25.2747C124.944 24.6105 127.492 26.0815 128.156 28.5602C128.276 29.0077 128.326 29.4575 128.313 29.8981C128.708 30.149 129.096 30.4093 129.478 30.679C133.08 33.226 135.972 36.5362 137.931 40.3535C139.435 43.2862 140.358 46.4579 140.664 49.7203C140.82 51.3756 139.459 52.7182 137.797 52.7503L133.132 52.8405C118.416 53.125 103.992 56.9901 91.1054 64.1015L87.0205 66.3558C85.5649 67.1591 83.7153 66.6766 83.0223 65.1654C81.6564 62.1869 80.8695 58.9789 80.7062 55.6867C80.4937 51.4016 81.3433 47.0888 83.1893 43.082C83.3847 42.6577 83.5908 42.2381 83.8072 41.8235C83.576 41.4483 83.3947 41.0336 83.2748 40.5861C82.6106 38.1074 84.0816 35.5596 86.5603 34.8954C87.3411 34.6862 88.1288 34.6888 88.8623 34.8681C89.6448 34.0653 90.4758 33.3009 91.3519 32.5793C93.732 30.619 96.4024 29.0096 99.264 27.802C99.28 25.7645 100.645 23.9058 102.709 23.3529C104.773 22.7999 106.884 23.727 107.917 25.4835Z" fill="white"/>
<path fill-rule="evenodd" clip-rule="evenodd" d="M91.3519 32.5794C90.4757 33.301 89.6447 34.0654 88.8623 34.8682C88.1287 34.6889 87.3411 34.6862 86.5602 34.8954C84.0815 35.5596 82.6105 38.1074 83.2747 40.5861C83.3946 41.0337 83.5759 41.4484 83.8071 41.8236C83.5907 42.2382 83.3847 42.6578 83.1892 43.082C81.3432 47.0889 80.4936 51.4017 80.7062 55.6868C80.8694 58.979 81.6563 62.187 83.0222 65.1655C83.7152 66.6767 85.5648 67.1592 87.0204 66.3559L91.1053 64.1016C103.992 56.9901 118.416 53.125 133.132 52.8406L137.797 52.7504C139.459 52.7183 140.82 51.3756 140.664 49.7204C140.358 46.458 139.435 43.2863 137.931 40.3536C135.972 36.5363 133.08 33.2261 129.478 30.6791C129.096 30.4094 128.708 30.149 128.313 29.8981C128.326 29.4576 128.276 29.0078 128.156 28.5603C127.492 26.0816 124.944 24.6106 122.465 25.2748C121.684 25.484 121.003 25.8801 120.458 26.4022C119.379 26.0981 118.277 25.8517 117.157 25.6648C114.116 25.1572 110.999 25.0986 107.917 25.4835C106.884 23.7271 104.773 22.8 102.709 23.3529C100.645 23.9059 99.2799 25.7646 99.2639 27.802C96.4023 29.0097 93.7319 30.6191 91.3519 32.5794ZM93.4125 22.873C94.8194 19.9005 97.4725 17.5405 100.905 16.6208C104.337 15.701 107.815 16.4184 110.52 18.2891C113.123 18.1955 115.732 18.3609 118.305 18.7902C118.654 18.8485 119.002 18.9115 119.348 18.9793C119.772 18.8095 120.211 18.6633 120.661 18.5426C126.526 16.9711 132.546 20.1812 134.582 25.7833C138.581 28.8468 141.848 32.7205 144.132 37.172C146.041 40.8944 147.214 44.9248 147.603 49.0688C148.187 55.2886 143.095 59.6189 137.931 59.7188L133.267 59.8089C119.683 60.0715 106.368 63.6393 94.4728 70.2037L90.3879 72.458C85.8666 74.9532 79.291 73.7492 76.6869 68.0708C74.9519 64.2874 73.9523 60.2106 73.7451 56.032C73.4972 51.035 74.3897 46.0468 76.3213 41.3941C75.2831 35.5247 78.8913 29.7348 84.7563 28.1633C85.2069 28.0425 85.6595 27.9501 86.1119 27.8849C86.3781 27.653 86.6478 27.4245 86.9209 27.1995C88.934 25.5415 91.1113 24.0934 93.4125 22.873Z" fill="black"/>
<path fill-rule="evenodd" clip-rule="evenodd" d="M137.288 39.177C137.969 40.8732 138.291 42.3685 138.518 44.6396C138.684 46.3094 137.31 47.6679 135.632 47.6901L132.321 47.7338C117.228 47.9331 102.424 51.8997 89.2543 59.2734L86.365 60.8911C84.9007 61.7109 83.031 61.2217 82.3404 59.6923C81.4012 57.6122 80.9325 56.1561 80.6741 54.3466C80.6733 54.7934 80.6839 55.2402 80.706 55.6867C80.8693 58.9789 81.6562 62.1869 83.0221 65.1654C83.7151 66.6766 85.5647 67.1591 87.0203 66.3558L91.1052 64.1015C103.992 56.9901 118.416 53.1249 133.132 52.8405L137.797 52.7503C139.459 52.7182 140.819 51.3756 140.664 49.7203C140.358 46.4579 139.435 43.2862 137.93 40.3535C137.726 39.9557 137.512 39.5635 137.288 39.177ZM126.873 26.3977C126.829 26.3567 126.786 26.3167 126.741 26.2775C126.741 26.2886 126.741 26.2997 126.741 26.3108C126.785 26.3397 126.829 26.3686 126.873 26.3977ZM83.3583 37.9019C83.3393 37.9581 83.3214 38.0147 83.3046 38.0717C83.3281 38.0246 83.3517 37.9775 83.3755 37.9305C83.3697 37.921 83.364 37.9114 83.3583 37.9019Z" fill="#9B9BC5"/>
<path fill-rule="evenodd" clip-rule="evenodd" d="M114.88 29.146C116.317 29.2878 117.345 30.5369 117.175 31.9361L115.677 44.2921C115.552 45.3277 114.791 46.1952 113.757 46.4828C112.723 46.7704 111.623 46.4202 110.98 45.5984L107.434 41.0684L106.531 46.9095C106.371 47.9411 105.583 48.7849 104.541 49.0405C103.499 49.296 102.411 48.9119 101.796 48.0703L94.2473 37.7543C93.4152 36.6172 93.7006 35.0246 94.8846 34.1971C96.0686 33.3696 97.7029 33.6207 98.535 34.7578L102.322 39.9339L103.182 34.3715C103.34 33.3545 104.108 32.5185 105.132 32.2508C106.155 31.9831 107.234 32.336 107.868 33.1461L111.24 37.4524L111.971 31.4228C112.14 30.0236 113.443 29.0043 114.88 29.146Z" fill="#9B9BC5"/>
<rect width="256" height="256" fill="#6017D8" style="mix-blend-mode:screen"/>
</g>
<defs>
<clipPath id="clip0_497_687">
<rect width="256" height="256" fill="white"/>
</clipPath>
</defs>
</svg>
