<svg width="128" height="128" viewBox="0 0 128 128" fill="none" xmlns="http://www.w3.org/2000/svg">
<path fill-rule="evenodd" clip-rule="evenodd" d="M75.7238 56.1191C77.2126 56.1191 78.4195 54.9122 78.4195 53.4235C78.4195 51.9347 77.2126 50.7278 75.7238 50.7278C74.235 50.7278 73.0281 51.9347 73.0281 53.4235C73.0281 54.9122 74.235 56.1191 75.7238 56.1191ZM77.7778 58.0446H73.6701V75.8874H77.7778V58.0446ZM28.3563 66.902C28.3563 66.9573 28.3558 67.0125 28.3548 67.0675V75.8875H24.1188V74.6924C22.6925 75.6115 20.9971 76.1443 19.1781 76.1443C14.1092 76.1443 10 72.0064 10 66.902C10 61.7976 14.1092 57.6597 19.1781 57.6597C24.2471 57.6597 28.3563 61.7976 28.3563 66.902ZM19.1785 72.1647C22.0497 72.1647 24.3773 69.8084 24.3773 66.9018C24.3773 63.9951 22.0497 61.6388 19.1785 61.6388C16.3073 61.6388 13.9797 63.9951 13.9797 66.9018C13.9797 69.8084 16.3073 72.1647 19.1785 72.1647ZM89.3922 76.1443C94.4611 76.1443 98.5703 72.0064 98.5703 66.902C98.5703 61.7976 94.4611 57.6597 89.3922 57.6597C84.3232 57.6597 80.2141 61.7976 80.2141 66.902C80.2141 72.0064 84.3232 76.1443 89.3922 76.1443ZM89.3927 72.165C92.264 72.165 94.5915 69.8087 94.5915 66.9021C94.5915 63.9954 92.264 61.6391 89.3927 61.6391C86.5215 61.6391 84.194 63.9954 84.194 66.9021C84.194 69.8087 86.5215 72.165 89.3927 72.165ZM30.025 69.9186H33.8118C33.8118 71.2664 34.8387 72.3575 36.3791 72.3575C37.5986 72.3575 38.5613 71.459 38.5613 69.7902C38.5613 68.3585 36.9664 67.9901 35.6752 67.6918C35.2877 67.6023 34.9276 67.5192 34.6462 67.4155C33.4267 66.9662 31.1803 65.8109 31.1803 62.7943C31.1803 59.7777 33.1058 57.7239 36.2507 57.7239C38.7667 57.7239 40.1231 59.1787 40.4868 59.9703L38.112 62.345C37.7911 61.7032 37.3418 61.1897 36.3791 61.1897C35.8656 61.1897 34.9671 61.5107 34.9671 62.666C34.9671 63.7011 35.6107 63.9034 37.305 64.4359C37.8168 64.5967 38.4243 64.7876 39.1389 65.0407C42.2197 66.1318 42.4123 69.02 42.4123 70.3037C42.4123 71.5873 42.2197 76.1443 36.2507 76.1443C31.4755 76.1443 30.025 72.5501 30.025 69.9186ZM43.7594 58.0447H48.0596V68.8916C48.0596 69.4692 48.2522 72.4216 51.6538 72.4216C55.0555 72.4216 55.8257 69.7901 55.8257 68.8916V58.0447H59.805V70.111L59.8039 70.1125V75.8873H55.6962V74.4871C54.4021 75.4123 52.8524 76.08 51.012 76.08C46.6476 76.08 43.7594 72.9351 43.7594 68.8916V58.0447ZM66.8661 59.3883C68.1319 58.4266 69.6261 57.7125 71.3568 57.6627V61.5841C71.2536 61.5781 71.1469 61.575 71.0368 61.575C67.6351 61.575 66.7366 64.2065 66.7366 65.1051V75.9519H62.7572V63.8856L62.7584 63.8841V58.1092H66.8661V59.3883ZM100.368 65.8751C100.368 61.3379 104.046 57.6597 108.583 57.6597C113.121 57.6597 116.799 61.3379 116.799 65.8751V75.8876H112.82V65.8751C112.82 63.5356 110.923 61.6391 108.584 61.6391C106.244 61.6391 104.348 63.5356 104.348 65.8751V75.8876H100.368V65.8751Z" fill="#6017D8"/>
</svg>
