<svg width="128" height="128" viewBox="0 0 128 128" fill="none" xmlns="http://www.w3.org/2000/svg">
<path fill-rule="evenodd" clip-rule="evenodd" d="M30.4902 76.7945H26.7231L24.8864 59.7252L19.2611 76.7945H17.7964H16.3317L10.7064 59.7252L8.86968 76.7945H5.10254L8.03189 53.3597H11.9377L17.7964 70.9358L23.6551 53.3597H27.5609L30.4902 76.7945ZM97.7178 77.189C94.1147 77.189 92.0475 74.7771 92.0475 70.5725V59.9536H95.635V69.8021C95.635 72.6182 96.5646 74.1444 99.1004 74.1444C101.553 74.1444 102.566 72.586 102.566 69.8109V59.9536H106.153V76.7886H103.379L103.003 74.9636C101.674 76.5992 100.071 77.189 97.7178 77.189ZM85.5942 53.3812L89.1817 51.8062V76.7886H85.5942V53.3812ZM40.0282 74.1473C37.34 74.1473 35.7992 72.0489 35.7992 68.3892C35.7992 64.7607 37.3937 62.5949 40.0643 62.5949C42.7359 62.5949 44.3304 64.7607 44.3304 68.3892C44.3304 72.0489 42.7622 74.1473 40.0282 74.1473ZM40.0643 59.5533C35.0854 59.5533 31.993 62.9387 31.993 68.3892C31.993 73.8173 35.0717 77.189 40.0282 77.189C45.0296 77.189 48.1366 73.8173 48.1366 68.3892C48.1366 62.9387 45.0432 59.5533 40.0643 59.5533ZM71.6241 66.7956L71.6515 66.5086C71.8897 63.9844 73.2489 62.5949 75.4782 62.5949C77.8422 62.5949 79.1633 63.9922 79.1984 66.5291L79.2024 66.7956H71.6241ZM75.5514 59.5533C70.7072 59.5533 67.6978 62.9113 67.6978 68.3169C67.6978 73.789 70.8605 77.189 75.9518 77.189C78.4271 77.189 80.5557 76.5396 82.6316 75.1491L81.2754 72.6836C79.5734 73.6679 77.9252 74.1473 76.2427 74.1473C74.6648 74.1473 71.961 73.5439 71.5782 69.5053L71.5509 69.2192H82.947C83.0086 68.8403 83.0408 68.1636 83.0408 67.6246C83.0408 63.7227 81.0732 59.5533 75.5514 59.5533ZM123 76.7886H119.142L115.582 71.1262L111.832 76.7886H108.095L113.448 68.7036L108.075 59.9536H112.005L115.574 66.0467L119.218 59.9536H122.994L117.668 68.2603L123 76.7886ZM57.9158 74.1473C54.4708 74.1473 54.0295 70.4495 54.0295 68.3892C54.0295 65.6629 54.67 62.5949 57.949 62.5949C60.5863 62.5949 61.8694 64.4902 61.8694 68.3892C61.8694 72.0489 60.4282 74.1473 57.9158 74.1473ZM58.8043 59.5533C57.0047 59.5533 55.4073 60.5112 54.5861 61.3324L54.1389 61.7796V51.8062L50.5504 53.3812V76.7886H53.347L53.7346 74.7635L54.0891 75.1677C54.9434 76.1451 56.5644 77.189 58.5495 77.189C63.4718 77.189 65.6756 72.7149 65.6756 68.2798C65.6756 62.8156 63.1066 59.5533 58.8043 59.5533Z" fill="#6017D8"/>
</svg>
