<svg width="128" height="128" viewBox="0 0 128 128" fill="none" xmlns="http://www.w3.org/2000/svg">
<path d="M3.00293 60.4296C3.00293 54.1796 6.51239 52.7053 12.4097 52.7053H22.259C29.6897 52.7053 30.7215 55.3867 30.7215 59.5446V60.2237H24.2919C24.2919 58.1009 23.0827 57.8359 20.9906 57.8359H13.884C10.5805 57.8359 9.72611 58.6311 9.72611 62.2873V64.9402C9.72611 68.5987 10.5805 69.3939 13.884 69.3939H20.8723C22.5832 69.3939 24.2919 69.1288 24.2919 67.0652V66.4452H16.1536V62.0223H30.8398V68.097C30.8398 74.2287 27.6546 74.5244 20.283 74.5244H12.4097C6.51239 74.5244 3.00293 73.0501 3.00293 66.8001V60.4296Z" fill="#6017D8"/>
<path d="M32.4609 52.9402H55.8135V57.8933H39.0067V61.3151H54.9307V65.7381H39.0067V69.1578H56.1969V74.2883H32.4609V52.9402Z" fill="#6017D8"/>
<path d="M58.1777 52.9399H64.7257V74.2881H58.1777V52.9399Z" fill="#6017D8"/>
<path d="M66.7021 60.4296C66.7021 54.1796 70.2116 52.7053 76.1089 52.7053H83.8048C93.1217 52.7053 94.3331 54.7098 94.2718 60.7539H87.7261V60.1646C87.7261 58.6311 86.6066 58.1886 84.6591 58.1886H77.5241C74.0738 58.1886 73.4253 59.8119 73.4253 62.4648V64.765C73.4253 67.8604 74.0738 69.0412 77.1714 69.0412H84.1596C87.1083 69.0412 87.9911 68.7454 87.9911 66.0903H94.5369V68.097C94.5369 71.6941 93.24 74.5244 86.6636 74.5244H76.1089C70.2116 74.5244 66.7021 73.0501 66.7021 66.8001V60.4296Z" fill="#6017D8"/>
<path d="M102.412 64.7645C102.412 67.8599 103.06 69.0407 106.158 69.0407H114.53C117.626 69.0407 118.274 67.8599 118.274 64.7645V62.4643C118.274 59.8114 117.626 58.1881 114.178 58.1881H106.51C103.06 58.1881 102.412 59.8114 102.412 62.4643V64.7645ZM95.6885 60.4292C95.6885 54.1792 99.1979 52.7048 105.095 52.7048H115.591C121.49 52.7048 125 54.1792 125 60.4292V66.7996C125 73.0496 121.49 74.524 115.591 74.524H105.095C99.1979 74.524 95.6885 73.0496 95.6885 66.7996V60.4292Z" fill="#6017D8"/>
</svg>
