<svg width="128" height="128" viewBox="0 0 128 128" fill="none" xmlns="http://www.w3.org/2000/svg">
<path d="M28.4577 66.1369C30.9551 66.1369 34.5684 65.6353 34.5684 62.7419C34.5759 62.5186 34.5551 62.2953 34.5065 62.0769L33.0193 55.7847C32.6759 54.4003 32.3744 53.7722 29.879 52.5569C27.9426 51.5925 23.7244 50 22.4767 50C21.3148 50 20.9774 51.4583 19.592 51.4583C18.2584 51.4583 17.2683 50.3694 16.0206 50.3694C14.8228 50.3694 14.0422 51.1647 13.4393 52.8C13.4393 52.8 11.7604 57.4122 11.5448 58.0811C11.5105 58.2039 11.4957 58.3311 11.5009 58.4583C11.5009 60.2511 18.7475 66.1292 28.4577 66.1292M34.9517 63.9164C35.2971 65.5089 35.2971 65.6761 35.2971 65.8861C35.2971 68.6083 32.1548 70.1192 28.0245 70.1192C18.6897 70.125 10.5127 64.7972 10.5127 61.2758C10.5122 60.7857 10.6148 60.3006 10.8142 59.8506C7.45635 60.0139 3.11035 60.5972 3.11035 64.3344C3.11035 70.4556 18.0009 78 29.7912 78C38.8305 78 41.1104 74.0178 41.1104 70.8736C41.1104 68.4003 38.9144 65.5925 34.9557 63.9164" fill="#6017D8"/>
<path d="M118.613 68.0916C118.613 70.6705 120.038 71.9241 122.637 71.9241C123.437 71.9024 124.232 71.7801 125.007 71.5597V68.5688C124.512 68.7395 123.995 68.8244 123.476 68.8204C122.406 68.8204 122.009 68.456 122.009 67.3607V62.7777H125.11V59.6979H122.009V55.7938L118.621 56.592V59.6979H116.371V62.7777H118.613V68.0916ZM108.05 68.161C108.05 67.3628 108.785 66.9746 109.895 66.9746C110.574 66.9789 111.25 67.0706 111.908 67.2479V68.7987C111.259 69.1845 110.529 69.381 109.79 69.3691C108.701 69.3691 108.05 68.9136 108.05 68.161ZM109.086 71.9696C110.282 71.9696 111.247 71.6964 112.147 71.0348V71.7658H115.5V64.0314C115.5 61.0903 113.678 59.4767 110.639 59.4767C108.941 59.4767 107.262 59.9104 105.457 60.7997L106.673 63.5152C107.972 62.9209 109.064 62.5565 110.027 62.5565C111.422 62.5565 112.143 63.1486 112.143 64.3589V64.951C111.322 64.7196 110.477 64.6044 109.628 64.6083C106.776 64.6083 105.058 65.9097 105.058 68.2369C105.058 70.3581 106.609 71.9761 109.082 71.9761M90.6583 71.7723H94.2637V65.5149H100.301V71.7658H103.916V55.7982H100.315V61.934H94.2777V55.7982H90.6722L90.6583 71.7723ZM76.934 65.721C76.934 63.9858 78.1916 62.6628 79.8479 62.6628C80.7096 62.6438 81.5463 62.9783 82.1917 63.5998V67.8183C81.879 68.1399 81.5109 68.3909 81.1086 68.5569C80.7064 68.7229 80.2779 68.8007 79.8479 68.7857C78.2136 68.7857 76.934 67.4626 76.934 65.7297M82.2376 71.7744H85.5919V55L82.2037 55.7982V60.3377C81.3412 59.8056 80.365 59.5303 79.3735 59.5396C76.1468 59.5396 73.6096 62.2529 73.6096 65.721C73.6003 66.5347 73.7401 67.3423 74.0208 68.0966C74.3015 68.851 74.7174 69.5369 75.2443 70.1143C75.7713 70.6918 76.3986 71.1492 77.0898 71.46C77.781 71.7707 78.5221 71.9285 79.2699 71.9241C80.3391 71.9296 81.3819 71.5625 82.2455 70.8765L82.2376 71.7744ZM66.8451 62.4958C67.9134 62.4958 68.8143 63.2484 69.1711 64.4109H64.5471C64.882 63.2115 65.7211 62.4958 66.8451 62.4958ZM61.131 65.7492C61.131 69.2628 63.7718 72 67.166 72C69.0315 72 70.3948 71.4513 71.7999 70.1738L69.5557 68.0048C69.0315 68.5991 68.2562 68.918 67.3354 68.918C66.7564 68.9357 66.186 68.7622 65.6993 68.4204C65.2127 68.0785 64.8325 67.5843 64.6089 67.0028H72.5114V66.0854C72.5114 62.2529 70.1437 59.494 66.9149 59.494C66.1559 59.4815 65.4023 59.6343 64.6983 59.9434C63.9944 60.2525 63.3544 60.7117 62.8159 61.2939C62.2773 61.8761 61.8512 62.5695 61.5626 63.3335C61.2739 64.0975 61.1286 64.9166 61.135 65.7427M55.2854 59.1513C56.4812 59.1513 57.1509 59.9712 57.1509 60.9537C57.1509 61.9362 56.4812 62.7561 55.2854 62.7561H51.7198V59.1513H55.2854ZM48.1104 71.7658H51.7158V65.9487H54.4602L57.2286 71.7658H61.2646L58.0358 65.3783C58.8563 65.0151 59.5583 64.3931 60.0513 63.5922C60.5443 62.7913 60.8058 61.8482 60.8022 60.8843C60.8022 58.0105 58.7274 55.7982 55.6202 55.7982H48.1104V71.7658Z" fill="#6017D8"/>
</svg>
