<svg width="171" height="8" viewBox="0 0 171 8" fill="none" xmlns="http://www.w3.org/2000/svg">
<path d="M1 4C6.63333 1.7494e-07 12.2667 1.7494e-07 17.9 4C23.5333 8 29.1667 8 34.8 4C40.4333 1.7494e-07 46.0667 1.7494e-07 51.7 4C57.3333 8 62.9667 8 68.6 4C74.2333 1.7494e-07 79.8667 1.7494e-07 85.5 4C91.1333 8 96.7667 8 102.4 4C108.033 1.7494e-07 113.667 1.7494e-07 119.3 4C124.933 8 130.567 8 136.2 4C141.833 1.7494e-07 147.467 1.7494e-07 153.1 4C158.733 8 164.367 8 170 4" stroke="#6017D8" stroke-width="2" stroke-linecap="round"/>
</svg>
