<svg width="256" height="256" viewBox="0 0 256 256" fill="none" xmlns="http://www.w3.org/2000/svg">
<g clip-path="url(#clip0_497_628)">
<rect width="256" height="256" fill="white"/>
<g style="mix-blend-mode:multiply">
<ellipse cx="125" cy="215" rx="64" ry="12" fill="#E4E4F4"/>
</g>
<path d="M181.319 110.75C178.721 102.424 176 93.2676 176 84.5459V84.5459C176 59.9692 152.943 40.0459 124.5 40.0459C96.0573 40.0459 73 59.9692 73 84.5459V84.5459C73 93.2676 70.279 102.424 67.6808 110.75C66.2881 115.212 66 120.026 66 125.046C66 148.242 89.9822 167.046 124.5 167.046C159.018 167.046 183 148.242 183 125.046C183 120.026 182.712 115.212 181.319 110.75Z" fill="black"/>
<path d="M181.188 75.2393C173.54 77.2893 166.028 77.0001 163 76.5459L161 52.5459C164.586 56.6001 171.353 67.4237 181.382 73.3872C182.148 73.8425 182.048 75.0087 181.188 75.2393Z" fill="black"/>
<path d="M121 29.046C108.6 29.846 104.833 39.7127 104.5 44.546L124 50.046L146 58.046C153 61.2127 165.7 65.146 160.5 55.546C154 43.546 136.5 28.046 121 29.046Z" fill="black"/>
<path d="M168.268 52.3247C161.448 46.4686 150.294 43.2553 146.569 43.3806C147.883 53.6818 165.204 68.5515 172.701 73.6986C174.065 69.014 175.087 58.1807 168.268 52.3247Z" fill="black" stroke="black"/>
<path d="M78.4998 57.0457C86.0998 45.8457 95.9998 44.0457 105 44.0457L85.9998 75.5457C80.3332 74.0457 70.8998 68.2457 78.4998 57.0457Z" fill="black"/>
<path d="M66.0814 88.4228C66.5348 80.3471 74.2046 70.2128 80.2497 67.0459C82.1388 77.7343 84.1035 99.5863 76.8493 101.486C67.7816 103.862 65.5147 98.5174 66.0814 88.4228Z" fill="black"/>
<path d="M183.919 94.4228C183.465 86.3471 175.795 76.2128 169.75 73.0459C167.861 83.7343 165.896 105.586 173.151 107.486C182.218 109.862 184.485 104.517 183.919 94.4228Z" fill="black"/>
<path d="M59.5 118.546C59.9268 110.864 67.3333 104.046 70.5 101.546L69 138.546C67.3333 139.379 65 140.046 58.5 138.546C54.2781 137.572 51.6951 135.664 50.2725 133.701C49.7108 132.926 50.9611 131.295 51.9024 131.121C53.1057 130.898 54.4461 130.498 55.5 130.046C59 128.546 59 127.546 59.5 118.546Z" fill="black"/>
<path d="M191.107 121.946C191.783 113.964 186.345 106.166 183.542 103.264L176.002 106.786C171.757 115.798 166.198 138.256 180.072 140.131C188.526 141.274 194.519 139.836 198.278 138.359C199.297 137.959 198.868 135.832 197.802 135.581C197.496 135.509 197.183 135.428 196.865 135.338C193.464 134.374 190.263 131.923 191.107 121.946Z" fill="black"/>
<path d="M162.47 101.282C159.615 95.4155 157.872 88.7439 157.872 82.2197V82.2197C157.872 64.0997 142.931 54.0459 124.5 54.0459C106.069 54.0459 91.128 64.0997 91.128 82.2197V82.2197C91.128 88.7439 89.3852 95.4155 86.5303 101.282C84.8942 104.644 84 108.282 84 112.08C84 129.182 102.132 143.046 124.5 143.046C146.868 143.046 165 129.182 165 112.08C165 108.282 164.106 104.644 162.47 101.282Z" fill="white"/>
<path d="M107.48 92.3886C117.649 92.7861 122.73 97.523 125 99.8418V147.046C113.5 144.561 88.7751 138.499 81.8751 134.127C74.9751 129.754 76.8817 111.105 78.6974 102.326C80.3619 97.0262 84.2356 87.0222 86.4145 89.4073L86.4146 89.4073C87.7825 90.9046 90.2954 93.6552 92.0889 96.1101C92.7129 96.9643 95.4206 96.8855 96.1148 96.0874C97.9283 94.0025 101.251 92.145 107.48 92.3886Z" fill="black"/>
<path d="M142.52 92.3886C132.351 92.7861 127.27 97.523 125 99.8418V147.046C136.5 144.561 161.225 138.499 168.125 134.127C175.025 129.754 173.118 111.105 171.303 102.326C169.638 97.0262 165.764 87.0222 163.585 89.4073L163.585 89.4073C162.218 90.9046 159.705 93.6552 157.911 96.1101C157.287 96.9643 154.579 96.8855 153.885 96.0874C152.072 94.0025 148.749 92.145 142.52 92.3886Z" fill="black"/>
<path d="M146.895 72.7591C133.926 67.9655 124.895 52.2863 122 45.0459C125.088 45.0459 134.389 45.4953 146.895 47.2929C159.4 49.0905 164.842 68.5147 166 78.0021C165.035 78.2518 159.863 77.5527 146.895 72.7591Z" fill="black"/>
<path d="M115.487 99.9109L120.321 103.537C123.094 105.616 126.906 105.616 129.679 103.537L134.513 99.9109C138.235 97.1194 143.444 97.4895 146.733 100.779C151.541 105.587 149.772 113.756 143.405 116.144L135.996 118.922C128.906 121.581 121.094 121.581 114.004 118.922L106.595 116.144C100.228 113.756 98.4586 105.587 103.267 100.779C106.556 97.4895 111.765 97.1194 115.487 99.9109Z" fill="white" stroke="black"/>
<rect x="124" y="105.046" width="2" height="16" fill="black"/>
<rect x="112.136" y="98.2109" width="2" height="19.9846" transform="rotate(15 112.136 98.2109)" fill="black"/>
<rect width="2" height="19.9846" transform="matrix(-0.965926 0.258819 0.258819 0.965926 137.932 98.2109)" fill="black"/>
<g style="mix-blend-mode:multiply">
<path d="M100 106.5C100.333 105 102.1 104.1 106.5 104.5C108.89 104.717 110.835 105.5 113.993 106.685C117.5 108 121 108.5 125 108.5C129 108.5 132.5 108 136.007 106.685C139.165 105.5 141.11 104.717 143.5 104.5C147.9 104.1 149.667 105 150 106.5V101L144.5 97H136L125 105.5L114 97H105.5L100 101V106.5Z" fill="#E4E4F4"/>
</g>
<circle cx="112.5" cy="84.5459" r="11.5" stroke="black" stroke-width="2"/>
<circle cx="117" cy="87.0459" r="6" fill="black"/>
<path d="M101.109 74.3818C100.19 73.7691 98.9486 74.0174 98.3359 74.9365C97.7232 75.8556 97.9715 77.0973 98.8906 77.71L101.109 74.3818ZM98.8906 77.71L101.891 79.71L104.109 76.3818L101.109 74.3818L98.8906 77.71Z" fill="black"/>
<rect x="124" y="80.0459" width="2" height="9" fill="black"/>
<path d="M106 66.5459C108 67.3792 113.2 69.0459 118 69.0459" stroke="black" stroke-width="12" stroke-linecap="round"/>
<path d="M144 66.5459C142 67.3792 136.8 69.0459 132 69.0459" stroke="black" stroke-width="12" stroke-linecap="round"/>
<g style="mix-blend-mode:multiply">
<path d="M159.5 68L167.5 85C165.943 86.0654 162.749 87.1927 158.193 87.1621C157.982 85.5155 157.872 83.8629 157.872 82.2197C157.872 73.5942 154.484 66.7985 148.948 62.043L159.5 68ZM124.5 57.0459C133.204 57.046 140.842 59.4231 146.235 63.6904C151.555 67.8995 154.872 74.0762 154.872 82.2197C154.872 83.8057 154.967 85.3957 155.149 86.9785C153.253 86.7668 151.177 86.3626 148.937 85.6992C148.977 85.305 149 84.905 149 84.5C149 78.1488 143.851 73.0002 137.5 73C135.081 73 132.837 73.7479 130.985 75.0234C125.581 68.9997 123.534 61.9593 123.079 57.0684C123.549 57.0542 124.023 57.0459 124.5 57.0459ZM138.871 56.3545C134.519 54.8305 129.646 54.0459 124.5 54.0459C123.996 54.0459 123.495 54.0543 122.996 54.0693C122.997 54.0461 122.999 54.023 123 54L128.5 50.5L138.871 56.3545Z" fill="#E4E4F4"/>
</g>
<g style="mix-blend-mode:multiply">
<path fill-rule="evenodd" clip-rule="evenodd" d="M146.236 63.6904C140.843 59.4229 133.204 57.0459 124.5 57.0459C115.796 57.0459 108.157 59.4229 102.764 63.6904C97.4443 67.8995 94.128 74.0762 94.128 82.2197C94.128 89.2587 92.2537 96.3769 89.2279 102.595C87.779 105.572 87 108.763 87 112.08C87 119.5 90.926 126.426 97.6844 131.593C104.445 136.762 113.916 140.046 124.5 140.046C135.084 140.046 144.555 136.762 151.316 131.593C158.074 126.426 162 119.5 162 112.08C162 108.763 161.221 105.572 159.772 102.595C156.746 96.3769 154.872 89.2587 154.872 82.2197C154.872 74.0762 151.556 67.8995 146.236 63.6904ZM157.872 82.2197C157.872 88.7439 159.615 95.4155 162.47 101.282C164.106 104.644 165 108.282 165 112.08C165 129.182 146.868 143.046 124.5 143.046C102.132 143.046 84 129.182 84 112.08C84 108.282 84.8942 104.644 86.5303 101.282C89.3852 95.4155 91.128 88.7439 91.128 82.2197C91.128 64.0997 106.069 54.0459 124.5 54.0459C142.931 54.0459 157.872 64.0997 157.872 82.2197Z" fill="#E4E4F4"/>
</g>
<path d="M122.753 165.046H112.753L114.439 205.521C114.473 206.335 113.57 206.846 112.889 206.397L103.142 199.961C98.8013 197.095 93.505 194.032 89 196.633C86.7032 197.959 85.0272 200.143 84.3408 202.705C83.6543 205.267 84.0137 207.997 85.3398 210.293C87.9407 214.798 94.059 214.794 99.2515 214.482L119.953 213.097C121.528 212.991 122.753 211.682 122.753 210.103V165.046Z" fill="black"/>
<path d="M127 165.046H137L135.314 205.521C135.28 206.335 136.183 206.846 136.864 206.397L146.611 199.961C150.952 197.095 156.248 194.032 160.753 196.633C163.05 197.959 164.726 200.143 165.412 202.705C166.099 205.267 165.739 207.997 164.413 210.293C161.812 214.798 155.694 214.794 150.501 214.482L129.8 213.097C128.224 212.991 127 211.682 127 210.103V165.046Z" fill="black"/>
<circle cx="150.999" cy="84" r="27" fill="white"/>
<circle cx="150.977" cy="83.9768" r="17.5" stroke="black" stroke-width="2"/>
<circle cx="142.477" cy="84.4768" r="9" fill="black"/>
<mask id="path-33-outside-1_497_628" maskUnits="userSpaceOnUse" x="117.157" y="51" width="78" height="71" fill="black">
<rect fill="white" x="117.157" y="51" width="78" height="71"/>
<path d="M170.5 60.1924C157.495 49.2797 138.105 50.9762 127.192 63.9815C116.28 76.9869 117.975 96.3762 130.98 107.289C142.913 117.302 160.22 116.698 171.423 106.485L185.092 118.94C186.652 120.362 189.083 120.2 190.44 118.583L192.288 116.381C193.645 114.764 193.383 112.342 191.712 111.052L177.015 99.7061C184.787 86.9512 182.292 70.0874 170.5 60.1924ZM134.852 70.4092C142.215 61.6347 155.298 60.4899 164.072 67.8526C172.847 75.2155 173.991 88.2977 166.628 97.0723C159.265 105.847 146.184 106.991 137.409 99.629C128.635 92.2661 127.49 79.1839 134.852 70.4092Z"/>
</mask>
<path d="M170.5 60.1924C157.495 49.2797 138.105 50.9762 127.192 63.9815C116.28 76.9869 117.975 96.3762 130.98 107.289C142.913 117.302 160.22 116.698 171.423 106.485L185.092 118.94C186.652 120.362 189.083 120.2 190.44 118.583L192.288 116.381C193.645 114.764 193.383 112.342 191.712 111.052L177.015 99.7061C184.787 86.9512 182.292 70.0874 170.5 60.1924ZM134.852 70.4092C142.215 61.6347 155.298 60.4899 164.072 67.8526C172.847 75.2155 173.991 88.2977 166.628 97.0723C159.265 105.847 146.184 106.991 137.409 99.629C128.635 92.2661 127.49 79.1839 134.852 70.4092Z" fill="black"/>
<path d="M170.5 60.1924L171.786 58.6604L171.786 58.6604L170.5 60.1924ZM127.192 63.9815L125.66 62.6959L125.66 62.6959L127.192 63.9815ZM130.98 107.289L129.695 108.821L129.695 108.821L130.98 107.289ZM171.423 106.485L170.075 105.007L171.422 103.779L172.77 105.007L171.423 106.485ZM185.092 118.94L183.745 120.419L183.745 120.419L185.092 118.94ZM190.44 118.583L191.973 119.869L191.972 119.869L190.44 118.583ZM192.288 116.381L190.756 115.095L190.756 115.095L192.288 116.381ZM191.712 111.052L190.49 112.635L190.49 112.635L191.712 111.052ZM177.015 99.7061L175.792 101.289L174.375 100.195L175.307 98.6654L177.015 99.7061ZM134.852 70.4092L133.32 69.1237L133.32 69.1237L134.852 70.4092ZM164.072 67.8526L165.358 66.3205L165.358 66.3205L164.072 67.8526ZM166.628 97.0723L168.16 98.3579L168.16 98.3579L166.628 97.0723ZM137.409 99.629L136.124 101.161L136.124 101.161L137.409 99.629ZM169.214 61.7245C157.055 51.5218 138.927 53.1079 128.724 65.2671L125.66 62.6959C137.283 48.8445 157.934 47.0376 171.786 58.6604L169.214 61.7245ZM128.724 65.2671C118.522 77.4264 120.107 95.5542 132.266 105.757L129.695 108.821C115.843 97.1982 114.037 76.5474 125.66 62.6959L128.724 65.2671ZM132.266 105.757C143.421 115.117 159.603 114.555 170.075 105.007L172.77 107.963C160.837 118.842 142.405 119.487 129.695 108.821L132.266 105.757ZM172.77 105.007L186.439 117.462L183.745 120.419L170.076 107.964L172.77 105.007ZM186.439 117.462C187.16 118.119 188.282 118.044 188.908 117.297L191.972 119.869C189.884 122.357 186.145 122.606 183.745 120.419L186.439 117.462ZM188.908 117.298L190.756 115.095L193.82 117.666L191.973 119.869L188.908 117.298ZM190.756 115.095C191.382 114.349 191.262 113.231 190.49 112.635L192.934 109.469C195.505 111.453 195.908 115.178 193.82 117.667L190.756 115.095ZM190.49 112.635L175.792 101.289L178.237 98.123L192.934 109.469L190.49 112.635ZM175.307 98.6654C182.572 86.7419 180.238 70.9745 169.214 61.7245L171.786 58.6604C184.346 69.2003 187.001 87.1605 178.723 100.747L175.307 98.6654ZM133.32 69.1237C141.393 59.503 155.737 58.2478 165.358 66.3205L162.787 69.3847C154.858 62.732 143.037 63.7664 136.385 71.6948L133.32 69.1237ZM165.358 66.3205C174.979 74.3935 176.233 88.7372 168.16 98.3579L165.096 95.7868C171.749 87.8581 170.715 76.0375 162.787 69.3847L165.358 66.3205ZM168.16 98.3579C160.087 107.978 145.744 109.233 136.124 101.161L138.695 98.0968C146.623 104.749 158.443 103.715 165.096 95.7867L168.16 98.3579ZM136.124 101.161C126.503 93.0882 125.248 78.7446 133.32 69.1237L136.385 71.6948C129.732 79.6233 130.766 91.444 138.695 98.0969L136.124 101.161Z" fill="white" mask="url(#path-33-outside-1_497_628)"/>
<circle cx="9.02241" cy="9.02241" r="9.02241" transform="matrix(-0.996195 0.0871557 0.0871557 0.996195 159.16 60.3142)" fill="white"/>
<circle cx="3.98047" cy="3.98047" r="3.98047" transform="matrix(-0.996195 0.0871557 0.0871557 0.996195 169.556 69.5271)" fill="white"/>
<circle cx="73.3923" cy="171.105" r="15" transform="rotate(30 73.3923 171.105)" fill="white" stroke="black" stroke-width="6"/>
<rect x="91.9277" y="131" width="8" height="32" transform="rotate(30 91.9277 131)" fill="black"/>
<g style="mix-blend-mode:multiply">
<path d="M72.5 171.5C66.5 167.5 65 160.167 65 157H77L85.5 161L88.5 175C85.6667 175.5 78.5 175.5 72.5 171.5Z" fill="#E4E4F4"/>
</g>
<circle cx="12" cy="12" r="15" transform="matrix(0.707107 0.707107 0.707107 -0.707107 175.706 116.049)" fill="white" stroke="black" stroke-width="6"/>
<rect width="8" height="32" transform="matrix(0.707107 0.707107 0.707107 -0.707107 158.735 144.334)" fill="black"/>
<g style="mix-blend-mode:multiply">
<path d="M192.642 114.394C187.226 109.634 179.754 110.083 176.695 110.903L179.801 122.494L185.865 129.669L200.164 128.943C199.914 126.077 198.059 119.155 192.642 114.394Z" fill="#E4E4F4"/>
</g>
<rect width="256" height="256" fill="#6017D8" style="mix-blend-mode:screen"/>
</g>
<defs>
<clipPath id="clip0_497_628">
<rect width="256" height="256" fill="white"/>
</clipPath>
</defs>
</svg>
