<svg width="160" height="186" viewBox="0 0 160 186" fill="none" xmlns="http://www.w3.org/2000/svg">
<path d="M84 12.0718L80 9.7624L76 12.0718L12 49.0221L8 51.3315V55.9504V129.851V134.47L12 136.779L76 173.73L80 176.039L84 173.73L148 136.779L152 134.47V129.851V55.9504V51.3315L148 49.0221L84 12.0718Z" fill="#C4C4C4" stroke="black" stroke-width="16"/>
<path d="M80 19L144 56L80 93L16 56L80 19Z" fill="white"/>
<path d="M80.0859 92.9256L80.0429 166.851L16 129.926L16.0429 56L80.0859 92.9256Z" fill="#2CE8F5"/>
<path d="M80.0001 92.9256L80.043 166.851L144.086 129.926L144.043 56L80.0001 92.9256Z" fill="#0095E9"/>
</svg>
