<svg width="128" height="128" viewBox="0 0 128 128" fill="none" xmlns="http://www.w3.org/2000/svg">
<rect width="128" height="128" fill="white"/>
<path fill-rule="evenodd" clip-rule="evenodd" d="M60.1339 15.9257C63.6279 16.3093 66.1495 19.4527 65.766 22.9468L62.3788 53.8029C62.0949 56.389 60.2657 58.5419 57.7594 59.2397C55.2532 59.9376 52.5745 59.0398 50.995 56.9726L42.2875 45.5766L40.2129 60.1595C39.8465 62.7349 37.9497 64.8281 35.4228 65.4457C32.8958 66.0633 30.2474 65.0809 28.7344 62.9648L10.1877 37.0242C8.1433 34.1648 8.804 30.1895 11.6634 28.1451C14.5228 26.1007 18.4981 26.7614 20.5424 29.6208L29.8484 42.6368L31.824 28.7498C32.1852 26.2108 34.035 24.1367 36.5162 23.4883C38.9974 22.84 41.6254 23.7442 43.1824 25.782L51.4599 36.6153L53.1128 21.5578C53.4964 18.0637 56.6398 15.5422 60.1339 15.9257Z" fill="#6017D8"/>
<path fill-rule="evenodd" clip-rule="evenodd" d="M81.5141 61.9924L81.4715 61.9683C79.8117 61.0312 78.898 59.4865 78.4692 57.8862L70.3053 27.4182C69.8765 25.818 69.8955 24.0233 70.8643 22.3819L70.8892 22.3398L70.9151 22.2987C71.9053 20.7316 73.4304 19.8415 75.0395 19.4103L88.252 15.8701C92.57 14.713 96.6322 14.6305 100.166 16.106C103.87 17.5948 106.251 20.5004 107.295 24.3964C107.976 26.9363 107.9 29.4712 106.946 31.8819C106.868 32.0862 106.784 32.2877 106.695 32.4866C106.684 32.5127 106.63 32.7135 106.732 33.0317C106.834 33.3501 106.993 33.4797 107.014 33.4924C107.47 33.759 107.908 34.0567 108.327 34.3852C110.586 36.1194 112.048 38.5137 112.808 41.3476C113.88 45.3503 113.26 49.1561 110.774 52.4116C108.401 55.555 104.758 57.5816 100.318 58.7711L86.573 62.4542C84.964 62.8853 83.1984 62.8771 81.5574 62.0151L81.5141 61.9924ZM98.8971 42.6432L98.8743 42.6333C98.4897 42.4656 97.4433 42.2895 95.2594 42.8747L88.7856 44.6093L90.037 49.2796L96.5108 47.5449C98.7615 46.9418 99.6135 46.2646 99.866 45.9359C99.9606 45.8129 100.03 45.669 100.06 45.445C100.094 45.1999 100.087 44.7988 99.9223 44.1841C99.614 43.0337 99.1917 42.7664 98.9182 42.652L98.8971 42.6432ZM85.724 33.1833L91.2921 31.6913C93.3645 31.136 94.2489 30.4762 94.5772 30.0687C94.7626 29.8387 94.9581 29.4934 94.7063 28.5538C94.565 28.0262 94.3973 27.7477 94.2783 27.6033C94.1721 27.4744 94.0564 27.3917 93.8871 27.3284C93.4128 27.1511 92.3079 27.0297 90.1948 27.5959L84.6266 29.0879L85.724 33.1833Z" fill="#6017D8"/>
<path fill-rule="evenodd" clip-rule="evenodd" d="M27.1077 97.0276L27.1063 97.0211L27.1002 96.9908C26.4038 93.4091 26.6208 89.6441 27.668 85.7359C28.7229 81.7987 30.4175 78.4231 32.8119 75.6958L32.8285 75.6768C35.2883 72.9303 38.3303 71.0736 41.8996 70.1384C45.5614 69.1653 49.5753 69.3385 53.8581 70.4861C58.0717 71.6151 61.5626 73.4524 64.154 76.1161C66.7446 78.7102 68.397 81.837 69.0778 85.4369C69.7479 88.9795 69.5095 92.7367 68.4568 96.6653C67.412 100.565 65.7398 103.931 63.3885 106.69L63.3805 106.7C60.9901 109.478 57.9928 111.374 54.4471 112.359L54.4374 112.362C50.8719 113.338 46.9369 113.167 42.7244 112.038C38.4479 110.892 34.8861 109.056 32.194 106.424L32.1892 106.419L32.167 106.397C29.5617 103.772 27.8639 100.632 27.1077 97.0276ZM47.5314 70.4237C49.4743 70.4795 51.5071 70.798 53.6228 71.3649C57.7243 72.4639 61.0569 74.2352 63.5064 76.755C65.9707 79.221 67.5372 82.1843 68.1844 85.6065C68.4259 86.8832 68.5447 88.1929 68.5441 89.5341C68.5447 88.1927 68.4259 86.8828 68.1844 85.6059C67.5372 82.1837 65.9707 79.2204 63.5065 76.7544C61.0569 74.2346 57.7244 72.4633 53.6228 71.3643C51.5072 70.7974 49.4745 70.4789 47.5317 70.4231C47.5316 70.4233 47.5315 70.4235 47.5314 70.4237ZM55.1818 85.8757C54.4199 84.2559 53.0401 83.0783 50.6553 82.4393C48.0989 81.7543 46.1703 82.0732 44.5987 83.0986L44.5867 83.1064L44.5801 83.1107C43.0126 84.1141 41.662 86.0012 40.7909 89.2522C39.952 92.3828 40.1874 94.6197 41.0457 96.2422C41.9013 97.8596 43.4253 99.0871 46.009 99.7794C48.423 100.426 50.211 100.112 51.6567 99.1434C53.1405 98.1496 54.4351 96.2999 55.283 93.1354C56.1629 89.8516 55.9771 87.5296 55.1912 85.8955L55.1896 85.892L55.1818 85.8757ZM40.2419 96.6679C39.6328 95.5164 39.3181 94.1413 39.364 92.5018C39.3182 94.1411 39.6329 95.5159 40.242 96.6673C41.2393 98.5526 42.9989 99.9142 45.7737 100.658C48.3909 101.359 50.4595 101.04 52.1626 99.8988C53.8905 98.7415 55.2788 96.6642 56.1613 93.3707C56.4821 92.1733 56.6716 91.0799 56.7428 90.0829C56.6717 91.08 56.4822 92.1736 56.1613 93.3713C55.2788 96.6648 53.8905 98.7421 52.1626 99.8994C50.4595 101.04 48.3909 101.36 45.7736 100.658C42.9989 99.9148 41.2393 98.5532 40.2419 96.6679Z" fill="#6017D8"/>
<path fill-rule="evenodd" clip-rule="evenodd" d="M86.642 87.6895L87.3822 94.539C87.6751 97.2497 85.7152 99.6846 83.0045 99.9776L82.0259 100.083C81.159 100.177 80.3647 100.611 79.8179 101.291C79.2712 101.97 79.0166 102.839 79.1103 103.705L79.7335 109.472C79.8271 110.339 80.2614 111.133 80.9407 111.68C81.62 112.226 82.4886 112.481 83.3556 112.387L106.888 109.844C107.755 109.75 108.549 109.316 109.096 108.637C109.643 107.958 109.897 107.089 109.804 106.222L109.18 100.456C109.087 99.5889 108.652 98.7946 107.973 98.2478C107.294 97.7011 106.425 97.4465 105.558 97.5402L105.011 97.5994C102.875 97.8302 100.956 96.2857 100.725 94.1497L98.1981 70.7677C98.1044 69.9007 97.6702 69.1065 96.9909 68.5597C96.3116 68.0129 95.4429 67.7584 94.576 67.8521L87.6716 68.5982C87.3824 68.6295 87.0978 68.6943 86.8236 68.7915C86.5494 68.8886 86.2875 69.0174 86.0431 69.1752L77.3367 74.7972C76.679 75.2219 76.1877 75.8603 75.9456 76.6049C75.7035 77.3495 75.7253 78.1548 76.0075 78.8851L78.1243 84.3641C78.4667 85.2504 79.19 85.9354 80.0936 86.2292C80.9981 86.5232 81.9915 86.39 82.7888 85.875C84.3526 84.865 86.443 85.8485 86.642 87.6895ZM84.3434 85.1134C83.7556 85.0727 83.1438 85.212 82.5904 85.5694C82.0774 85.9008 81.4727 86.0535 80.8738 86.0126C81.4731 86.0538 82.0781 85.9011 82.5915 85.5695C83.1445 85.2123 83.7559 85.0729 84.3434 85.1134ZM82.8814 112.04C83.0257 112.046 83.1712 112.041 83.3165 112.026L106.849 109.483C107.62 109.399 108.326 109.013 108.813 108.409C109.299 107.805 109.525 107.032 109.442 106.261L108.819 100.495C108.735 99.7238 108.349 99.0175 107.745 98.5312C107.275 98.1531 106.704 97.9322 106.111 97.8916C106.704 97.9324 107.275 98.1533 107.744 98.5311C108.348 99.0174 108.734 99.7238 108.818 100.495L109.441 106.261C109.524 107.032 109.298 107.805 108.811 108.409C108.325 109.013 107.619 109.399 106.848 109.482L83.3154 112.026C83.1704 112.041 83.0254 112.046 82.8814 112.04ZM104.241 97.9718C102.248 97.8088 100.586 96.2509 100.363 94.1888L97.8365 70.8067C97.7532 70.0357 97.367 69.3293 96.7628 68.843C96.2942 68.4658 95.7243 68.245 95.1324 68.2038C95.7239 68.2452 96.2934 68.466 96.7618 68.8429C97.3659 69.3292 97.7521 70.0356 97.8354 70.8067L100.362 94.1887C100.585 96.2512 102.247 97.8093 104.241 97.9718Z" fill="#6017D8"/>
<path fill-rule="evenodd" clip-rule="evenodd" d="M60.1339 15.9257C63.6279 16.3093 66.1495 19.4527 65.766 22.9468L62.3788 53.8029C62.0949 56.389 60.2657 58.5419 57.7594 59.2397C55.2532 59.9376 52.5745 59.0398 50.995 56.9726L42.2875 45.5766L40.2129 60.1595C39.8465 62.7349 37.9497 64.8281 35.4228 65.4457C32.8958 66.0633 30.2474 65.0809 28.7344 62.9648L10.1877 37.0242C8.1433 34.1648 8.804 30.1895 11.6634 28.1451C14.5228 26.1007 18.4981 26.7614 20.5424 29.6208L29.8484 42.6368L31.824 28.7498C32.1852 26.2108 34.035 24.1367 36.5162 23.4883C38.9974 22.84 41.6254 23.7442 43.1824 25.782L51.4599 36.6153L53.1128 21.5578C53.4964 18.0637 56.6398 15.5422 60.1339 15.9257Z" fill="#6017D8"/>
<path fill-rule="evenodd" clip-rule="evenodd" d="M81.5141 61.9924L81.4715 61.9683C79.8117 61.0312 78.898 59.4865 78.4692 57.8862L70.3053 27.4182C69.8765 25.818 69.8955 24.0233 70.8643 22.3819L70.8892 22.3398L70.9151 22.2987C71.9053 20.7316 73.4304 19.8415 75.0395 19.4103L88.252 15.8701C92.57 14.713 96.6322 14.6305 100.166 16.106C103.87 17.5948 106.251 20.5004 107.295 24.3964C107.976 26.9363 107.9 29.4712 106.946 31.8819C106.868 32.0862 106.784 32.2877 106.695 32.4866C106.684 32.5127 106.63 32.7135 106.732 33.0317C106.834 33.3501 106.993 33.4797 107.014 33.4924C107.47 33.759 107.908 34.0567 108.327 34.3852C110.586 36.1194 112.048 38.5137 112.808 41.3476C113.88 45.3503 113.26 49.1561 110.774 52.4116C108.401 55.555 104.758 57.5816 100.318 58.7711L86.573 62.4542C84.964 62.8853 83.1984 62.8771 81.5574 62.0151L81.5141 61.9924ZM98.8971 42.6432L98.8743 42.6333C98.4897 42.4656 97.4433 42.2895 95.2594 42.8747L88.7856 44.6093L90.037 49.2796L96.5108 47.5449C98.7615 46.9418 99.6135 46.2646 99.866 45.9359C99.9606 45.8129 100.03 45.669 100.06 45.445C100.094 45.1999 100.087 44.7988 99.9223 44.1841C99.614 43.0337 99.1917 42.7664 98.9182 42.652L98.8971 42.6432ZM85.724 33.1833L91.2921 31.6913C93.3645 31.136 94.2489 30.4762 94.5772 30.0687C94.7626 29.8387 94.9581 29.4934 94.7063 28.5538C94.565 28.0262 94.3973 27.7477 94.2783 27.6033C94.1721 27.4744 94.0564 27.3917 93.8871 27.3284C93.4128 27.1511 92.3079 27.0297 90.1948 27.5959L84.6266 29.0879L85.724 33.1833Z" fill="#6017D8"/>
<path fill-rule="evenodd" clip-rule="evenodd" d="M27.1077 97.0276L27.1063 97.0211L27.1002 96.9908C26.4038 93.4091 26.6208 89.6441 27.668 85.7359C28.7229 81.7987 30.4175 78.4231 32.8119 75.6958L32.8285 75.6768C35.2883 72.9303 38.3303 71.0736 41.8996 70.1384C45.5614 69.1653 49.5753 69.3385 53.8581 70.4861C58.0717 71.6151 61.5626 73.4524 64.154 76.1161C66.7446 78.7102 68.397 81.837 69.0778 85.4369C69.7479 88.9795 69.5095 92.7367 68.4568 96.6653C67.412 100.565 65.7398 103.931 63.3885 106.69L63.3805 106.7C60.9901 109.478 57.9928 111.374 54.4471 112.359L54.4374 112.362C50.8719 113.338 46.9369 113.167 42.7244 112.038C38.4479 110.892 34.8861 109.056 32.194 106.424L32.1892 106.419L32.167 106.397C29.5617 103.772 27.8639 100.632 27.1077 97.0276ZM47.5314 70.4237C49.4743 70.4795 51.5071 70.798 53.6228 71.3649C57.7243 72.4639 61.0569 74.2352 63.5064 76.755C65.9707 79.221 67.5372 82.1843 68.1844 85.6065C68.4259 86.8832 68.5447 88.1929 68.5441 89.5341C68.5447 88.1927 68.4259 86.8828 68.1844 85.6059C67.5372 82.1837 65.9707 79.2204 63.5065 76.7544C61.0569 74.2346 57.7244 72.4633 53.6228 71.3643C51.5072 70.7974 49.4745 70.4789 47.5317 70.4231C47.5316 70.4233 47.5315 70.4235 47.5314 70.4237ZM55.1818 85.8757C54.4199 84.2559 53.0401 83.0783 50.6553 82.4393C48.0989 81.7543 46.1703 82.0732 44.5987 83.0986L44.5867 83.1064L44.5801 83.1107C43.0126 84.1141 41.662 86.0012 40.7909 89.2522C39.952 92.3828 40.1874 94.6197 41.0457 96.2422C41.9013 97.8596 43.4253 99.0871 46.009 99.7794C48.423 100.426 50.211 100.112 51.6567 99.1434C53.1405 98.1496 54.4351 96.2999 55.283 93.1354C56.1629 89.8516 55.9771 87.5296 55.1912 85.8955L55.1896 85.892L55.1818 85.8757ZM40.2419 96.6679C39.6328 95.5164 39.3181 94.1413 39.364 92.5018C39.3182 94.1411 39.6329 95.5159 40.242 96.6673C41.2393 98.5526 42.9989 99.9142 45.7737 100.658C48.3909 101.359 50.4595 101.04 52.1626 99.8988C53.8905 98.7415 55.2788 96.6642 56.1613 93.3707C56.4821 92.1733 56.6716 91.0799 56.7428 90.0829C56.6717 91.08 56.4822 92.1736 56.1613 93.3713C55.2788 96.6648 53.8905 98.7421 52.1626 99.8994C50.4595 101.04 48.3909 101.36 45.7736 100.658C42.9989 99.9148 41.2393 98.5532 40.2419 96.6679Z" fill="#6017D8"/>
<path fill-rule="evenodd" clip-rule="evenodd" d="M86.642 87.6895L87.3822 94.539C87.6751 97.2497 85.7152 99.6846 83.0045 99.9776L82.0259 100.083C81.159 100.177 80.3647 100.611 79.8179 101.291C79.2712 101.97 79.0166 102.839 79.1103 103.705L79.7335 109.472C79.8271 110.339 80.2614 111.133 80.9407 111.68C81.62 112.226 82.4886 112.481 83.3556 112.387L106.888 109.844C107.755 109.75 108.549 109.316 109.096 108.637C109.643 107.958 109.897 107.089 109.804 106.222L109.18 100.456C109.087 99.5889 108.652 98.7946 107.973 98.2478C107.294 97.7011 106.425 97.4465 105.558 97.5402L105.011 97.5994C102.875 97.8302 100.956 96.2857 100.725 94.1497L98.1981 70.7677C98.1044 69.9007 97.6702 69.1065 96.9909 68.5597C96.3116 68.0129 95.4429 67.7584 94.576 67.8521L87.6716 68.5982C87.3824 68.6295 87.0978 68.6943 86.8236 68.7915C86.5494 68.8886 86.2875 69.0174 86.0431 69.1752L77.3367 74.7972C76.679 75.2219 76.1877 75.8603 75.9456 76.6049C75.7035 77.3495 75.7253 78.1548 76.0075 78.8851L78.1243 84.3641C78.4667 85.2504 79.19 85.9354 80.0936 86.2292C80.9981 86.5232 81.9915 86.39 82.7888 85.875C84.3526 84.865 86.443 85.8485 86.642 87.6895ZM84.3434 85.1134C83.7556 85.0727 83.1438 85.212 82.5904 85.5694C82.0774 85.9008 81.4727 86.0535 80.8738 86.0126C81.4731 86.0538 82.0781 85.9011 82.5915 85.5695C83.1445 85.2123 83.7559 85.0729 84.3434 85.1134ZM82.8814 112.04C83.0257 112.046 83.1712 112.041 83.3165 112.026L106.849 109.483C107.62 109.399 108.326 109.013 108.813 108.409C109.299 107.805 109.525 107.032 109.442 106.261L108.819 100.495C108.735 99.7238 108.349 99.0175 107.745 98.5312C107.275 98.1531 106.704 97.9322 106.111 97.8916C106.704 97.9324 107.275 98.1533 107.744 98.5311C108.348 99.0174 108.734 99.7238 108.818 100.495L109.441 106.261C109.524 107.032 109.298 107.805 108.811 108.409C108.325 109.013 107.619 109.399 106.848 109.482L83.3154 112.026C83.1704 112.041 83.0254 112.046 82.8814 112.04ZM104.241 97.9718C102.248 97.8088 100.586 96.2509 100.363 94.1888L97.8365 70.8067C97.7532 70.0357 97.367 69.3293 96.7628 68.843C96.2942 68.4658 95.7243 68.245 95.1324 68.2038C95.7239 68.2452 96.2934 68.466 96.7618 68.8429C97.3659 69.3292 97.7521 70.0356 97.8354 70.8067L100.362 94.1887C100.585 96.2512 102.247 97.8093 104.241 97.9718Z" fill="#6017D8"/>
</svg>
