<svg width="105" height="98" viewBox="0 0 105 98" fill="none" xmlns="http://www.w3.org/2000/svg">
<path fill-rule="evenodd" clip-rule="evenodd" d="M51.1339 0.925761C54.6279 1.30931 57.1495 4.45274 56.766 7.9468L53.3788 38.8029C53.0949 41.389 51.2657 43.5419 48.7594 44.2398C46.2532 44.9376 43.5745 44.0398 41.995 41.9726L33.2875 30.5766L31.2129 45.1595C30.8465 47.7349 28.9497 49.8282 26.4228 50.4457C23.8958 51.0633 21.2474 50.0809 19.7344 47.9648L1.18767 22.0242C-0.856705 19.1648 -0.196005 15.1895 2.66339 13.1451C5.52278 11.1008 9.49806 11.7615 11.5424 14.6209L20.8484 27.6368L22.824 13.7498C23.1852 11.2108 25.035 9.13668 27.5162 8.48837C29.9974 7.84007 32.6254 8.74427 34.1824 10.782L42.4599 21.6153L44.1128 6.55784C44.4964 3.06378 47.6398 0.54221 51.1339 0.925761Z" fill="#6017D8"/>
<path fill-rule="evenodd" clip-rule="evenodd" d="M72.5144 46.9924L72.4719 46.9683C70.8121 46.0312 69.8984 44.4865 69.4696 42.8862L61.3057 12.4182C60.8769 10.818 60.8958 9.02329 61.8647 7.38186L61.8895 7.33976L61.9155 7.29872C62.9057 5.73162 64.4308 4.84148 66.0398 4.41033L79.2523 0.870058C83.5704 -0.286954 87.6326 -0.369497 91.1663 1.10601C94.8705 2.59483 97.2514 5.50042 98.2953 9.39645C98.9759 11.9363 98.9003 14.4712 97.9462 16.8819C97.8681 17.0862 97.7846 17.2877 97.6957 17.4866C97.684 17.5127 97.6305 17.7135 97.7322 18.0317C97.834 18.3501 97.993 18.4797 98.0148 18.4924C98.4706 18.759 98.9084 19.0567 99.3272 19.3852C101.587 21.1194 103.049 23.5137 103.808 26.3476C104.881 30.3503 104.26 34.1561 101.774 37.4116C99.4016 40.555 95.7581 42.5816 91.3187 43.7711L77.5734 47.4542C75.9644 47.8853 74.1988 47.8771 72.5578 47.0151L72.5144 46.9924ZM89.8975 27.6432L89.8747 27.6333C89.4901 27.4656 88.4436 27.2895 86.2598 27.8747L79.786 29.6093L81.0373 34.2796L87.5112 32.5449C89.7619 31.9418 90.6139 31.2646 90.8664 30.9359C90.9609 30.8129 91.0304 30.669 91.0609 30.445C91.0942 30.1999 91.0874 29.7988 90.9226 29.1841C90.6144 28.0337 90.1921 27.7664 89.9186 27.652L89.8975 27.6432ZM76.7243 18.1833L82.2925 16.6913C84.3648 16.136 85.2492 15.4762 85.5776 15.0687C85.7629 14.8387 85.9584 14.4934 85.7067 13.5538C85.5653 13.0262 85.3977 12.7477 85.2787 12.6033C85.1724 12.4744 85.0567 12.3917 84.8875 12.3284C84.4132 12.1511 83.3083 12.0297 81.1951 12.5959L75.627 14.0879L76.7243 18.1833Z" fill="#6017D8"/>
<path fill-rule="evenodd" clip-rule="evenodd" d="M18.1077 82.0275L18.1063 82.0209L18.1002 81.9906C17.4038 78.409 17.6208 74.644 18.668 70.7358C19.7229 66.7985 21.4175 63.4229 23.8119 60.6956L23.8285 60.6766C26.2883 57.9302 29.3303 56.0734 32.8996 55.1383C36.5614 54.1652 40.5753 54.3383 44.8581 55.4859C49.0717 56.6149 52.5626 58.4522 55.154 61.116C57.7446 63.7101 59.397 66.8369 60.0778 70.4367C60.7479 73.9794 60.5095 77.7365 59.4568 81.6651C58.412 85.5645 56.7398 88.9309 54.3885 91.6902L54.3805 91.6997C51.9901 94.4777 48.9928 96.374 45.4471 97.3592L45.4374 97.362C41.8719 98.3375 37.9369 98.1664 33.7244 97.0376C29.4479 95.8917 25.8861 94.0559 23.194 91.4235L23.1892 91.4188L23.167 91.3967C20.5617 88.7722 18.8639 85.6322 18.1077 82.0275ZM38.5314 55.4236C40.4743 55.4793 42.5071 55.7979 44.6228 56.3648C48.7243 57.4638 52.0569 59.2351 54.5064 61.7549C56.9707 64.2209 58.5372 67.1842 59.1844 70.6063C59.4259 71.883 59.5447 73.1927 59.5441 74.5339C59.5447 73.1925 59.4259 71.8826 59.1844 70.6057C58.5372 67.1835 56.9707 64.2203 54.5065 61.7543C52.0569 59.2345 48.7244 57.4632 44.6228 56.3641C42.5072 55.7973 40.4745 55.4787 38.5317 55.423C38.5316 55.4232 38.5315 55.4234 38.5314 55.4236ZM46.1818 70.8755C45.4199 69.2557 44.0401 68.0781 41.6553 67.4391C39.0989 66.7542 37.1703 67.0731 35.5987 68.0984L35.5867 68.1062L35.5801 68.1105C34.0126 69.114 32.662 71.001 31.7909 74.252C30.952 77.3827 31.1874 79.6195 32.0457 81.242C32.9013 82.8594 34.4253 84.087 37.009 84.7793C39.423 85.4261 41.211 85.1115 42.6567 84.1432C44.1405 83.1494 45.4351 81.2998 46.283 78.1352C47.1629 74.8515 46.9771 72.5295 46.1912 70.8953L46.1896 70.8919L46.1818 70.8755ZM31.2419 81.6678C30.6328 80.5163 30.3181 79.1412 30.364 77.5017C30.3182 79.1409 30.6329 80.5158 31.242 81.6672C32.2393 83.5525 33.9989 84.914 36.7737 85.6575C39.3909 86.3588 41.4595 86.0394 43.1626 84.8987C44.8905 83.7414 46.2788 81.6641 47.1613 78.3705C47.4821 77.1731 47.6716 76.0797 47.7428 75.0828C47.6717 76.0799 47.4822 77.1735 47.1613 78.3711C46.2788 81.6647 44.8905 83.742 43.1626 84.8993C41.4595 86.04 39.3909 86.3594 36.7736 85.6581C33.9989 84.9146 32.2393 83.5531 31.2419 81.6678Z" fill="#6017D8"/>
<path fill-rule="evenodd" clip-rule="evenodd" d="M77.6416 72.6895L78.3818 79.539C78.6748 82.2497 76.7148 84.6846 74.0041 84.9776L73.0255 85.0833C72.1586 85.177 71.3644 85.6113 70.8176 86.2906C70.2708 86.9698 70.0163 87.8385 70.1099 88.7055L70.7331 94.4716C70.8268 95.3386 71.261 96.1328 71.9403 96.6796C72.6196 97.2264 73.4883 97.4809 74.3552 97.3872L97.8876 94.8441C98.7545 94.7504 99.5487 94.3162 100.096 93.6369C100.642 92.9576 100.897 92.0889 100.803 91.222L100.18 85.4558C100.086 84.5889 99.6521 83.7946 98.9728 83.2478C98.2935 82.7011 97.4248 82.4465 96.5579 82.5402L96.0103 82.5994C93.8742 82.8302 91.9555 81.2857 91.7246 79.1497L89.1977 55.7677C89.1041 54.9007 88.6698 54.1065 87.9905 53.5597C87.3112 53.0129 86.4426 52.7584 85.5756 52.8521L78.6712 53.5982C78.382 53.6295 78.0974 53.6943 77.8233 53.7915C77.5491 53.8886 77.2871 54.0174 77.0428 54.1752L68.3364 59.7972C67.6786 60.2219 67.1873 60.8603 66.9452 61.6049C66.7031 62.3495 66.725 63.1548 67.0071 63.8851L69.1239 69.3641C69.4663 70.2504 70.1896 70.9354 71.0932 71.2292C71.9977 71.5232 72.9911 71.39 73.7884 70.875C75.3522 69.865 77.4427 70.8485 77.6416 72.6895ZM75.343 70.1134C74.7552 70.0727 74.1434 70.212 73.59 70.5694C73.0785 70.8998 72.4758 71.0526 71.8786 71.0129C72.4762 71.0529 73.0792 70.9001 73.5911 70.5695C74.1442 70.2123 74.7556 70.0729 75.343 70.1134ZM73.8709 97.0396C74.0186 97.0463 74.1674 97.0417 74.3161 97.0256L97.8485 94.4825C98.6195 94.3992 99.3259 94.013 99.8122 93.4088C100.299 92.8047 100.525 92.0321 100.442 91.261L99.8184 85.4949C99.7351 84.7238 99.3489 84.0175 98.7447 83.5312C98.2822 83.1588 97.7209 82.9389 97.1372 82.8936C97.7205 82.9391 98.2814 83.159 98.7437 83.5311C99.3478 84.0174 99.734 84.7238 99.8173 85.4948L100.44 91.261C100.524 92.032 100.297 92.8046 99.8111 93.4088C99.3248 94.0129 98.6185 94.3991 97.8474 94.4824L74.3151 97.0256C74.1667 97.0416 74.0182 97.0462 73.8709 97.0396ZM95.2997 82.9762C93.2801 82.8394 91.5881 81.2711 91.363 79.1888L88.8362 55.8067C88.7528 55.0357 88.3666 54.3293 87.7625 53.843C87.2939 53.4658 86.724 53.245 86.132 53.2038C86.7236 53.2452 87.2931 53.466 87.7614 53.8429C88.3655 54.3292 88.7517 55.0356 88.8351 55.8067L91.362 79.1887C91.587 81.2714 93.2796 82.8399 95.2997 82.9762Z" fill="#6017D8"/>
</svg>
