<svg width="256" height="256" viewBox="0 0 256 256" fill="none" xmlns="http://www.w3.org/2000/svg">
<g clip-path="url(#clip0_325_334)">
<rect width="256" height="256" fill="white"/>
<g style="mix-blend-mode:multiply">
<ellipse cx="125" cy="215" rx="64" ry="12" fill="#E4E4F4"/>
</g>
<path d="M181.319 110.75C178.721 102.424 176 93.2677 176 84.546V84.546C176 59.9694 152.943 40.046 124.5 40.046C96.0573 40.046 73 59.9694 73 84.546V84.546C73 93.2677 70.279 102.424 67.6808 110.75C66.2881 115.212 66 120.026 66 125.046C66 148.242 89.9822 167.046 124.5 167.046C159.018 167.046 183 148.242 183 125.046C183 120.026 182.712 115.212 181.319 110.75Z" fill="black"/>
<path d="M181.188 75.2395C173.54 77.2894 166.028 77.0002 163 76.546L161 52.546C164.586 56.6003 171.353 67.4238 181.382 73.3873C182.148 73.8427 182.048 75.0088 181.188 75.2395Z" fill="black"/>
<path d="M121 29.046C108.6 29.846 104.833 39.7127 104.5 44.546L124 50.046L146 58.046C153 61.2127 165.7 65.146 160.5 55.546C154 43.546 136.5 28.046 121 29.046Z" fill="black"/>
<path d="M168.268 52.3247C161.448 46.4686 150.294 43.2553 146.569 43.3806C147.883 53.6818 165.204 68.5515 172.701 73.6986C174.065 69.014 175.087 58.1807 168.268 52.3247Z" fill="black" stroke="black"/>
<path d="M78.5001 57.0458C86.1001 45.8458 96.0001 44.0458 105 44.0458L86.0001 75.5458C80.3334 74.0458 70.9001 68.2458 78.5001 57.0458Z" fill="black"/>
<path d="M66.0814 88.4229C66.5348 80.3472 74.2046 70.213 80.2497 67.046C82.1388 77.7345 84.1035 99.5864 76.8493 101.487C67.7816 103.862 65.5147 98.5176 66.0814 88.4229Z" fill="black"/>
<path d="M183.919 94.4229C183.465 86.3472 175.795 76.213 169.75 73.046C167.861 83.7345 165.896 105.586 173.151 107.487C182.218 109.862 184.485 104.518 183.919 94.4229Z" fill="black"/>
<path d="M59.5 118.546C59.9268 110.864 67.3333 104.046 70.5 101.546L69 138.546C67.3333 139.379 65 140.046 58.5 138.546C54.2781 137.572 51.6951 135.664 50.2725 133.701C49.7108 132.926 50.9611 131.295 51.9024 131.121C53.1057 130.898 54.4461 130.498 55.5 130.046C59 128.546 59 127.546 59.5 118.546Z" fill="black"/>
<path d="M191.108 121.946C191.783 113.965 186.345 106.166 183.542 103.264L176.003 106.786C171.757 115.798 166.198 138.256 180.072 140.131C188.526 141.274 194.519 139.836 198.278 138.359C199.298 137.959 198.868 135.833 197.802 135.581C197.496 135.509 197.183 135.428 196.865 135.338C193.464 134.374 190.263 131.923 191.108 121.946Z" fill="black"/>
<path d="M162.47 101.282C159.615 95.4157 157.872 88.744 157.872 82.2199V82.2199C157.872 64.0998 142.931 54.046 124.5 54.046C106.069 54.046 91.128 64.0998 91.128 82.2199V82.2199C91.128 88.744 89.3852 95.4157 86.5303 101.282C84.8942 104.644 84 108.282 84 112.08C84 129.182 102.132 143.046 124.5 143.046C146.868 143.046 165 129.182 165 112.08C165 108.282 164.106 104.644 162.47 101.282Z" fill="white"/>
<path d="M107.48 92.3887C117.649 92.7862 122.73 97.5232 125 99.842V147.046C113.5 144.562 88.7751 138.5 81.8751 134.127C74.9751 129.754 76.8817 111.105 78.6974 102.326C80.3619 97.0263 84.2356 87.0223 86.4145 89.4074L86.4146 89.4074C87.7825 90.9047 90.2954 93.6553 92.0889 96.1102C92.7129 96.9644 95.4206 96.8856 96.1148 96.0875C97.9283 94.0026 101.251 92.1452 107.48 92.3887Z" fill="black"/>
<path d="M142.52 92.3887C132.351 92.7862 127.27 97.5232 125 99.842V147.046C136.5 144.562 161.225 138.5 168.125 134.127C175.025 129.754 173.118 111.105 171.303 102.326C169.638 97.0263 165.764 87.0223 163.585 89.4074L163.585 89.4074C162.218 90.9047 159.705 93.6553 157.911 96.1102C157.287 96.9644 154.579 96.8856 153.885 96.0875C152.072 94.0026 148.749 92.1452 142.52 92.3887Z" fill="black"/>
<path d="M146.895 72.7592C133.926 67.9656 124.895 52.2864 122 45.046C125.088 45.046 134.389 45.4954 146.895 47.293C159.4 49.0906 164.842 68.5149 166 78.0023C165.035 78.2519 159.863 77.5528 146.895 72.7592Z" fill="black"/>
<path d="M115.487 99.911L120.321 103.537C123.094 105.616 126.906 105.616 129.679 103.537L134.513 99.911C138.235 97.1195 143.444 97.4897 146.733 100.779C151.541 105.587 149.772 113.757 143.405 116.144L135.996 118.922C128.906 121.581 121.094 121.581 114.004 118.922L106.595 116.144C100.228 113.757 98.4586 105.587 103.267 100.779C106.556 97.4897 111.765 97.1195 115.487 99.911Z" fill="white" stroke="black"/>
<rect x="124" y="105.046" width="2" height="16" fill="black"/>
<rect x="112.136" y="98.211" width="2" height="19.9846" transform="rotate(15 112.136 98.211)" fill="black"/>
<rect width="2" height="19.9846" transform="matrix(-0.965926 0.258819 0.258819 0.965926 137.932 98.211)" fill="black"/>
<g style="mix-blend-mode:multiply">
<path d="M100 106.5C100.333 105 102.1 104.1 106.5 104.5C108.89 104.717 110.835 105.5 113.993 106.685C117.5 108 121 108.5 125 108.5C129 108.5 132.5 108 136.007 106.685C139.165 105.5 141.11 104.717 143.5 104.5C147.9 104.1 149.667 105 150 106.5V101L144.5 97H136L125 105.5L114 97H105.5L100 101V106.5Z" fill="#E4E4F4"/>
</g>
<circle cx="112.5" cy="84.546" r="11.5" stroke="black" stroke-width="2"/>
<circle cx="137.5" cy="84.546" r="11.5" stroke="black" stroke-width="2"/>
<circle cx="117" cy="87.046" r="6" fill="black"/>
<circle cx="132" cy="85.046" r="6" fill="black"/>
<path d="M101.109 74.3819C100.19 73.7692 98.9486 74.0176 98.3359 74.9366C97.7232 75.8557 97.9715 77.0974 98.8906 77.7101L101.109 74.3819ZM100 76.046L98.8906 77.7101L101.891 79.7101L103 78.046L104.109 76.3819L101.109 74.3819L100 76.046Z" fill="black"/>
<path d="M147.891 74.3819C148.81 73.7692 150.051 74.0176 150.664 74.9366C151.277 75.8557 151.028 77.0974 150.109 77.7101L147.891 74.3819ZM149 76.046L150.109 77.7101L147.109 79.7101L146 78.046L144.891 76.3819L147.891 74.3819L149 76.046Z" fill="black"/>
<rect x="124" y="80.046" width="2" height="9" fill="black"/>
<path d="M106 66.546C108 67.3794 113.2 69.046 118 69.046" stroke="black" stroke-width="12" stroke-linecap="round"/>
<path d="M144 66.546C142 67.3794 136.8 69.046 132 69.046" stroke="black" stroke-width="12" stroke-linecap="round"/>
<g style="mix-blend-mode:multiply">
<path d="M159.5 68L167.5 85C165.943 86.0654 162.75 87.1927 158.194 87.1621C157.983 85.5155 157.873 83.8629 157.873 82.2197C157.873 73.5942 154.485 66.7985 148.949 62.043L159.5 68ZM124.5 57.0459C133.204 57.046 140.843 59.4231 146.236 63.6904C151.555 67.8995 154.873 74.0762 154.873 82.2197C154.873 83.8057 154.968 85.3957 155.15 86.9785C153.254 86.7668 151.178 86.3626 148.937 85.6992C148.978 85.305 149 84.905 149 84.5C149 78.1488 143.852 73.0002 137.5 73C135.082 73 132.838 73.7479 130.986 75.0234C125.581 68.9997 123.534 61.9593 123.08 57.0684C123.55 57.0542 124.024 57.0459 124.5 57.0459ZM138.872 56.3545C134.519 54.8305 129.646 54.0459 124.5 54.0459C123.997 54.0459 123.495 54.0543 122.997 54.0693C122.998 54.0461 122.999 54.023 123 54L128.5 50.5L138.872 56.3545Z" fill="#E4E4F4"/>
</g>
<g style="mix-blend-mode:multiply">
<path fill-rule="evenodd" clip-rule="evenodd" d="M146.236 63.6905C140.843 59.423 133.204 57.046 124.5 57.046C115.796 57.046 108.157 59.423 102.764 63.6905C97.4443 67.8997 94.128 74.0763 94.128 82.2199C94.128 89.2589 92.2537 96.377 89.2279 102.595C87.779 105.572 87 108.763 87 112.08C87 119.5 90.926 126.426 97.6844 131.593C104.445 136.763 113.916 140.046 124.5 140.046C135.084 140.046 144.555 136.763 151.316 131.593C158.074 126.426 162 119.5 162 112.08C162 108.763 161.221 105.572 159.772 102.595C156.746 96.377 154.872 89.2589 154.872 82.2199C154.872 74.0763 151.556 67.8997 146.236 63.6905ZM157.872 82.2199C157.872 88.744 159.615 95.4157 162.47 101.282C164.106 104.644 165 108.282 165 112.08C165 129.182 146.868 143.046 124.5 143.046C102.132 143.046 84 129.182 84 112.08C84 108.282 84.8942 104.644 86.5303 101.282C89.3852 95.4157 91.128 88.744 91.128 82.2199C91.128 64.0998 106.069 54.046 124.5 54.046C142.931 54.046 157.872 64.0998 157.872 82.2199Z" fill="#E4E4F4"/>
</g>
<path d="M202.865 9.03372C203.257 7.39088 204.928 6.3956 206.559 6.83275L214.473 8.95328C216.105 9.39043 217.054 11.0877 216.572 12.7066L188.379 107.464C187.915 109.022 186.296 109.927 184.727 109.507L182.044 108.788C180.474 108.367 179.525 106.774 179.902 105.193L202.865 9.03372Z" fill="black"/>
<path d="M169.405 6.96477L222.146 21.0967C222.487 21.1883 222.798 21.3684 223.046 21.6181L223.149 21.7295L226.465 25.6135L228.251 27.7047L230.842 26.7866L235.656 25.0807C236.037 24.9456 236.451 24.9299 236.842 25.0346L246.584 27.645C247.651 27.9309 248.284 29.0276 247.999 30.0945L233.265 85.0815C232.979 86.1484 231.882 86.7816 230.815 86.4958L153.636 65.8155C152.569 65.5296 151.935 64.4329 152.221 63.366L166.955 8.37899L167.018 8.18462C167.354 7.29986 168.27 6.77084 169.205 6.92233L169.405 6.96477Z" fill="white" stroke="black" stroke-width="8"/>
<path d="M198.968 50.9497C198.347 50.7832 197.885 50.4374 197.582 49.9121C197.308 49.3948 197.244 48.7435 197.391 47.9583L199.892 33.8333C200.233 32.0854 200.985 30.9388 202.145 30.3936C203.306 29.8483 204.671 29.7858 206.239 30.2061C207.541 30.5549 208.526 31.1994 209.194 32.1395C209.87 33.05 210.045 34.1119 209.72 35.3251C209.633 35.6506 209.489 36.0085 209.29 36.399L202.141 49.2308C201.787 49.9605 201.317 50.4691 200.733 50.7565C200.178 51.0518 199.59 51.1162 198.968 50.9497ZM195.549 61.4032C194.336 61.0782 193.426 60.3904 192.819 59.3398C192.243 58.2972 192.117 57.1693 192.442 55.9561C192.767 54.7429 193.44 53.8291 194.461 53.2146C195.511 52.6081 196.643 52.4674 197.856 52.7925C199.099 53.1255 200.009 53.8133 200.586 54.8559C201.192 55.9064 201.333 57.0383 201.008 58.2515C200.683 59.4647 199.995 60.3745 198.945 60.9811C197.924 61.5955 196.792 61.7362 195.549 61.4032Z" fill="black"/>
<path d="M122.753 165.046H112.753L114.439 205.521C114.473 206.336 113.57 206.846 112.889 206.397L103.142 199.962C98.8013 197.095 93.505 194.032 89 196.633C86.7032 197.959 85.0272 200.143 84.3408 202.705C83.6543 205.267 84.0137 207.997 85.3398 210.293C87.9407 214.798 94.059 214.794 99.2515 214.482L119.953 213.097C121.528 212.991 122.753 211.683 122.753 210.103V165.046Z" fill="black"/>
<path d="M127 165.046H137L135.314 205.521C135.28 206.336 136.183 206.846 136.864 206.397L146.61 199.962C150.951 197.095 156.248 194.032 160.753 196.633C163.049 197.959 164.725 200.143 165.412 202.705C166.098 205.267 165.739 207.997 164.413 210.293C161.812 214.798 155.694 214.794 150.501 214.482L129.8 213.097C128.224 212.991 127 211.683 127 210.103V165.046Z" fill="black"/>
<circle cx="73.3923" cy="171.105" r="15" transform="rotate(30 73.3923 171.105)" fill="white" stroke="black" stroke-width="6"/>
<rect x="91.9282" y="131" width="8" height="32" transform="rotate(30 91.9282 131)" fill="black"/>
<g style="mix-blend-mode:multiply">
<path d="M72.5 171.5C66.5 167.5 65 160.167 65 157H77L85.5 161L88.5 175C85.6667 175.5 78.5 175.5 72.5 171.5Z" fill="#E4E4F4"/>
</g>
<circle cx="181.579" cy="103.655" r="15" transform="rotate(-150 181.579 103.655)" fill="white" stroke="black" stroke-width="6"/>
<rect x="163.043" y="143.76" width="8" height="32" transform="rotate(-150 163.043 143.76)" fill="black"/>
<g style="mix-blend-mode:multiply">
<path d="M183.187 103.26C189.187 107.26 190.687 114.593 190.687 117.76H178.687L170.187 113.76L167.187 99.7599C170.02 99.2599 177.187 99.2599 183.187 103.26Z" fill="#E4E4F4"/>
</g>
</g>
<defs>
<clipPath id="clip0_325_334">
<rect width="256" height="256" fill="white"/>
</clipPath>
</defs>
</svg>
