<svg width="400" height="198" viewBox="0 0 400 198" fill="none" xmlns="http://www.w3.org/2000/svg">
<path fill-rule="evenodd" clip-rule="evenodd" d="M351.66 151.542L351.841 151.683C354.104 153.444 356.399 155.22 358.725 157.011L358.762 157.04L358.8 157.068C361.093 158.804 363.371 160.539 365.633 162.275L373.64 168.417L399.769 139.828L388.655 132.809C387.783 132.258 386.996 131.76 386.293 131.314L386.324 124.75H394.766V92.6249H388.457C388.693 91.5621 388.935 90.4385 389.185 89.2554L391.578 77.9135L370.806 74.655L366.897 80.4804C361.552 88.4461 356.987 95.1679 353.197 100.655C353.116 101.59 353.056 102.579 353.016 103.625H361.266V108.326C362.13 107.079 363.036 105.766 363.985 104.385C364.129 104.174 364.275 103.962 364.422 103.748C364.451 103.706 364.479 103.665 364.508 103.623C364.6 103.488 364.693 103.352 364.787 103.216C364.839 103.139 364.892 103.062 364.945 102.984C364.999 102.906 365.052 102.828 365.106 102.75C366.926 100.092 368.89 97.2036 370.997 94.0854C371.009 94.0687 371.02 94.052 371.031 94.0353C372.617 91.6899 374.283 89.2146 376.031 86.6093L378.422 86.9843C378.345 87.3497 378.269 87.7082 378.193 88.0599C377.834 89.7369 377.496 91.2585 377.178 92.6249C376.94 93.6435 376.715 94.5758 376.5 95.4218C376.326 96.1378 376.174 96.9125 376.044 97.7457C375.812 99.2283 375.649 100.896 375.555 102.75C375.54 103.037 375.527 103.329 375.516 103.625H383.766V113.75H375.375L375.281 133.719C375.281 134.306 375.294 134.83 375.32 135.29C375.396 136.664 375.586 137.469 375.891 137.703C376.328 138.016 378.625 139.484 382.781 142.109L372.328 153.547C370.699 152.297 369.062 151.047 367.417 149.798C366.759 149.297 366.099 148.797 365.438 148.297C363.3 146.65 361.189 145.017 359.105 143.397L351.66 151.542ZM359.614 141.688C357.362 140.264 355.713 139.216 354.669 138.543C353.981 138.1 353.555 137.82 353.391 137.703C353.201 137.557 353.055 137.188 352.954 136.596C352.839 135.924 352.781 134.965 352.781 133.719L352.784 133.107C352.785 133.105 352.786 133.104 352.787 133.102C352.792 133.093 352.796 133.085 352.8 133.078L352.878 124.984H352.822L352.875 113.75H359.906V113.984H363.985L363.797 133.437C363.771 134.82 363.465 136.172 362.878 137.492C362.218 138.976 361.203 140.421 359.832 141.826C359.759 141.779 359.687 141.733 359.614 141.688Z" fill="#6017D8"/>
<path fill-rule="evenodd" clip-rule="evenodd" d="M326.984 149.85L329.34 151.683C331.604 153.444 333.899 155.22 336.225 157.011L336.262 157.04L336.3 157.068C338.593 158.804 340.871 160.539 343.133 162.275L351.14 168.417L367.853 150.129C367.05 149.518 366.245 148.908 365.438 148.297C363.383 146.714 361.353 145.144 359.348 143.586C359.267 143.523 359.186 143.46 359.104 143.397L349.828 153.547C348.199 152.297 346.562 151.047 344.917 149.798C344.258 149.297 343.599 148.797 342.938 148.297C340.625 146.516 338.344 144.75 336.094 143C338.104 141.229 339.532 139.393 340.378 137.492C340.965 136.172 341.271 134.82 341.297 133.437L341.484 113.984H337.406V110.281C338.667 108.474 340.026 106.509 341.484 104.385C341.629 104.174 341.775 103.962 341.922 103.748C341.95 103.706 341.979 103.665 342.008 103.623C342.1 103.488 342.193 103.352 342.286 103.216C342.339 103.139 342.392 103.062 342.445 102.984C342.499 102.906 342.552 102.828 342.606 102.75C344.426 100.092 346.389 97.2036 348.497 94.0854C348.509 94.0687 348.52 94.052 348.531 94.0353C350.116 91.6899 351.783 89.2146 353.531 86.6093L355.922 86.9843C355.845 87.3496 355.769 87.7082 355.693 88.0599C355.334 89.7369 354.996 91.2585 354.677 92.6249C354.44 93.6435 354.214 94.5758 354 95.4218C353.826 96.1378 353.674 96.9125 353.544 97.7457C353.312 99.2283 353.149 100.896 353.054 102.75C353.04 103.037 353.027 103.329 353.016 103.625H361.266V108.326C362.287 106.852 363.368 105.285 364.506 103.625C366.768 100.327 369.261 96.6598 371.984 92.6249H365.957C366.193 91.5621 366.435 90.4385 366.685 89.2554L369.078 77.9135L348.306 74.655L344.397 80.4804C337.916 90.1401 332.581 97.9705 328.384 103.989L326.406 106.824V107.041L331.219 109.297C331.13 109.627 331.037 109.955 330.941 110.281C330.661 111.22 330.348 112.142 330 113.047C329.889 113.357 329.791 113.67 329.708 113.984C329.465 114.904 329.344 115.842 329.344 116.797L329.061 124.984H330.378L330.3 133.078C330.296 133.085 330.292 133.093 330.287 133.102C330.168 133.32 329.793 133.891 328.823 134.745L328.722 134.835L328.688 135.828V136.109C328.688 137.641 329.156 138.906 330.094 139.906C331.031 140.875 332.109 141.609 333.328 142.109L326.984 149.85ZM363.881 124.75L363.984 113.984H359.906V113.75H352.875L352.781 133.719C352.781 134.306 352.794 134.83 352.82 135.29C352.896 136.664 353.086 137.469 353.391 137.703C353.812 138.004 355.959 139.378 359.832 141.826C359.854 141.803 359.876 141.781 359.897 141.759C362.155 139.422 363.433 136.976 363.731 134.42C363.753 134.227 363.77 134.033 363.781 133.839C363.789 133.705 363.794 133.572 363.797 133.437L363.817 131.33C363.809 131.325 363.801 131.32 363.793 131.314L363.823 124.75H363.881Z" fill="#6017D8"/>
<path fill-rule="evenodd" clip-rule="evenodd" d="M283.537 128.474L283.386 138.267C283.345 138.321 283.295 138.383 283.236 138.453L276.03 147.026L301.2 167.424L313.131 158.706L325.273 169.289L342.657 148.081C340.441 146.373 338.253 144.679 336.094 143C339.483 140.015 341.217 136.845 341.296 133.488L339.796 132.873L340.344 116.986V116.797C340.344 116.796 340.344 116.795 340.344 116.794C340.695 115.868 341.018 114.932 341.312 113.984H337.407V110.281C339.023 107.964 340.802 105.387 342.743 102.55L317.516 90.7251L311.437 98.3742L295.193 90.7253L285.405 102.96C286.006 105.079 286.379 107.264 286.525 109.513C286.571 110.231 286.594 110.956 286.594 111.687C286.594 112.875 286.532 114.062 286.407 115.25C286.328 116.049 286.231 116.849 286.117 117.649C286.111 117.693 286.105 117.737 286.099 117.781C285.877 119.317 285.591 120.854 285.242 122.394C285.235 122.427 285.228 122.459 285.22 122.491C284.766 124.482 284.205 126.476 283.537 128.474ZM294.704 117.781L294.375 139.062C294.375 141.064 293.594 143.066 292.033 145.067C291.912 145.222 291.787 145.376 291.657 145.531C291.657 145.531 291.657 145.531 291.657 145.531L301.547 153.547L313.735 144.641L323.954 153.547L333.329 142.109C332.11 141.609 331.032 140.875 330.094 139.906C329.782 139.573 329.521 139.21 329.313 138.818C328.896 138.033 328.688 137.13 328.688 136.109V135.828L329.344 116.797C329.344 115.516 329.563 114.266 330 113.047C330.469 111.828 330.875 110.578 331.219 109.297L320.719 104.375L313.641 113.281C314.491 113.833 315.185 114.384 315.723 114.936C316.177 115.402 316.52 115.868 316.751 116.334C316.798 116.428 316.84 116.523 316.878 116.617C316.902 116.677 316.924 116.737 316.944 116.797C316.98 116.905 317.011 117.012 317.035 117.12C317.085 117.34 317.11 117.561 317.11 117.781L316.782 137C314.416 139.05 312.498 140.361 311.026 140.933C310.455 141.155 309.952 141.266 309.516 141.266C308.891 141.266 308.391 141.031 308.016 140.562C307.088 139.268 306.542 138.021 306.377 136.822C306.359 136.689 306.345 136.556 306.336 136.423C306.323 136.223 306.32 136.025 306.329 135.828L306.938 116.797C306.938 115.516 307.157 114.266 307.594 113.047C308.048 111.867 308.443 110.657 308.78 109.418C308.791 109.378 308.802 109.337 308.813 109.297L298.36 104.375L291.235 113.281C292.11 113.849 292.819 114.416 293.363 114.984C294.257 115.916 294.704 116.849 294.704 117.781Z" fill="#6017D8"/>
<path fill-rule="evenodd" clip-rule="evenodd" d="M215.105 98.0149L225.377 103.151C226.724 103.825 228.081 104.488 229.447 105.14C229.682 111.954 229.797 117.088 229.797 120.594V125.258L210.259 143.887L228.646 150.525C227.828 157.838 226.622 163.548 225.149 167.818L214.872 197.593L241.45 180.688C250.277 175.074 257.21 170.716 262.268 167.601L267.44 164.415L273.572 166.612L278.455 160.231C285.89 150.514 291.348 140.523 294.51 130.281L294.703 117.781C294.703 117.211 294.536 116.641 294.202 116.071C294.191 116.053 294.181 116.036 294.171 116.019C293.62 115.106 292.641 114.194 291.234 113.281L297.206 105.816C295.515 93.206 288.358 82.6389 277.289 74.2718L270.453 69.1047L259.52 77.8801C255.593 76.6566 249.549 74.8547 241.442 72.4878L234.302 70.4032L216.133 93.5373C216.031 94.6004 215.688 96.0929 215.105 98.0149ZM256.406 94.4845C256.5 93.547 256.578 92.5782 256.64 91.5782C256.663 91.2153 256.688 90.8524 256.715 90.4895C256.762 89.8524 256.815 89.2153 256.875 88.5782C255.101 88.0213 252.802 87.3199 249.977 86.4743C246.778 85.5169 242.906 84.3744 238.359 83.047L230.297 93.3126C231.922 94.1251 233.562 94.922 235.219 95.7032C236.906 96.4532 238.562 97.2032 240.187 97.9532C240.195 98.1366 240.202 98.3192 240.209 98.5009C240.601 108.503 240.797 115.867 240.797 120.594V129.969L230.719 139.578L240.328 143.047C240.269 143.979 240.205 144.896 240.135 145.798C239.849 149.513 239.475 152.976 239.012 156.189C238.158 162.114 237.003 167.187 235.547 171.406C240.676 168.144 245.181 165.296 249.059 162.864C250.91 161.703 252.618 160.638 254.184 159.666C254.994 159.164 255.766 158.686 256.5 158.234C255.562 156.547 254.953 153.188 254.672 148.156L269.719 153.547C270.525 152.493 271.303 151.439 272.052 150.387C276.768 143.762 280.343 137.175 282.778 130.625C284.151 126.93 285.162 123.246 285.81 119.574C286.065 118.131 286.263 116.69 286.406 115.25C286.531 114.063 286.594 112.875 286.594 111.688C286.594 100.625 281.281 91.0782 270.656 83.047L256.406 94.4845ZM264.568 102.038C263.508 101.21 262.467 100.786 261.448 100.766C261.424 100.766 261.399 100.766 261.375 100.766C259.437 100.766 257.547 102.188 255.703 105.031C255.609 106.501 255.52 107.946 255.437 109.367C254.936 117.888 254.618 125.536 254.484 132.313L269.906 139.484H270.187C274.062 139.484 276 136.531 276 130.625C276 127.078 275.518 123.462 274.555 119.775C274.152 118.232 273.665 116.677 273.094 115.109C271.156 109.797 268.531 105.625 265.219 102.594C265.001 102.392 264.784 102.207 264.568 102.038Z" fill="#6017D8"/>
<path fill-rule="evenodd" clip-rule="evenodd" d="M209.749 106.527L179.479 91.5728L152.71 113.33L155.297 115.203L153.89 120.734L153.638 126.986L153.714 138.412C153.718 138.423 153.722 138.433 153.727 138.443C153.802 138.619 153.887 138.79 153.982 138.955C154.025 139.031 154.071 139.106 154.118 139.18C154.283 139.436 154.473 139.678 154.687 139.906C155.625 140.875 156.687 141.609 157.875 142.109L151.354 150.065L155.381 153.699C155.82 154.095 156.267 154.481 156.722 154.857L139.428 176.642L160.24 178.113C168.637 178.707 176.167 179.766 182.864 181.254L189.245 182.672L219.173 148.349L211.39 141.344C211.308 141.239 211.18 141.07 211.006 140.822C210.523 140.135 209.861 139.106 209.004 137.663C208.605 136.992 208.285 136.423 208.034 135.95C207.944 135.782 207.867 135.631 207.799 135.498L207.957 122.424L220.143 111.662L211.689 107.486C211.404 108.205 211.105 108.948 210.793 109.715C210.311 109.233 209.777 108.914 209.191 108.758C209.396 108.027 209.582 107.283 209.749 106.527ZM163.563 146.24C164.462 146.995 165.413 147.708 166.417 148.378C166.719 148.581 167.027 148.779 167.339 148.973C168.8 149.883 170.366 150.708 172.036 151.448C172.373 151.598 172.715 151.744 173.061 151.886C173.077 151.893 173.093 151.9 173.109 151.906L161.015 167.141C164.216 167.367 167.316 167.659 170.316 168.016C171.557 168.163 172.78 168.322 173.987 168.492C177.924 169.048 181.678 169.722 185.25 170.516L203.765 149.281C203.765 149.281 203.765 149.281 203.765 149.281C202.828 148.437 201.421 146.437 199.547 143.281C198.584 141.66 197.872 140.316 197.412 139.247C197.342 139.084 197.278 138.928 197.22 138.779C196.914 137.996 196.768 137.387 196.781 136.953L196.969 121.438C196.969 121.035 196.996 120.639 197.051 120.25C197.36 118.064 198.536 116.069 200.578 114.266L180.937 104.563L162.656 119.422C162.692 119.465 162.727 119.508 162.761 119.551C163.328 120.261 163.766 121.012 164.074 121.804C164.235 122.218 164.361 122.642 164.452 123.078C164.577 123.682 164.635 124.307 164.625 124.953L164.719 139.109C164.685 139.456 164.646 139.791 164.602 140.116C164.275 142.515 163.658 144.32 162.75 145.531C163.016 145.771 163.287 146.007 163.563 146.24ZM173.625 157.016C175.71 157.016 177.859 157.155 180.072 157.434C180.096 157.437 180.12 157.44 180.145 157.443C180.707 157.514 181.273 157.595 181.844 157.684C182.057 157.718 182.27 157.752 182.484 157.788C183.763 158.003 185.062 158.262 186.382 158.565C187.088 158.728 187.801 158.903 188.519 159.091C188.85 159.178 189.182 159.267 189.515 159.359L192.375 155.703C191.886 155.147 191.428 154.575 191 153.986C190.832 153.757 190.67 153.524 190.512 153.289C189.807 152.242 189.193 151.144 188.67 149.996C188.661 149.975 188.651 149.954 188.642 149.934C188.637 149.924 188.633 149.914 188.628 149.904C188.292 149.156 187.994 148.387 187.734 147.597C187.543 147.014 187.372 146.419 187.222 145.813C186.886 144.449 186.656 143.026 186.532 141.546C186.506 141.236 186.485 140.924 186.469 140.609L173.625 157.016ZM186.187 135.266L186.047 119.797L177.75 115.813C176.788 117.256 176.081 118.616 175.629 119.892C175.516 120.211 175.419 120.525 175.338 120.834C175.315 120.922 175.294 121.009 175.273 121.097C175.176 121.511 175.108 121.916 175.069 122.312C175.044 122.571 175.031 122.827 175.031 123.078V134.563C175.031 135.548 175.093 136.406 175.218 137.136C175.332 137.803 175.498 138.363 175.717 138.817C175.82 139.032 175.935 139.223 176.062 139.391C176.565 140.024 177.021 140.589 177.432 141.085C177.531 141.204 177.627 141.319 177.72 141.43C177.794 141.519 177.866 141.604 177.937 141.688C178.105 141.875 178.286 142.053 178.482 142.222C178.906 142.587 179.397 142.909 179.953 143.188L186.187 135.266Z" fill="#6017D8"/>
<path fill-rule="evenodd" clip-rule="evenodd" d="M107.607 151.052L129.729 168.98L137.905 159.006C139.087 160.083 140.369 161.15 141.714 162.204L150.185 168.843L166.769 148.61C165.323 147.67 163.983 146.644 162.75 145.531C163.781 144.156 164.438 142.016 164.719 139.109L164.679 133.039L164.408 132.924L164.64 127.172L164.625 124.953C164.633 124.434 164.597 123.928 164.518 123.436C164.388 122.631 164.141 121.864 163.778 121.133C163.482 120.538 163.108 119.968 162.656 119.422L166.334 116.432L167.798 110.674L138.311 89.3215L132.673 96.3567L122.701 89.4894L108.552 107.293L112.828 109.297C112.453 110.578 112.047 111.828 111.61 113.047C111.172 114.266 110.953 115.516 110.953 116.797L110.297 135.828V136.25C110.297 137.243 110.511 138.122 110.94 138.886C110.973 138.946 111.008 139.004 111.044 139.062C111.229 139.362 111.449 139.643 111.703 139.906C112.641 140.875 113.719 141.609 114.938 142.109L107.607 151.052ZM121.313 117.781L120.938 139.062C120.938 141.137 120.113 143.212 118.464 145.286C118.399 145.368 118.333 145.449 118.266 145.531C118.266 145.531 118.266 145.531 118.266 145.531L128.156 153.547L137.531 142.109C136.372 141.634 135.34 140.946 134.436 140.047C134.389 140 134.343 139.954 134.297 139.906C134.051 139.643 133.837 139.362 133.655 139.062C133.625 139.014 133.597 138.965 133.569 138.916C133.551 138.883 133.533 138.851 133.516 138.818C133.099 138.033 132.891 137.13 132.891 136.109V135.828L133.781 118.109L135.656 115.156C137.248 116.375 138.522 117.454 139.481 118.396C140.391 119.29 141.016 120.059 141.355 120.704C141.556 121.086 141.656 121.424 141.656 121.719L141.328 139.062V140.047C141.328 141.798 141.426 143.311 141.621 144.587C141.677 144.95 141.74 145.293 141.811 145.618C142.116 147.002 142.564 148.035 143.156 148.719C143.651 149.275 144.229 149.864 144.89 150.484C145.303 150.871 145.748 151.27 146.225 151.682C146.916 152.278 147.674 152.899 148.5 153.547L157.875 142.109C156.688 141.609 155.625 140.875 154.688 139.906C154.481 139.685 154.296 139.452 154.135 139.205C154.067 139.101 154.004 138.995 153.944 138.887C153.586 138.237 153.373 137.505 153.305 136.691C153.289 136.501 153.281 136.308 153.281 136.109V135.828L153.891 120.734L155.297 115.203L140.344 104.375L134.86 111.219L124.922 104.375L117.844 113.281C118.694 113.833 119.388 114.384 119.926 114.936C120.85 115.884 121.313 116.833 121.313 117.781ZM164.281 136.109V136.06C164.282 136.077 164.281 136.093 164.281 136.109ZM175.29 137.506C175.331 137.697 175.376 137.878 175.427 138.049L175.722 137.688L175.29 137.506Z" fill="#6017D8"/>
<path fill-rule="evenodd" clip-rule="evenodd" d="M110.027 77.442L92.2456 70.3174L86.2207 100.065C86.8067 100.792 87.3913 101.502 87.9743 102.195C88.3262 102.613 88.6776 103.025 89.0284 103.43C90.1076 104.679 91.1816 105.869 92.2504 107L82.5392 111.596L79.1504 115.86L82.5669 118.106L81.1958 124.876L82.793 127.735L87.5715 124.237L87.3906 135.967L92.1567 144.5C88.7755 146.529 85.8477 148.289 83.3736 149.781L107.152 168.961L123.127 149.471L118.266 145.531C118.382 145.391 118.493 145.252 118.601 145.112C120.159 143.095 120.938 141.079 120.938 139.062L121.313 117.781C121.313 117.571 121.29 117.361 121.245 117.152C121.22 117.033 121.187 116.915 121.147 116.797C121.104 116.67 121.053 116.542 120.993 116.415C120.504 115.371 119.455 114.326 117.844 113.281L124.922 104.375L125.595 104.838L126.034 103.338L119.989 100.505L136.825 88.179L114.181 79.1062C113.85 79.6411 113.508 80.1786 113.157 80.7187L108.5 79.2499C109.04 78.6571 109.549 78.0544 110.027 77.442ZM102.329 104.375L95.2504 113.281C96.0381 113.799 96.6898 114.317 97.2055 114.835C97.7117 115.343 98.0869 115.852 98.331 116.36C98.5585 116.834 98.6723 117.307 98.6723 117.781L98.3442 139.062C98.3442 141.044 97.5785 143.026 96.0471 145.008C95.9125 145.183 95.7719 145.357 95.6254 145.531L105.563 153.547L114.938 142.109C113.719 141.609 112.641 140.875 111.704 139.906C111.373 139.565 111.101 139.192 110.887 138.789C110.494 138.047 110.297 137.201 110.297 136.25V135.828L110.954 116.797C110.954 115.516 111.172 114.266 111.61 113.047C112.047 111.828 112.454 110.578 112.829 109.297L102.329 104.375ZM96.6567 103.953L114.329 91.0155L100.407 85.4374L96.6567 103.953Z" fill="#6017D8"/>
<path fill-rule="evenodd" clip-rule="evenodd" d="M71.5186 66.9109L66.4757 74.6769L60.6447 74.2346C56.1406 73.8929 51.6365 73.5357 47.1324 73.1629M47.9384 84.2665C47.3652 84.2196 46.792 84.1724 46.2189 84.1249C41.7189 83.7499 37.2189 83.3906 32.7189 83.0468C32.33 84.5299 31.9664 85.9148 31.6279 87.2014C30.0621 93.1532 29.0352 97.0027 28.547 98.7499C29.1888 98.654 29.8033 98.5638 30.3907 98.4792C30.7558 98.4267 31.1104 98.3763 31.4544 98.3281C34.327 97.9257 36.4668 97.6757 37.8738 97.5781C38.3244 97.5468 38.6998 97.5312 39.0001 97.5312C39.4681 97.5312 39.8916 97.5346 40.2706 97.5415C40.7015 97.5492 41.0749 97.5614 41.3907 97.5781V98.3281C41.3907 108.234 40.7657 117.906 39.5157 127.344C39.3976 128.255 39.2554 129.149 39.0892 130.024C38.9641 130.683 38.8255 131.331 38.6732 131.969C38.0451 134.601 37.1852 137.06 36.0937 139.344C34.984 141.667 33.6348 143.81 32.0461 145.773C30.8831 147.211 29.5917 148.552 28.172 149.797C33.0859 150.048 37.633 150.488 41.8135 151.118C45.9543 151.742 49.7352 152.552 53.1564 153.547L61.1251 138.969C60.4931 139.086 59.8606 139.192 59.2275 139.287C57.5627 139.537 55.894 139.711 54.2216 139.81C54.1924 139.812 54.1633 139.813 54.1341 139.815C53.0754 139.876 52.015 139.906 50.9532 139.906C50.2051 139.906 49.3132 139.784 48.2774 139.539C48.1625 139.511 48.0458 139.483 47.9273 139.453C47.2849 139.289 46.5904 139.081 45.8439 138.828C46.8158 137.812 47.8737 136.843 49.0175 135.92C49.4917 135.538 49.9807 135.163 50.4845 134.797C50.6454 134.677 50.8016 134.555 50.9532 134.431C51.0258 134.371 51.0972 134.312 51.1676 134.251C51.3405 134.103 51.5069 133.952 51.667 133.799C52.4262 133.069 53.0407 132.276 53.5105 131.419C53.7174 131.042 53.8962 130.652 54.047 130.25C54.1792 129.891 54.3038 129.526 54.4209 129.154C54.4618 129.024 54.5018 128.893 54.5409 128.762C54.9173 127.494 55.2072 126.155 55.4107 124.743C55.4253 124.642 55.4395 124.54 55.4532 124.437L62.6251 121.016C63.1525 122.036 63.6799 123.074 64.2072 124.13C64.4697 124.655 64.7323 125.185 64.9948 125.719C65.0699 125.872 65.1449 126.025 65.22 126.179C65.3459 126.436 65.4718 126.694 65.5977 126.953C65.7461 127.259 65.8945 127.566 66.043 127.875C68.1098 132.17 70.1767 136.732 72.2435 141.562C72.4797 142.114 72.7159 142.67 72.9521 143.229C74.3535 146.545 75.7549 149.984 77.1564 153.547C79.3849 152.187 82.5671 150.264 86.7029 147.776C88.3664 146.775 90.1842 145.683 92.1564 144.5L75.6095 114.875L92.2501 107C89.8091 104.416 87.3412 101.528 84.8463 98.3342C83.5111 96.6252 82.1682 94.829 80.8176 92.9454C78.6177 89.8775 76.3973 86.5779 74.1564 83.0468C73.6105 83.8874 73.0646 84.7224 72.5188 85.5515C71.9629 86.3959 71.407 87.2344 70.8512 88.0669C70.2901 88.9072 69.729 89.7415 69.168 90.5697C68.6137 91.3879 68.0594 92.2002 67.5051 93.0067C66.5972 94.3275 65.6893 95.6326 64.7814 96.9218C64.7011 97.0357 64.6209 97.1493 64.5406 97.2625C64.5247 97.2849 64.5088 97.3073 64.4929 97.3297C64.3541 97.525 64.2152 97.7193 64.0762 97.9124C62.4899 100.117 60.8916 102.178 59.2812 104.094C59.0573 104.36 58.8332 104.624 58.6089 104.884C57.5002 106.173 56.3858 107.394 55.2657 108.547C55.2341 107.994 55.2105 107.341 55.1949 106.588C55.1796 105.852 55.172 105.021 55.172 104.094C55.172 103.02 55.2315 101.723 55.3505 100.203C55.4427 99.0245 55.5707 97.7121 55.7345 96.2656C55.7482 96.1528 55.763 96.0396 55.7788 95.9261C55.9815 94.4758 56.3611 92.9617 56.9174 91.3838C57.6091 89.4222 58.5742 87.3619 59.8126 85.2031C59.7185 85.1959 59.6244 85.1888 59.5303 85.1816C55.6664 84.8879 51.8024 84.5829 47.9384 84.2665ZM70.6759 105.04C69.8993 103.992 69.1688 102.817 68.4845 101.516L55.6876 117.172C55.6876 117.703 55.7032 118.125 55.7345 118.437C56.0609 118.295 56.3856 118.151 56.7088 118.007C57.3253 117.731 57.9361 117.453 58.541 117.172C59.1588 116.885 59.7706 116.595 60.3763 116.302C61.0176 115.992 61.6522 115.679 62.28 115.363C62.5414 115.231 62.8016 115.099 63.0606 114.966C63.4327 114.775 63.8024 114.583 64.1697 114.39C64.6314 114.147 65.0893 113.902 65.5434 113.655C67.0414 112.842 68.4977 112.009 69.9123 111.156C70.9467 110.532 71.9588 109.897 72.9486 109.252C73.3073 109.019 73.6629 108.783 74.0157 108.547C73.1769 107.883 72.3783 107.109 71.6197 106.225C71.5404 106.133 71.4616 106.039 71.3832 105.944C71.1433 105.654 70.9075 105.353 70.6759 105.04ZM90.9511 119.784L98.3036 116.305C97.8007 115.297 96.7829 114.289 95.2501 113.281L102.328 104.375L106.949 106.541L101.296 100.557L96.6564 103.953L98.0555 97.0448C93.4373 91.8117 88.56 85.2143 83.444 77.1527L77.993 68.5633C75.6052 68.403 73.447 67.8522 71.5186 66.9109M98.4345 133.182L98.3439 139.062C98.3439 139.779 98.2438 140.495 98.0438 141.212C97.6417 142.651 96.8354 144.091 95.6251 145.531L102.532 151.103L97.8158 153.932C90.9435 158.056 85.9729 161.054 82.8847 162.938L71.7114 169.753L66.92 157.574C66.4378 156.348 65.9561 155.139 65.4748 153.945L58.5696 166.578L50.0837 164.109C44.2632 162.416 36.8288 161.254 27.6104 160.782L0.537109 159.399L20.9198 141.526C24.9984 137.95 27.6864 133.035 28.6069 125.93L28.6089 125.915L28.611 125.899C29.317 120.568 29.8139 115.149 30.1 109.64L13.385 112.138L17.9528 95.7898C18.5174 93.7688 19.8829 88.6315 22.0785 80.2572L24.4059 71.3797L33.5567 72.0788C38.0798 72.4243 42.603 72.7855 47.1261 73.1624M98.4345 133.182L90.9511 119.784Z" fill="#6017D8"/>
<path fill-rule="evenodd" clip-rule="evenodd" d="M213.211 61.4073L211.324 61.1841L207.523 65.25C206.242 66.6207 205.039 67.9967 203.921 69.3784L203.897 69.4076L203.874 69.437C203.159 70.3333 202.341 71.2737 201.412 72.257L193.257 80.886L196.866 83.8096C198.326 82.7556 199.622 81.7617 200.754 80.8281C201.662 81.2174 202.576 81.8845 203.495 82.8295C203.501 82.8352 203.506 82.8409 203.512 82.8466C203.601 82.9393 203.691 83.0347 203.781 83.1328C204.333 83.7231 204.827 84.32 205.266 84.9234C205.291 84.9577 205.315 84.9919 205.34 85.0262C205.452 85.1822 205.559 85.3387 205.663 85.4955C205.733 85.5997 205.8 85.704 205.866 85.8086C206.558 86.9088 207.067 88.0304 207.392 89.1733C207.395 89.1845 207.398 89.1958 207.401 89.207C207.406 89.2255 207.412 89.2441 207.417 89.2626C207.531 89.6775 207.621 90.0951 207.688 90.5156C207.74 90.8151 207.766 91.1015 207.766 91.375C207.766 91.5525 207.756 91.7231 207.735 91.8867C207.692 92.2304 207.603 92.5434 207.469 92.8259C207.466 92.8331 207.463 92.8402 207.459 92.8474C207.35 93.073 207.211 93.2788 207.043 93.4648L200.559 101.727L199.52 101.214C199.307 102.853 198.997 104.374 198.6 105.787L196.752 112.375L200.578 114.266C199.531 115.19 198.712 116.165 198.121 117.19L204.381 118.859L214.731 129.209L220.981 113.864C222.789 109.424 224.228 105.595 225.242 102.45C225.803 100.71 226.38 98.7545 226.754 96.8086H230.231V83.3332C230.856 82.5689 231.48 81.7923 232.103 81.0036L243.21 66.9347L243.12 66.8652L226.612 63.5962L221.031 69.0937C220.808 68.946 220.589 68.7975 220.374 68.6481C220.371 68.6463 220.368 68.6445 220.366 68.6427C219.439 67.9999 218.581 67.342 217.792 66.6691C217.708 66.5978 217.626 66.5264 217.544 66.4549C217.154 66.1145 216.782 65.7703 216.427 65.4222C215.116 64.1362 214.044 62.7978 213.211 61.4073ZM210.054 80.4249C209.867 80.2145 209.651 80.0104 209.406 79.8125C210.421 78.739 211.355 77.6763 212.209 76.6242C212.298 76.5149 212.386 76.4058 212.473 76.2968C212.746 75.9587 213.028 75.6189 213.317 75.2774C213.449 75.1215 213.582 74.9652 213.718 74.8086C213.949 74.5405 214.185 74.2714 214.426 74.0013C214.793 73.5905 215.17 73.1772 215.559 72.7617C215.72 72.7808 215.883 72.801 216.047 72.8224C216.374 72.865 216.706 72.9122 217.044 72.964C217.248 72.9953 217.455 73.0283 217.663 73.063C217.881 73.0993 218.102 73.1374 218.324 73.1774C218.622 73.2309 218.924 73.2878 219.231 73.348C219.296 73.3607 219.361 73.3736 219.426 73.3867L223.469 74.1875C223.035 74.7374 222.601 75.2801 222.167 75.8157C222.015 76.003 221.863 76.1894 221.711 76.375L219.953 78.5234C219.722 78.3846 219.481 78.2578 219.231 78.1431C219.008 78.0409 218.777 77.9483 218.539 77.8652C218.536 77.8643 218.533 77.8634 218.531 77.8625C218.379 77.8097 218.224 77.7608 218.066 77.7158C217.579 77.5769 217.062 77.475 216.516 77.4101C216.463 77.4895 216.404 77.5766 216.34 77.6713C216.253 77.7999 216.155 77.9426 216.047 78.0994C215.908 78.3011 215.752 78.526 215.578 78.7743C215.573 78.7817 215.568 78.7891 215.563 78.7966C215.536 78.8352 215.508 78.8743 215.481 78.914C215.728 79.4479 215.917 80.1054 216.047 80.8867H219.231V85.8086H216.34C216.34 85.9931 216.339 86.178 216.338 86.3634C216.332 87.28 216.312 88.2076 216.277 89.1459C216.277 89.1663 216.276 89.1866 216.275 89.207C216.271 89.3175 216.266 89.4282 216.262 89.539C216.236 90.3549 216.214 91.1374 216.194 91.8867C216.183 92.2854 216.173 92.6748 216.164 93.0547C216.133 94.2223 215.718 96.0758 214.919 98.6153C214.918 98.6198 214.916 98.6244 214.915 98.6289C214.86 98.8032 214.803 98.9807 214.745 99.1615C213.882 101.826 212.627 105.192 210.978 109.259C210.917 109.41 210.855 109.562 210.793 109.715C210.333 109.255 209.826 108.943 209.271 108.78C209.245 108.772 209.218 108.765 209.192 108.758C209.284 108.427 209.373 108.094 209.458 107.758C210.196 104.841 210.641 101.73 210.793 98.4258C210.893 96.4085 210.965 94.5772 211.01 92.9319C211.01 92.9276 211.01 92.9233 211.01 92.919C211.02 92.5664 211.029 92.2222 211.036 91.8867C211.055 90.9888 211.065 90.1521 211.066 89.3767C211.066 89.3594 211.066 89.3421 211.066 89.3248C211.067 89.2854 211.067 89.2461 211.067 89.207C211.067 88.0121 211.06 86.8793 211.048 85.8086C211.035 84.6856 211.015 83.631 210.988 82.6445C210.981 82.3386 210.931 82.042 210.839 81.7547C210.777 81.5586 210.694 81.3668 210.592 81.1794C210.538 81.0806 210.479 80.9831 210.414 80.8867C210.309 80.7296 210.189 80.5757 210.054 80.4249ZM199.912 95.5538C200.597 95.8539 201.053 96.0039 201.281 96.0039C201.542 96.0039 201.718 95.9909 201.809 95.9648C202.955 95.7044 203.527 94.9817 203.527 93.7968C203.527 93.5234 203.495 93.2174 203.43 92.8789C203.127 91.4076 202.729 90.1837 202.236 89.207C202.01 88.7575 201.763 88.3603 201.496 88.0156C201.065 87.4425 200.584 86.9567 200.055 86.5582C200.063 87.3975 200.067 88.2803 200.067 89.207C200.067 90.9106 200.017 93.0192 199.912 95.5538Z" fill="#6017D8"/>
<path fill-rule="evenodd" clip-rule="evenodd" d="M194.25 85.6421C193.906 85.8772 193.554 86.115 193.195 86.3554C193.351 86.7069 193.449 87.3515 193.488 88.289L193.527 92.8397C193.527 92.8494 193.527 92.859 193.527 92.8687C193.525 93.166 193.502 93.4753 193.458 93.7968C193.451 93.8434 193.444 93.8904 193.437 93.9376C193.428 93.9928 193.419 94.0484 193.409 94.1043C193.397 94.1697 193.385 94.2356 193.372 94.3019C193.337 94.4768 193.296 94.655 193.249 94.8366C193.241 94.8646 193.234 94.8928 193.227 94.921C193.221 94.9422 193.215 94.9634 193.209 94.9847C193.196 95.0316 193.183 95.0787 193.17 95.1261C193.109 95.3357 193.042 95.5495 192.966 95.7677C192.765 96.3499 192.509 96.9625 192.199 97.6054L200.558 101.726L207.043 93.4647C207.344 93.1301 207.552 92.7316 207.665 92.2691C207.681 92.1994 207.696 92.1283 207.709 92.0558C207.713 92.0356 207.716 92.0153 207.719 91.9948C207.75 91.7986 207.765 91.5919 207.765 91.3749C207.765 91.1015 207.739 90.815 207.687 90.5155C207.635 90.1859 207.568 89.8581 207.487 89.5319C207.417 89.2536 207.337 88.9765 207.246 88.7007C207.057 88.1293 206.822 87.5634 206.54 87.0028C206.324 86.5733 206.082 86.1469 205.811 85.7237C205.676 85.5111 205.533 85.2992 205.384 85.0882C205.371 85.0707 205.359 85.0533 205.346 85.0358C204.888 84.3941 204.366 83.7597 203.781 83.1327C203.749 83.0984 203.718 83.0645 203.686 83.0309C203.37 82.6922 203.054 82.3865 202.738 82.1137C202.074 81.539 201.412 81.1104 200.753 80.828C200.537 81.0068 200.314 81.1879 200.085 81.3711C198.448 82.6818 196.503 84.1055 194.25 85.6421ZM198.449 94.2025C198.545 94.4956 198.72 94.7565 198.973 94.9853C199.125 95.1227 199.305 95.2486 199.513 95.3628C199.585 95.402 199.66 95.4399 199.738 95.4765C200.519 95.828 201.033 96.0038 201.281 96.0038C201.541 96.0038 201.717 95.9908 201.808 95.9647C202.884 95.7202 203.455 95.0682 203.52 94.0088C203.525 93.9398 203.527 93.8692 203.527 93.7968C203.527 93.5679 203.504 93.3162 203.458 93.0416C203.45 92.9882 203.44 92.9339 203.429 92.8788C203.427 92.8658 203.424 92.8527 203.421 92.8397C203.415 92.8114 203.409 92.7831 203.403 92.755C203.397 92.7264 203.391 92.6979 203.385 92.6695C203.287 92.2134 203.179 91.7819 203.062 91.3749C203.057 91.3574 203.052 91.34 203.047 91.3225C203.04 91.298 203.032 91.2735 203.025 91.2491C202.956 91.0148 202.883 90.7888 202.807 90.5711C202.733 90.3594 202.657 90.1556 202.577 89.9597C202.536 89.8587 202.494 89.7597 202.451 89.6628C202.435 89.6266 202.419 89.5906 202.402 89.5549C202.324 89.3821 202.242 89.2162 202.159 89.0573C201.998 88.7524 201.827 88.4729 201.646 88.2189C201.597 88.1492 201.547 88.0814 201.496 88.0155C201.481 87.996 201.466 87.9765 201.451 87.9572C201.395 87.8841 201.338 87.8125 201.281 87.7423C200.915 87.2974 200.517 86.9107 200.086 86.5822C200.075 86.5732 200.063 86.5643 200.051 86.5554C199.904 86.4449 199.753 86.3412 199.599 86.2442C199.382 86.1077 199.157 85.9846 198.925 85.8748C198.833 85.831 198.739 85.7893 198.644 85.7497C198.58 85.7227 198.514 85.6968 198.449 85.6718L198.442 86.6061L198.442 86.6162L198.39 93.9725C198.405 94.0513 198.424 94.1279 198.449 94.2025ZM211.852 75.6595C212.055 75.8772 212.255 76.0981 212.452 76.322C211.533 77.4726 210.517 78.6361 209.406 79.8124C210.344 80.5723 210.865 81.4242 210.969 82.3682C210.979 82.4594 210.986 82.5515 210.988 82.6444C211.04 84.5715 211.066 86.759 211.066 89.2069C211.066 89.4417 211.065 89.6821 211.063 89.9283C211.063 89.9469 211.063 89.9656 211.063 89.9843C211.06 90.4089 211.054 90.8506 211.046 91.3092C211.046 91.3311 211.046 91.353 211.045 91.3749C211.045 91.388 211.045 91.4012 211.044 91.4143C211.031 92.1637 211.011 92.9578 210.984 93.7968C210.957 94.6449 210.923 95.5389 210.883 96.4787C210.876 96.6224 210.87 96.7672 210.864 96.913C210.842 97.405 210.818 97.9093 210.793 98.4257C210.711 100.201 210.545 101.921 210.294 103.584C210.042 105.255 209.705 106.87 209.282 108.428L203.7 115.54L177.554 102.65L182.291 92.8271C182.398 92.6056 182.472 92.4316 182.522 92.3031L182.497 89.3689L179.384 82.3645L187.075 77.2149C187.222 77.1167 187.367 77.0191 187.51 76.9224L187.561 69.7605L193.941 72.1878L198.926 68.0771L205.087 70.7174C207.936 71.9384 210.16 73.8224 211.852 75.6595ZM213.291 103.32L215.548 100.444C217.936 97.5914 218.765 94.2634 218.765 91.3749C218.765 90.4392 218.679 89.5509 218.54 88.7231C218.379 87.7214 218.152 86.7498 217.868 85.8085H216.339C216.339 86.8647 216.32 87.9355 216.281 89.0209C216.28 89.0686 216.278 89.1162 216.276 89.164C216.271 89.2888 216.266 89.4138 216.261 89.539C216.242 90.1709 216.223 90.7829 216.207 91.3749C216.191 91.9539 216.176 92.5138 216.164 93.0546C216.13 94.3449 215.626 96.4729 214.654 99.4386C214.58 99.6632 214.504 99.8926 214.425 100.127C214.094 101.107 213.716 102.171 213.291 103.32Z" fill="#6017D8"/>
<path fill-rule="evenodd" clip-rule="evenodd" d="M319.64 55.6849C319.291 54.775 318.978 53.8487 318.701 52.9068L326.218 45L320.723 41.0584C323.892 36.3484 328.053 31.9583 332.943 27.8379L337.372 24.1066L342.954 25.6456C345.865 26.4479 349.201 27.2305 352.98 27.9867L388.931 18.999L361.02 47.652L366.625 61.6978L359.866 66.7489C357.004 68.8871 354.202 71.745 351.511 75.4717L345.641 83.5991L337.006 78.5063C334.069 76.7746 330.131 75.1807 324.979 73.8881L306.637 69.2863L310.027 65.7401L318.281 69.0313L321.531 64.4688C321.772 64.1301 322.014 63.7909 322.256 63.4511C322.518 63.0836 322.781 62.7156 323.044 62.3469C323.543 61.6488 324.044 60.9485 324.546 60.2461C324.635 60.1225 324.723 59.9988 324.812 59.875C324.596 59.8817 324.386 59.8889 324.181 59.8965C323.225 59.9324 322.384 59.9797 321.658 60.0385C321.561 60.0463 321.467 60.0543 321.375 60.0625C320.458 60.125 319.656 60.1563 318.968 60.1563C318.736 60.1563 318.481 60.15 318.202 60.1373C317.683 60.1136 317.084 60.0679 316.406 60C316.153 59.9748 315.906 59.9226 315.665 59.8434L319.64 55.6849ZM341.125 36.546C340.755 36.4479 340.391 36.3492 340.031 36.25C339.375 36.8024 338.741 37.3547 338.129 37.9071C338.096 37.9365 338.063 37.9659 338.031 37.9954C336.406 39.466 334.933 40.9366 333.613 42.4072C333.595 42.4272 333.577 42.4472 333.559 42.4671C333.047 43.039 332.558 43.6108 332.093 44.1827C332.023 44.2676 331.955 44.3526 331.886 44.4375C330.766 45.8334 329.783 47.2292 328.937 48.625C328.967 48.7484 328.998 48.8713 329.03 48.9937C329.365 50.2793 329.787 51.5123 330.297 52.6928C330.48 53.1167 330.674 53.5339 330.88 53.9443C331.26 54.7037 331.68 55.44 332.138 56.153C332.44 56.6225 332.758 57.0819 333.093 57.5313L327.656 63.2188C329.104 63.5821 330.497 63.9732 331.835 64.3918C333.387 64.8775 334.864 65.4004 336.267 65.9605C337.221 66.3414 338.14 66.7395 339.026 67.1548C339.045 67.1641 339.065 67.1733 339.085 67.1826C340.322 67.7651 341.491 68.3813 342.593 69.0313C343.117 68.3069 343.648 67.6033 344.187 66.9205C346.67 63.7775 349.324 61.0748 352.15 58.8125C352.524 58.5132 352.901 58.2215 353.281 57.9375L348.156 45.0938L354.031 39.0625L353.281 39.25C351.231 38.8642 349.277 38.4677 347.418 38.0606C347.335 38.0423 347.251 38.0239 347.168 38.0055C345.026 37.5333 343.011 37.0466 341.125 36.546C341.125 36.546 341.125 36.5461 341.125 36.546ZM347.333 59.0669C347.34 58.9847 347.343 58.8999 347.343 58.8125C347.343 58.7433 347.339 58.67 347.331 58.5927C347.33 58.5822 347.328 58.5716 347.327 58.561C347.31 58.4168 347.278 58.2591 347.232 58.0878C346.912 56.8875 345.897 55.0216 344.187 52.4902C344.007 52.2234 343.819 51.9493 343.624 51.6678C343.614 51.654 343.604 51.6402 343.595 51.6264C343.569 51.5898 343.544 51.5532 343.518 51.5164C343.302 51.2072 343.077 50.8893 342.843 50.5625L335.343 58.2813C335.68 58.4745 336.013 58.6575 336.343 58.8306C336.4 58.86 336.456 58.8892 336.512 58.9181C338.69 60.04 340.734 60.7217 342.645 60.9632C343.169 61.0294 343.683 61.0625 344.187 61.0625C344.468 61.0625 344.73 61.0492 344.974 61.0224C346.447 60.8605 347.234 60.2086 347.333 59.0669ZM335.871 43.9883C335.811 44.1431 335.781 44.2928 335.781 44.4375C335.781 44.9885 336.03 45.7637 336.528 46.7632C336.881 47.4718 337.359 48.2931 337.962 49.2271C337.985 49.2625 338.008 49.2981 338.031 49.3338C338.393 49.8914 338.8 50.4885 339.25 51.125L345.312 44.875C344.725 44.7164 344.169 44.5705 343.644 44.4375C340.956 43.756 339.094 43.4123 338.058 43.4064C338.049 43.4063 338.04 43.4063 338.031 43.4063C336.802 43.4063 336.114 43.5313 335.968 43.7813C335.956 43.8038 335.944 43.8261 335.933 43.8484C335.91 43.8955 335.889 43.9421 335.871 43.9883ZM317.841 49.5634C317.863 49.4694 317.875 49.3753 317.875 49.2813C317.875 48.9722 317.747 48.5924 317.492 48.1418L317.841 49.5634Z" fill="#6017D8"/>
<path fill-rule="evenodd" clip-rule="evenodd" d="M322.23 82.4479L290.896 69.9535L291.204 68.239L300.531 56.0938C300.575 56.038 300.617 55.9811 300.657 55.9231C300.75 55.7863 300.832 55.6431 300.902 55.4936C301.113 55.043 301.219 54.5347 301.219 53.9688C301.219 53.7381 301.217 53.5193 301.212 53.3125C301.199 52.7725 301.17 52.3141 301.125 51.9375C301.044 51.1592 300.927 50.3884 300.775 49.625C300.65 49.0017 300.502 48.3834 300.33 47.7701C299.921 46.3096 299.377 44.8774 298.699 43.4737C298.04 42.112 297.255 40.777 296.344 39.4688C295.254 37.9025 294.081 36.7537 292.825 36.0221L302.969 30.0533V18.4517L316.628 25.2813H317.6L336.851 39.0889C333.732 42.0497 331.229 45.0104 329.344 47.9711C329.205 48.1891 329.07 48.407 328.938 48.625C328.947 48.6641 328.957 48.7031 328.967 48.742C329.556 51.1008 330.438 53.2844 331.611 55.2928C332.062 56.0649 332.557 56.811 333.094 57.5313L327.656 63.2188C328.662 63.4712 329.642 63.7369 330.594 64.016C331.94 64.4103 333.233 64.8313 334.473 65.2789L333.756 66.2801C332.657 67.8142 331.569 69.3378 330.491 70.8508L322.23 82.4479ZM343.917 52.0923L338.401 59.7943C337.411 59.3877 336.393 58.8834 335.344 58.2813L342.844 50.5625C343.226 51.0958 343.584 51.6057 343.917 52.0923ZM342.254 44.0979C340.283 43.6368 338.875 43.4063 338.031 43.4063C336.802 43.4063 336.115 43.5313 335.969 43.7813C335.844 44.0105 335.781 44.2292 335.781 44.4375C335.781 45.2713 336.351 46.6187 337.492 48.4797C337.568 48.604 337.646 48.7305 337.728 48.8593C338.162 49.549 338.67 50.3042 339.25 51.125L341.949 48.3425L338.107 48.4608L342.254 44.0979ZM318.281 69.0313L321.531 64.4688C321.575 64.4072 321.619 64.3457 321.663 64.2841C321.689 64.2477 321.715 64.2114 321.741 64.175C322.756 62.7508 323.78 61.3175 324.813 59.875C324.343 59.8895 323.898 59.9064 323.478 59.9259C322.895 59.953 322.36 59.9849 321.874 60.0216C321.702 60.0347 321.535 60.0483 321.375 60.0625C320.458 60.125 319.656 60.1563 318.969 60.1563C318.406 60.1563 317.71 60.1192 316.881 60.045C316.727 60.0313 316.569 60.0163 316.406 60C315.874 59.9468 315.366 59.7737 314.882 59.4809C314.781 59.4194 314.68 59.3525 314.581 59.2804C314.228 59.0245 313.888 58.7018 313.563 58.3125L326.219 45L314.063 36.2813H314.031L313.969 36.25V36.3438L303.188 42.6875C303.603 45.0604 303.885 47.3729 304.033 49.625C304.092 50.5102 304.129 51.3861 304.146 52.2527C304.153 52.6075 304.156 52.9608 304.156 53.3125C304.156 53.963 304.146 54.6088 304.125 55.25C304.095 56.1764 304.043 57.093 303.969 58C303.915 58.6686 303.848 59.3319 303.77 59.9899C303.67 60.8382 303.549 61.6778 303.409 62.5086C303.378 62.6937 303.346 62.8783 303.313 63.0625L318.281 69.0313ZM317.344 50.4063C317.352 50.3975 317.36 50.3888 317.368 50.38C317.601 50.1284 317.753 49.8767 317.826 49.625C317.859 49.5105 317.875 49.3959 317.875 49.2813C317.875 49.2232 317.871 49.1626 317.862 49.0995C317.861 49.0959 317.861 49.0923 317.86 49.0887C317.809 48.7466 317.626 48.3316 317.313 47.8438C317.203 47.6639 317.093 47.4939 316.982 47.3338C316.733 46.9748 316.478 46.6656 316.219 46.4063C315.654 45.9131 315.139 45.526 314.675 45.2451C314.46 45.1153 314.256 45.0081 314.063 44.9237C314.052 44.9191 314.042 44.9146 314.031 44.9102C313.684 44.7617 313.371 44.6875 313.094 44.6875C312.65 44.6875 312.288 44.9092 312.008 45.3525C312.006 45.3554 312.004 45.3584 312.002 45.3613C311.732 45.7921 311.538 46.4297 311.42 47.2738C311.393 47.4633 311.37 47.6632 311.352 47.8736C311.313 48.3 311.291 48.7692 311.284 49.2813C311.282 49.3938 311.281 49.5084 311.281 49.625C311.281 49.973 311.292 50.3211 311.314 50.6691C311.326 50.8674 311.342 51.0658 311.361 51.2642C311.367 51.3248 311.373 51.3854 311.38 51.446C311.387 51.5118 311.394 51.5776 311.402 51.6434C311.412 51.725 311.422 51.8066 311.433 51.8881C311.497 52.3629 311.581 52.8377 311.684 53.3125C311.786 53.7758 311.906 54.2391 312.045 54.7024C312.1 54.8849 312.158 55.0675 312.219 55.25C312.219 55.4057 312.24 55.5399 312.284 55.6525C312.292 55.6755 312.302 55.6976 312.313 55.7188L317.344 50.4063ZM292.663 60.053C292.988 57.9226 293.156 55.6785 293.156 53.3125C293.156 52.0916 293.104 50.8285 292.996 49.5221C293.503 50.6109 293.944 51.8744 294.319 53.3125C294.474 53.9076 294.618 54.5326 294.75 55.1875C294.854 55.7292 294.906 56.2292 294.906 56.6875C294.906 58.4007 294.159 59.5225 292.663 60.053Z" fill="#6017D8"/>
<path fill-rule="evenodd" clip-rule="evenodd" d="M259.245 45.1281C259.191 45.0268 259.135 44.9256 259.078 44.8245C257.538 42.1064 254.867 39.4231 251.063 36.7747C251.021 36.7456 250.979 36.7165 250.937 36.6874L250.237 37.3986L256.089 8.50488L296.027 24.5071L286.921 31.1737C287.313 27.3962 288.766 24.755 291.281 23.2499L289.312 22.0312C284.52 24.6145 280.052 26.6353 275.906 28.0937L275.562 29.5624C276.046 29.8043 276.473 30.0595 276.845 30.3283C278.073 31.2173 278.687 32.2537 278.687 33.4374L278.937 55.1249C278.937 55.847 278.884 56.5449 278.778 57.2187C278.763 57.3098 278.748 57.4005 278.732 57.4907C278.731 57.4938 278.731 57.4968 278.73 57.4999C278.617 58.1253 278.456 58.7295 278.25 59.3124C277.791 60.5832 277.302 61.7812 276.781 62.9062L283.995 66.4879L269.972 83.5956L269.095 84.2994L247.452 66.842L251.093 61.6874C250.609 61.4837 250.005 61.1242 249.28 60.6091L251.902 57.4891L251.913 56.8028L248.019 59.6538C247.93 59.5834 247.841 59.5112 247.75 59.4374C247.012 58.8392 246.473 58.2519 246.13 57.6757L248.271 47.1059L246.26 45.7837L246.281 45.4062L247.312 43.9999C247.814 44.293 248.285 44.5844 248.723 44.8744C250.198 45.851 251.308 46.8099 252.052 47.7511C252.077 47.782 252.101 47.8128 252.125 47.8437C252.439 48.2455 252.733 48.6679 253.004 49.1106C253.162 49.3671 253.312 49.6305 253.455 49.9007C253.61 50.1936 253.756 50.4946 253.894 50.8037C254.093 51.2482 254.274 51.7095 254.437 52.1874L259.437 45.4999C259.385 45.3957 259.332 45.2915 259.277 45.1874C259.266 45.1676 259.256 45.1479 259.245 45.1281ZM264.25 23.6249L261.75 35.9687L273.531 27.3437L264.25 23.6249ZM260.812 42.1874C261.337 42.5327 261.772 42.878 262.115 43.2233C262.149 43.2572 262.182 43.2912 262.214 43.3252C262.503 43.6305 262.72 43.9357 262.866 44.241C262.913 44.3377 262.952 44.4344 262.984 44.5312C263.057 44.7499 263.093 44.9687 263.093 45.1874L262.903 57.4999L262.903 57.5153L262.875 59.3749C262.875 60.6962 262.364 62.0175 261.343 63.3387C261.279 63.4219 261.213 63.5051 261.144 63.5883C261.131 63.6042 261.118 63.6201 261.105 63.636C261.091 63.6532 261.076 63.6703 261.062 63.6874L267.687 69.0312L273.937 61.4062C273.912 61.3959 273.887 61.3856 273.863 61.375C273.827 61.3601 273.792 61.3448 273.757 61.3292C273.018 60.9991 272.359 60.5352 271.781 59.9374C271.649 59.8013 271.531 59.6577 271.427 59.5068C271.397 59.4634 271.369 59.4195 271.341 59.3749C271.304 59.3152 271.269 59.2545 271.237 59.1926C270.974 58.6983 270.843 58.1341 270.843 57.4999V57.2187L271.281 44.5312C271.281 43.8024 271.387 43.0889 271.599 42.3905C271.636 42.2703 271.675 42.1505 271.718 42.0312C271.799 41.8074 271.877 41.582 271.955 41.3551C272.158 40.758 272.35 40.1501 272.531 39.5312L265.531 36.2499L260.812 42.1874ZM286.702 54.7535L291.874 56.8752L289.541 59.7218C289.316 59.6289 289.073 59.5236 288.812 59.4062C287.583 58.8228 286.875 58.0103 286.687 56.9687L286.702 54.7535Z" fill="#6017D8"/>
<path fill-rule="evenodd" clip-rule="evenodd" d="M224.134 66.0376L231.594 58.6875C231.136 58.375 230.677 58.073 230.219 57.7813L228.907 56.8438C228.89 56.8724 228.872 56.9008 228.855 56.929C228.791 57.0345 228.726 57.1369 228.661 57.2363C227.58 58.8913 226.391 59.7188 225.094 59.7188C224.639 59.7188 224.174 59.5882 223.699 59.327L227.022 55.3515L226.992 49.6077L219.667 44.6556C220.02 44.3435 220.35 44.1875 220.657 44.1875C221.032 44.1875 221.625 44.375 222.438 44.75C223.271 45.125 224.052 45.5938 224.782 46.1563C225.364 46.577 226.098 47.0668 226.982 47.6258C227.1 47.7003 227.22 47.776 227.343 47.853C227.486 47.942 227.632 48.0327 227.782 48.125L234.032 42.625C232.198 41.5209 230.334 40.4167 228.438 39.3125C227.401 38.6971 226.379 38.0753 225.373 37.4474L238.212 21.2922L245.573 26.4588L249.589 22.3807L257.195 27.6402C259.082 28.9455 260.9 30.3638 262.572 31.9111L261.75 35.9688L264.572 33.9029C265.483 34.8823 266.331 35.9092 267.103 36.9867L265.532 36.25L260.813 42.1875C261.678 42.7567 262.298 43.3258 262.671 43.895C262.953 44.3258 263.094 44.7567 263.094 45.1875L262.875 59.375C262.875 60.8125 262.271 62.25 261.063 63.6875L262.392 64.7594L248.247 84.7838L224.134 66.0376ZM271.155 48.1982L272.299 46.6682L271.279 44.6132L271.155 48.1982ZM256.67 56.6961L256.671 56.6751C256.67 56.6821 256.67 56.6891 256.67 56.6961ZM259.438 45.5C259.069 44.7572 258.616 44.017 258.079 43.2794C258.064 43.2584 258.048 43.2374 258.033 43.2163C256.496 41.1254 254.283 39.0553 251.393 37.006C251.243 36.8998 251.091 36.7936 250.938 36.6875L246.875 40.8125L240.375 36.25L235.657 42.1875C235.785 42.2742 235.908 42.3609 236.025 42.4475C236.331 42.6727 236.6 42.8979 236.834 43.123C237.463 43.7292 237.831 44.3353 237.939 44.9415C237.954 45.0235 237.964 45.1055 237.969 45.1875L238.023 55.6204L238.024 55.6355L238.032 57.1875C237.996 58.464 237.541 59.7095 236.667 60.9239C236.528 61.1167 236.379 61.3088 236.219 61.5L245.907 69.0313L251.094 61.6875C250.493 61.4344 249.705 60.9408 248.731 60.2069C248.423 59.9746 248.096 59.7181 247.75 59.4375C247.517 59.2485 247.304 59.0605 247.111 58.8737C246.598 58.3787 246.223 57.8913 245.987 57.4116C245.943 57.323 245.905 57.2347 245.87 57.1467C245.728 56.7808 245.667 56.4194 245.688 56.0625L246.282 45.4063L247.313 44C247.535 44.1294 247.75 44.2584 247.959 44.3872C248.046 44.4405 248.132 44.4938 248.216 44.5471C248.477 44.7115 248.728 44.8754 248.969 45.0389C249.245 45.2265 249.507 45.4135 249.756 45.5999C250.363 46.0537 250.889 46.5036 251.335 46.9496C251.635 47.2494 251.898 47.5475 252.125 47.8438C252.364 48.1486 252.591 48.4652 252.805 48.7935C253.024 49.1301 253.23 49.4789 253.423 49.8402C253.636 50.2374 253.833 50.6495 254.014 51.0766C254.074 51.2178 254.132 51.3606 254.188 51.5051C254.276 51.7287 254.359 51.9561 254.438 52.1875L259.438 45.5ZM229.497 51.3011C229.514 51.3124 229.521 51.3181 229.521 51.3181ZM229.521 51.3181C229.52 51.318 229.512 51.3124 229.497 51.3011Z" fill="#6017D8"/>
<path fill-rule="evenodd" clip-rule="evenodd" d="M201.634 62.6488C203.692 68.1634 207.576 72.7414 212.372 76.4224C212.406 76.3806 212.439 76.3388 212.473 76.297C213.41 75.1381 214.439 73.9597 215.559 72.7618C216.44 72.866 217.362 73.0047 218.326 73.1778C218.687 73.2426 219.053 73.3123 219.426 73.3868L223.469 74.1876C222.883 74.9298 222.297 75.6589 221.711 76.3751L219.953 78.5235C218.977 77.9376 217.831 77.5665 216.516 77.4102C216.307 77.7236 216.01 78.1559 215.625 78.7072L218.915 80.8868H219.23V81.0958L222.395 83.1922L240.799 65.0606L236.219 61.5001C236.272 61.4364 236.324 61.3726 236.375 61.3088C237.439 59.973 237.991 58.5993 238.031 57.1876L237.969 45.1876C237.906 44.1876 237.135 43.1876 235.656 42.1876L240.375 36.2501L246.875 40.8126L248.911 38.7456L239.706 33.2021C237.839 32.0772 235.941 30.9534 234.014 29.8305C232.258 28.7882 230.557 27.7303 228.909 26.6571L222.244 22.3176L216.035 27.2855C211.433 30.9668 207.448 34.8562 204.691 38.9921C204.279 39.6104 203.889 40.2417 203.524 40.8856C204.945 42.216 205.989 43.7542 206.656 45.5001C206.729 45.6885 206.796 45.8813 206.859 46.0786C207.16 47.0321 207.344 48.0893 207.41 49.2501C207.428 49.5753 207.438 49.9086 207.438 50.2501C207.438 51.1928 207.293 52.2162 207.005 53.3204C206.976 53.4315 206.945 53.5435 206.913 53.6563C206.66 54.5526 206.313 55.5005 205.875 56.5001C204.96 58.6109 203.546 60.6605 201.634 62.6488ZM224.144 36.6727C223.729 36.4079 223.316 36.1421 222.906 35.8751C222.115 36.5081 221.365 37.1318 220.656 37.7461C219.048 39.14 217.653 40.4856 216.47 41.7828C216.463 41.7913 216.455 41.7997 216.447 41.8082C215.417 42.9403 214.549 44.0355 213.844 45.0938C212.927 46.4693 212.234 47.8547 211.766 49.2501C211.276 50.7079 211.031 52.1767 211.031 53.6563C211.031 57.8644 212.741 61.6984 216.162 65.1583C216.217 65.214 216.272 65.2697 216.328 65.3252C217.649 66.6354 219.217 67.8916 221.031 69.0938L231.594 58.6876C231.135 58.3751 230.677 58.073 230.219 57.7813L228.906 56.8438C228.59 57.3723 228.265 57.8279 227.93 58.2107C227.435 58.7757 226.92 59.1819 226.385 59.4294C226.117 59.5533 225.843 59.6373 225.565 59.6817C225.409 59.7065 225.252 59.7188 225.094 59.7188C224.302 59.7188 223.479 59.323 222.625 58.5313C222.067 57.9871 221.555 57.4483 221.089 56.9149C220.567 56.3164 220.102 55.7248 219.696 55.14C219.672 55.1058 219.649 55.0715 219.625 55.0374C219.413 54.7265 219.216 54.4176 219.036 54.1106C218.979 54.0132 218.924 53.9159 218.87 53.8188C218.84 53.7646 218.811 53.7104 218.782 53.6563C218.716 53.5345 218.654 53.4131 218.594 53.2919C218.577 53.2573 218.56 53.2228 218.543 53.1882C217.889 51.8372 217.562 50.5245 217.562 49.2501C217.562 48.7186 217.63 48.2045 217.765 47.7077C217.916 47.1504 218.152 46.615 218.472 46.1015C218.751 45.6554 219.093 45.2257 219.5 44.8126C219.917 44.3959 220.302 44.1876 220.656 44.1876C221.031 44.1876 221.625 44.3751 222.438 44.7501C222.669 44.8543 222.897 44.9658 223.12 45.0846C223.599 45.3387 224.059 45.626 224.501 45.9465C224.518 45.9589 224.535 45.9714 224.552 45.9839C224.629 46.0403 224.705 46.0978 224.781 46.1563C225.249 46.4942 225.814 46.8767 226.477 47.3037C226.876 47.5613 227.311 47.8351 227.781 48.1251L234.031 42.6251C233.34 42.2086 232.644 41.7921 231.943 41.3757C231.153 40.9059 230.358 40.4361 229.556 39.9664C229.485 39.9246 229.414 39.8828 229.342 39.841C229.042 39.6648 228.74 39.4887 228.438 39.3126C227.516 38.7659 226.607 38.2144 225.711 37.6579C225.689 37.6447 225.668 37.6314 225.647 37.6182C225.142 37.3046 224.641 36.9895 224.144 36.6727ZM200.305 57.4704C200.125 56.2382 200.031 54.9669 200.031 53.6563C200.031 51.2267 200.391 48.8917 201.048 46.666C201.417 46.9473 201.744 47.2566 202.031 47.5938C203.24 48.9897 203.844 50.4272 203.844 51.9063C203.844 52.5 203.744 53.0833 203.543 53.6563C203.252 54.4908 202.748 55.3033 202.031 56.0938C201.552 56.6272 200.977 57.0861 200.305 57.4704ZM248.38 44.6512C248.042 44.435 247.686 44.218 247.312 44.0001L246.281 45.4063L246.217 46.5541L248.38 44.6512ZM245.745 55.0229L248.843 57.135L247.094 58.8581C246.104 57.8973 245.635 56.9655 245.688 56.0626L245.745 55.0229Z" fill="#6017D8"/>
<path fill-rule="evenodd" clip-rule="evenodd" d="M199.595 13.9532L199.783 14.0464C200.192 14.2489 200.469 14.3149 200.655 14.3352C200.704 14.3226 200.772 14.3039 200.86 14.2766C201.265 14.1496 201.934 13.8845 202.891 13.3705L210.816 9.11694L222.204 22.8417L219.302 29.1369C218.085 31.7773 216.527 34.519 214.565 36.9885C215.46 38.3275 216.23 39.7859 216.853 41.3696C216.751 41.4781 216.65 41.5863 216.551 41.6942C216.54 41.7067 216.528 41.7191 216.517 41.7315C215.456 42.8908 214.565 44.0116 213.844 45.0937C213.747 45.2386 213.653 45.3836 213.562 45.5286C212.576 47.0896 211.878 48.6634 211.469 50.25C211.326 50.8005 211.219 51.3526 211.146 51.9062C211.069 52.4879 211.031 53.0712 211.031 53.6562C211.031 55.5836 211.39 57.4325 212.107 59.2029C212.113 59.2153 212.118 59.2277 212.123 59.2402C212.259 59.5728 212.407 59.9026 212.568 60.2297C213.12 61.349 213.82 62.4358 214.669 63.4902C211.55 69.0416 206.643 73.5422 201.022 77.247L201.003 77.2598L200.983 77.2725C198.066 79.178 194.795 80.0625 191.5 80.0625C189.234 80.0625 186.991 79.7671 184.812 79.2787C179.349 78.121 174.249 76.0091 169.58 72.9605C164.456 69.6152 160.38 65.1071 157.282 59.7346C155.153 56.1253 154.125 52.1435 154.125 48.0312C154.125 47.4894 154.145 46.9485 154.186 46.409C154.653 39.9515 156.211 33.9743 158.876 28.5883L157.272 21.2039L161.458 24.0781C163.775 20.5478 166.638 17.3238 170.053 14.4443C174.036 11.0725 178.794 10.0897 182.939 10.1254L182.976 10.1257L183.014 10.1263C188.67 10.2138 194.157 11.5174 199.403 13.8673L199.595 13.9532ZM165.157 47.2084C165.157 47.2119 165.156 47.2153 165.156 47.2187C165.139 47.4376 165.129 47.6564 165.126 47.8753C165.125 47.9273 165.125 47.9793 165.125 48.0312C165.125 50.2812 165.677 52.3333 166.781 54.1875C169.115 58.25 172.052 61.4375 175.594 63.75C176.311 64.2183 177.041 64.6571 177.784 65.0664C177.791 65.0704 177.798 65.0744 177.805 65.0784C180.725 66.6842 183.842 67.8352 187.156 68.5312C188.719 68.8854 190.167 69.0625 191.5 69.0625C192.362 69.0625 193.165 68.9139 193.906 68.6167C194.275 68.4687 194.63 68.284 194.969 68.0625C196.284 67.1959 197.492 66.3162 198.594 65.4234C198.613 65.408 198.632 65.3926 198.651 65.3771C201.334 63.1945 203.38 60.9337 204.791 58.5947C204.794 58.5899 204.797 58.5852 204.799 58.5805C205.213 57.8937 205.571 57.2002 205.875 56.5C206.61 54.8234 207.086 53.2921 207.302 51.9062C207.392 51.3289 207.438 50.7768 207.438 50.25C207.438 48.4375 207.177 46.8542 206.656 45.5C206.482 45.0427 206.281 44.5998 206.054 44.171C206.047 44.1573 206.04 44.1436 206.033 44.1299C205.998 44.0647 205.962 43.9998 205.927 43.9353C204.518 41.4075 202.188 39.3874 198.938 37.875C198.651 37.741 198.359 37.6144 198.062 37.4952C197.925 37.44 197.786 37.3864 197.647 37.3344C197.64 37.332 197.634 37.3297 197.628 37.3273C196.782 37.0134 195.895 36.758 194.969 36.5609C194.103 36.3769 193.203 36.2438 192.267 36.1617C192.263 36.1614 192.259 36.161 192.255 36.1606C191.505 36.0952 190.733 36.0625 189.938 36.0625C189.287 36.0625 188.621 36.0846 187.94 36.1289C187.932 36.1295 187.924 36.13 187.916 36.1305C187.142 36.1815 186.349 36.2611 185.537 36.3692C185.174 36.4175 184.808 36.4715 184.438 36.5312C184.332 36.7667 184.226 36.9953 184.119 37.2169C183.85 37.7734 183.576 38.2862 183.297 38.7553C182.566 39.9854 181.8 40.9149 181 41.5439C180.978 41.5608 180.957 41.5775 180.935 41.594C180.26 42.1103 179.56 42.4133 178.835 42.503C178.683 42.5218 178.529 42.5312 178.375 42.5312C177.909 42.5312 177.469 42.4928 177.055 42.4159C176.845 42.3771 176.642 42.3284 176.446 42.2698C175.157 41.8853 174.154 41.0766 173.438 39.8437C172.854 38.8646 172.562 37.8125 172.562 36.6875C172.562 34.993 173.034 33.6551 173.977 32.6739C174.05 32.5982 174.125 32.5246 174.204 32.4531C174.329 32.3386 174.462 32.2295 174.602 32.1258C175.345 31.5764 176.29 31.1803 177.438 30.9375C178.625 30.7083 179.812 30.5937 181 30.5937C181.504 30.5937 182.069 30.6324 182.696 30.7098C182.717 30.7124 182.739 30.7152 182.761 30.7179C183.004 30.7488 183.256 30.7853 183.518 30.8276C183.657 30.8502 183.799 30.8743 183.943 30.9001C183.962 30.9036 183.981 30.907 184.001 30.9105C185.646 31.2079 187.625 31.7149 189.938 32.4313C190.152 32.4976 190.369 32.5657 190.588 32.6357C190.707 32.6732 190.825 32.7113 190.945 32.7499C191.663 32.9813 192.41 33.2313 193.188 33.5C193.507 33.612 193.817 33.7151 194.116 33.8094C194.41 33.9018 194.694 33.9856 194.969 34.061C196.187 34.3953 197.218 34.5625 198.062 34.5625C198.071 34.5625 198.08 34.5625 198.089 34.5624C198.098 34.5624 198.107 34.5624 198.116 34.5623C198.739 34.5585 199.349 34.4879 199.946 34.3506C200.19 34.2945 200.432 34.2272 200.671 34.1487C200.675 34.1475 200.678 34.1463 200.682 34.1451C200.726 34.1307 200.769 34.1161 200.812 34.101C202.875 33.3848 204.771 31.8349 206.501 29.4514C207.418 28.1883 208.288 26.6909 209.112 24.9595C209.179 24.8183 209.246 24.6755 209.312 24.5312L208.094 23.0625C207.779 23.2314 207.469 23.3909 207.165 23.541C204.726 24.7428 202.609 25.3437 200.812 25.3437C199.889 25.3437 198.973 25.2416 198.062 25.0374C197.484 24.9074 196.907 24.7362 196.334 24.5236C196.321 24.5189 196.308 24.5141 196.296 24.5094C195.831 24.3355 195.368 24.1345 194.906 23.9062C190.906 22.1146 186.885 21.1875 182.844 21.125C182.191 21.1194 181.577 21.157 181 21.238C179.441 21.4569 178.16 21.9921 177.156 22.8437C176.783 23.1586 176.417 23.4788 176.061 23.8042C176.024 23.838 175.987 23.8719 175.95 23.9058C173.836 25.8518 172.03 27.9855 170.53 30.3069C169.245 32.2959 168.185 34.4228 167.351 36.6875C166.451 39.1296 165.813 41.732 165.438 44.4947C165.432 44.5362 165.427 44.5778 165.421 44.6195C165.308 45.4674 165.22 46.3304 165.157 47.2084ZM195.154 58.8895C195.844 58.8359 196.522 58.7373 197.188 58.5937C199.312 58.1562 200.927 57.3229 202.031 56.0937C202.312 55.7844 202.559 55.4716 202.775 55.1555C202.777 55.1516 202.78 55.1477 202.783 55.1438C203.49 54.1012 203.844 53.022 203.844 51.9062C203.844 51.3482 203.758 50.7962 203.586 50.25C203.302 49.3484 202.784 48.463 202.031 47.5937C201.964 47.5141 201.894 47.4361 201.821 47.3596C201.819 47.3567 201.816 47.3538 201.813 47.3509C201.096 46.5953 200.158 45.9923 198.997 45.5419C198.7 45.4267 198.388 45.3215 198.062 45.2262C197.538 45.0729 196.975 44.9454 196.375 44.8437C196.23 44.8196 196.011 44.8024 195.719 44.7923C195.714 44.7921 195.708 44.7919 195.702 44.7917C195.494 44.7847 195.25 44.7812 194.969 44.7812C194.608 44.7812 194.124 44.8644 193.516 45.0308C193.086 45.1486 192.594 45.3083 192.04 45.5097C191.885 45.5657 191.726 45.625 191.562 45.6875C190.986 45.9058 190.445 46.2 189.938 46.5701C189.838 46.643 189.739 46.7189 189.642 46.7977C189.533 46.8857 189.426 46.9774 189.321 47.0729C188.355 47.9477 187.529 49.1317 186.844 50.625H186.281C186.09 50.625 185.898 50.6209 185.704 50.6127C185.699 50.6125 185.694 50.6123 185.689 50.6121C183.397 50.5128 180.959 49.8402 178.375 48.5942C177.653 48.2463 176.92 47.8536 176.176 47.4162C175.431 46.9785 174.674 46.496 173.906 45.9687C174.048 46.6236 174.262 47.2657 174.547 47.895C174.554 47.9109 174.561 47.9268 174.568 47.9427C174.582 47.9723 174.596 48.0018 174.609 48.0312C174.788 48.4119 174.994 48.7879 175.225 49.1592C175.252 49.2029 175.28 49.2466 175.308 49.2902C176.064 50.4688 177.087 51.5998 178.375 52.6832C178.701 52.9572 179.044 53.2282 179.404 53.4962C180.021 53.9558 180.689 54.4065 181.406 54.8482C181.884 55.1424 182.384 55.4325 182.906 55.7187C184.054 56.3444 185.179 56.8788 186.281 57.322C186.469 57.3977 186.657 57.4708 186.844 57.5411C187.676 57.8545 188.495 58.1151 189.3 58.323C189.354 58.3369 189.407 58.3505 189.461 58.3639C189.514 58.3772 189.567 58.3902 189.62 58.403C189.663 58.4133 189.705 58.4234 189.747 58.4334C190.339 58.5725 190.923 58.6829 191.5 58.7644C192.317 58.8798 193.119 58.9375 193.906 58.9375C194.326 58.9375 194.742 58.9215 195.154 58.8895ZM218.299 52.6506C218.389 51.8606 218.438 51.0596 218.438 50.25C218.438 49.0481 218.365 47.8218 218.197 46.5882C217.774 47.4209 217.562 48.3081 217.562 49.25C217.562 49.5807 217.585 49.9141 217.629 50.25C217.732 51.036 217.955 51.8363 218.299 52.6506Z" fill="#6017D8"/>
<path fill-rule="evenodd" clip-rule="evenodd" d="M143.605 82.4479L117.949 72.2177C119.534 68.8582 120.681 65.6086 121.39 62.4689C121.589 61.5879 121.753 60.7156 121.883 59.8519C122.095 58.4451 122.215 57.0612 122.243 55.7002C122.246 55.5865 122.248 55.4728 122.249 55.3594C122.25 55.2603 122.25 55.1614 122.25 55.0625C122.25 54.4739 122.23 53.8906 122.189 53.3125C122.103 52.0915 121.925 50.894 121.657 49.72C121.173 47.6057 120.394 45.5677 119.319 43.606C117.923 41.0596 116.03 38.6417 113.639 36.3523L124.344 30.0533V18.4517L138.003 25.2813H138.975L164.27 43.4239L159.482 48.4608L165.128 48.2871C165.149 49.4472 165.32 50.5541 165.639 51.6076L155.131 66.2801C154.032 67.8142 152.944 69.3378 151.866 70.8508L143.605 82.4479ZM139.656 69.0313L142.906 64.4688C142.95 64.4072 142.994 64.3457 143.038 64.2841C143.064 64.2477 143.09 64.2114 143.116 64.175C144.131 62.7508 145.155 61.3175 146.188 59.875C145.718 59.8895 145.273 59.9064 144.853 59.9259C144.27 59.953 143.735 59.9849 143.249 60.0216C143.077 60.0347 142.91 60.0483 142.75 60.0625C141.833 60.125 141.031 60.1563 140.344 60.1563C139.781 60.1563 139.085 60.1192 138.256 60.045C138.102 60.0313 137.944 60.0163 137.781 60C137.249 59.9468 136.741 59.7737 136.257 59.4809C136.156 59.4194 136.055 59.3525 135.956 59.2804C135.603 59.0245 135.263 58.7018 134.938 58.3125L147.594 45L135.438 36.2813H135.406L135.344 36.25V36.3438L124.563 42.6875C124.978 45.0604 125.26 47.3729 125.408 49.625C125.467 50.5102 125.504 51.3861 125.521 52.2527C125.528 52.6075 125.531 52.9608 125.531 53.3125C125.531 53.963 125.521 54.6088 125.5 55.25C125.47 56.1764 125.418 57.093 125.344 58C125.29 58.6686 125.223 59.3319 125.145 59.9899C125.045 60.8382 124.924 61.6778 124.784 62.5086C124.753 62.6937 124.721 62.8783 124.688 63.0625L139.656 69.0313ZM138.719 50.4063C138.727 50.3975 138.735 50.3888 138.743 50.38C138.976 50.1284 139.128 49.8767 139.201 49.625C139.234 49.5105 139.25 49.3959 139.25 49.2813C139.25 49.2232 139.246 49.1626 139.237 49.0995C139.236 49.0959 139.236 49.0923 139.235 49.0887C139.184 48.7466 139.001 48.3316 138.688 47.8438C138.578 47.6639 138.468 47.4939 138.357 47.3338C138.108 46.9748 137.853 46.6656 137.594 46.4063C137.029 45.9131 136.514 45.526 136.05 45.2451C135.835 45.1153 135.631 45.0081 135.438 44.9237C135.427 44.9191 135.417 44.9146 135.406 44.9102C135.059 44.7617 134.746 44.6875 134.469 44.6875C134.025 44.6875 133.663 44.9092 133.383 45.3525C133.381 45.3554 133.379 45.3584 133.377 45.3613C133.107 45.7921 132.913 46.4297 132.795 47.2738C132.768 47.4633 132.745 47.6632 132.727 47.8736C132.688 48.3 132.666 48.7692 132.659 49.2813C132.657 49.3938 132.656 49.5084 132.656 49.625C132.656 49.973 132.667 50.3211 132.689 50.6691C132.701 50.8674 132.717 51.0658 132.736 51.2642C132.742 51.3248 132.748 51.3854 132.755 51.446C132.762 51.5118 132.769 51.5776 132.777 51.6434C132.787 51.725 132.797 51.8066 132.808 51.8881C132.872 52.3629 132.956 52.8377 133.059 53.3125C133.161 53.7758 133.281 54.2391 133.42 54.7024C133.475 54.8849 133.533 55.0675 133.594 55.25C133.594 55.4057 133.615 55.5399 133.659 55.6525C133.667 55.6755 133.677 55.6976 133.688 55.7188L138.719 50.4063ZM112.59 36.9694L112.412 37.0741L112.417 37.1016L112.59 36.9694ZM114.515 54.5952C114.454 56.8823 114.233 59.0525 113.862 61.1138L112.271 69.9535L113.916 70.6097C114.993 67.7743 115.531 64.769 115.531 61.5938C115.531 61.5339 115.531 61.474 115.531 61.4143C115.515 59.0047 115.176 56.7317 114.515 54.5952Z" fill="#6017D8"/>
<path fill-rule="evenodd" clip-rule="evenodd" d="M118.094 71.9087C118.634 70.7469 119.121 69.5982 119.556 68.4628C120.454 66.1168 121.127 63.827 121.577 61.5937C122.019 59.3948 122.243 57.2505 122.25 55.1608C122.25 55.128 122.25 55.0952 122.25 55.0624C122.25 51.5529 121.524 48.2308 120.072 45.0961C119.95 44.8328 119.823 44.5708 119.69 44.3101C119.101 43.1492 118.411 42.0146 117.619 40.9062C116.911 39.9165 116.123 38.9477 115.254 37.9999C114.816 37.5228 114.358 37.051 113.879 36.5845C113.765 36.4727 113.649 36.3611 113.532 36.2499L107.438 40.9062V37.9999C107.438 37.7602 107.438 37.5208 107.439 37.2817C107.439 37.2607 107.439 37.2397 107.439 37.2187C107.441 36.5256 107.445 35.8352 107.453 35.1473C107.464 34.0708 107.482 33.0008 107.506 31.9371C107.506 31.9079 107.507 31.8786 107.508 31.8494C107.523 31.1678 107.542 30.4888 107.563 29.8124C107.566 29.7415 107.568 29.6706 107.572 29.5998C107.587 29.2406 107.607 28.883 107.631 28.5271C107.669 27.9474 107.719 27.3722 107.78 26.8014C107.912 25.5518 108.097 24.3236 108.334 23.1168C108.406 22.753 108.482 22.3911 108.563 22.0312L98.2503 27.6249C98.4277 27.9069 98.5882 28.2028 98.7318 28.5126C98.8756 28.8228 99.0025 29.1469 99.1124 29.4849C99.1196 29.5069 99.1266 29.5289 99.1336 29.551C99.4042 30.4045 99.5681 31.3457 99.6253 32.3749C99.7503 34.2499 99.8128 35.8645 99.8128 37.2187L99.6565 56.1249C99.6553 56.1782 99.6535 56.2317 99.651 56.2853C99.65 56.3047 99.649 56.3242 99.6479 56.3437C99.6067 57.0786 99.4395 57.8451 99.1465 58.643C99.0917 58.7921 99.0326 58.9423 98.969 59.0937C98.6562 59.8384 98.0932 60.6311 97.2799 61.4716C97.2864 61.3311 97.2931 61.1906 97.3 61.05C97.3229 60.5854 97.3479 60.1208 97.3753 59.6562C97.1102 59.7943 96.8463 59.9284 96.5836 60.0583C96.535 60.0823 96.4864 60.1062 96.4378 60.13C95.883 60.4015 95.3336 60.6543 94.7897 60.8885C91.3752 62.3586 88.1746 63.0937 85.1878 63.0937C83.232 63.0937 81.4223 62.7928 79.7588 62.1911L88.6699 54.4594L88.8127 37.177C88.8115 36.1453 88.7626 34.8008 88.6496 33.1066L88.6456 33.0459L88.6437 33.0121L87.0004 30.3996C88.5699 30.786 90.1016 31.2564 91.5954 31.811C92.0781 31.9902 92.5568 32.1782 93.0315 32.3749C93.2664 31.8177 93.55 31.1503 93.8823 30.3725C94.5498 28.8102 95.4137 26.8029 96.4742 24.3506C96.5018 24.2867 96.5296 24.2224 96.5575 24.1579C96.7839 23.6344 97.0191 23.091 97.2631 22.5278C97.4515 22.0928 97.6452 21.646 97.844 21.1874C97.7277 21.2027 97.6111 21.2178 97.4945 21.2328C97.1903 21.2717 96.8851 21.3094 96.5789 21.3458C96.0366 21.4103 95.4912 21.4708 94.9427 21.5272C91.8474 21.8459 88.6543 22.0372 85.3635 22.101L124.612 0.811523L119.294 24.4458C119.164 25.0275 119.049 25.6208 118.951 26.2259L121.107 28.2742C124.711 31.6972 127.612 35.5106 129.673 39.6803L124.563 42.6874C125.2 46.3236 125.522 49.818 125.531 53.1706C125.531 53.2179 125.532 53.2652 125.532 53.3124C125.532 53.8995 125.523 54.4829 125.506 55.0624C125.485 55.7624 125.452 56.4569 125.407 57.1458C125.308 58.6549 125.149 60.1375 124.93 61.5937C124.856 62.0863 124.775 62.5758 124.688 63.0624L131.875 65.9282C130.137 72.9256 126.828 79.8803 122.375 86.72L117.816 93.7228L112.794 92.1387L114.328 91.0155L100.407 85.4374L99.8747 88.0634L88.7801 84.5637L96.2193 76.3971L94.0461 74.7524L93.9805 74.7012C92.4843 73.5329 90.9883 72.3751 89.4925 71.2277L85.2755 67.9926C87.9942 67.4442 90.927 66.5318 94.0738 65.2556C95.0895 64.8437 96.1275 64.3939 97.1878 63.9062C97.1902 63.8244 97.1926 63.7427 97.1952 63.661C97.1991 63.5352 97.2032 63.4094 97.2074 63.2837C97.3872 63.4221 97.5669 63.5607 97.7467 63.6994C98.7479 64.4722 99.7491 65.2494 100.75 66.0312L105.375 69.5312C106.019 68.8359 107.148 67.5997 108.762 65.8225C109.76 64.7238 110.944 63.4184 112.313 61.9062C112.142 61.7991 111.977 61.6949 111.816 61.5937C111.716 61.5308 111.618 61.4692 111.522 61.4086C111.151 61.1746 110.806 60.9574 110.489 60.757C110.346 60.6667 110.209 60.5799 110.077 60.4965C108.725 59.6413 107.95 59.1425 107.75 58.9999C107.547 58.8546 107.414 58.3797 107.353 57.5753C107.349 57.5203 107.345 57.4636 107.341 57.4055C107.34 57.3799 107.338 57.354 107.337 57.3278C107.335 57.2903 107.333 57.2521 107.331 57.2134C107.319 56.9515 107.313 56.6616 107.313 56.3437L107.407 44.0312C108.658 45.1194 109.766 46.2689 110.728 47.4795C111.529 48.487 112.23 49.5368 112.831 50.629C112.963 50.8686 113.09 51.1102 113.212 51.354C113.807 52.5416 114.288 53.7778 114.654 55.0624C114.774 55.4843 114.882 55.9113 114.977 56.3437C114.982 56.3631 114.986 56.3826 114.99 56.4021C115.059 56.7161 115.121 57.0328 115.176 57.3523C115.413 58.716 115.532 60.1298 115.532 61.5937C115.532 62.6349 115.474 63.658 115.358 64.6627C115.164 66.3404 114.81 67.9672 114.293 69.543C113.642 71.5315 112.734 73.4389 111.568 75.2651C110.916 76.2868 110.183 77.2831 109.371 78.2539C109.09 78.589 108.8 78.9209 108.5 79.2499L113.157 80.7187C115.12 77.7022 116.766 74.7656 118.094 71.9087ZM132.675 48.6861C132.996 50.4271 133.185 52.2149 133.236 54.0479C132.85 52.5736 132.657 51.0992 132.657 49.6249C132.657 49.2955 132.663 48.9826 132.675 48.6861Z" fill="#6017D8"/>
<path fill-rule="evenodd" clip-rule="evenodd" d="M46.1626 49.6219L29.666 56.43L60.4447 9.55961L67.0967 10.2454C72.8457 10.8381 78.1003 11.1249 82.875 11.1249C87.6673 11.1249 92.1753 10.8384 96.4087 10.2814L115.66 7.74829L107.936 25.5633C107.932 25.5714 107.929 25.5795 107.925 25.5876C107.927 25.5785 107.928 25.5694 107.929 25.5603C108.091 24.3639 108.302 23.1875 108.562 22.0311L98.25 27.6249C98.4732 27.9798 98.6698 28.3568 98.8396 28.7558C99.2876 29.8088 99.5494 31.0152 99.625 32.3749C99.6933 33.4003 99.743 34.3478 99.774 35.2174C99.7996 35.938 99.8125 36.605 99.8125 37.2186L99.7502 44.7537L99.0699 46.3675L99.7397 46.0183L99.6562 56.1249C99.6354 57.0624 99.4062 58.052 98.9687 59.0936C98.8811 59.3023 98.7738 59.5148 98.6468 59.731C98.4552 60.0573 98.2189 60.3922 97.9377 60.7357C97.7404 60.9768 97.521 61.2221 97.2796 61.4716C97.3076 60.8665 97.3394 60.2613 97.375 59.6561C97.2839 59.7036 97.1929 59.7506 97.1021 59.7971C96.6063 60.0511 96.1148 60.2903 95.6275 60.5149C92.5404 61.9377 89.6246 62.7717 86.8801 63.017C86.655 63.0371 86.4311 63.0533 86.2083 63.0655C85.8653 63.0842 85.525 63.0936 85.1875 63.0936C84.5187 63.0936 83.8671 63.0585 83.2325 62.9881C80.3284 62.6662 77.7822 61.6076 75.5937 59.8124C76.8581 58.9401 78.1517 58.2047 79.4744 57.606C81.3218 56.7699 83.2262 56.2005 85.1875 55.898C85.4779 55.8532 85.7695 55.8142 86.0625 55.7811L85.8125 30.1249C86.6237 30.3007 87.4251 30.4984 88.2166 30.718C89.8643 31.1753 91.4691 31.7275 93.0312 32.3749C93.2984 31.741 93.6287 30.9643 94.022 30.0449C94.9472 27.8822 96.2211 24.9297 97.8437 21.1874C97.0286 21.2946 96.2064 21.3927 95.3772 21.4815C92.8391 21.7535 90.2348 21.9392 87.5645 22.0387C86.8689 22.0647 86.1688 22.0847 85.4642 22.099C84.6078 22.1162 83.7447 22.1249 82.875 22.1249C82.7512 22.1249 82.6272 22.1247 82.503 22.1244C81.3144 22.121 80.1037 22.1015 78.8709 22.0658C77.5178 22.0266 76.138 21.968 74.7317 21.8899C73.858 21.8414 72.974 21.7854 72.0798 21.7219C70.9852 21.6441 69.8753 21.5551 68.75 21.4549C67.8331 21.3732 66.906 21.284 65.9687 21.1874L58.4375 32.6561C60.2885 31.8922 61.9141 31.263 63.3145 30.7684C63.9339 30.5497 64.5092 30.3573 65.0405 30.1912C66.7148 29.6678 67.9513 29.4061 68.75 29.4061C69.8958 29.4061 70.9791 29.8228 72 30.6561C71.2929 31.3038 70.6012 31.949 69.9247 32.5915C69.5279 32.9685 69.1363 33.3445 68.75 33.7197C67.5556 34.8796 66.4114 36.0311 65.3174 37.1741C64.1031 38.4429 62.9506 39.7012 61.86 40.9492C61.6194 41.2245 61.3819 41.4993 61.1473 41.7736C61.1284 41.7957 61.1095 41.8178 61.0907 41.8399C60.3872 42.664 59.7109 43.4835 59.0618 44.2984C58.7689 44.6662 58.4814 45.0331 58.1995 45.399C57.7546 45.9767 57.3235 46.5519 56.9062 47.1249C57.4364 48.826 58.0227 50.4313 58.6653 51.9411C59.3413 53.5293 60.0795 55.0117 60.8798 56.3882C60.8863 56.3993 60.8927 56.4104 60.8992 56.4214C60.922 56.4606 60.9449 56.4997 60.9678 56.5387C62.586 59.2904 64.4556 61.6142 66.5766 63.5101C67.7448 64.5544 68.9892 65.4688 70.31 66.2535C70.4145 66.3156 70.5195 66.3769 70.625 66.4374C72.7778 67.6717 75.2397 68.3807 78.0105 68.5645C79.1553 68.6404 80.3528 68.6266 81.6031 68.5232C81.8995 68.4987 82.1988 68.4692 82.5011 68.4346C83.372 68.3349 84.2674 68.1935 85.1875 68.0102C87.1747 67.6144 89.2767 67.0235 91.4934 66.2375C93.3001 65.5969 95.1831 64.8267 97.1423 63.9269C97.1574 63.92 97.1724 63.9131 97.1875 63.9061C97.1936 63.6987 97.2001 63.4911 97.2071 63.2837C97.487 63.4992 97.7669 63.7151 98.0468 63.9314C98.9189 64.6053 99.791 65.2826 100.663 65.9633C100.692 65.9859 100.721 66.0085 100.75 66.0311L105.375 69.5311C105.929 68.9329 106.842 67.934 108.115 66.5345L107.982 71.0486L101.784 73.8995C89.4658 79.5661 76.2124 82.3206 65.1537 75.9802C55.756 70.5922 49.8314 61.3938 46.4044 50.3979L46.1626 49.6219ZM108.407 59.4332L109.212 45.7474C108.648 45.1593 108.046 44.5872 107.406 44.0311L107.312 56.3436C107.312 57.9061 107.458 58.7916 107.75 58.9999C107.843 59.0665 108.062 59.211 108.407 59.4332ZM74.659 55.9312C74.4146 56.4064 74.1305 56.8367 73.8067 57.2221C73.6794 57.3738 73.5459 57.5184 73.4062 57.6561C72.1562 56.1978 71.1354 54.4999 70.3437 52.5624C70.2334 52.2896 70.1308 52.0208 70.0359 51.7561C69.9017 51.3819 69.7829 51.0157 69.6794 50.6576C69.6784 50.6542 69.6774 50.6508 69.6764 50.6474C69.6672 50.6155 69.6581 50.5836 69.6492 50.5518C69.5121 50.0655 69.4037 49.5943 69.3238 49.138C69.297 48.9849 69.2734 48.8335 69.253 48.6838C69.1885 48.2097 69.1562 47.7525 69.1562 47.3124C69.1562 45.7707 69.2604 44.4478 69.4687 43.3436C69.7247 41.9173 70.2355 40.5111 71.0011 39.1249C71.9187 37.4635 73.2023 35.831 74.8519 34.2272C74.9255 34.1557 74.9998 34.0841 75.0749 34.0127C75.1123 33.9772 75.1498 33.9417 75.1875 33.9061C75.2336 34.0287 75.2778 34.1534 75.3201 34.2803C75.7733 35.6424 76 37.2572 76 39.1249C76 39.8581 75.9906 40.8304 75.9717 42.0419C75.9604 42.7747 75.9456 43.595 75.9273 44.5029C75.9269 44.5225 75.9265 44.5423 75.9261 44.562C75.9099 45.3666 75.8909 46.2393 75.8693 47.1801C75.8683 47.2241 75.8673 47.2682 75.8663 47.3124C75.8446 48.253 75.8202 49.2607 75.7932 50.3357C75.793 50.3437 75.7928 50.3517 75.7926 50.3596C75.7889 50.5092 75.7851 50.6602 75.7812 50.8124C75.7371 52.4431 75.4949 53.8494 75.0546 55.0314C74.9369 55.3474 74.8051 55.6473 74.659 55.9312ZM96.9668 45.913L98.6241 46.5999L96.9819 47.456L96.9668 45.913Z" fill="#6017D8"/>
</svg>
