<svg width="483" height="89" viewBox="0 0 483 89" fill="none" xmlns="http://www.w3.org/2000/svg">
<path d="M61.1173 0.99995C60.2662 1.56733 59.6775 2.4005 59.3201 3.42165L50.1449 29.6746C49.8321 30.5694 48.566 30.5676 48.2559 29.6719L39.2588 3.68602C38.8989 2.61006 38.2651 1.74213 37.3485 1.13948C36.5093 0.518291 35.5636 0.192001 34.536 0.192001C33.5038 0.192001 32.5544 0.521191 31.7124 1.14776C30.8489 1.74685 30.2416 2.58349 29.8817 3.60917L29.8801 3.61365L20.598 29.3914C20.2787 30.2782 19.0221 30.2713 18.7126 29.381L9.68855 3.42363L9.68786 3.42165C9.32387 2.38167 8.70113 1.54596 7.802 0.984002C6.95072 0.451953 5.997 0.192001 4.968 0.192001C3.68443 0.192001 2.52566 0.582935 1.53236 1.36712L1.52198 1.37531L1.51182 1.38378C0.498937 2.22784 0 3.37126 0 4.712C0 5.32461 0.137544 5.99091 0.371317 6.69223L0.375269 6.70408L14.1361 44.7864L14.1379 44.7915C14.5129 45.8592 15.1942 46.704 16.1586 47.2933L16.1687 47.2995L16.179 47.3054C17.1422 47.8631 18.1898 48.144 19.304 48.144C20.4144 48.144 21.4461 47.8648 22.3754 47.2994C23.3705 46.7205 24.0958 45.8892 24.5205 44.8274L24.5272 44.8107L33.4499 19.9432C33.7677 19.0575 35.0215 19.0611 35.3343 19.9485L44.0885 44.7874C44.4693 45.8745 45.186 46.7213 46.195 47.3054C47.1582 47.8631 48.2058 48.144 49.32 48.144C50.4304 48.144 51.4621 47.8648 52.3914 47.2994C53.3865 46.7205 54.1118 45.8892 54.5365 44.8274L54.5428 44.8117L68.3188 6.68729L68.3274 6.65817C68.5469 5.91177 68.688 5.24444 68.688 4.712C68.688 3.37611 68.1927 2.23612 67.1872 1.39295C66.2698 0.587933 65.1594 0.192001 63.912 0.192001C62.9153 0.192001 61.9848 0.45727 61.142 0.984003L61.1295 0.991795L61.1173 0.99995Z" fill="#6017D8"/>
<path d="M75.1115 46.6146L75.1213 46.625L75.1314 46.6351C76.1135 47.6172 77.3841 48.08 78.8465 48.08C80.3337 48.08 81.6192 47.6272 82.5716 46.6251C83.5469 45.6444 84.0065 44.3774 84.0065 42.92V5.352C84.0065 3.90092 83.55 2.64522 82.5618 1.70064C81.6104 0.705677 80.3287 0.256001 78.8465 0.256001C77.3841 0.256001 76.1135 0.718752 75.1314 1.70089C74.1809 2.65141 73.7505 3.9079 73.7505 5.352V42.92C73.7505 44.3659 74.1812 45.6296 75.1115 46.6146Z" fill="#6017D8"/>
<path fill-rule="evenodd" clip-rule="evenodd" d="M181.442 46.3791L181.453 46.3898L181.464 46.4002C182.417 47.2973 183.666 47.696 185.094 47.696H201.605C206.566 47.696 210.589 46.5774 213.553 44.2172C216.59 41.8331 218.094 38.5227 218.094 34.408C218.094 31.4545 217.318 28.8894 215.72 26.7712C214.985 25.7703 214.106 24.9218 213.089 24.2233C212.431 23.7707 212.383 22.725 212.995 22.2111C213.713 21.6078 214.348 20.9191 214.897 20.144C216.312 18.2072 217.006 15.928 217.006 13.352C217.006 9.36638 215.545 6.17917 212.587 3.92188C209.707 1.64981 205.793 0.576 200.965 0.576H185.094C183.666 0.576 182.417 0.974743 181.464 1.8718L181.453 1.88218L181.442 1.89289C180.523 2.81199 180.126 4.05569 180.126 5.48V42.792C180.126 44.2163 180.523 45.46 181.442 46.3791ZM206.543 29.4241L206.549 29.4289L206.555 29.4335C207.661 30.3048 208.286 31.6612 208.286 33.704C208.286 35.7594 207.674 37.0858 206.622 37.908C205.52 38.7687 203.619 39.296 200.71 39.296H191.189C190.637 39.296 190.189 38.8483 190.189 38.296V28.984C190.189 28.4317 190.637 27.984 191.189 27.984H200.71C203.566 27.984 205.441 28.5291 206.543 29.4241ZM199.622 19.584H191.189C190.637 19.584 190.189 19.1363 190.189 18.584V9.976C190.189 9.42372 190.637 8.976 191.189 8.976H199.622C202.393 8.976 204.275 9.47812 205.433 10.3207C206.523 11.1135 207.133 12.3536 207.133 14.248C207.133 16.1132 206.523 17.3684 205.408 18.1978C204.239 19.0685 202.364 19.584 199.622 19.584Z" fill="#6017D8"/>
<path fill-rule="evenodd" clip-rule="evenodd" d="M303.742 41.3489L303.74 41.3448L286.018 3.40564L286.015 3.39854C285.546 2.35971 284.804 1.5581 283.808 1.02617C282.891 0.472311 281.888 0.192001 280.818 0.192001C279.741 0.192001 278.718 0.475692 277.765 1.02601C276.802 1.56329 276.086 2.36895 275.621 3.39959L275.618 3.40564L257.959 41.346L257.958 41.3489C257.648 42.0215 257.482 42.7185 257.482 43.432C257.482 44.7341 258.038 45.8375 259.054 46.6929C260.029 47.5143 261.149 47.952 262.386 47.952C263.276 47.952 264.109 47.7407 264.866 47.3082L264.889 47.2953L264.911 47.2812C265.7 46.7737 266.286 46.0309 266.692 45.1181L270.001 37.7273C270.162 37.3676 270.52 37.136 270.914 37.136H290.85C291.244 37.136 291.602 37.3676 291.763 37.7273L295.072 45.1186C295.478 46.0314 296.064 46.7737 296.853 47.2812L296.875 47.2953L296.898 47.3082C297.645 47.7352 298.456 47.952 299.314 47.952C300.579 47.952 301.708 47.5233 302.656 46.6842C303.666 45.83 304.218 44.7297 304.218 43.432C304.218 42.7186 304.052 42.0216 303.742 41.3489ZM287.166 27.3299C287.46 27.9912 286.976 28.736 286.252 28.736H275.512C274.788 28.736 274.304 27.9912 274.598 27.3299L279.968 15.2463C280.32 14.4545 281.444 14.4545 281.796 15.2463L287.166 27.3299Z" fill="#6017D8"/>
<path d="M340.071 1.72138L340.07 1.72264C339.173 2.67575 338.774 3.92463 338.774 5.352V27.1217C338.774 28.0765 337.564 28.4882 336.981 27.7316L317.282 2.13361L317.276 2.12471C316.344 0.870382 315.011 0.256001 313.406 0.256001C311.981 0.256001 310.747 0.72317 309.808 1.71154C308.865 2.66077 308.438 3.91328 308.438 5.352V42.92C308.438 44.3497 308.837 45.6055 309.715 46.5924C310.619 47.6093 311.849 48.08 313.278 48.08C314.707 48.08 315.937 47.6093 316.841 46.5924C317.719 45.6055 318.118 44.3497 318.118 42.92V21.0931C318.118 20.138 319.329 19.7265 319.911 20.4838L339.674 46.2024L339.68 46.2107C340.618 47.4745 341.978 48.08 343.614 48.08C345.013 48.08 346.225 47.6019 347.157 46.6146C348.087 45.6296 348.518 44.3659 348.518 42.92V5.352C348.518 3.91831 348.094 2.66954 347.158 1.72152C346.256 0.719842 345.033 0.256001 343.614 0.256001C342.215 0.256001 341.003 0.734081 340.071 1.72138Z" fill="#6017D8"/>
<path d="M368.255 46.6354L368.276 46.655C369.267 47.5913 370.556 48.016 372.035 48.016C373.479 48.016 374.735 47.5856 375.686 46.6351C376.668 45.653 377.13 44.3824 377.13 42.92V10.36C377.13 9.80772 377.578 9.36 378.13 9.36H387.779C389.184 9.36 390.425 9.05226 391.321 8.26147C392.239 7.44979 392.618 6.28721 392.618 4.968C392.618 3.64879 392.239 2.48622 391.321 1.67453C390.425 0.883743 389.184 0.576 387.779 0.576H356.227C354.821 0.576 353.58 0.883743 352.684 1.67453C351.766 2.48622 351.387 3.64879 351.387 4.968C351.387 6.28721 351.766 7.44979 352.684 8.26147C353.58 9.05226 354.821 9.36 356.227 9.36H365.875C366.427 9.36 366.875 9.80771 366.875 10.36V42.92C366.875 44.3659 367.305 45.6296 368.235 46.6146L368.255 46.6354Z" fill="#6017D8"/>
<path fill-rule="evenodd" clip-rule="evenodd" d="M401.947 45.3185L401.952 45.3214C405.371 47.3011 409.369 48.272 413.909 48.272C418.407 48.272 422.363 47.3009 425.741 45.32C429.159 43.3403 431.787 40.5037 433.619 36.8392C435.451 33.1766 436.349 28.9219 436.349 24.104C436.349 19.2896 435.452 15.0564 433.621 11.4353C431.831 7.76908 429.223 4.9316 425.804 2.9518C422.425 0.970213 418.447 0 413.909 0C409.369 0 405.371 0.970897 401.952 2.95058C398.532 4.93031 395.903 7.76737 394.071 11.4328L394.068 11.4372C392.28 15.0577 391.405 19.29 391.405 24.104C391.405 28.9219 392.303 33.1766 394.135 36.8392C395.966 40.5011 398.571 43.3378 401.947 45.3185ZM422.794 12.5075L422.8 12.5139L422.805 12.5202C424.947 15.0903 426.093 18.9009 426.093 24.104C426.093 29.3058 424.947 33.1421 422.8 35.7575L422.794 35.7645C420.706 38.3557 417.789 39.68 413.909 39.68C409.985 39.68 407.023 38.3541 404.893 35.7614C402.786 33.1455 401.661 29.3073 401.661 24.104C401.661 18.8973 402.788 15.0838 404.891 12.5132C407.021 9.9188 409.984 8.592 413.909 8.592C417.789 8.592 420.706 9.91632 422.794 12.5075Z" fill="#6017D8"/>
<path d="M474.321 1.72138L474.32 1.72264C473.423 2.67575 473.024 3.92463 473.024 5.352V27.1217C473.024 28.0765 471.814 28.4882 471.231 27.7316L451.532 2.13361L451.526 2.12471C450.594 0.870382 449.261 0.256001 447.656 0.256001C446.231 0.256001 444.997 0.72317 444.058 1.71154C443.115 2.66077 442.688 3.91328 442.688 5.352V42.92C442.688 44.3497 443.087 45.6055 443.965 46.5924C444.869 47.6093 446.099 48.08 447.528 48.08C448.957 48.08 450.187 47.6093 451.091 46.5924C451.969 45.6055 452.368 44.3497 452.368 42.92V21.0931C452.368 20.138 453.579 19.7265 454.161 20.4838L473.924 46.2024L473.93 46.2107C474.868 47.4745 476.228 48.08 477.864 48.08C479.263 48.08 480.475 47.6019 481.407 46.6146C482.337 45.6296 482.768 44.3659 482.768 42.92V5.352C482.768 3.91831 482.344 2.66954 481.408 1.72152C480.506 0.719842 479.283 0.256001 477.864 0.256001C476.465 0.256001 475.253 0.734081 474.321 1.72138Z" fill="#6017D8"/>
<path d="M93.0674 46.3791C93.9865 47.2982 95.2302 47.696 96.6545 47.696H118.991C120.396 47.696 121.637 47.3883 122.533 46.5975C123.451 45.7858 123.83 44.6232 123.83 43.304C123.83 41.9848 123.451 40.8222 122.533 40.0105C121.637 39.2197 120.396 38.912 118.991 38.912H103.007C102.454 38.912 102.007 38.4643 102.007 37.912V5.352C102.007 3.90092 101.55 2.64522 100.562 1.70064C99.6104 0.705677 98.3287 0.256001 96.8465 0.256001C95.3841 0.256001 94.1135 0.718752 93.1314 1.70089C92.1809 2.65141 91.7505 3.9079 91.7505 5.352V42.856C91.7505 44.2491 92.1547 45.4665 93.0674 46.3791Z" fill="#6017D8"/>
<path d="M128.567 46.3791C129.486 47.2982 130.73 47.696 132.154 47.696H154.491C155.896 47.696 157.137 47.3883 158.033 46.5975C158.951 45.7858 159.331 44.6232 159.331 43.304C159.331 41.9848 158.951 40.8222 158.033 40.0105C157.137 39.2197 155.896 38.912 154.491 38.912H138.507C137.954 38.912 137.507 38.4643 137.507 37.912V5.352C137.507 3.90092 137.05 2.64523 136.062 1.70064C135.11 0.705676 133.829 0.256001 132.346 0.256001C130.884 0.256001 129.614 0.718752 128.631 1.70089C127.681 2.65141 127.251 3.9079 127.251 5.352V42.856C127.251 44.2491 127.655 45.4665 128.567 46.3791Z" fill="#6017D8"/>
<path d="M225.13 46.3791C226.049 47.2982 227.293 47.696 228.717 47.696H251.053C252.459 47.696 253.7 47.3883 254.595 46.5975C255.514 45.7858 255.893 44.6232 255.893 43.304C255.893 41.9848 255.514 40.8222 254.595 40.0105C253.7 39.2197 252.459 38.912 251.053 38.912H235.069C234.517 38.912 234.069 38.4643 234.069 37.912V5.352C234.069 3.90092 233.612 2.64523 232.624 1.70064C231.673 0.705676 230.391 0.256001 228.909 0.256001C227.447 0.256001 226.176 0.718752 225.194 1.70089C224.243 2.65141 223.813 3.9079 223.813 5.352V42.856C223.813 44.2491 224.217 45.4665 225.13 46.3791Z" fill="#6017D8"/>
<path fill-rule="evenodd" clip-rule="evenodd" d="M9.98475 73.9505L9.9913 73.9637C10.9538 75.8651 12.3695 77.3625 14.2203 78.4403L14.2333 78.4477C16.1253 79.5119 18.406 80.0161 21.0275 80.0161C23.6079 80.0161 25.8421 79.5113 27.6761 78.4395L27.6795 78.4374C29.5126 77.3564 30.898 75.8535 31.8165 73.9459L31.8186 73.9416C32.7242 72.0374 33.1635 69.8813 33.1635 67.4961C33.1635 65.0915 32.7249 62.9329 31.8165 61.0463C30.8982 59.139 29.5124 57.6458 27.6778 56.5857C25.8434 55.4917 23.6083 54.9761 21.0275 54.9761C18.4035 54.9761 16.1203 55.4919 14.2268 56.5802C12.3721 57.6371 10.9544 59.1257 9.99126 61.0284L9.98689 61.0373C9.05411 62.9262 8.60352 65.088 8.60352 67.4961C8.60352 69.8848 9.05482 72.0442 9.98475 73.9505ZM21.0275 61.3921C22.6625 61.3921 23.8235 61.918 24.6476 62.8934L24.6532 62.9C25.4879 63.8709 25.9795 65.3527 25.9795 67.4961C25.9795 69.5684 25.4913 71.0063 24.6589 71.9576C23.8385 72.8952 22.6744 73.4081 21.0275 73.4081C19.2816 73.4081 18.0344 72.8855 17.1523 71.9356C16.2687 70.984 15.7555 69.5547 15.7555 67.4961C15.7555 65.3659 16.2726 63.893 17.1583 62.9221L17.1641 62.9156C18.0491 61.9285 19.2927 61.3921 21.0275 61.3921Z" fill="#6017D8"/>
<path d="M460.987 71.8021C461.652 71.4678 462.437 71.9512 462.437 72.6956V79.8961C462.437 80.4484 461.989 80.8961 461.437 80.8961H458.475C458.21 80.8961 457.955 81.0014 457.768 81.189L457.354 81.6032C457.166 81.7907 457.061 82.0451 457.061 82.3103V86.2819C457.061 86.5471 457.166 86.8014 457.354 86.989L457.768 87.4032C457.955 87.5907 458.21 87.6961 458.475 87.6961H472.878C473.144 87.6961 473.398 87.5907 473.585 87.4032L474 86.989C474.187 86.8014 474.293 86.5471 474.293 86.2819V82.3103C474.293 82.0451 474.187 81.7907 474 81.6032L473.585 81.189C473.398 81.0014 473.144 80.8961 472.878 80.8961H470.781C470.228 80.8961 469.781 80.4484 469.781 79.8961V64.3903C469.781 64.1251 469.675 63.8707 469.488 63.6832L469.073 63.269C468.886 63.0814 468.632 62.9761 468.366 62.9761H463.906C463.828 62.9761 463.75 62.9851 463.675 63.0031L463.453 63.0556C463.378 63.0735 463.304 63.1002 463.235 63.1351L457.481 66.027C457.276 66.1302 457.112 66.3011 457.018 66.5108L456.792 67.0139C456.698 67.2236 456.679 67.4594 456.738 67.6816L457.772 71.5507C457.849 71.8414 458.054 72.0817 458.328 72.2049L458.876 72.4508C459.15 72.574 459.466 72.5671 459.735 72.4319L460.987 71.8021Z" fill="#6017D8"/>
<path d="M399.712 63.4716C400.401 63.1888 401.146 63.7304 401.089 64.4726L400.542 71.6523C400.5 72.203 400.019 72.6154 399.468 72.5734L396.515 72.3482C396.251 72.328 395.989 72.4138 395.788 72.5865L395.343 72.968C395.142 73.1407 395.018 73.3864 394.998 73.6508L394.696 77.6109C394.676 77.8753 394.761 78.137 394.934 78.3382L395.316 78.7827C395.488 78.984 395.734 79.1084 395.998 79.1285L410.36 80.2236C410.625 80.2438 410.886 80.1581 411.088 79.9853L411.532 79.6038C411.733 79.4311 411.858 79.1855 411.878 78.921L412.18 74.9609C412.2 74.6965 412.114 74.4348 411.941 74.2336L411.56 73.7891C411.387 73.5878 411.142 73.4634 410.877 73.4433L408.785 73.2838C408.235 73.2418 407.822 72.7613 407.864 72.2107L409.043 56.7498C409.063 56.4853 408.978 56.2237 408.805 56.0224L408.423 55.5779C408.251 55.3767 408.005 55.2523 407.741 55.2321L403.293 54.893C403.215 54.8871 403.137 54.8902 403.061 54.9023L402.836 54.9379C402.759 54.95 402.684 54.971 402.612 55.0005L396.655 57.4466C396.442 57.5339 396.266 57.6919 396.156 57.8938L395.893 58.3782C395.783 58.5802 395.746 58.8139 395.788 59.0399L396.525 62.9764C396.58 63.2722 396.766 63.5273 397.03 63.6711L397.557 63.9578C397.822 64.1016 398.137 64.1187 398.415 64.0043L399.712 63.4716Z" fill="#6017D8"/>
<path d="M337.422 72.4667C338.034 72.0423 338.878 72.4108 338.983 73.1478L339.994 80.2769C340.072 80.8237 339.691 81.3299 339.144 81.4074L336.212 81.8234C335.949 81.8607 335.712 82.0007 335.553 82.2127L335.201 82.681C335.042 82.893 334.973 83.1597 335.01 83.4223L335.568 87.3545C335.606 87.6171 335.746 87.8541 335.958 88.0134L336.426 88.3654C336.638 88.5247 336.905 88.5933 337.167 88.556L351.428 86.5329C351.69 86.4957 351.927 86.3556 352.087 86.1436L352.439 85.6753C352.598 85.4633 352.667 85.1967 352.629 84.9341L352.072 81.0019C352.034 80.7393 351.894 80.5023 351.682 80.3429L351.214 79.991C351.002 79.8317 350.735 79.7631 350.473 79.8003L348.396 80.095C347.849 80.1726 347.343 79.7922 347.265 79.2454L345.087 63.8933C345.05 63.6307 344.91 63.3937 344.698 63.2343L344.23 62.8824C344.018 62.7231 343.751 62.6545 343.488 62.6917L339.072 63.3183C338.995 63.3292 338.92 63.3491 338.847 63.3774L338.635 63.4605C338.563 63.4889 338.494 63.5256 338.43 63.5699L333.14 67.2413C332.951 67.3724 332.813 67.5645 332.749 67.7854L332.596 68.3152C332.532 68.5361 332.547 68.7723 332.637 68.9839L334.203 72.6695C334.321 72.9464 334.557 73.1556 334.846 73.239L335.423 73.4055C335.712 73.489 336.023 73.4378 336.27 73.2662L337.422 72.4667Z" fill="#6017D8"/>
<path fill-rule="evenodd" clip-rule="evenodd" d="M267.051 73.9505L267.058 73.9637C268.02 75.8651 269.436 77.3625 271.287 78.4403L271.3 78.4477C273.192 79.5119 275.472 80.0161 278.094 80.0161C280.674 80.0161 282.908 79.5113 284.742 78.4395L284.746 78.4374C286.579 77.3564 287.964 75.8535 288.883 73.9459L288.885 73.9416C289.791 72.0374 290.23 69.8813 290.23 67.4961C290.23 65.0915 289.791 62.9329 288.883 61.0463C287.965 59.1389 286.579 57.6456 284.744 56.5855C282.91 55.4917 280.675 54.9761 278.094 54.9761C275.47 54.9761 273.187 55.4919 271.293 56.5802C269.438 57.6371 268.021 59.1257 267.058 61.0284L267.053 61.0373C266.121 62.9262 265.67 65.088 265.67 67.4961C265.67 69.8848 266.121 72.0442 267.051 73.9505ZM281.714 62.8934L281.72 62.9C282.554 63.8709 283.046 65.3527 283.046 67.4961C283.046 69.5684 282.558 71.0063 281.725 71.9576C280.905 72.8952 279.741 73.4081 278.094 73.4081C276.348 73.4081 275.101 72.8855 274.219 71.9356C273.335 70.984 272.822 69.5547 272.822 67.4961C272.822 65.3659 273.339 63.8929 274.225 62.9221L274.23 62.9156C275.116 61.9285 276.359 61.3921 278.094 61.3921C279.729 61.3921 280.89 61.918 281.714 62.8934Z" fill="#6017D8"/>
<path d="M209.823 71.2796C210.524 71.0293 211.243 71.6052 211.151 72.3439L210.269 79.4902C210.202 80.0383 209.702 80.4278 209.154 80.3601L206.215 79.9973C205.952 79.9648 205.686 80.0382 205.477 80.2013L205.015 80.5617C204.806 80.7248 204.671 80.9644 204.638 81.2276L204.151 85.1692C204.119 85.4325 204.192 85.6978 204.356 85.9069L204.716 86.3687C204.879 86.5778 205.119 86.7136 205.382 86.7461L219.677 88.5107C219.94 88.5431 220.205 88.4697 220.415 88.3066L220.876 87.9462C221.085 87.7831 221.221 87.5436 221.254 87.2804L221.74 83.3387C221.773 83.0755 221.699 82.8101 221.536 82.601L221.176 82.1392C221.013 81.9301 220.773 81.7944 220.51 81.7619L218.428 81.5049C217.88 81.4372 217.49 80.938 217.558 80.3899L219.458 65.0009C219.49 64.7377 219.417 64.4723 219.254 64.2633L218.893 63.8014C218.73 63.5923 218.491 63.4566 218.227 63.4241L213.8 62.8776C213.723 62.8681 213.645 62.8676 213.568 62.8761L213.342 62.9011C213.264 62.9096 213.188 62.9271 213.115 62.9533L207.05 65.1184C206.834 65.1957 206.65 65.3453 206.531 65.5419L206.246 66.0135C206.126 66.2101 206.079 66.4418 206.11 66.6696L206.662 70.6362C206.703 70.9342 206.877 71.1977 207.134 71.3536L207.648 71.6647C207.905 71.8207 208.219 71.8524 208.502 71.7512L209.823 71.2796Z" fill="#6017D8"/>
<path fill-rule="evenodd" clip-rule="evenodd" d="M138.504 73.9505L138.511 73.9637C139.473 75.8651 140.889 77.3625 142.74 78.4403L142.753 78.4477C144.645 79.5119 146.926 80.0161 149.547 80.0161C152.127 80.0161 154.362 79.5113 156.196 78.4395L156.199 78.4374C158.032 77.3564 159.418 75.8535 160.336 73.9459L160.338 73.9416C161.244 72.0374 161.683 69.8813 161.683 67.4961C161.683 65.0915 161.244 62.9329 160.336 61.0463C159.418 59.1389 158.032 57.6456 156.197 56.5855C154.363 55.4917 152.128 54.9761 149.547 54.9761C146.923 54.9761 144.64 55.4919 142.746 56.5802C140.892 57.6371 139.474 59.1257 138.511 61.0284L138.506 61.0373C137.574 62.9262 137.123 65.088 137.123 67.4961C137.123 69.8848 137.574 72.0442 138.504 73.9505ZM153.167 62.8935L153.173 62.9C154.007 63.8709 154.499 65.3527 154.499 67.4961C154.499 69.5684 154.011 71.0063 153.178 71.9576C152.358 72.8952 151.194 73.4081 149.547 73.4081C147.801 73.4081 146.554 72.8855 145.672 71.9356C144.788 70.984 144.275 69.5547 144.275 67.4961C144.275 65.3659 144.792 63.8929 145.678 62.9221L145.684 62.9156C146.569 61.9285 147.812 61.3921 149.547 61.3921C151.182 61.3921 152.343 61.918 153.167 62.8935Z" fill="#6017D8"/>
<path d="M80.4829 72.3041C81.1081 71.9003 81.9397 72.2967 82.0197 73.0367L82.7933 80.1955C82.8527 80.7446 82.4556 81.2379 81.9065 81.2972L78.9619 81.6154C78.6982 81.6439 78.4567 81.776 78.2904 81.9826L77.923 82.4389C77.7567 82.6455 77.6793 82.9097 77.7078 83.1734L78.1345 87.122C78.163 87.3857 78.2951 87.6272 78.5017 87.7935L78.958 88.1608C79.1646 88.3271 79.4288 88.4046 79.6925 88.3761L94.0127 86.8285C94.2764 86.8 94.518 86.6679 94.6843 86.4613L95.0516 86.005C95.2179 85.7984 95.2953 85.5342 95.2668 85.2705L94.8401 81.3219C94.8116 81.0582 94.6795 80.8167 94.4729 80.6504L94.0166 80.2831C93.81 80.1168 93.5458 80.0394 93.2821 80.0678L91.1965 80.2932C90.6474 80.3526 90.1541 79.9556 90.0948 79.4065L88.4288 63.9905C88.4003 63.7268 88.2682 63.4852 88.0616 63.3189L87.6053 62.9516C87.3987 62.7853 87.1345 62.7079 86.8708 62.7364L82.4358 63.2157C82.3586 63.224 82.2825 63.2413 82.2093 63.2673L81.9948 63.3433C81.9215 63.3693 81.8515 63.4037 81.7863 63.4458L76.3764 66.9391C76.1832 67.0639 76.0389 67.2513 75.9679 67.47L75.7973 67.9944C75.7262 68.2131 75.7327 68.4495 75.8155 68.664L77.2588 72.3997C77.3672 72.6804 77.5963 72.8973 77.8824 72.9903L78.4533 73.1759C78.7394 73.2689 79.0523 73.2282 79.305 73.0649L80.4829 72.3041Z" fill="#6017D8"/>
</svg>
