<svg width="823" height="177" viewBox="0 0 823 177" fill="none" xmlns="http://www.w3.org/2000/svg">
<path fill-rule="evenodd" clip-rule="evenodd" d="M177.029 174.244H150.761L137.953 55.2194L98.7277 174.244H88.5145H78.3013L39.0758 55.2194L26.2684 174.244H0L20.4264 10.8328H47.6617L88.5145 133.391L129.367 10.8328H156.603L177.029 174.244ZM645.809 176.995C620.684 176.995 606.27 160.177 606.27 130.858V56.8127H631.286V125.486C631.286 145.123 637.768 155.765 655.45 155.765C672.554 155.765 679.615 144.898 679.615 125.548V56.8127H704.63V174.203H685.286L682.665 161.478C673.398 172.882 662.218 176.995 645.809 176.995ZM561.271 10.9826L586.286 0V174.203H561.271V10.9826ZM243.538 155.786C224.793 155.786 214.049 141.153 214.049 115.634C214.049 90.3325 225.167 75.2305 243.789 75.2305C262.418 75.2305 273.537 90.3325 273.537 115.634C273.537 141.153 262.602 155.786 243.538 155.786ZM243.789 54.0211C209.071 54.0211 187.508 77.6272 187.508 115.634C187.508 153.484 208.976 176.995 243.538 176.995C278.412 176.995 300.078 153.484 300.078 115.634C300.078 77.6272 278.508 54.0211 243.789 54.0211ZM463.857 104.522L464.048 102.52C465.709 84.9195 475.187 75.2305 490.731 75.2305C507.215 75.2305 516.428 84.9739 516.673 102.663L516.7 104.522H463.857ZM491.242 54.0211C457.464 54.0211 436.479 77.4366 436.479 115.13C436.479 153.287 458.532 176.995 494.034 176.995C511.294 176.995 526.137 172.467 540.613 162.771L531.155 145.579C519.287 152.442 507.794 155.786 496.063 155.786C485.06 155.786 466.206 151.578 463.537 123.416L463.346 121.421H542.812C543.241 118.78 543.466 114.061 543.466 110.303C543.466 83.0947 529.746 54.0211 491.242 54.0211ZM822.102 174.203H795.201L770.376 134.719L744.23 174.203H718.166L755.499 117.826L718.03 56.8127H745.435L770.321 99.2997L795.732 56.8127H822.062L784.92 114.735L822.102 174.203ZM368.268 155.786C344.247 155.786 341.169 130.001 341.169 115.634C341.169 96.6238 345.636 75.2305 368.5 75.2305C386.89 75.2305 395.837 88.4464 395.837 115.634C395.837 141.153 385.787 155.786 368.268 155.786ZM374.464 54.0211C361.915 54.0211 350.776 60.7005 345.05 66.4267L341.932 69.5452V0L316.909 10.9826V174.203H336.41L339.113 160.082L341.584 162.901C347.542 169.716 358.845 176.995 372.687 176.995C407.01 176.995 422.378 145.797 422.378 114.871C422.378 76.7693 404.464 54.0211 374.464 54.0211Z" fill="#6017D8"/>
</svg>
