<svg width="104" height="98" viewBox="0 0 104 98" fill="none" xmlns="http://www.w3.org/2000/svg">
<path fill-rule="evenodd" clip-rule="evenodd" d="M51.0648 1.33721C54.5429 1.719 57.0529 4.84804 56.6711 8.32611L53.2995 39.041C53.0169 41.6152 51.1961 43.7583 48.7013 44.4529C46.2065 45.1476 43.5401 44.2539 41.9678 42.1962L33.3002 30.8523L31.2351 45.3685C30.8704 47.9321 28.9823 50.0157 26.4669 50.6305C23.9515 51.2452 21.3151 50.2673 19.8091 48.1609L1.34727 22.3391C-0.687744 19.4928 -0.0300686 15.5357 2.81623 13.5006C5.66253 11.4656 9.61962 12.1233 11.6546 14.9696L20.918 27.926L22.8846 14.1025C23.2441 11.5752 25.0854 9.51054 27.5553 8.8652C30.0251 8.21986 32.6411 9.11993 34.191 11.1484L42.4306 21.9321L44.0759 6.9435C44.4577 3.46543 47.5868 0.95541 51.0648 1.33721Z" fill="#6017D8"/>
<path fill-rule="evenodd" clip-rule="evenodd" d="M73.4622 45.1202L73.4734 45.1265L73.4848 45.1325C74.4699 45.6501 75.5917 45.6969 76.7744 45.38L90.4567 41.7138C94.567 40.6125 97.6568 38.81 99.5989 36.2334C101.597 33.6212 102.121 30.5966 101.225 27.252C100.582 24.8513 99.3806 22.9384 97.595 21.5716C97.2586 21.307 96.908 21.0683 96.5434 20.8551C95.2836 20.1184 94.6696 18.194 95.2655 16.8618C95.3381 16.6995 95.4062 16.5347 95.4699 16.3674C96.2206 14.4789 96.2986 12.4723 95.7375 10.3785C94.8695 7.13883 92.9651 4.87243 90.022 3.6945C87.1415 2.48691 83.664 2.48318 79.6637 3.55506L66.5117 7.07913C65.329 7.39605 64.381 7.99745 63.7866 8.93823L63.7797 8.94912L63.7731 8.96021C63.2117 9.91135 63.153 11.0106 63.4632 12.1683L71.5897 42.4969C71.8999 43.6546 72.5004 44.5772 73.4622 45.1202ZM90.5684 25.7655L90.5743 25.7681L90.5802 25.7705C91.6863 26.2332 92.4996 27.197 92.9445 28.8574C93.3922 30.5281 93.1746 31.742 92.4816 32.644C91.7562 33.5882 90.2953 34.439 87.8848 35.0849L80.916 36.9522C79.9504 37.2109 78.9578 36.6379 78.6991 35.6722L77.1723 29.9743C76.9136 29.0087 77.4866 28.0161 78.4523 27.7574L85.421 25.8901C87.7878 25.2559 89.4607 25.2826 90.5684 25.7655ZM82.69 19.3039L76.6228 20.9296C75.6571 21.1883 74.6646 20.6152 74.4058 19.6496L73.0324 14.5239C72.7737 13.5583 73.3467 12.5657 74.3124 12.307L80.3796 10.6813C82.6758 10.066 84.3447 10.0563 85.4883 10.4839C86.5642 10.8863 87.3399 11.7589 87.7525 13.2987C88.1587 14.8147 87.926 15.9706 87.1833 16.8923C86.4036 17.8597 84.9624 18.695 82.69 19.3039Z" fill="#6017D8"/>
<path fill-rule="evenodd" clip-rule="evenodd" d="M72.3477 47.1933L72.3053 47.1693C70.6531 46.2365 69.7435 44.6988 69.3167 43.1059L61.1902 12.7774C60.7634 11.1845 60.7822 9.398 61.7467 7.76408L61.7714 7.72218L61.7972 7.68133C61.7972 7.68139 61.7972 7.68126 61.7972 7.68133C62.7829 6.1214 64.301 5.23534 65.9027 4.80616L79.0547 1.28209C83.353 0.130375 87.3966 0.0482098 90.9142 1.51697C94.6014 2.99897 96.9714 5.89126 98.0105 9.76945C98.688 12.2976 98.6127 14.821 97.663 17.2206C97.5853 17.424 97.5021 17.6246 97.4136 17.8226C97.402 17.8486 97.3487 18.0484 97.45 18.3652C97.5513 18.6821 97.7096 18.8111 97.7313 18.8238C98.185 19.0891 98.6208 19.3855 99.0376 19.7124C101.287 21.4387 102.742 23.8221 103.498 26.643C104.566 30.6274 103.948 34.4157 101.473 37.6563C99.1117 40.7854 95.4849 42.8027 91.0658 43.9868L77.3835 47.653C75.7818 48.0821 74.0243 48.0739 72.3908 47.2159C72.3906 47.2159 72.3909 47.216 72.3908 47.2159L72.3477 47.1933ZM73.4848 45.1325C74.4699 45.6501 75.5917 45.6969 76.7744 45.38L90.4567 41.7138C94.567 40.6125 97.6568 38.81 99.5989 36.2334C101.597 33.6212 102.121 30.5966 101.225 27.252C100.582 24.8513 99.3806 22.9384 97.595 21.5716C97.2586 21.307 96.908 21.0683 96.5434 20.8551C95.2836 20.1184 94.6696 18.194 95.2655 16.8618C95.3381 16.6995 95.4062 16.5347 95.4699 16.3674C96.2206 14.4789 96.2986 12.4723 95.7375 10.3785C94.8695 7.13883 92.9651 4.87243 90.022 3.6945C87.1415 2.48691 83.664 2.48318 79.6637 3.55506L66.5117 7.07913C65.329 7.39605 64.381 7.99745 63.7866 8.93823L63.7797 8.94912L63.7731 8.96021C63.2117 9.91135 63.153 11.0106 63.4632 12.1683L71.5897 42.4969C71.8999 43.6546 72.5004 44.5772 73.4622 45.1202L73.4734 45.1265L73.4848 45.1325ZM89.6511 27.9327L89.6284 27.9228C89.2456 27.7559 88.2039 27.5806 86.0301 28.1631L79.5859 29.8898L80.8315 34.5387L87.2757 32.8119C89.5162 32.2116 90.3642 31.5375 90.6156 31.2103C90.7097 31.0879 90.7788 30.9446 90.8092 30.7216C90.8424 30.4776 90.8355 30.0784 90.6716 29.4665C90.3647 28.3214 89.9444 28.0553 89.6721 27.9414L89.6511 27.9327ZM90.5802 25.7705C91.6863 26.2332 92.4996 27.197 92.9445 28.8574C93.3922 30.5281 93.1746 31.742 92.4816 32.644C91.7562 33.5882 90.2953 34.439 87.8848 35.0849L80.916 36.9522C79.9504 37.2109 78.9578 36.6379 78.6991 35.6722L77.1723 29.9743C76.9136 29.0087 77.4866 28.0161 78.4523 27.7574L85.421 25.8901C87.7878 25.2559 89.4607 25.2826 90.5684 25.7655L90.5743 25.7681L90.5802 25.7705ZM76.5383 18.516L82.0809 17.0309C84.1438 16.4781 85.0241 15.8214 85.351 15.4157C85.5355 15.1868 85.7301 14.843 85.4795 13.9077C85.3388 13.3826 85.1719 13.1053 85.0534 12.9616C84.9477 12.8334 84.8325 12.751 84.664 12.688C84.1919 12.5115 83.0921 12.3907 80.9886 12.9543L75.446 14.4394L76.5383 18.516ZM76.6228 20.9296L82.69 19.3039C84.9624 18.695 86.4036 17.8597 87.1833 16.8923C87.926 15.9706 88.1587 14.8147 87.7525 13.2987C87.3399 11.7589 86.5642 10.8863 85.4883 10.4839C84.3447 10.0563 82.6758 10.066 80.3796 10.6813L74.3124 12.307C73.3467 12.5657 72.7737 13.5583 73.0324 14.5239L74.4058 19.6496C74.6646 20.6152 75.6571 21.1883 76.6228 20.9296Z" fill="#6017D8"/>
<path fill-rule="evenodd" clip-rule="evenodd" d="M18.1888 82.0692L18.1875 82.0627L18.1814 82.0325C17.4882 78.4673 17.7041 74.7195 18.7465 70.8292C19.7967 66.9099 21.4834 63.5498 23.8669 60.835L23.8835 60.8161C26.3319 58.0822 29.3601 56.234 32.913 55.3031C36.5581 54.3344 40.5536 54.5068 44.8168 55.6491C49.0111 56.773 52.486 58.6019 55.0656 61.2534C57.6443 63.8357 59.2891 66.9481 59.9668 70.5315C60.6338 74.058 60.3965 77.7979 59.3487 81.7085C58.3086 85.59 56.6441 88.9411 54.3036 91.6877L54.2955 91.6972C51.9162 94.4624 48.9325 96.35 45.4031 97.3308L45.3934 97.3335C41.8442 98.3046 37.9272 98.1342 33.734 97.0107C29.4771 95.87 25.9316 94.0425 23.2519 91.4223L23.247 91.4175L23.225 91.3956C20.6316 88.783 18.9416 85.6575 18.1888 82.0692ZM30.5985 75.5946C30.1479 78.1274 30.4267 80.1307 31.2626 81.711C32.2554 83.5876 34.007 84.943 36.769 85.683C39.3743 86.3811 41.4334 86.0632 43.1287 84.9277C43.7027 84.5432 44.239 84.0568 44.7316 83.4575C44.2391 84.0566 43.7029 84.5429 43.1291 84.9273C41.4338 86.0628 39.3746 86.3807 36.7693 85.6826C34.0073 84.9425 32.2557 83.5872 31.263 81.7105C30.4269 80.1301 30.1482 78.1266 30.599 75.5935C30.5988 75.5939 30.5987 75.5943 30.5985 75.5946ZM33.0844 69.3517C33.1216 69.3021 33.159 69.2531 33.1968 69.2049C33.159 69.2531 33.1216 69.3021 33.0844 69.3516C33.0844 69.3517 33.0844 69.3517 33.0844 69.3517ZM38.5203 55.587C40.4538 55.6426 42.4768 55.9596 44.5822 56.5238C48.665 57.6178 51.9823 59.3809 54.4207 61.8892C56.8736 64.3439 58.4329 67.2936 59.0772 70.7001C59.7145 74.0699 59.4934 77.6706 58.4741 81.4747C57.7011 84.3594 56.5788 86.9235 55.0922 89.1457C56.5789 86.9234 57.7014 84.3592 58.4744 81.4743C59.4937 77.6702 59.7149 74.0695 59.0775 70.6997C58.4333 67.2932 56.8739 64.3435 54.421 61.8888C51.9826 59.3805 48.6653 57.6173 44.5825 56.5234C42.4771 55.9592 40.454 55.6421 38.5205 55.5865C38.5204 55.5867 38.5204 55.5868 38.5203 55.587ZM46.1344 70.9683C45.376 69.3559 44.0025 68.1837 41.6286 67.5476C39.084 66.8658 37.1641 67.1833 35.5997 68.2039L35.5879 68.2117L35.5812 68.216C34.021 69.2148 32.6765 71.0932 31.8094 74.3294C30.9744 77.4457 31.2086 79.6723 32.063 81.2873C32.9147 82.8973 34.4317 84.1193 37.0036 84.8084C39.4066 85.4523 41.1864 85.1391 42.6254 84.1753C44.1024 83.186 45.3911 81.3449 46.2352 78.1948C47.111 74.9261 46.9261 72.6147 46.1438 70.988L46.1422 70.9846L46.1344 70.9683Z" fill="#6017D8"/>
<path fill-rule="evenodd" clip-rule="evenodd" d="M77.4503 72.7717L78.1871 79.5899C78.4787 82.2881 76.5277 84.7119 73.8294 85.0035L72.8553 85.1088C71.9924 85.2021 71.2018 85.6343 70.6575 86.3105C70.1132 86.9867 69.8598 87.8514 69.9531 88.7143L70.5734 94.4541C70.6666 95.3171 71.0989 96.1077 71.7751 96.652C72.4513 97.1962 73.3159 97.4496 74.1789 97.3564L97.6035 94.8249C98.4665 94.7316 99.2571 94.2994 99.8014 93.6232C100.346 92.947 100.599 92.0823 100.506 91.2193L99.8855 85.4796C99.7922 84.6166 99.36 83.826 98.6838 83.2817C98.0076 82.7374 97.1429 82.4841 96.28 82.5773L95.7349 82.6362C93.6086 82.866 91.6986 81.3286 91.4688 79.2023L88.9535 55.9273C88.8602 55.0643 88.428 54.2737 87.7518 53.7295C87.0756 53.1852 86.2109 52.9318 85.348 53.0251L78.4752 53.7678C78.1873 53.7989 77.904 53.8635 77.6311 53.9602C77.3582 54.0569 77.0974 54.1851 76.8542 54.3421L68.1876 59.9384C67.5329 60.3612 67.0438 60.9967 66.8028 61.7379C66.5618 62.479 66.5836 63.2806 66.8645 64.0076L68.9716 69.4616C69.3124 70.3438 70.0324 71.0256 70.9319 71.318C71.8322 71.6107 72.8211 71.4781 73.6148 70.9655C75.1714 69.9601 77.2522 70.9391 77.4503 72.7717ZM76.1214 70.4429C77.0046 70.8282 77.6931 71.6494 77.8102 72.7328L78.547 79.551C78.8601 82.448 76.7654 85.0504 73.8683 85.3635L72.8942 85.4687C72.1267 85.5517 71.4236 85.9361 70.9395 86.5375C70.4554 87.1389 70.2301 87.9079 70.313 88.6754L70.9333 94.4152C71.0163 95.1827 71.4007 95.8859 72.0021 96.37C72.203 96.5317 72.4227 96.6646 72.6547 96.7667C72.4229 96.6646 72.2034 96.5318 72.0027 96.3702C71.4013 95.8861 71.0168 95.183 70.9339 94.4155L70.3136 88.6757C70.2307 87.9082 70.456 87.1391 70.9401 86.5378C71.4242 85.9364 72.1273 85.5519 72.8948 85.469L73.8689 85.3637C76.766 85.0506 78.8607 82.4483 78.5476 79.5512L77.8108 72.733C77.6937 71.6494 77.0049 70.8281 76.1214 70.4429ZM70.7844 70.8749C70.1107 70.5786 69.5779 70.025 69.3099 69.3313L67.2028 63.8774C66.9519 63.2281 66.9325 62.5121 67.1477 61.8501C67.363 61.1881 67.7998 60.6204 68.3846 60.2428L77.0512 54.6465C77.2708 54.5047 77.5062 54.389 77.7526 54.3017C77.999 54.2144 78.2548 54.1561 78.5147 54.128L85.3874 53.3852C85.8737 53.3327 86.3605 53.4039 86.8049 53.5862C86.3603 53.4037 85.8733 53.3324 85.3869 53.385L78.5141 54.1277C78.2542 54.1558 77.9984 54.2141 77.752 54.3014C77.5056 54.3887 77.2702 54.5045 77.0506 54.6463L68.384 60.2425C67.7992 60.6202 67.3624 61.1878 67.1471 61.8498C66.9319 62.5118 66.9513 63.2278 67.2022 63.8772L69.3093 69.3311C69.5773 70.0249 70.1104 70.5787 70.7844 70.8749ZM93.6241 82.6675C94.2782 82.954 95.0136 83.0786 95.7744 82.9964L96.3194 82.9375C96.8053 82.885 97.2918 82.956 97.7359 83.138C97.2916 82.9558 96.8049 82.8847 96.3188 82.9372L95.7738 82.9962C95.0132 83.0783 94.278 82.9538 93.6241 82.6675Z" fill="#6017D8"/>
</svg>
