<svg width="128" height="128" viewBox="0 0 128 128" fill="none" xmlns="http://www.w3.org/2000/svg">
<path d="M26.8369 61.0324V63.2016C26.8296 64.4287 27.3137 65.6084 28.1826 66.4812C29.0515 67.354 30.234 67.8484 31.4701 67.8557H34.3219V73.446C34.3219 73.8019 34.1795 74.1433 33.926 74.3949C33.6724 74.6466 33.3286 74.788 32.97 74.788H15.2942C14.7564 74.788 14.2406 74.5759 13.8603 74.1984C13.48 73.8209 13.2664 73.3089 13.2664 72.775V56.2263C13.2661 55.962 13.3183 55.7001 13.4199 55.4558C13.5216 55.2115 13.6707 54.9894 13.8588 54.8023C14.0469 54.6152 14.2703 54.4667 14.5162 54.3652C14.7622 54.2638 15.0258 54.2115 15.2921 54.2112H34.2723V47H14.7661C13.4034 46.9989 12.0593 47.3146 10.8414 47.9216C9.13649 48.746 7.75885 50.1136 6.92837 51.8061C6.31688 53.015 5.99895 54.3493 6.00001 55.7021V73.294C5.99781 74.6486 6.31578 75.9848 6.92837 77.1952C7.76001 78.8856 9.13748 80.2512 10.8414 81.0745C12.0593 81.6815 13.4034 81.9971 14.7661 81.9961H29.4837C30.7973 81.9938 32.0564 81.4748 32.9853 80.5528C33.9141 79.6307 34.4369 78.3808 34.4392 77.0768V75.1204C34.4375 75.078 34.4442 75.0357 34.459 74.9959C34.4738 74.9561 34.4963 74.9196 34.5253 74.8885C34.5543 74.8573 34.5892 74.8322 34.628 74.8144C34.6668 74.7967 34.7087 74.7867 34.7514 74.785L34.756 74.7848H34.7813C38.7229 74.6727 41.2577 72.7718 41.2577 69.4734V61.0324H26.8369Z" fill="#6017D8"/>
<path d="M46.5755 60.5848C46.5755 65.0574 50.3492 67.8526 55.4737 67.8526H72.7059C72.9774 67.8326 73.25 67.8709 73.5052 67.965C73.7604 68.059 73.9921 68.2067 74.1846 68.3977C74.3771 68.5888 74.5258 68.8189 74.6206 69.0722C74.7153 69.3255 74.7539 69.5961 74.7338 69.8656V72.773C74.7539 73.0424 74.7153 73.3131 74.6206 73.5664C74.5258 73.8197 74.3771 74.0498 74.1846 74.2409C73.9921 74.4319 73.7604 74.5795 73.5052 74.6736C73.25 74.7677 72.9774 74.806 72.7059 74.786H48.4333V81.9972H72.8739C74.0583 82.0272 75.2366 81.8177 76.337 81.3816C77.4374 80.9454 78.4369 80.2916 79.2749 79.46C80.1128 78.6284 80.7716 77.6363 81.2112 76.5441C81.6509 75.4518 81.8621 74.2822 81.8322 73.1064V69.9223C81.8624 68.7468 81.6514 67.5775 81.2121 66.4856C80.7728 65.3936 80.1144 64.4017 79.2768 63.5703C78.4392 62.7388 77.4401 62.0852 76.3401 61.6491C75.2401 61.213 74.0622 61.0036 72.8781 61.0335H55.6986C55.4272 61.0536 55.1545 61.0153 54.8994 60.9212C54.6442 60.8271 54.4124 60.6795 54.2199 60.4884C54.0275 60.2973 53.8788 60.0673 53.784 59.814C53.6892 59.5606 53.6506 59.29 53.6708 59.0205V55.5533C53.6542 55.3729 53.6777 55.1911 53.7398 55.0208C53.8018 54.8505 53.9009 54.6958 54.0299 54.5678C54.1589 54.4397 54.3147 54.3414 54.4863 54.2798C54.6579 54.2181 54.841 54.1948 55.0227 54.2113H78.9003V47.0001H58.4573C57.1507 46.9928 55.8946 47.501 54.9654 48.4129C54.0361 49.3248 53.5097 50.5657 53.5018 51.8628V53.8758C53.5052 53.9614 53.4742 54.0448 53.4157 54.1077C53.3571 54.1706 53.2758 54.2078 53.1896 54.2111L53.185 54.2113H53.1596C49.6722 54.3235 46.5755 56.2799 46.5755 60.5848Z" fill="#6017D8"/>
<path d="M87.7465 71.7653V81.996H95.0108V65.9548C95.0108 65.2283 95.5737 65.1161 95.9676 65.5072L113.088 81.9992H123L104.862 64.4985L122.995 47H113.083L95.9634 63.492C95.5695 63.8831 95.0066 63.772 95.0066 63.0444V47H87.7465V57.2863C87.7465 60.9758 90.1683 63.2121 94.5059 64.3864C94.6749 64.4419 94.6749 64.6097 94.5059 64.6663C90.1683 65.8395 87.7465 68.0759 87.7465 71.7653Z" fill="#6017D8"/>
</svg>
