<svg width="128" height="128" viewBox="0 0 128 128" fill="none" xmlns="http://www.w3.org/2000/svg">
<path fill-rule="evenodd" clip-rule="evenodd" d="M30.726 91.7605H8.03988C8.03988 91.7605 17.114 85.3847 10.528 74.952C3.94064 64.5179 -0.595684 51.7669 11.2606 41.4771C22.5567 31.6754 41.3845 36.718 45.8354 47.6391C45.62 47.1111 45.3711 46.5968 45.0911 46.0972C41.9787 43.1271 35.7514 43.1681 24.5755 50.7523C15.2736 57.0648 9.08946 52.7931 10.2528 49.3368C11.0477 46.9764 14.4579 45.0616 14.4579 45.0616C14.4579 45.0616 9.09717 44.8647 5.73631 48.4315C3.99314 51.9906 3.60927 55.6956 4.11696 59.3914L4.11912 59.3931C4.1471 59.5966 4.17781 59.8002 4.21119 60.0036C4.46166 61.1252 7.1418 64.37 12.0505 64.37C18.4722 64.37 24.9104 59.216 30.3328 54.8752C34.1246 51.8398 37.4197 49.2019 39.8652 49.0022C43.9426 48.6691 46.9472 51.926 47.3243 55.4026C47.2683 53.8257 47.0469 51.9553 46.482 49.6746C46.475 49.6462 46.4679 49.6176 46.4609 49.589C47.6524 54.3482 47.3618 57.3467 47.147 59.5635C46.8966 62.1465 46.7492 63.668 49.1692 65.6766C49.1692 65.6766 51.2909 67.4166 51.2909 68.5762C51.2909 69.0479 51.1787 69.3927 50.9949 69.649L50.8523 69.6621L47.9972 70.2409C47.9972 70.2409 47.3473 70.5113 47.4629 71.2403C47.4313 71.6987 47.5492 72.1968 47.6645 72.6832C47.8506 73.4694 48.0296 74.2252 47.5586 74.7343C47.2376 75.0806 46.8704 75.335 46.5632 75.5479C46.0996 75.8692 45.7729 76.0956 45.9485 76.3999C46.0241 76.5308 46.1629 76.6617 46.3124 76.8026C46.7423 77.208 47.2595 77.6956 46.6076 78.5011C46.393 78.7667 46.174 78.9761 45.9742 79.1672C45.3557 79.7585 44.9201 80.1751 45.363 81.5441C45.9485 83.356 45.437 85.3847 43.2413 85.4581C42.5957 85.4793 41.7603 85.4002 40.8394 85.313C38.6283 85.1037 35.9236 84.8477 34.1657 85.8197C31.678 87.1962 30.726 91.7605 30.726 91.7605ZM19.2431 52.4581C13.8079 54.6301 11.7384 51.7339 11.7384 51.7339C11.7384 51.7339 13.5743 52.4257 16.929 50.7451C18.881 49.7674 20.5861 48.1577 22.3569 46.4861L22.3569 46.486C24.7402 44.2361 27.2425 41.8739 30.6255 40.7895C36.5215 38.8993 40.9635 43.0557 40.9635 43.0557C40.9635 43.0557 37.1152 41.6869 32.736 43.5022C30.9959 44.2237 29.0761 45.7443 27.0187 47.3737L27.0187 47.3737C24.5947 49.2936 21.9798 51.3646 19.2431 52.4581ZM43.3903 52.0456C43.3903 52.0456 41.8691 49.493 38.8868 50.981C35.4225 52.709 32.6621 55.2868 29.9489 57.8205C27.0503 60.5273 24.2055 63.1838 20.6138 64.7005C13.7899 67.5819 8.60323 65.4498 8.60323 65.4498C8.60323 65.4498 12.9239 71.5349 22.5362 68.812C27.6732 67.3565 31.4695 61.8939 34.5112 57.5172C36.0156 55.3525 37.3354 53.4534 38.5415 52.4361C41.3073 50.1033 43.3903 52.0456 43.3903 52.0456Z" fill="#6017D8"/>
<path d="M65.6504 94.3347V77.4019H69.6015C71.5352 77.4019 72.9588 77.7303 73.8723 78.3871C74.8772 79.1356 75.3797 80.2736 75.3797 81.8012C75.3797 83.4357 74.7554 84.6042 73.5069 85.3069C75.197 85.9943 76.1257 87.1552 76.2932 88.7897C76.3237 89.0036 76.3389 89.2327 76.3389 89.4771C76.3389 91.0505 75.8593 92.2649 74.9001 93.1203H74.8772L74.4433 93.4411C73.4688 94.0216 71.931 94.3194 69.8299 94.3347H65.6504ZM67.3405 92.7995H69.6472C71.322 92.7995 72.5401 92.5933 73.3013 92.1809C74.0017 91.8295 74.4281 91.1574 74.5803 90.1645L74.626 89.5688C74.626 88.194 74.1007 87.2393 73.0501 86.7046C72.3954 86.3838 71.1621 86.2234 69.3503 86.2234H67.3405V92.7995ZM67.3405 84.6883H69.3959C70.7358 84.6883 71.7255 84.5431 72.365 84.2529C73.2328 83.8557 73.6668 83.0461 73.6668 81.8241C73.6668 80.8465 73.3927 80.1209 72.8446 79.6474L72.6847 79.5328C72.1061 79.1356 71.0023 78.937 69.3731 78.937H67.3405V84.6883Z" fill="#6017D8"/>
<path d="M78.4679 94.3347V81.8012H80.1579V83.5884C80.7213 82.4122 81.7034 81.7325 83.1041 81.5491C83.1194 81.5491 83.1346 81.5491 83.1498 81.5491L83.6979 81.5033V83.176C81.3379 83.4051 80.1579 84.6883 80.1579 87.0254V94.3347H78.4679Z" fill="#6017D8"/>
<path d="M97.4117 81.8012V94.3347H95.7216V92.135C94.7167 93.4793 93.5519 94.2736 92.2273 94.518C91.8162 94.5944 91.3746 94.6326 90.9026 94.6326C88.8472 94.6326 87.1799 93.9299 85.901 92.5246C84.7743 91.3178 84.2109 89.8437 84.2109 88.1023C84.2109 86.1165 84.9037 84.482 86.2892 83.1989C87.5225 82.0685 89.0223 81.5033 90.7884 81.5033C92.783 81.5033 94.3665 82.2595 95.5389 83.7717C95.5389 83.7717 95.5465 83.7794 95.5617 83.7946L95.7216 84.0238V81.8012H97.4117ZM90.8341 83.0614C89.342 83.0614 88.1087 83.6266 87.1343 84.757C86.51 85.4597 86.1294 86.2769 85.9923 87.2087L85.9238 87.9878C85.9238 89.5917 86.5024 90.8901 87.6595 91.883C88.5883 92.6773 89.677 93.0745 90.9255 93.0745C92.4176 93.0745 93.6357 92.494 94.5797 91.3331C95.3409 90.4013 95.7216 89.2938 95.7216 88.0107C95.7216 86.4678 95.1582 85.2076 94.0315 84.23C93.4377 83.7106 92.7526 83.3669 91.9761 83.1989C91.6106 83.1072 91.23 83.0614 90.8341 83.0614Z" fill="#6017D8"/>
<path d="M100.281 94.3347V81.8012H101.971V94.3347H100.281ZM100.281 80.2889V77.4019H101.971V80.2889H100.281Z" fill="#6017D8"/>
<path d="M104.853 94.3347V81.8012H106.543V83.428C107.593 82.1449 108.933 81.5033 110.562 81.5033C112.359 81.5033 113.775 82.1525 114.81 83.4509C115.465 84.3216 115.823 85.4749 115.884 86.9108L115.907 87.7586V94.3347H114.217V87.7586C114.217 86.2464 113.943 85.1312 113.394 84.4133C112.664 83.512 111.651 83.0614 110.357 83.0614C109.047 83.0614 108.035 83.5273 107.319 84.4591C107.274 84.5049 107.236 84.5508 107.205 84.5966C106.764 85.2534 106.543 86.2005 106.543 87.4378V94.3347H104.853Z" fill="#6017D8"/>
<path d="M64.3115 55.8633C66.4596 55.8633 68.3199 56.5722 69.8924 57.9899L70.4189 58.4855C70.4329 58.4992 70.447 58.513 70.461 58.5268C71.8369 60.0271 72.5249 61.7752 72.5249 63.7711C72.5249 65.7944 71.8018 67.5632 70.3557 69.0773C68.9377 70.5776 67.1967 71.4242 65.1329 71.6169C64.8521 71.6444 64.5783 71.6582 64.3115 71.6582C62.1213 71.6582 60.233 70.9355 58.6464 69.4902C57.1021 68.0725 56.2526 66.3313 56.0982 64.2666L56.0771 63.6678C56.0771 61.6995 56.8002 59.9652 58.2463 58.4648C59.6503 56.9783 61.3702 56.1248 63.406 55.9046C63.7008 55.8771 64.0027 55.8633 64.3115 55.8633ZM64.3115 57.2673C62.5285 57.2673 60.9841 57.8867 59.6784 59.1255C58.3867 60.3643 57.7128 61.8922 57.6566 63.7091C57.6566 65.5123 58.3025 67.0539 59.5941 68.334C60.8998 69.6141 62.4723 70.2542 64.3115 70.2542C66.1086 70.2542 67.653 69.6279 68.9447 68.3753C70.2504 67.1365 70.9173 65.6086 70.9454 63.7917C70.9454 62.0161 70.2995 60.4882 69.0079 59.2081L68.9658 59.1668C67.66 57.9005 66.1086 57.2673 64.3115 57.2673Z" fill="#6017D8"/>
<path d="M83.8414 68.0654H85.6105C85.077 69.0565 84.5154 69.7998 83.9257 70.2953H83.9046L83.8625 70.3366L83.7993 70.3779C82.6902 71.2313 81.4125 71.658 79.9664 71.658C78.1132 71.658 76.5828 71.0455 75.3754 69.8204C74.2522 68.6917 73.6906 67.3222 73.6906 65.7117C73.6906 64.0324 74.3154 62.6147 75.5649 61.4585C76.7443 60.3711 78.1763 59.8274 79.8611 59.8274C81.6863 59.8274 83.1956 60.4468 84.389 61.6856C84.8804 62.1811 85.2665 62.7523 85.5473 63.3993C85.5613 63.4406 85.5754 63.4818 85.5894 63.5231H83.8414C82.9289 61.9953 81.5951 61.2313 79.8401 61.2313C78.408 61.2313 77.2427 61.7544 76.3441 62.8005C75.9089 63.3098 75.607 63.881 75.4386 64.5142C75.3262 64.9134 75.2701 65.3263 75.2701 65.753C75.2701 67.1294 75.7966 68.265 76.8496 69.1597C77.72 69.8892 78.7379 70.254 79.9032 70.254C81.1668 70.254 82.2479 69.7929 83.1465 68.8707C83.3711 68.6367 83.6028 68.3683 83.8414 68.0654Z" fill="#6017D8"/>
<path d="M98.771 66.2485H88.3463C88.4165 67.4873 88.9781 68.5059 90.0311 69.3042C90.8595 69.9374 91.7931 70.254 92.8321 70.254C94.1097 70.254 95.1838 69.7998 96.0543 68.8913C96.4053 68.5334 96.672 68.1274 96.8545 67.6731H98.4761C98.1813 68.5541 97.6197 69.3799 96.7913 70.1508C95.6962 71.1556 94.3905 71.658 92.8742 71.658C91.1052 71.658 89.631 71.0455 88.4516 69.8204C87.3425 68.678 86.7879 67.3015 86.7879 65.6911C86.7879 63.9843 87.4057 62.5596 88.6412 61.4172C89.7784 60.3573 91.1543 59.8274 92.7689 59.8274C94.4397 59.8274 95.8577 60.3917 97.023 61.5204C97.4021 61.892 97.725 62.305 97.9918 62.7592C98.4972 63.6539 98.7569 64.817 98.771 66.2485ZM88.3885 64.8652H97.2125C96.8475 63.3098 96.0121 62.2362 94.7064 61.6443C94.1167 61.369 93.4639 61.2313 92.7478 61.2313C91.3158 61.2313 90.1715 61.7682 89.3151 62.8418C88.8518 63.4199 88.5429 64.0944 88.3885 64.8652Z" fill="#6017D8"/>
<path d="M112.284 60.0958V71.3896H110.725V69.4075C109.799 70.6188 108.725 71.3345 107.503 71.5547C107.124 71.6236 106.717 71.658 106.282 71.658C104.386 71.658 102.849 71.0248 101.67 69.7585C100.631 68.6711 100.111 67.3428 100.111 65.7736C100.111 63.9843 100.75 62.5114 102.028 61.3552C103.165 60.3367 104.548 59.8274 106.176 59.8274C108.016 59.8274 109.476 60.5087 110.557 61.8714C110.557 61.8714 110.564 61.8783 110.578 61.892L110.725 62.0985V60.0958H112.284ZM106.219 61.2313C104.843 61.2313 103.705 61.7406 102.807 62.7592C102.231 63.3924 101.88 64.1288 101.754 64.9684L101.691 65.6704C101.691 67.1157 102.224 68.2857 103.291 69.1804C104.148 69.8961 105.151 70.254 106.303 70.254C107.679 70.254 108.802 69.7309 109.672 68.6848C110.374 67.8452 110.725 66.8473 110.725 65.6911C110.725 64.3008 110.206 63.1653 109.167 62.2843C108.619 61.8163 107.988 61.5066 107.271 61.3552C106.935 61.2726 106.584 61.2313 106.219 61.2313Z" fill="#6017D8"/>
<path d="M114.807 71.3896V60.0958H116.366V61.5617C117.334 60.4055 118.57 59.8274 120.072 59.8274C121.729 59.8274 123.034 60.4124 123.989 61.5823C124.593 62.3669 124.923 63.4061 124.979 64.7L125 65.4639V71.3896H123.442V65.4639C123.442 64.1012 123.189 63.0964 122.683 62.4495C122.01 61.6374 121.076 61.2313 119.883 61.2313C118.675 61.2313 117.741 61.6512 117.082 62.4908C117.039 62.5321 117.004 62.5734 116.976 62.6147C116.569 63.2066 116.366 64.06 116.366 65.1749V71.3896H114.807Z" fill="#6017D8"/>
<path d="M64.3115 55.8633C66.4596 55.8633 68.3199 56.5722 69.8924 57.9899L70.4189 58.4855C70.4329 58.4992 70.447 58.513 70.461 58.5268C71.8369 60.0271 72.5249 61.7752 72.5249 63.7711C72.5249 65.7944 71.8018 67.5632 70.3557 69.0773C68.9377 70.5776 67.1967 71.4242 65.1329 71.6169C64.8521 71.6444 64.5783 71.6582 64.3115 71.6582C62.1213 71.6582 60.233 70.9355 58.6464 69.4902C57.1021 68.0725 56.2526 66.3313 56.0982 64.2666L56.0771 63.6678C56.0771 61.6995 56.8002 59.9652 58.2463 58.4648C59.6503 56.9783 61.3702 56.1248 63.406 55.9046C63.7008 55.8771 64.0027 55.8633 64.3115 55.8633ZM64.3115 57.2673C62.5285 57.2673 60.9841 57.8867 59.6784 59.1255C58.3867 60.3643 57.7128 61.8922 57.6566 63.7091C57.6566 65.5123 58.3025 67.0539 59.5941 68.334C60.8998 69.6141 62.4723 70.2542 64.3115 70.2542C66.1086 70.2542 67.653 69.6279 68.9447 68.3753C70.2504 67.1365 70.9173 65.6086 70.9454 63.7917C70.9454 62.0161 70.2995 60.4882 69.0079 59.2081L68.9658 59.1668C67.66 57.9005 66.1086 57.2673 64.3115 57.2673Z" stroke="#6017D8" stroke-width="0.45"/>
<path d="M83.8414 68.0654H85.6105C85.077 69.0565 84.5154 69.7998 83.9257 70.2953H83.9046L83.8625 70.3366L83.7993 70.3779C82.6902 71.2313 81.4125 71.658 79.9664 71.658C78.1132 71.658 76.5828 71.0455 75.3754 69.8204C74.2522 68.6917 73.6906 67.3222 73.6906 65.7117C73.6906 64.0324 74.3154 62.6147 75.5649 61.4585C76.7443 60.3711 78.1763 59.8274 79.8611 59.8274C81.6863 59.8274 83.1956 60.4468 84.389 61.6856C84.8804 62.1811 85.2665 62.7523 85.5473 63.3993C85.5613 63.4406 85.5754 63.4818 85.5894 63.5231H83.8414C82.9289 61.9953 81.5951 61.2313 79.8401 61.2313C78.408 61.2313 77.2427 61.7544 76.3441 62.8005C75.9089 63.3098 75.607 63.881 75.4386 64.5142C75.3262 64.9134 75.2701 65.3263 75.2701 65.753C75.2701 67.1294 75.7966 68.265 76.8496 69.1597C77.72 69.8892 78.7379 70.254 79.9032 70.254C81.1668 70.254 82.2479 69.7929 83.1465 68.8707C83.3711 68.6367 83.6028 68.3683 83.8414 68.0654Z" stroke="#6017D8" stroke-width="0.45"/>
<path d="M98.771 66.2485H88.3463C88.4165 67.4873 88.9781 68.5059 90.0311 69.3042C90.8595 69.9374 91.7931 70.254 92.8321 70.254C94.1097 70.254 95.1838 69.7998 96.0543 68.8913C96.4053 68.5334 96.672 68.1274 96.8545 67.6731H98.4761C98.1813 68.5541 97.6197 69.3799 96.7913 70.1508C95.6962 71.1556 94.3905 71.658 92.8742 71.658C91.1052 71.658 89.631 71.0455 88.4516 69.8204C87.3425 68.678 86.7879 67.3015 86.7879 65.6911C86.7879 63.9843 87.4057 62.5596 88.6412 61.4172C89.7784 60.3573 91.1543 59.8274 92.7689 59.8274C94.4397 59.8274 95.8577 60.3917 97.023 61.5204C97.4021 61.892 97.725 62.305 97.9918 62.7592C98.4972 63.6539 98.7569 64.817 98.771 66.2485ZM88.3885 64.8652H97.2125C96.8475 63.3098 96.0121 62.2362 94.7064 61.6443C94.1167 61.369 93.4639 61.2313 92.7478 61.2313C91.3158 61.2313 90.1715 61.7682 89.3151 62.8418C88.8518 63.4199 88.5429 64.0944 88.3885 64.8652Z" stroke="#6017D8" stroke-width="0.45"/>
<path d="M112.284 60.0958V71.3896H110.725V69.4075C109.799 70.6188 108.725 71.3345 107.503 71.5547C107.124 71.6236 106.717 71.658 106.282 71.658C104.386 71.658 102.849 71.0248 101.67 69.7585C100.631 68.6711 100.111 67.3428 100.111 65.7736C100.111 63.9843 100.75 62.5114 102.028 61.3552C103.165 60.3367 104.548 59.8274 106.176 59.8274C108.016 59.8274 109.476 60.5087 110.557 61.8714C110.557 61.8714 110.564 61.8783 110.578 61.892L110.725 62.0985V60.0958H112.284ZM106.219 61.2313C104.843 61.2313 103.705 61.7406 102.807 62.7592C102.231 63.3924 101.88 64.1288 101.754 64.9684L101.691 65.6704C101.691 67.1157 102.224 68.2857 103.291 69.1804C104.148 69.8961 105.151 70.254 106.303 70.254C107.679 70.254 108.802 69.7309 109.672 68.6848C110.374 67.8452 110.725 66.8473 110.725 65.6911C110.725 64.3008 110.206 63.1653 109.167 62.2843C108.619 61.8163 107.988 61.5066 107.271 61.3552C106.935 61.2726 106.584 61.2313 106.219 61.2313Z" stroke="#6017D8" stroke-width="0.45"/>
<path d="M114.807 71.3896V60.0958H116.366V61.5617C117.334 60.4055 118.57 59.8274 120.072 59.8274C121.729 59.8274 123.034 60.4124 123.989 61.5823C124.593 62.3669 124.923 63.4061 124.979 64.7L125 65.4639V71.3896H123.442V65.4639C123.442 64.1012 123.189 63.0964 122.683 62.4495C122.01 61.6374 121.076 61.2313 119.883 61.2313C118.675 61.2313 117.741 61.6512 117.082 62.4908C117.039 62.5321 117.004 62.5734 116.976 62.6147C116.569 63.2066 116.366 64.06 116.366 65.1749V71.3896H114.807Z" stroke="#6017D8" stroke-width="0.45"/>
<path d="M70.4355 50.7709V33.3677H74.4077C76.3517 33.3677 77.7829 33.7052 78.7014 34.3803C79.7116 35.1496 80.2168 36.3192 80.2168 37.8892C80.2168 39.5691 79.5892 40.7701 78.334 41.4923C80.0331 42.1988 80.9668 43.392 81.1352 45.0719C81.1658 45.2917 81.1811 45.5272 81.1811 45.7784C81.1811 47.3954 80.6989 48.6436 79.7346 49.5228H79.7116L79.2754 49.8525C78.2957 50.449 76.7497 50.7552 74.6373 50.7709H70.4355ZM72.1346 49.1931H74.4536C76.1374 49.1931 77.362 48.9811 78.1273 48.5572C78.8315 48.1961 79.2601 47.5053 79.4131 46.4849L79.4591 45.8726C79.4591 44.4596 78.931 43.4783 77.8748 42.9288C77.2166 42.5992 75.9767 42.4343 74.1552 42.4343H72.1346V49.1931ZM72.1346 40.8565H74.2011C75.5481 40.8565 76.5431 40.7073 77.186 40.409C78.0585 40.0008 78.4947 39.1687 78.4947 37.9128C78.4947 36.908 78.2192 36.1622 77.6681 35.6755L77.5074 35.5578C76.9257 35.1496 75.816 34.9455 74.1781 34.9455H72.1346V40.8565Z" fill="#6017D8"/>
<path d="M83.3215 50.7709V33.3677H85.0205V50.7709H83.3215Z" fill="#6017D8"/>
<path d="M98.9851 37.8892V50.7709H97.286V48.7692C96.5359 50.1822 95.3573 50.9436 93.75 51.0535C93.6276 51.0692 93.4592 51.077 93.2449 51.077C91.3162 51.077 89.8697 50.3941 88.9054 49.0282C88.2472 48.1019 87.9181 46.7046 87.9181 44.8364V37.8892H89.6171V44.8364C89.6171 46.1709 89.8161 47.1756 90.2141 47.8507C90.7499 48.8084 91.6683 49.3422 92.9694 49.4521C93.1071 49.4678 93.2449 49.4757 93.3827 49.4757C94.7297 49.4757 95.7782 48.9419 96.5283 47.8743C97.0334 47.105 97.286 45.9825 97.286 44.5067V37.8892H98.9851Z" fill="#6017D8"/>
<path d="M114.47 44.907H103.104C103.181 46.32 103.793 47.4818 104.941 48.3924C105.844 49.1146 106.862 49.4757 107.995 49.4757C109.388 49.4757 110.559 48.9576 111.508 47.9214C111.89 47.5132 112.181 47.05 112.38 46.5319H114.148C113.827 47.5367 113.214 48.4787 112.311 49.3579C111.117 50.504 109.694 51.077 108.041 51.077C106.112 51.077 104.505 50.3784 103.219 48.9811C102.01 47.678 101.405 46.1081 101.405 44.2712C101.405 42.3244 102.079 40.6995 103.426 39.3964C104.665 38.1875 106.166 37.5831 107.926 37.5831C109.747 37.5831 111.293 38.2268 112.564 39.5141C112.977 39.938 113.329 40.409 113.62 40.9271C114.171 41.9476 114.454 43.2742 114.47 44.907ZM103.15 43.3292H112.771C112.373 41.5551 111.462 40.3305 110.038 39.6554C109.395 39.3414 108.684 39.1844 107.903 39.1844C106.342 39.1844 105.094 39.7967 104.16 41.0213C103.655 41.6807 103.318 42.45 103.15 43.3292Z" fill="#6017D8"/>
</svg>
