<svg width="385" height="360" viewBox="0 0 385 360" fill="none" xmlns="http://www.w3.org/2000/svg">
<path d="M0 65.0949C0 45.8887 5.39739 27.0691 15.5767 10.7823L22.3156 0C36.8987 23.333 44.6312 50.2945 44.6312 77.8099V97.296L35.2854 87.9502C29.8387 82.5035 26.7787 75.1161 26.7787 67.4132V54.45C26.7787 51.9851 24.7805 49.9869 22.3156 49.9869C19.8507 49.9869 17.8525 51.9851 17.8525 54.45V68.4683C17.8525 79.4151 22.2011 89.9136 29.9417 97.6542L34.9392 102.652C41.1166 108.341 44.6312 116.356 44.6312 124.754V140.938C44.6312 159.667 39.3678 178.02 29.4412 193.903L22.3156 205.303C7.73247 181.97 0 155.009 0 127.494V108.007L9.34575 117.353C14.7925 122.8 17.8525 130.187 17.8525 137.89V150.853C17.8525 153.318 19.8507 155.317 22.3156 155.317C24.7805 155.317 26.7787 153.318 26.7787 150.853V136.835C26.7787 125.888 22.4301 115.39 14.6895 107.649L9.692 102.652C3.46752 96.0591 0 87.3357 0 78.2689V65.0949Z" fill="#6017D8"/>
<path d="M340.09 165.069C340.09 145.863 345.487 127.043 355.666 110.756L362.405 99.9739C376.989 123.307 384.721 150.268 384.721 177.784V197.27L375.375 187.924C369.929 182.477 366.869 175.09 366.869 167.387V154.424C366.869 151.959 364.87 149.961 362.405 149.961C359.941 149.961 357.942 151.959 357.942 154.424V168.442C357.942 179.389 362.291 189.887 370.032 197.628L375.029 202.626C381.206 208.315 384.721 216.33 384.721 224.728V240.912C384.721 259.641 379.458 277.994 369.531 293.876L362.405 305.277C347.822 281.944 340.09 254.983 340.09 227.467V207.981L349.436 217.327C354.882 222.774 357.942 230.161 357.942 237.864V250.827C357.942 253.292 359.941 255.29 362.405 255.29C364.87 255.29 366.869 253.292 366.869 250.827V236.809C366.869 225.862 362.52 215.364 354.779 207.623L349.782 202.626C343.557 196.033 340.09 187.31 340.09 178.243V165.069Z" fill="#6017D8"/>
<path d="M51.7725 92.0919C51.7725 64.5765 59.5049 37.615 74.0881 14.282C88.6712 37.615 96.4036 64.5765 96.4036 92.0919V111.578L89.5528 104.727C82.5086 97.6829 78.5512 88.1289 78.5512 78.1668V68.732C78.5512 66.2671 76.553 64.2689 74.0881 64.2689C71.6231 64.2689 69.6249 66.2671 69.6249 68.732V165.135C69.6249 167.6 71.6231 169.598 74.0881 169.598C76.553 169.598 78.5512 167.6 78.5512 165.135V140.142C78.5512 130.282 86.544 122.289 96.4036 122.289V141.775C96.4036 169.291 88.6712 196.252 74.0881 219.585C59.5049 196.252 51.7725 169.291 51.7725 141.776V92.0919Z" fill="#6017D8"/>
<path fill-rule="evenodd" clip-rule="evenodd" d="M125.86 28.564C111.276 51.897 103.544 78.8585 103.544 106.374V205.303C113.404 205.303 121.396 197.311 121.396 187.451V141.927H130.323V216.015C130.323 225.875 138.315 233.867 148.175 233.867V106.374C148.175 78.8585 140.443 51.897 125.86 28.564ZM130.323 120.504V83.014C130.323 80.5491 128.324 78.5509 125.86 78.5509C123.395 78.5509 121.396 80.5491 121.396 83.014V120.504H130.323Z" fill="#6017D8"/>
<path fill-rule="evenodd" clip-rule="evenodd" d="M177.632 42.8459C163.049 66.1789 155.316 93.1405 155.316 120.656V219.585C165.176 219.585 173.169 211.593 173.169 201.733V156.209C178.099 156.209 182.095 160.206 182.095 165.135V230.297C182.095 240.157 190.088 248.149 199.948 248.149V171.357C199.948 161.658 196.095 152.356 189.236 145.498C196.095 138.639 199.948 129.337 199.948 119.638V111.205C199.948 89.8658 193.951 68.9559 182.641 50.8601L177.632 42.8459ZM173.169 134.786C178.099 134.786 182.095 130.79 182.095 125.86V101.759C182.095 96.8293 178.099 92.8329 173.169 92.8329V134.786Z" fill="#6017D8"/>
<path d="M207.089 123.355C207.089 103.124 210.158 83.0102 216.193 63.7001L218.247 57.1279L220.3 63.7001C226.335 83.0102 229.404 103.124 229.404 123.355V196.204C229.404 216.435 226.335 236.549 220.3 255.859L218.247 262.431L216.193 255.859C210.158 236.549 207.089 216.435 207.089 196.204V123.355Z" fill="#6017D8"/>
<path d="M281.176 128.538C281.176 114.538 277.242 100.82 269.822 88.9482L258.861 71.4099L250.113 85.406C241.246 99.5926 236.545 115.985 236.545 132.715V150.477C236.545 158.871 239.03 167.077 243.686 174.062C239.03 181.046 236.545 189.252 236.545 197.647V215.408C236.545 232.138 241.246 248.531 250.113 262.717L258.861 276.713L269.822 259.175C277.242 247.303 281.176 233.585 281.176 219.585V183.88L274.513 190.543C267.349 197.708 263.324 207.425 263.324 217.558V222.263C263.324 224.728 261.325 226.726 258.861 226.726C256.396 226.726 254.397 224.728 254.397 222.263V197.27C254.397 190.368 259.992 184.773 266.894 184.773V163.35C259.992 163.35 254.397 157.755 254.397 150.853V125.86C254.397 123.395 256.396 121.397 258.861 121.397C261.325 121.397 263.324 123.395 263.324 125.86V130.566C263.324 140.698 267.349 150.415 274.513 157.58L281.176 164.243V128.538Z" fill="#6017D8"/>
<path d="M288.317 146.997C288.317 130.267 293.019 113.875 301.885 99.688L310.633 85.6919L319.381 99.688C328.247 113.875 332.949 130.267 332.949 146.997V290.995C323.089 290.995 315.096 283.003 315.096 273.143V140.142C315.096 137.677 313.098 135.679 310.633 135.679C308.168 135.679 306.17 137.677 306.17 140.142V244.579C306.17 254.439 298.177 262.431 288.317 262.431V146.997Z" fill="#6017D8"/>
<path d="M13.8229 243.686C7.87769 240.344 -1.84253 230.996 6.83833 220.345C17.6894 207.031 53.8581 211.043 95.2081 244.764C100.348 241.284 112.399 232.097 119.483 223.195C122.014 220.319 124.428 220.832 125.319 221.449C126.485 221.806 127.992 223.298 124.683 226.407C120.548 230.294 109.651 239.913 115.517 263.059C116.004 262.913 243.565 349.25 285.304 313.449C297.956 319.729 334.739 326.736 380.649 304.521C380.309 305.153 321.924 442.884 101.528 279.986C101.006 280.207 73.8676 281.154 63.2792 295.645C60.9819 299.299 57.7503 299.595 56.4216 299.286C55.2231 298.232 53.6531 295.346 56.9613 292.237C61.0966 288.35 63.9645 289.082 77.8862 264.783C58.9221 246.262 19.5597 216.114 13.8229 243.686Z" fill="#6017D8"/>
</svg>
