<svg width="128" height="128" viewBox="0 0 128 128" fill="none" xmlns="http://www.w3.org/2000/svg">
<g clip-path="url(#clip0_499_842)">
<path fill-rule="evenodd" clip-rule="evenodd" d="M10 37H117L64.0879 90H10V37ZM62.9121 72.5689V47.6H73.4945C83.6066 47.6 88.3099 50.8978 88.3099 58.9067C88.3099 65.9733 83.3714 69.9778 75.1407 69.9778H71.8484V79.4H55.8571L54.6813 75.3956C51.1538 76.5733 47.156 76.3378 43.6286 75.3956L41.9824 79.4H33.0462L33.5165 77.28C30.9297 79.6356 26.2264 80.5778 23.1692 80.5778C18.7011 80.5778 14.9385 79.6356 11.411 77.5156L14.7033 71.1556C18.2308 73.2756 20.5824 73.7467 23.4044 73.5111C25.0505 73.5111 27.4022 73.04 27.6374 70.92C27.6374 69.2711 25.2857 68.3289 22.2286 67.3867C19.8769 66.68 17.2901 65.7378 15.1736 64.3244C12.5868 62.44 11.411 60.0844 11.411 56.7867C11.6462 54.4311 12.3516 52.3111 13.9978 50.6622C16.3495 48.3067 20.1121 46.8933 24.5802 46.8933C28.3429 46.8933 33.0462 47.8356 36.5736 49.72L32.811 56.08C29.4664 54.4049 27.6083 54.2188 25.7502 54.0327C25.518 54.0094 25.2857 53.9862 25.0505 53.96C21.9934 53.7244 20.3473 54.9022 20.3473 56.08C20.3473 57.7289 23.4044 58.9067 26.2264 59.8489C30.4593 61.2622 35.8681 63.1467 36.8088 68.3289L44.5692 47.6H53.7407L62.9121 72.5689ZM49.0374 57.7289L45.7451 68.3289C47.8615 69.0356 50.2132 69.0356 52.5648 68.3289L49.2725 57.7289H49.0374ZM71.8484 54.4311V62.9111H74.2C77.2571 62.9111 79.6088 61.7333 79.6088 58.4356C79.6088 55.3733 77.2571 54.4311 74.2 54.4311H71.8484Z" fill="#6017D8"/>
</g>
<defs>
<clipPath id="clip0_499_842">
<rect width="107" height="53" fill="white" transform="translate(10 37)"/>
</clipPath>
</defs>
</svg>
