<svg width="128" height="128" viewBox="0 0 128 128" fill="none" xmlns="http://www.w3.org/2000/svg">
<path d="M36.7203 72.8108C36.6903 72.8108 36.6604 72.7958 36.6304 72.7958C36.6304 72.6159 36.6304 72.4211 36.6304 72.2413C36.6304 62.5158 36.6304 52.7904 36.6304 43.0649C36.6304 42.9 36.6304 42.7502 36.6304 42.5853C36.6454 42.3905 36.5405 42.3306 36.3607 42.3606C36.1059 42.3905 35.8661 42.4355 35.6264 42.4655C33.7232 42.7352 31.8051 42.99 29.902 43.2597C27.9539 43.5294 26.0208 43.7992 24.0727 44.0839C23.1736 44.2038 22.2745 44.3536 21.3753 44.4735C21.1655 44.5035 21.0606 44.5784 21.0756 44.8032C21.0906 45.1778 21.0906 45.5524 21.0756 45.9271C21.0606 46.2118 21.1655 46.3017 21.4503 46.3017C22.1696 46.3017 22.8739 46.4066 23.5782 46.5415C25.8709 46.9611 27.0698 48.1149 27.5643 50.3627C27.804 51.4866 27.879 52.6255 27.879 53.7644C27.879 67.2362 27.879 80.708 27.879 94.1798C27.879 94.3447 27.879 94.4945 27.879 94.6594C27.879 94.8392 27.9389 94.9291 28.1187 94.9141C28.2236 94.9141 28.3285 94.9141 28.4334 94.9141C30.9659 94.9141 33.4985 94.9141 36.031 94.9141C36.1359 94.9141 36.2408 94.9141 36.3457 94.9141C36.5555 94.9291 36.6304 94.8242 36.6154 94.6294C36.6004 94.5095 36.6154 94.3746 36.6154 94.2548C36.6154 90.3586 36.6154 86.4774 36.6154 82.5812C36.6154 80.0337 37.1249 77.5911 38.1439 75.2534C39.088 73.0955 40.3767 71.1923 42.2049 69.6788C44.0332 68.1653 46.0861 67.476 48.4688 67.9255C50.2371 68.2552 51.5408 69.1993 52.3051 70.8327C52.4699 71.1774 52.5898 71.522 52.6947 71.8817C53.0993 73.2753 53.2192 74.7139 53.2192 76.1675C53.2192 82.1766 53.2192 88.2007 53.2192 94.2098C53.2192 94.3297 53.2341 94.4646 53.2192 94.5844C53.1892 94.8542 53.3241 94.9291 53.5638 94.9141C53.6537 94.8991 53.7436 94.9141 53.8336 94.9141C56.3511 94.9141 58.8686 94.9141 61.3862 94.9141C62.0605 94.9141 61.9856 94.9741 61.9856 94.3147C61.9856 88.4405 61.9856 82.5662 61.9856 76.7069C61.9856 74.9237 61.9256 73.1404 61.6709 71.3722C61.4611 69.9186 61.1164 68.51 60.502 67.1613C59.3631 64.6587 57.475 63.0104 54.8076 62.2911C52.7396 61.7366 50.6417 61.7066 48.5437 62.0962C45.6066 62.6657 43.164 64.1193 41.096 66.2472C39.3577 68.0304 38.039 70.0984 36.9301 72.3162C36.9001 72.4811 36.8102 72.6459 36.7203 72.8108ZM91.6565 67.3411C91.7464 67.1613 91.7165 67.0414 91.7165 66.9215C91.7165 65.0484 91.7165 63.1752 91.7165 61.302C91.7165 60.8375 91.7165 60.8375 91.2369 60.7176C88.8842 60.1032 86.5166 59.6237 84.0889 59.4438C81.4365 59.249 78.8141 59.3539 76.2216 60.0283C74.1087 60.5827 72.1606 61.4968 70.5722 63.0403C68.3843 65.1533 67.4402 67.7907 67.3653 70.7877C67.2904 73.62 68.2794 76.0176 70.1975 78.0706C71.2915 79.2544 72.5652 80.2285 73.9139 81.1126C75.7271 82.3115 77.6602 83.3305 79.5484 84.3944C80.8071 85.1137 82.0509 85.848 83.2048 86.7321C84.1489 87.4514 84.9881 88.2606 85.6324 89.2646C87.1759 91.6473 86.7413 95.8132 83.0549 97.2968C81.6313 97.8662 80.1478 98.0311 78.6493 98.0011C76.6113 97.9412 74.6781 97.4167 72.805 96.6075C71.0667 95.8432 69.4633 94.8392 67.9048 93.7752C67.7849 93.7003 67.68 93.5355 67.4702 93.6104C67.4702 95.7533 67.4702 97.8962 67.4702 100.039C67.4702 100.309 67.635 100.354 67.8299 100.399C70.3923 101.088 73.0148 101.568 75.6672 101.762C78.0349 101.942 80.4025 101.927 82.7702 101.568C84.5535 101.298 86.2918 100.848 87.9402 100.069C90.2329 98.9901 92.0761 97.4167 93.215 95.1089C93.9343 93.6703 94.249 92.1268 94.3239 90.5234C94.4738 87.4065 93.6196 84.6342 91.6116 82.2365C90.4577 80.8579 89.0641 79.749 87.5805 78.73C85.6774 77.4412 83.6394 76.3773 81.6313 75.2234C80.4925 74.564 79.3536 73.8897 78.3046 73.0805C77.4354 72.4211 76.6412 71.6719 76.0418 70.7428C75.2776 69.544 75.0378 68.2252 75.3525 66.8466C75.7121 65.1832 76.821 64.1942 78.3795 63.6697C80.1927 63.0553 82.021 63.1003 83.8642 63.4899C86.037 63.9544 88.0001 64.9285 89.8433 66.1273C90.4577 66.5169 91.0421 66.9215 91.6565 67.3411ZM110.163 61.8715C109.714 61.9464 109.264 62.0213 108.8 62.1112C105.923 62.6357 103.045 63.1452 100.168 63.6697C99.7636 63.7446 98.7146 63.9394 98.0852 64.0593C97.6507 64.1343 97.7106 64.9285 97.7106 65.2582C97.7106 65.8576 97.7705 66.3071 98.0403 66.3821C99.7636 66.8766 100.693 67.9255 101.142 69.8287C101.172 69.9635 101.202 70.1134 101.232 70.2483C101.442 71.3422 101.472 72.8857 101.472 73.9946C101.472 80.723 101.472 87.4514 101.472 94.1798C101.472 94.2997 101.472 94.4346 101.472 94.5545C101.487 94.9291 101.487 94.9291 101.877 94.9291C101.951 94.9291 102.026 94.9291 102.086 94.9291C104.604 94.9291 107.121 94.9291 109.639 94.9291C110.283 94.9291 110.223 94.989 110.223 94.3746C110.223 83.7201 110.223 73.0655 110.223 62.4259C110.223 62.2311 110.268 62.0513 110.163 61.8715Z" fill="#6017D8"/>
<path d="M110.328 45.3127C110.313 45.2078 110.283 45.1178 110.253 45.0429C109.489 42.5404 107.166 40.7122 104.424 40.7122C101.067 40.7122 98.3247 43.4545 98.3247 46.8561C98.3247 47.7103 98.5045 48.5345 98.8192 49.2838C99.0889 49.9281 98.7892 50.6774 98.1448 50.9471C98.01 51.0071 97.8751 51.037 97.7402 51.052C97.5304 51.067 97.4106 51.082 97.3806 51.082C96.0469 51.1419 95.3725 50.9621 94.1887 50.7074C90.3225 49.8382 78.9636 39.0788 52.035 35.9169C39.1176 34.4033 28.8976 36.6961 21.0453 39.843C12.5337 43.2597 -2.43668 43.5744 14.7815 36.9209C29.4521 31.2564 49.6223 26.2363 74.0035 27.0605C102.191 28.0046 117.895 38.4344 120.488 40.3825C122.076 41.5663 120.083 43.4545 112.905 46.6463C111.961 47.0659 110.852 46.6463 110.433 45.7023C110.403 45.5524 110.358 45.4325 110.328 45.3127Z" fill="#6017D8"/>
</svg>
