<svg width="286" height="194" viewBox="0 0 286 194" fill="none" xmlns="http://www.w3.org/2000/svg">
<path d="M39.499 112.865C40.0334 112.949 40.5806 113 41.1407 113.015C41.7173 112.957 42.2972 112.861 42.8805 112.726C43.4601 112.511 44.0324 112.256 44.5974 111.961C45.1368 111.587 45.6578 111.174 46.1605 110.722C46.6155 110.196 47.0415 109.636 47.4383 109.042C47.767 108.385 48.0571 107.702 48.3085 106.992C48.4744 106.237 48.594 105.465 48.6674 104.675C48.6426 103.864 48.5665 103.047 48.4392 102.225C48.2067 101.406 47.9211 100.595 47.5824 99.7917C47.1385 99.019 46.6431 98.2683 46.0963 97.5395C45.4511 96.8683 44.7598 96.2324 44.0224 95.6319C43.2008 95.1145 42.3417 94.6444 41.4454 94.2218C40.4856 93.9042 39.5003 93.6437 38.4896 93.4403C37.4418 93.3586 36.3829 93.3408 35.313 93.3867C34.2368 93.5642 33.1656 93.8084 32.0994 94.1195C31.0602 94.5641 30.0427 95.0744 29.0472 95.6505C28.1122 96.3536 27.2157 97.1171 26.3576 97.9409C25.5919 98.8769 24.8799 99.8637 24.2214 100.901C23.6835 102.028 23.2119 103.192 22.8066 104.394C22.5441 105.655 22.3572 106.937 22.2459 108.24C22.2921 109.567 22.419 110.897 22.6266 112.228C22.9975 113.545 23.4495 114.843 23.9827 116.125C24.675 117.351 25.444 118.539 26.2896 119.69C27.2803 120.746 28.3382 121.746 29.4633 122.69C30.7097 123.505 32.0093 124.246 33.3619 124.916C34.8037 125.426 36.2805 125.851 37.7924 126.191C39.3541 126.351 40.9298 126.417 42.5195 126.391C44.1146 126.172 45.7008 125.858 47.2781 125.447C48.8141 124.845 50.3177 124.149 51.7888 123.359C53.1721 122.39 54.5003 121.335 55.7734 120.194C56.9153 118.896 57.9817 117.527 58.9725 116.086C59.7946 114.521 60.5243 112.903 61.1617 111.232C61.6011 109.479 61.9361 107.696 62.1667 105.883C62.1805 104.036 62.0836 102.184 61.8758 100.329C61.4446 98.4912 60.9025 96.6764 60.2494 94.8841C59.3792 93.1639 58.4044 91.4929 57.3251 89.8711C56.048 88.3732 54.6791 86.9492 53.2185 85.5992C51.5918 84.4196 49.8921 83.3355 48.1194 82.3467C46.2233 81.5668 44.2779 80.8989 42.2833 80.3431C40.2169 80.0238 38.1287 79.8273 36.0189 79.7537C33.895 79.9313 31.7792 80.2358 29.6715 80.6671C27.6106 81.3505 25.5882 82.1574 23.6044 83.0878C21.7276 84.2564 19.9187 85.5379 18.1778 86.9323C16.6 88.5367 15.1165 90.2365 13.7274 92.0316C12.5502 93.9952 11.4892 96.0304 10.5444 98.1374C9.8496 100.36 9.28693 102.626 8.85637 104.934C8.70071 107.298 8.68595 109.672 8.81209 112.057C9.22297 114.43 9.77567 116.78 10.4702 119.107C11.4432 121.354 12.5507 123.545 13.7929 125.679C15.2909 127.667 16.7483 129.735 18.6449 131.38C26.4411 138.142 39.0051 137.729 44.5001 140.615C44.8712 140.809 45.2375 141.013 45.5989 141.225C45.95 141.454 46.2955 141.691 46.6353 141.936C46.9632 142.197 47.2848 142.465 47.6 142.741C47.9019 143.032 48.1967 143.329 48.4845 143.634C48.7577 143.951 49.0231 144.275 49.281 144.605C49.5229 144.947 49.7567 145.294 49.9823 145.647C50.1909 146.01 50.3909 146.378 50.5822 146.75C50.7557 147.132 50.9201 147.517 51.0754 147.905C51.2122 148.301 51.3396 148.7 51.4576 149.101C51.5565 149.508 51.6457 149.917 51.7253 150.328C51.7854 150.742 51.8357 151.158 51.8762 151.575C51.897 151.993 51.9079 152.411 51.9089 152.83C51.8902 153.248 51.8616 153.666 51.8231 154.083C51.7651 154.497 51.6972 154.91 51.6197 155.322C51.5228 155.729 51.4163 156.134 51.3003 156.536C51.1654 156.933 51.0213 157.326 50.8679 157.715C50.6962 158.098 50.5157 158.475 50.3262 158.849C50.1193 159.213 49.904 159.572 49.6801 159.926C49.4398 160.27 49.1916 160.607 48.9354 160.938C48.6638 161.258 48.3849 161.57 48.0986 161.876C47.7981 162.168 47.491 162.453 47.1771 162.731C46.8504 162.994 46.5178 163.248 46.1791 163.496C45.8292 163.726 45.474 163.949 45.1136 164.163C44.7435 164.36 44.3689 164.548 43.9899 164.727C43.6029 164.889 43.2122 165.041 42.818 165.184C42.4175 165.308 42.0143 165.423 41.6084 165.528C41.1979 165.614 40.7857 165.69 40.3717 165.757C39.955 165.804 39.5374 165.841 39.1189 165.869C38.6997 165.876 38.2804 165.874 37.8613 165.862C37.4431 165.831 37.026 165.789 36.6098 165.738C36.1965 165.667 35.7851 165.587 35.3757 165.496C34.9709 165.387 34.569 165.268 34.1698 165.14C33.7772 164.993 33.3882 164.837 33.0029 164.672C32.6259 164.489 32.2534 164.297 31.8854 164.096C31.5273 163.878 31.1746 163.652 30.8272 163.418C30.4912 163.168 30.1614 162.909 29.8376 162.643C29.5267 162.363 29.2227 162.074 28.9254 161.779C28.6424 161.47 28.3669 161.155 28.0988 160.833C27.8462 160.499 27.6016 160.159 27.3651 159.814C27.1451 159.457 26.9336 159.096 26.7307 158.73C26.5453 158.354 26.3689 157.975 26.2014 157.591C26.0522 157.2 25.9123 156.805 25.7818 156.407C25.6701 156.004 25.5681 155.598 25.4756 155.19C25.4025 154.777 25.3391 154.364 25.2856 153.949" stroke="#6017D8" stroke-width="8" stroke-linecap="round"/>
<path d="M66.524 157.981C65.1378 153.073 62.2601 142.256 61.8398 138.256C61.3143 133.257 63.8616 129.101 71.9782 128.248C80.0948 127.395 84.2288 131.237 84.7138 135.852C85.1018 139.544 84.5549 150.902 84.2329 156.12" stroke="#6017D8" stroke-width="8" stroke-linecap="round"/>
<path d="M64.5723 145.115L82.4737 143.233" stroke="#6017D8" stroke-width="8" stroke-linecap="round"/>
<path d="M151.219 121.931C149.833 117.022 146.955 106.205 146.535 102.205C146.01 97.2063 148.557 93.0506 156.674 92.1975C164.79 91.3445 168.924 95.1867 169.409 99.8013C169.797 103.493 169.25 114.851 168.928 120.069" stroke="#6017D8" stroke-width="8" stroke-linecap="round"/>
<path d="M149.268 109.064L167.169 107.183" stroke="#6017D8" stroke-width="8" stroke-linecap="round"/>
<path d="M210.78 152.874C209.394 147.966 205.104 133.275 204.684 129.276C204.158 124.277 206.705 120.121 214.822 119.268C222.939 118.415 227.073 122.257 227.558 126.872C227.946 130.563 227.399 141.922 227.077 147.14" stroke="#6017D8" stroke-width="8" stroke-linecap="round"/>
<path d="M207.416 136.135L225.317 134.253" stroke="#6017D8" stroke-width="8" stroke-linecap="round"/>
<path d="M85.7235 116.749L88.1464 110.839C90.4317 105.265 98.5867 106.159 99.6106 112.095L101.188 121.241C102.299 127.682 111.447 127.956 112.942 121.593L117.23 103.342C118.313 98.7337 124.639 98.1579 126.535 102.495L140.848 135.22C143.433 141.132 152.189 139.747 152.824 133.326V133.326" stroke="#6017D8" stroke-width="8" stroke-linecap="round"/>
<path d="M97.8359 141.116L127.672 137.98" stroke="#6017D8" stroke-width="8" stroke-linecap="round"/>
<path d="M187.758 154.791C187.758 154.791 176.943 157.135 175.354 142.018C174.619 135.021 176.804 130.889 179.847 128.458C185.307 124.098 191.859 118.542 189.497 111.967C187.269 105.762 184.499 100.836 183.055 100.485" stroke="#6017D8" stroke-width="8" stroke-linecap="round"/>
<path d="M188.367 107.971C188.622 105.263 190.6 99.6926 196.482 99.0744C202.364 98.4562 205.457 103.494 206.269 106.09" stroke="#6017D8" stroke-width="8" stroke-linecap="round"/>
<path d="M260.355 110.902C273.636 96.4954 285.443 70.1167 265.896 51.5582C259.325 45.319 242.597 48.949 246.601 70.2127C249.194 83.9817 248.805 112.399 245.776 126.008C243.916 131.294 242.529 141.789 251.862 141.487C261.196 141.185 260.742 130.656 257.614 124.764" stroke="#6017D8" stroke-width="8" stroke-linecap="round"/>
<circle cx="244.261" cy="161.421" r="8" transform="rotate(-6 244.261 161.421)" stroke="#6017D8" stroke-width="8"/>
<path d="M79.4819 91.28C81.6623 91.6353 83.7178 90.1558 84.0731 87.9754C84.4284 85.795 82.9489 83.7394 80.7685 83.3841L79.4819 91.28ZM89.3701 46.14L91.7877 49.3268C93.1227 48.314 93.6849 46.5764 93.1962 44.9735C92.7075 43.3706 91.2715 42.2422 89.5985 42.1466L89.3701 46.14ZM62.7301 31.8464L58.771 32.4171L62.7301 31.8464ZM92.5866 41.1006C93.5319 43.0972 95.9168 43.9495 97.9135 43.0042C99.9102 42.0589 100.762 39.674 99.8172 37.6773L92.5866 41.1006ZM80.7685 83.3841C81.3931 83.4859 80.7639 83.6197 79.7143 81.9474C78.7407 80.3962 77.5855 77.5186 77.0655 72.571L69.1093 73.4072C69.7182 79.2005 71.1441 83.3415 72.9384 86.2002C74.6565 88.9378 76.9818 90.8726 79.4819 91.28L80.7685 83.3841ZM77.0655 72.571C76.6566 68.6809 78.5523 64.1033 81.8363 59.5568C85.0409 55.1202 89.0974 51.3678 91.7877 49.3268L86.9526 42.9533C83.7449 45.3867 79.0956 49.6884 75.3511 54.8725C71.686 59.9467 68.3893 66.5565 69.1093 73.4072L77.0655 72.571ZM89.5985 42.1466C85.7703 41.9277 79.9439 40.9902 75.0238 38.977C69.8669 36.8668 67.1098 34.1935 66.6892 31.2757L58.771 32.4171C59.8353 39.8005 66.2675 44.0378 71.9941 46.3811C77.9575 48.8213 84.7086 49.88 89.1418 50.1335L89.5985 42.1466ZM66.6892 31.2757C66.4074 29.321 67.0265 27.7368 68.1795 26.5906C69.3742 25.403 71.33 24.5215 73.8759 24.5517C78.8304 24.6105 86.5326 28.3135 92.5866 41.1006L99.8172 37.6773C92.9468 23.1658 82.9851 16.6593 73.9708 16.5523C69.5322 16.4996 65.4273 18.0462 62.5395 20.9169C59.61 23.8291 58.1247 27.9335 58.771 32.4171L66.6892 31.2757Z" fill="#6017D8"/>
<path d="M123.345 86.6696C121.287 87.4705 118.968 86.4507 118.168 84.3918C117.367 82.333 118.386 80.0147 120.445 79.2138L123.345 86.6696ZM104.288 44.572L102.586 48.1918C101.07 47.4787 100.158 45.8959 100.303 44.2264C100.448 42.557 101.618 41.1547 103.235 40.7133L104.288 44.572ZM127.374 25.0519L131.366 24.787L127.374 25.0519ZM100.094 40.3114C99.5848 42.461 97.4292 43.7905 95.2796 43.281C93.13 42.7715 91.8005 40.6159 92.31 38.4663L100.094 40.3114ZM120.445 79.2138C119.856 79.4432 120.499 79.4433 121.178 77.5893C121.808 75.8696 122.339 72.8147 121.819 67.8671L129.775 67.0309C130.384 72.8241 129.851 77.1712 128.69 80.3404C127.578 83.3754 125.706 85.7513 123.345 86.6696L120.445 79.2138ZM121.819 67.8671C121.41 63.977 118.604 59.8936 114.447 56.1292C110.39 52.4558 105.642 49.6288 102.586 48.1918L105.99 40.9522C109.634 42.6656 115.076 45.9066 119.816 50.1989C124.456 54.4002 129.055 60.1801 129.775 67.0309L121.819 67.8671ZM103.235 40.7133C106.934 39.7033 112.438 37.5749 116.832 34.5827C121.437 31.4465 123.578 28.2583 123.383 25.3168L131.366 24.787C131.86 32.2304 126.449 37.7124 121.335 41.1951C116.009 44.8218 109.625 47.2611 105.342 48.4307L103.235 40.7133ZM123.383 25.3168C123.252 23.3463 122.317 21.9254 120.951 21.044C119.536 20.1307 117.439 19.6751 114.955 20.234C110.121 21.3216 103.357 26.5451 100.094 40.3114L92.31 38.4663C96.0131 22.8434 104.404 14.4079 113.199 12.4291C117.53 11.4548 121.867 12.1141 125.288 14.3217C128.759 16.5611 131.065 20.267 131.366 24.787L123.383 25.3168Z" fill="#6017D8"/>
<path d="M92.6641 67.915C93.4316 68.8399 95.6629 70.6164 98.4475 70.3237C101.232 70.031 103.377 67.7946 104.101 66.713" stroke="#6017D8" stroke-width="6" stroke-linecap="round"/>
<circle cx="83.3206" cy="69.9024" r="1.5" transform="rotate(-6 83.3206 69.9024)" stroke="#6017D8" stroke-width="3"/>
<circle cx="113.157" cy="66.7667" r="1.5" transform="rotate(-6 113.157 66.7667)" stroke="#6017D8" stroke-width="3"/>
</svg>
