<svg width="128" height="128" viewBox="0 0 128 128" fill="none" xmlns="http://www.w3.org/2000/svg">
<path fill-rule="evenodd" clip-rule="evenodd" d="M10 49.7439V77.8959H14.032L14.104 57.9519L22.672 77.8959H26.2L34.624 58.1319V77.8959H38.8L38.728 49.7439H33.472L24.436 72.1359L15.184 49.7439H10ZM56.296 59.7519V61.3719C56.26 61.4559 56.1376 61.5735 55.936 61.3719L55.9075 61.3431C55.5801 61.0105 53.9865 59.3919 50.572 59.3919C45.676 59.3919 41.608 62.7399 41.608 68.7159C41.608 75.0879 45.964 78.2559 50.608 78.2559C52.768 78.2559 54.928 77.3559 55.972 76.2039C56.2024 76.0311 56.284 76.2039 56.296 76.3119V77.8959H60.184V59.7519H56.296ZM63.568 77.8959V59.7519H67.456V62.0919C67.636 61.9119 68.1616 61.3791 68.824 60.6879C69.4864 59.9967 70.192 59.7519 70.84 59.7519H77.176V55.8639L80.2 52.0479H80.992V59.7519H84.808V63.2079H80.992V72.6039C80.992 74.0799 82.108 74.7279 83.296 74.7279C84.2464 74.7279 84.988 74.4879 85.24 74.3679V77.8959C84.916 78.0159 83.9584 78.2559 82.72 78.2559C78.1696 78.2559 77.128 74.9199 77.176 73.2519V63.2079H71.812C68.932 63.2079 67.588 65.8479 67.456 67.1679V77.8959H63.568ZM88.264 59.7519V77.8959H92.116V59.7519H88.264ZM95.5 77.8959V59.7519H99.352V61.1559C99.352 61.4439 99.424 61.4799 99.532 61.4799C99.6184 61.4799 99.664 61.3839 99.676 61.3359C100.12 60.6759 101.627 59.3559 104.104 59.3559C109.662 59.3559 111.22 63.9159 111.304 66.1959V77.8959H107.452V66.8799C107.524 65.5239 106.847 62.8119 103.564 62.8119C100.756 62.8119 99.352 65.4399 99.352 67.0239V77.8959H95.5ZM56.6561 68.824C56.6561 72.676 54.2801 74.8 51.0041 74.8C47.5841 74.8 45.3521 72.136 45.3521 68.824C45.352 65.584 47.4401 62.848 51.0041 62.848C54.5681 62.848 56.6561 65.08 56.6561 68.824ZM115.66 78.2559C116.952 78.2559 118 77.2082 118 75.9159C118 74.6235 116.952 73.5759 115.66 73.5759C114.368 73.5759 113.32 74.6235 113.32 75.9159C113.32 77.2082 114.368 78.2559 115.66 78.2559Z" fill="#6017D8"/>
</svg>
