<svg width="487" height="215" viewBox="0 0 487 215" fill="none" xmlns="http://www.w3.org/2000/svg">
<path d="M162.066 19.7458C176.675 5.11598 201.993 -3.53765 231.319 1.39034L232.935 1.66963C249.429 4.60308 259.928 9.01935 266.65 14.3942C274.164 20.4022 275.971 26.8294 276.82 30.3024L276.93 30.7858C277.247 32.3368 277.243 33.7837 277.034 35.1042C300.472 42.1678 319.229 60.0304 327.521 82.9079C327.732 82.5348 327.925 82.202 328.093 81.9138L328.857 80.5896C330.548 77.6366 331.603 75.5944 332.561 73.7399L333.51 71.9128C333.833 71.2983 334.169 70.6731 334.53 70.0231L334.635 69.8347C335.709 67.9004 337.395 64.6319 340.609 62.4392C344.065 60.0816 348.296 59.5051 353.318 59.9616L353.894 60.0173C359.831 60.637 365.808 62.5142 369.844 66.4587C372.023 68.5886 373.616 71.319 374.162 74.5798C374.188 74.7359 374.209 74.8931 374.23 75.0495C375.359 75.0582 376.401 75.1238 377.328 75.2175C378.834 75.3696 380.081 75.5989 380.98 75.7985C381.43 75.8986 381.796 75.9922 382.067 76.0661C382.203 76.1031 382.316 76.135 382.403 76.1608C382.447 76.1737 382.485 76.1855 382.516 76.195C382.531 76.1997 382.545 76.2039 382.558 76.2077C382.564 76.2096 382.57 76.2119 382.575 76.2136C382.578 76.2144 382.581 76.2157 382.583 76.2165C382.584 76.2169 382.586 76.2173 382.587 76.2175C386.047 77.2787 389.414 79.6968 391.709 83.0534C394.991 78.6608 400.233 75.8172 406.138 75.8171C416.079 75.8171 424.138 83.876 424.138 93.8171C424.138 94.6661 424.078 95.5014 423.964 96.319C424.077 97.1355 424.138 97.9695 424.138 98.8171C424.138 99.6661 424.078 100.501 423.964 101.319C424.077 102.135 424.138 102.969 424.138 103.817C424.138 104.35 424.113 104.878 424.067 105.399C425.77 105.081 427.558 104.886 429.431 104.821L430.609 104.794C431.916 104.78 433.17 104.823 434.37 104.914C433.998 102.285 433.845 99.695 434.083 97.3728C433.941 95.6311 433.923 93.9408 434.083 92.3728C433.91 90.2577 433.921 88.2183 434.211 86.3815L434.277 85.9948C435.759 77.9283 443.146 73.6033 449.799 72.5202C456.836 71.3746 465.268 73.288 471.109 79.8161L471.545 80.32C475.957 85.6167 477.758 93.5788 478.64 100.467C479.496 107.152 479.617 114.136 479.634 119.525C480.888 121.52 482.546 124.436 483.943 127.806C485.66 131.946 487.268 137.441 486.661 142.985C486.827 144.623 486.846 146.302 486.661 147.985C486.831 149.668 486.849 151.395 486.648 153.125L486.578 153.666C484.526 168.027 471.693 174.217 460.361 173.832L459.822 173.809C457.033 173.662 453.993 172.45 451.724 171.227C451.265 170.98 450.772 170.696 450.263 170.378C448.937 171.21 447.405 171.973 445.692 172.619C441.041 174.373 434.88 175.335 427.479 174.353L426.759 174.253C416.327 172.707 409.248 168.347 405.257 161.703C404.182 159.913 403.383 158.041 402.804 156.136C399.636 158.705 395.697 160.176 391.62 160.314C393.166 161.949 394.127 163.984 394.488 166.093L394.537 166.403L394.555 166.525L394.569 166.648C394.753 168.21 394.715 169.707 394.493 171.126L394.537 171.403L394.555 171.525L394.569 171.648C394.753 173.21 394.715 174.707 394.493 176.126L394.537 176.403L394.555 176.525L394.569 176.648C395.222 182.197 393.083 186.922 389.796 190.261C386.782 193.323 382.933 195.155 379.448 196.275C372.65 198.46 364.356 198.862 356.842 197.807L356.117 197.701C350.906 196.899 346.802 194.904 343.555 192.042C343 191.553 342.485 191.047 342.005 190.539C341.998 190.572 341.99 190.606 341.983 190.639C342.228 191.913 342.388 193.675 341.983 195.639C342.282 197.197 342.458 199.486 341.627 201.979C341.159 203.385 340.257 205.592 338.305 207.545C336.16 209.689 333.694 210.604 331.727 210.998C330.037 211.336 328.374 211.348 327.358 211.348C326.779 211.348 326.145 211.339 325.561 211.332C324.95 211.324 324.323 211.317 323.64 211.317C321.947 211.317 320.829 211.706 316.708 212.717C313.086 213.605 308.566 214.496 302.433 214.35L301.185 214.306C294.039 213.982 287.612 211.591 282.673 208.182C278.321 205.179 274.005 200.56 272.543 194.733C266.794 196.094 260.799 196.817 254.638 196.817C231.729 196.817 211.146 186.876 196.958 171.074C196.546 173.283 195.974 175.393 195.296 177.314C193.214 183.213 188.229 188.474 182.434 192.719C176.496 197.069 169.049 200.838 161.035 203.509C154.551 205.671 149.588 206.157 145.724 205.206C141.699 204.215 139.519 201.837 138.432 199.813L138.229 199.414C137.005 196.865 135.553 192.678 135.588 188.454C135.594 187.734 135.643 186.969 135.76 186.179C135.655 185.363 135.592 184.532 135.588 183.698C133.43 183.565 131.377 183.151 129.449 182.516C123.049 180.41 118.692 176.134 116.622 173.768C114.993 171.906 113.738 169.262 112.874 166.552C111.97 163.715 111.338 160.315 111.264 156.626C111.243 155.58 111.269 154.506 111.345 153.411C111.304 152.824 111.276 152.229 111.264 151.626C111.249 150.909 111.258 150.178 111.288 149.436C110.534 149.578 109.783 149.702 109.037 149.81C109.365 151.763 109.358 153.579 109.107 155.253C109.363 157.038 109.339 158.706 109.107 160.253C110.44 169.547 104.198 175.676 100.351 177.896L99.9464 178.12C99.8356 178.178 99.7227 178.234 99.6085 178.286C96.2657 179.795 90.9261 181.192 85.2784 180.554C79.3561 179.886 73.0457 176.929 68.9415 169.815C66.9903 166.433 65.5712 161.894 64.4825 157.22C64.1436 155.766 63.8301 154.252 63.5342 152.7C61.1029 156.499 58.2258 160.279 54.8233 163.408C50.9678 166.953 46.2196 169.886 40.4591 171.009C34.8301 172.107 28.7504 171.376 22.2813 168.558L21.6544 168.279C14.1098 164.85 8.73597 160.693 5.20417 155.961C1.63068 151.173 0.179008 146.108 0.0156936 141.335C-0.0244413 140.161 0.0144297 139.009 0.115303 137.887C0.0667457 137.367 0.0332918 136.849 0.0156936 136.335C-0.0244413 135.161 0.0144297 134.009 0.115303 132.887C0.0667457 132.367 0.0332918 131.849 0.0156936 131.335C-0.298707 122.141 4.19488 114.311 5.95515 111.294L6.7198 109.97C8.41041 107.017 9.46531 104.974 10.4229 103.12L10.4649 103.04C11.0785 101.851 11.6863 100.674 12.3926 99.403L12.4962 99.2155L12.9298 98.4323C14.0159 96.4809 15.6591 93.7379 18.4717 91.819C21.9276 89.4615 26.158 88.885 31.1807 89.3415L31.755 89.3981C37.6928 90.0177 43.6697 91.8939 47.7061 95.8386C49.8854 97.9684 51.4778 100.699 52.0235 103.96C52.0496 104.116 52.0709 104.273 52.0919 104.429C53.2217 104.438 54.2631 104.504 55.1905 104.597C56.6958 104.749 57.9435 104.979 58.8419 105.178C59.1866 105.255 59.4824 105.328 59.7237 105.391C59.7248 105.378 59.7264 105.364 59.7276 105.35C59.7087 104.83 59.6926 104.325 59.6778 103.836L59.6407 102.462C59.6395 102.414 59.6388 102.366 59.6387 102.318C59.6385 99.6395 60.1798 95.6204 61.9376 91.7487C63.7282 87.8049 67.0353 83.5267 72.7403 81.6247L73.8145 81.2761C84.8778 77.766 94.9448 77.3244 106.888 77.822L107.478 77.8542C113.584 78.2626 119.809 81.0383 124.632 84.4382C129.403 87.801 134.277 92.8295 135.505 98.5603L135.665 99.3562C136.225 102.334 136.473 105.877 136.275 109.586C136.35 110.969 136.366 112.408 136.31 113.878C140.746 113.072 145.027 113.3 148.585 113.949C147.555 110.638 146.592 106.997 145.703 102.994L145.356 101.392C143.688 93.5328 143.027 85.8945 143.225 78.6315C143.179 76.9468 143.18 75.2794 143.225 73.6315C142.639 51.9073 149.694 33.0953 160.778 21.0466L160.919 20.8933L162.066 19.7458ZM293.964 176.109C290.212 178.322 286.256 180.226 282.133 181.791C282.134 181.799 282.136 181.808 282.138 181.817C282.615 184.441 284.703 187.296 287.888 189.619C287.952 189.666 288.017 189.712 288.082 189.758C288.249 189.878 288.419 189.996 288.592 190.112C288.649 190.15 288.707 190.188 288.765 190.226C288.906 190.319 289.049 190.411 289.193 190.502C289.296 190.566 289.4 190.629 289.504 190.692C289.609 190.755 289.714 190.819 289.82 190.882C289.965 190.966 290.11 191.049 290.258 191.131C290.341 191.177 290.425 191.224 290.51 191.269C290.665 191.353 290.821 191.434 290.98 191.515C291.081 191.567 291.183 191.619 291.285 191.67C291.441 191.747 291.6 191.822 291.759 191.897C291.862 191.946 291.966 191.993 292.07 192.041C292.219 192.108 292.369 192.174 292.521 192.239C292.639 192.29 292.758 192.339 292.878 192.388C293.056 192.461 293.234 192.534 293.415 192.603C294.426 192.992 295.487 193.326 296.59 193.594C296.634 193.605 296.679 193.616 296.724 193.627C296.835 193.653 296.947 193.68 297.059 193.705C297.096 193.713 297.134 193.721 297.172 193.729C297.308 193.759 297.444 193.788 297.581 193.816C297.59 193.818 297.598 193.819 297.607 193.821C297.91 193.882 298.216 193.938 298.525 193.989C298.557 193.994 298.589 193.999 298.62 194.005C298.754 194.026 298.889 194.047 299.024 194.067C299.051 194.071 299.078 194.074 299.105 194.078C299.25 194.099 299.396 194.118 299.543 194.136C299.56 194.139 299.578 194.141 299.595 194.143C299.746 194.162 299.898 194.18 300.05 194.196C300.066 194.198 300.083 194.2 300.1 194.202C300.246 194.217 300.393 194.231 300.54 194.244C300.564 194.246 300.588 194.248 300.612 194.25C300.952 194.278 301.293 194.301 301.638 194.317C302.325 194.348 302.987 194.363 303.626 194.365C304.605 194.368 305.53 194.337 306.407 194.282C307.217 194.231 307.986 194.158 308.721 194.068C308.778 194.061 308.836 194.054 308.893 194.047C311.13 193.763 313.048 193.323 314.816 192.881C315.586 192.688 316.327 192.498 317.054 192.316C319.252 191.765 321.318 191.317 323.64 191.317L325.687 191.333C326.164 191.339 326.604 191.343 327.011 191.344C330.28 191.364 331.361 191.152 332.14 188.817C332.745 187.001 330.417 182.801 325.822 179.549C322.093 181.078 317.75 181.858 312.536 181.832L311.367 181.813C304.557 181.629 298.66 179.905 294.173 176.282C294.102 176.225 294.033 176.167 293.964 176.109ZM155.382 122.961C149.882 120.627 136.582 118.461 127.382 128.461C115.882 140.961 120.382 157.461 123.882 161.461C127.382 165.461 137.882 174.96 152.882 164.961C164.882 156.961 168.215 158.627 168.382 160.461C169.048 161.628 169.582 164.561 166.382 166.961C162.382 169.961 157.382 170.961 148.882 173.461C142.082 175.461 144.382 184.294 146.382 188.461C147.102 189.961 149.883 193.46 161.882 189.461C176.882 184.461 189.382 175.461 192.382 166.961C195.382 158.461 195.882 145.961 187.882 140.461C179.882 134.961 166.882 134.961 160.382 140.461C153.882 145.96 150.382 152.46 146.382 150.961C142.382 149.461 143.105 141.69 146.382 140.461C150.382 138.961 155.882 137.46 158.382 133.461C160.882 129.461 157.882 123.832 155.382 122.961ZM229.662 11.2517C203.048 6.77944 181.137 14.7965 169.138 26.8171L168.138 27.8171C158.603 38.1814 152.093 55.4891 153.339 76.1491V76.1511C153.357 76.4551 153.378 76.7597 153.399 77.0651C153.408 77.1913 153.417 77.3176 153.427 77.444C153.444 77.6767 153.464 77.9098 153.483 78.1433C153.494 78.273 153.504 78.4029 153.516 78.5329C153.543 78.8395 153.572 79.1468 153.603 79.4548C153.611 79.5348 153.619 79.6149 153.627 79.695C153.654 79.9605 153.682 80.2264 153.712 80.4929C153.728 80.633 153.743 80.7734 153.759 80.9138C153.794 81.2214 153.832 81.5297 153.871 81.8386C153.885 81.9469 153.899 82.0553 153.913 82.1638C153.945 82.4114 153.979 82.6594 154.014 82.9079C154.034 83.0546 154.054 83.2014 154.075 83.3483C154.123 83.6768 154.172 84.0059 154.223 84.3356C154.23 84.3848 154.238 84.4339 154.246 84.4831C154.295 84.797 154.348 85.1113 154.4 85.4265C154.417 85.526 154.433 85.6257 154.45 85.7253C154.579 86.4794 154.718 87.237 154.868 87.9978C154.88 88.0589 154.892 88.1201 154.904 88.1814C154.98 88.559 155.057 88.9378 155.138 89.3171C155.65 91.7338 156.186 93.9866 156.737 96.0876C157.496 98.9756 158.286 101.576 159.101 103.919C160.43 107.741 161.82 110.877 163.227 113.454C163.366 113.708 163.505 113.957 163.645 114.201C164.163 115.108 164.682 115.942 165.201 116.708C165.298 116.85 165.394 116.99 165.49 117.128C165.964 117.805 166.437 118.426 166.907 118.998C167.432 119.635 167.953 120.209 168.469 120.727C168.835 121.095 169.199 121.434 169.559 121.749C170.736 122.777 171.876 123.531 172.948 124.093C174.287 124.796 175.52 125.203 176.594 125.475C177.12 125.609 177.608 125.71 178.05 125.799C178.079 125.804 178.109 125.811 178.138 125.817C178.189 125.827 178.24 125.835 178.291 125.842C178.317 125.845 178.343 125.847 178.369 125.849C178.394 125.852 178.419 125.855 178.444 125.856C178.467 125.858 178.49 125.858 178.513 125.859C178.547 125.86 178.582 125.861 178.616 125.86C178.631 125.86 178.646 125.86 178.661 125.859C178.693 125.858 178.725 125.857 178.757 125.854C178.781 125.852 178.805 125.85 178.829 125.847C178.859 125.844 178.888 125.84 178.917 125.836C178.936 125.833 178.956 125.83 178.975 125.827C179.007 125.821 179.039 125.814 179.071 125.807C179.09 125.803 179.109 125.799 179.127 125.795C179.223 125.771 179.319 125.742 179.413 125.707C179.546 125.657 179.678 125.595 179.808 125.522C179.813 125.519 179.818 125.516 179.823 125.513C179.906 125.466 179.989 125.415 180.07 125.359C180.079 125.353 180.088 125.348 180.097 125.342C180.322 125.185 180.542 124.996 180.757 124.779C180.793 124.742 180.83 124.706 180.866 124.668C180.917 124.614 180.966 124.559 181.016 124.503C181.055 124.459 181.093 124.414 181.132 124.369C181.177 124.315 181.222 124.261 181.267 124.205C181.309 124.152 181.352 124.098 181.394 124.043C181.433 123.991 181.473 123.938 181.513 123.884C181.564 123.814 181.615 123.742 181.666 123.669C181.698 123.622 181.73 123.575 181.762 123.528C181.829 123.428 181.897 123.325 181.963 123.22C181.978 123.197 181.993 123.174 182.008 123.15C182.248 122.764 182.481 122.348 182.705 121.911C182.826 121.675 182.944 121.433 183.061 121.186C183.084 121.136 183.108 121.086 183.131 121.036C183.178 120.934 183.226 120.831 183.273 120.727C183.3 120.667 183.326 120.606 183.353 120.545C183.386 120.468 183.421 120.392 183.454 120.315C183.478 120.261 183.5 120.206 183.523 120.151C183.741 119.641 183.95 119.118 184.149 118.592C184.219 118.409 184.288 118.225 184.356 118.042C184.409 117.896 184.462 117.75 184.515 117.604C184.597 117.376 184.676 117.148 184.755 116.922C184.785 116.836 184.816 116.752 184.845 116.667C184.959 116.333 185.071 116.003 185.178 115.678L185.255 115.441C185.449 114.851 185.631 114.284 185.8 113.757C186.37 111.973 186.798 110.635 187.083 110.358L187.138 110.317C187.14 110.316 187.142 110.315 187.145 110.313C187.386 126.99 193.675 142.202 203.917 153.856C204.32 154.315 204.73 154.768 205.146 155.216C206.349 156.513 207.602 157.762 208.903 158.962C209.416 159.434 209.936 159.898 210.463 160.354C213.337 162.844 216.424 165.095 219.692 167.077C220.612 167.634 221.545 168.17 222.492 168.684C223.813 169.401 225.16 170.075 226.531 170.704C230.408 172.482 234.483 173.904 238.713 174.927C242.646 175.879 246.714 176.484 250.882 176.713C251.841 176.765 252.805 176.799 253.773 176.811L254.638 176.817C255.016 176.817 255.394 176.813 255.771 176.806C255.847 176.805 255.924 176.804 256.001 176.802C256.376 176.795 256.75 176.785 257.123 176.771C257.157 176.77 257.191 176.769 257.226 176.767C257.62 176.752 258.014 176.734 258.406 176.713C258.427 176.711 258.447 176.711 258.468 176.71C260.537 176.594 262.581 176.384 264.596 176.086C264.603 176.085 264.61 176.084 264.617 176.083C265.018 176.023 265.417 175.961 265.815 175.894C265.824 175.893 265.832 175.892 265.84 175.89C275.723 174.24 284.877 170.44 292.81 164.991C292.879 164.944 292.947 164.896 293.016 164.848C293.683 164.387 294.341 163.914 294.99 163.429C295.17 163.295 295.349 163.161 295.527 163.025C295.648 162.933 295.769 162.841 295.889 162.748C296.201 162.507 296.512 162.264 296.819 162.017C296.843 162.188 296.872 162.359 296.904 162.531C297.72 166.901 301.356 171.539 311.638 171.817C320.206 172.049 324.053 169.704 326.76 167.271C326.855 167.186 326.949 167.101 327.041 167.015C327.482 166.607 327.896 166.199 328.297 165.802C330.436 163.684 332.24 161.897 336.273 162.219C336.293 162.221 336.314 162.223 336.334 162.224C336.583 162.245 336.841 162.276 337.107 162.313C337.118 162.315 337.128 162.316 337.138 162.317C338.608 162.527 339.813 162.945 340.835 163.51C341.049 163.629 341.255 163.754 341.453 163.884C343.518 165.247 344.794 167.262 346.114 169.35C347.207 171.079 348.333 172.855 349.963 174.353C350.082 174.462 350.203 174.57 350.327 174.675C351.706 175.851 353.435 176.829 355.769 177.434C356.353 177.586 356.974 177.715 357.638 177.817C357.923 177.861 358.209 177.901 358.495 177.939C358.56 177.948 358.625 177.956 358.69 177.965C358.963 178 359.236 178.034 359.511 178.065C359.557 178.07 359.603 178.075 359.648 178.08C359.909 178.108 360.17 178.135 360.431 178.159C360.472 178.163 360.513 178.166 360.554 178.17C360.846 178.196 361.138 178.22 361.431 178.241C361.481 178.244 361.53 178.247 361.58 178.251C361.826 178.267 362.071 178.283 362.316 178.296C362.371 178.298 362.425 178.302 362.48 178.304C362.761 178.318 363.042 178.329 363.322 178.339C363.386 178.341 363.449 178.343 363.513 178.344C363.79 178.352 364.067 178.358 364.344 178.361C364.351 178.361 364.358 178.362 364.365 178.362C364.662 178.365 364.958 178.364 365.254 178.362C365.298 178.362 365.342 178.362 365.386 178.361C365.969 178.355 366.549 178.338 367.125 178.31C367.179 178.308 367.233 178.305 367.287 178.302C367.568 178.288 367.847 178.271 368.125 178.252C368.153 178.25 368.182 178.248 368.21 178.246C368.788 178.204 369.361 178.151 369.926 178.088C369.986 178.081 370.046 178.073 370.107 178.066C370.646 178.003 371.178 177.93 371.702 177.846C371.766 177.836 371.829 177.826 371.893 177.815C372.124 177.777 372.353 177.738 372.581 177.696C372.607 177.691 372.633 177.688 372.658 177.683L372.657 177.682C379.887 176.336 385.249 173.01 384.638 167.817C384.406 166.198 382.034 166.826 379.403 167.523C376.348 168.333 372.944 169.235 372.138 166.817C370.638 162.317 361.638 136.817 342.138 134.317C329.407 132.685 320.917 135.383 316.775 137.789C316.729 137.815 316.684 137.841 316.639 137.868C316.577 137.905 316.516 137.942 316.456 137.978C316.381 138.024 316.308 138.069 316.236 138.114C316.188 138.145 316.139 138.175 316.092 138.206C316.006 138.261 315.924 138.318 315.843 138.373C315.82 138.388 315.797 138.402 315.774 138.418C315.661 138.496 315.552 138.574 315.448 138.65C315.573 138.392 315.695 138.133 315.816 137.873C315.884 137.729 315.951 137.585 316.017 137.441C316.056 137.356 316.094 137.271 316.133 137.185C316.219 136.995 316.305 136.805 316.39 136.614C316.421 136.544 316.451 136.475 316.482 136.405C316.558 136.231 316.633 136.057 316.708 135.883C316.75 135.785 316.791 135.688 316.832 135.591C317.068 135.033 317.296 134.473 317.517 133.908C317.66 133.542 317.801 133.174 317.938 132.805C317.982 132.686 318.026 132.566 318.069 132.446C318.124 132.296 318.179 132.145 318.232 131.994C318.278 131.866 318.323 131.739 318.367 131.611C318.422 131.456 318.476 131.3 318.529 131.144C318.568 131.03 318.606 130.916 318.645 130.802C318.704 130.625 318.763 130.447 318.821 130.269C319.092 129.44 319.347 128.603 319.586 127.759C319.598 127.716 319.61 127.673 319.622 127.63C319.676 127.439 319.728 127.248 319.78 127.056C319.806 126.963 319.831 126.87 319.856 126.776C319.91 126.572 319.965 126.368 320.018 126.164C320.035 126.096 320.051 126.029 320.068 125.962C320.306 125.024 320.525 124.079 320.723 123.126C320.736 123.06 320.75 122.994 320.764 122.927C320.802 122.741 320.839 122.555 320.876 122.368C320.887 122.313 320.897 122.258 320.907 122.204C321.714 118.032 322.138 113.724 322.138 109.317C322.138 75.0192 296.558 46.6963 263.435 42.3855H263.436C263.426 42.3841 263.415 42.3829 263.405 42.3815C263.135 42.3464 262.864 42.3129 262.592 42.281C262.393 42.2576 262.194 42.2362 261.994 42.2146C261.797 42.1931 261.599 42.1718 261.4 42.1521C261.277 42.1398 261.153 42.1285 261.029 42.1169C260.807 42.096 260.584 42.076 260.361 42.0573C260.262 42.049 260.162 42.0399 260.063 42.0319C259.76 42.0079 259.457 41.9856 259.153 41.9655C259.12 41.9633 259.086 41.9609 259.053 41.9587C258.712 41.9367 258.371 41.918 258.029 41.9011C257.942 41.8967 257.854 41.8934 257.766 41.8894C257.516 41.878 257.267 41.8677 257.017 41.8591C256.916 41.8556 256.816 41.8524 256.716 41.8493C256.44 41.841 256.164 41.8338 255.888 41.8288C255.821 41.8276 255.754 41.8259 255.688 41.8249C255.629 41.824 255.57 41.8227 255.511 41.822L254.638 41.8171C254.022 41.8171 253.408 41.8242 252.797 41.8405C253.1 41.7067 253.479 41.5573 253.915 41.3913L255.384 40.8464C255.875 40.6662 256.399 40.4711 256.944 40.2663C257.122 40.1996 257.303 40.1324 257.484 40.0632C257.607 40.0164 257.73 39.9685 257.855 39.9206C258.094 39.8284 258.335 39.7338 258.578 39.6374C258.787 39.5546 258.997 39.4713 259.207 39.3855C259.269 39.3602 259.331 39.3348 259.393 39.3093C259.678 39.1915 259.964 39.0702 260.249 38.947C260.378 38.8913 260.507 38.8358 260.635 38.779C260.666 38.765 260.698 38.7511 260.73 38.737C261.527 38.3817 262.306 38.0054 263.032 37.6101C263.043 37.6041 263.055 37.5985 263.065 37.5925C263.236 37.4992 263.403 37.4037 263.567 37.3083C263.581 37.3006 263.594 37.2936 263.607 37.2858C265.915 35.9386 267.525 34.385 267.107 32.6784C265.896 27.7254 262.93 16.842 229.662 11.2517ZM106.638 83.8171C94.638 83.3171 85.1382 83.8172 74.6387 87.3171C67.3395 89.7503 65.6383 98.3171 65.6387 102.317C65.9721 116.151 68.1388 146.417 74.1387 156.817C80.1386 167.217 91.9719 165.15 97.1387 162.817C99.9721 161.317 105.039 156.417 102.639 148.817C100.239 141.217 97.9721 135.984 97.1387 134.317C103.805 134.817 118.639 133.917 124.639 126.317C130.639 118.717 131.117 106.72 129.638 99.8171C128.138 92.8171 116.238 84.2171 106.638 83.8171ZM467.638 84.8171C459.138 75.3171 442.638 78.8171 441.138 88.3171C439.938 95.9172 445.305 111.15 448.138 117.817C447.138 115.65 442.238 111.417 430.638 111.817C416.138 112.317 409.638 121.817 408.638 133.317C407.638 144.817 410.338 156.606 428.638 159.317C442.137 161.317 450.137 155.817 451.138 153.317C452.638 155.817 458.121 158.658 461.138 158.817C470.638 159.317 480.138 154.317 481.638 143.817C482.838 135.417 476.804 125.484 474.638 122.317C474.638 111.15 474.438 92.4171 467.638 84.8171ZM378.384 155.437C378.672 156.071 378.943 156.684 379.193 157.271C379.578 157.189 379.986 157.109 380.407 157.04C379.689 156.548 379.014 156.012 378.384 155.437ZM30.4581 97.3083C26.2916 96.9295 24.2156 97.5627 22.9239 98.4675C21.7105 99.3176 20.9169 100.563 19.8585 102.443L19.3868 103.288C17.7706 106.197 16.5031 109.004 13.4923 114.244L12.8663 115.325C11.1194 118.319 7.78319 124.376 8.01179 131.061C8.12416 134.345 9.09922 137.803 11.6163 141.175C14.1473 144.567 18.3148 147.972 24.9659 150.996L25.4727 151.221C30.6857 153.493 35.1206 153.9 38.9288 153.157C42.8758 152.387 46.3343 150.347 49.4092 147.519C55.6316 141.797 59.9809 133.161 63.3497 126.423L63.503 126.104C65.0299 122.832 64.6619 120.003 63.4981 117.821C62.3282 115.627 60.3251 114.039 58.4385 113.357L58.0635 113.232L58.0333 113.223C58.0275 113.222 58.015 113.218 57.9981 113.213C57.9635 113.202 57.9054 113.186 57.8272 113.165C57.6694 113.122 57.4256 113.059 57.1075 112.988C56.4697 112.846 55.5345 112.672 54.3868 112.556C52.0821 112.324 48.969 112.329 45.6739 113.244C42.9096 114.012 40.4168 116.817 38.3926 120.63C36.4211 124.343 35.1515 128.531 34.5977 131.22C34.375 132.302 33.3168 132.998 32.2354 132.776C31.1536 132.553 30.4571 131.496 30.6798 130.414C31.2927 127.437 32.6729 122.874 34.8594 118.755C36.8307 115.041 39.69 111.25 43.6104 109.722C44.2234 107.979 44.3403 106.508 44.1348 105.28C43.9001 103.878 43.2219 102.641 42.1153 101.559C39.98 99.4727 36.2528 97.985 31.4356 97.4108L30.4581 97.3083ZM372.314 137.645C371.188 138.373 370.005 139.035 368.762 139.614C370.036 141.172 371.176 142.734 372.187 144.237C372.313 144.425 372.438 144.615 372.562 144.803C372.237 142.937 372.193 141.013 372.452 139.097C372.387 138.616 372.341 138.132 372.314 137.645ZM400.017 108.591C393.404 105.588 385.624 108.733 382.955 115.487L381.239 119.831L378.688 124.807C375.376 131.267 378.136 139.184 384.745 142.185C391.139 145.089 398.677 142.259 401.58 135.865L406.33 125.405C409.23 119.019 406.403 111.49 400.017 108.591ZM436.637 131.817C441.735 131.817 446.138 134.817 447.137 138.317C445.138 140.317 441.137 142.317 436.637 141.317C431.731 140.227 431.539 131.817 436.637 131.817ZM352.595 67.9284C348.428 67.5496 346.352 68.1827 345.061 69.0876C343.847 69.9378 343.054 71.183 341.995 73.0632L341.523 73.9079C339.907 76.8167 338.64 79.6245 335.629 84.864L335.003 85.945C333.256 88.9395 329.92 94.9964 330.148 101.681C330.261 104.965 331.236 108.423 333.753 111.796C336.284 115.187 340.451 118.593 347.103 121.616L347.609 121.842C352.823 124.113 357.257 124.52 361.065 123.777C365.013 123.007 368.471 120.967 371.546 118.139C377.768 112.418 382.118 103.781 385.486 97.0427L385.64 96.7243C387.167 93.4516 386.799 90.6236 385.635 88.4411C384.465 86.2473 382.462 84.6594 380.575 83.9772L380.2 83.8522L380.17 83.8435C380.164 83.8417 380.152 83.8378 380.135 83.8327C380.1 83.8224 380.042 83.8063 379.964 83.7849C379.806 83.7418 379.563 83.6789 379.244 83.6081C378.606 83.4663 377.672 83.2924 376.523 83.1765C374.219 82.9437 371.106 82.9487 367.811 83.864C365.046 84.632 362.553 87.4368 360.529 91.2497C358.558 94.9636 357.288 99.151 356.734 101.841C356.512 102.922 355.454 103.619 354.372 103.396C353.291 103.173 352.594 102.116 352.816 101.034C353.429 98.057 354.81 93.4938 356.996 89.3747C358.967 85.6614 361.827 81.8706 365.747 80.3425C366.36 78.5996 366.477 77.1285 366.272 75.9001C366.037 74.4976 365.359 73.261 364.252 72.1794C362.117 70.0928 358.39 68.6051 353.572 68.031L352.595 67.9284ZM99.6378 105.817C107.138 104.817 108.138 110.817 105.138 113.817C102.738 116.217 96.1376 118.15 92.1378 117.817L91.1378 110.817C91.236 110.675 91.3323 110.534 91.4278 110.393C92.7903 108.389 94.0311 106.565 99.6378 105.817ZM405.138 80.8171C398.51 80.8171 393.138 86.1897 393.138 92.8171C393.138 99.4444 398.51 104.817 405.138 104.817C411.765 104.817 417.138 99.4444 417.138 92.8171C417.138 86.1897 411.765 80.8171 405.138 80.8171Z" fill="#6017D8"/>
<path d="M288.138 109.317C288.138 90.8154 273.139 75.8169 254.638 75.8169C236.136 75.8169 221.138 90.8154 221.138 109.317C221.138 127.818 236.136 142.817 254.638 142.817C273.139 142.817 288.138 127.818 288.138 109.317ZM298.138 109.317C298.138 133.341 278.662 152.817 254.638 152.817C230.613 152.817 211.138 133.341 211.138 109.317C211.138 85.2925 230.613 65.8169 254.638 65.8169C278.662 65.8169 298.138 85.2925 298.138 109.317Z" fill="#6017D8"/>
<path d="M273.138 109.317C273.138 119.534 264.855 127.817 254.638 127.817C244.42 127.817 236.138 119.534 236.138 109.317C236.138 99.0996 244.42 90.8169 254.638 90.8169C264.855 90.8169 273.138 99.0996 273.138 109.317Z" fill="#6017D8"/>
</svg>
