<svg width="223" height="87" viewBox="0 0 223 87" fill="none" xmlns="http://www.w3.org/2000/svg">
<path fill-rule="evenodd" clip-rule="evenodd" d="M148.758 2.52851C148.997 1.10291 147.799 -0.153356 146.359 0.0152308L134.126 1.44829C132.346 1.65681 131.569 3.80332 132.805 5.09834L136.748 9.23045C134.795 10.8838 133.174 12.8169 131.884 15.0299C130.631 17.2165 129.796 19.5593 129.379 22.0582C128.648 26.2752 129.092 30.5183 130.71 34.7873C130.397 36.7657 130.449 38.8481 130.866 41.0347C131.388 43.5337 132.275 45.9025 133.528 48.1411C134.78 50.3277 136.216 52.4102 137.833 54.3885C139.242 56.2107 140.547 58.0849 141.747 60.0112C142.948 61.9375 143.731 64.072 144.096 66.4148C144.461 68.9658 144.122 71.3867 143.078 73.6774C142.087 76.0202 140.338 77.7122 137.833 78.7534C135.746 79.5864 133.554 79.7686 131.258 79.3001C128.961 78.8315 126.952 77.9204 125.23 76.5668C123.299 75.057 121.812 73.1308 120.768 70.788C119.724 68.4452 119.333 66.0504 119.594 63.6035C119.698 62.3019 119.985 61.1826 120.455 60.2455C120.977 59.2563 121.655 58.3192 122.49 57.4342C122.855 57.0697 123.195 56.7053 123.508 56.3409C123.821 55.9764 124.16 55.638 124.525 55.3257C125.256 54.6489 125.726 53.8679 125.935 52.9829C126.143 52.0458 126.117 51.1607 125.856 50.3277C125.647 49.4947 125.204 48.7659 124.525 48.1411C123.899 47.4643 123.116 47.0218 122.177 46.8136C121.446 46.6574 120.69 46.6834 119.907 46.8917C119.124 47.0999 118.419 47.3342 117.793 47.5945C116.749 48.0631 115.784 48.6878 114.897 49.4687C114.01 50.1976 113.227 51.0045 112.548 51.8896C111.139 53.8679 110.148 56.0025 109.574 58.2932C109.47 58.7466 109.381 59.201 109.307 59.6564C108.846 59.918 108.503 60.2966 108.278 60.7921C107.808 61.9375 107.103 63.1089 106.164 64.3063C105.277 65.5037 104.207 66.545 102.954 67.43C101.702 68.263 100.293 68.8357 98.7272 69.148C97.1616 69.4083 95.4654 69.2001 93.6389 68.5233C92.6995 68.1589 92.0471 67.4821 91.6818 66.4929C91.5774 66.0764 91.4731 65.6078 91.3687 65.0872C91.3165 64.5666 91.3426 64.02 91.447 63.4473L92.7778 64.3063C93.9781 64.931 95.074 65.1913 96.0656 65.0872C97.6834 65.0872 99.1969 64.6968 100.606 63.9158C101.858 63.239 103.033 62.2759 104.129 61.0264C105.12 59.829 105.877 58.5535 106.399 57.1999C106.973 55.8463 107.26 54.5187 107.26 53.2172C107.26 51.395 106.686 49.8592 105.538 48.6097C105.12 48.1411 104.494 47.6986 103.659 47.2821C102.824 46.8656 101.728 46.6574 100.371 46.6574C97.1876 46.6574 94.2651 48.3494 91.6035 51.7334C90.4032 53.1911 89.4116 54.779 88.6288 56.497C87.8903 58.0687 87.3608 59.6636 87.0403 61.2816C86.5801 62.2707 85.947 63.2789 85.141 64.3063C84.2538 65.5037 83.1839 66.545 81.9314 67.43C80.6789 68.263 79.2698 68.8357 77.7042 69.148C76.1385 69.4083 74.4424 69.2001 72.6158 68.5233C71.6764 68.1589 71.0241 67.4821 70.6588 66.4929C70.5544 66.0764 70.45 65.6078 70.3456 65.0872C70.2935 64.5666 70.3196 64.02 70.4239 63.4473L71.7547 64.3063C72.9551 64.931 74.051 65.1913 75.0426 65.0872C76.6604 65.0872 78.1739 64.6968 79.5829 63.9158C80.8354 63.239 82.0097 62.2759 83.1056 61.0264C84.0972 59.829 84.8539 58.5535 85.3758 57.1999C85.9499 55.8463 86.2369 54.5187 86.2369 53.2172C86.2369 51.395 85.6628 49.8592 84.5147 48.6097C84.0972 48.1411 83.471 47.6986 82.6359 47.2821C81.8009 46.8656 80.705 46.6574 79.3481 46.6574C76.1646 46.6574 73.2421 48.3494 70.5805 51.7334C69.3802 53.1911 68.3886 54.779 67.6058 56.497C66.823 58.163 66.275 59.855 65.9619 61.5731C65.44 64.3844 65.6226 66.7792 66.5098 68.7576C67.397 70.7359 68.8844 72.1156 70.9719 72.8965C72.7463 73.5212 74.4946 73.8336 76.2168 73.8336H76.9996C77.3128 73.8336 77.5998 73.8076 77.8607 73.7555C79.9483 73.4952 81.9575 72.7924 83.8885 71.647C85.2167 70.8603 86.4294 69.8924 87.5265 68.7434L87.5329 68.7576C88.4201 70.7359 89.9074 72.1156 91.9949 72.8965C93.7693 73.5212 95.5176 73.8336 97.2398 73.8336H98.0227C98.3358 73.8336 98.6228 73.8076 98.8838 73.7555C100.971 73.4952 102.981 72.7924 104.911 71.647C106.581 70.6578 108.069 69.3823 109.374 67.8205L109.447 67.7325C109.725 69.215 110.133 70.6761 110.67 72.1156C111.557 74.3542 112.705 76.3846 114.114 78.2068C115.627 80.1851 117.428 81.8511 119.515 83.2047C121.603 84.6104 123.821 85.6256 126.169 86.2503C128.518 86.8751 130.918 87.1093 133.371 86.9531C135.824 86.797 138.173 86.1201 140.417 84.9227C142.765 83.7253 144.696 82.0854 146.21 80.0029C147.723 77.9725 148.715 75.6818 149.184 73.1308C149.602 70.5277 149.471 67.9766 148.793 65.4777C148.114 62.9267 147.175 60.4798 145.975 58.137C144.931 56.0545 143.652 54.1282 142.139 52.3581C140.625 50.588 139.295 48.7138 138.147 46.7355C137.625 45.9025 137.155 44.9914 136.737 44.0022C137.572 44.7311 138.46 45.4079 139.399 46.0326C140.338 46.6574 141.33 47.178 142.374 47.5945C144.618 48.5316 146.94 48.896 149.341 48.6878C151.794 48.4795 154.038 47.8288 156.073 46.7355C158.161 45.5901 159.935 44.0543 161.396 42.128C162.858 40.2017 163.771 38.0151 164.136 35.5682C164.501 33.0693 164.241 30.6484 163.353 28.3056C162.518 25.9108 161.188 23.8804 159.361 22.2144C157.639 20.7046 155.734 19.7415 153.646 19.325C151.611 18.9085 149.497 18.8564 147.306 19.1688C144.853 19.5853 142.504 20.3923 140.26 21.5897C138.016 22.7871 136.085 24.3489 134.467 26.2752L133.763 27.1342C133.658 24.9997 133.893 22.9172 134.467 20.8868C135.041 18.8044 136.007 16.9302 137.364 15.2642C138.138 14.2852 139.015 13.4083 139.995 12.6333L143 15.7835C144.236 17.0785 146.424 16.41 146.72 14.6467L148.758 2.52851ZM148.245 44.0803C145.844 44.0803 143.6 43.2994 141.513 41.7375C140.156 40.8004 138.982 39.7071 137.99 38.4577C136.998 37.1561 136.163 35.7505 135.485 34.2407C135.746 33.3556 136.059 32.5487 136.424 31.8198C137.051 30.5703 137.912 29.3989 139.008 28.3056C140.156 27.2123 141.408 26.3013 142.765 25.5724C144.174 24.7915 145.636 24.2448 147.149 23.9324C148.715 23.568 150.202 23.4899 151.611 23.6982C153.072 23.9064 154.403 24.427 155.603 25.26C156.856 26.093 157.848 27.2904 158.578 28.8523C159.1 29.9976 159.413 31.1951 159.518 32.4445C159.622 33.642 159.518 34.8394 159.204 36.0368C158.891 37.1822 158.396 38.2755 157.717 39.3167C157.039 40.3059 156.178 41.1388 155.134 41.8156C152.994 43.3254 150.698 44.0803 148.245 44.0803ZM72.7724 56.8094C72.8768 56.6012 72.929 56.471 72.929 56.419C73.3465 55.7942 73.764 55.2215 74.1815 54.7009C76.008 52.4102 77.7303 51.2648 79.3481 51.2648C79.609 51.2648 79.8961 51.3169 80.2092 51.421C80.5745 51.4731 80.8876 51.6032 81.1486 51.8115C81.3051 51.9677 81.4095 52.1759 81.4617 52.4362C81.5139 52.6965 81.54 52.9568 81.54 53.2172C81.54 53.946 81.3573 54.753 80.992 55.638C80.6267 56.471 80.1309 57.2519 79.5047 57.9808C79.0872 58.4494 78.487 58.996 77.7042 59.6207C76.9735 60.1934 76.0602 60.4798 74.9643 60.4798H74.886C74.6773 60.4798 74.338 60.3756 73.8683 60.1674C73.3986 59.9071 73.0072 59.5427 72.6941 59.0741C72.5897 58.8659 72.5115 58.5795 72.4593 58.2151C72.4071 57.8507 72.5115 57.3821 72.7724 56.8094ZM93.952 56.419C93.952 56.471 93.8998 56.6012 93.7954 56.8094C93.5345 57.3821 93.4301 57.8507 93.4823 58.2151C93.5345 58.5795 93.6128 58.8659 93.7171 59.0741C94.0303 59.5427 94.4217 59.9071 94.8914 60.1674C95.3611 60.3756 95.7003 60.4798 95.909 60.4798H95.9873C97.0833 60.4798 97.9966 60.1934 98.7272 59.6207C99.51 58.996 100.11 58.4494 100.528 57.9808C101.154 57.2519 101.65 56.471 102.015 55.638C102.38 54.753 102.563 53.946 102.563 53.2172C102.563 52.9568 102.537 52.6965 102.485 52.4362C102.433 52.1759 102.328 51.9677 102.172 51.8115C101.911 51.6032 101.598 51.4731 101.232 51.421C100.919 51.3169 100.632 51.2648 100.371 51.2648C98.7533 51.2648 97.0311 52.4102 95.2045 54.7009C94.787 55.2215 94.3695 55.7942 93.952 56.419Z" fill="#6017D8"/>
<path d="M22.6553 69.4604C20.8463 68.1435 17.9151 64.5408 16.4364 62.5071L20.2593 59.5921C21.6832 58.5063 21.253 56.2648 19.5278 55.7805L2.76354 51.0745C1.36869 50.6829 -0.012629 51.7362 8.71275e-05 53.1816L0.152918 70.5541C0.168646 72.342 2.22395 73.3443 3.64787 72.2585L6.84965 69.8171C9.31723 72.4536 14.1808 76.9048 15.2968 77.8944C16.7581 79.1959 18.3498 80.2632 20.072 81.0962C21.7942 81.9813 23.5947 82.632 25.4735 83.0485C27.4044 83.5171 29.3093 83.7514 31.1881 83.7514C33.8497 83.7514 36.4069 83.3609 38.8597 82.58C41.3648 81.8511 43.7132 80.8099 45.9051 79.4563C48.097 78.1547 50.1324 76.5929 52.0111 74.7707C53.9421 72.9485 55.6643 70.9962 57.1777 68.9138C58.6912 66.7792 59.9698 64.5145 61.0136 62.1197C62.0573 59.7249 62.8923 57.2519 63.5186 54.7009C64.0927 52.202 64.4058 49.677 64.458 47.1259C64.5624 44.5749 64.171 42.076 63.2838 39.6291C62.3966 37.026 61.0397 34.7873 59.2131 32.9131C57.3865 30.9868 55.299 29.451 52.9505 28.3056C50.602 27.1603 48.097 26.4054 45.4354 26.0409C42.7738 25.6245 40.1383 25.5984 37.5289 25.9629C35.0239 26.3793 32.6232 27.1603 30.327 28.3056C28.0829 29.451 26.2041 31.0389 24.6907 33.0693C23.3338 34.8914 22.3944 37.026 21.8725 39.4729C21.4028 41.9198 21.5855 44.2365 22.4205 46.4231C22.8902 47.6205 23.5425 48.6618 24.3775 49.5468C25.2647 50.4319 26.2302 51.1347 27.274 51.6553C28.3699 52.1759 29.5181 52.5143 30.7184 52.6705C31.9709 52.7746 33.2234 52.6705 34.4759 52.3581C34.8934 52.254 35.3109 52.1239 35.7284 51.9677C36.1981 51.8115 36.6417 51.6032 37.0592 51.3429C36.3286 53.4254 35.6241 55.5079 34.9456 57.5903C34.2672 59.6207 33.6931 61.7032 33.2234 63.8377C33.119 64.3063 32.9886 64.8269 32.832 65.3996C32.7276 65.9202 32.6754 66.4408 32.6754 66.9614C32.6754 67.4821 32.7798 67.9506 32.9886 68.3671C33.2495 68.7836 33.6931 69.0699 34.3194 69.2261C34.7891 69.4344 35.2587 69.4604 35.7284 69.3042C36.2503 69.096 36.6417 68.7836 36.9027 68.3671C37.1636 67.9506 37.3463 67.456 37.4506 66.8834C37.555 66.3107 37.6594 65.7901 37.7638 65.3215C38.8075 60.7401 40.1644 56.2888 41.8344 51.9677C43.5045 47.5945 45.2789 43.2734 47.1576 39.0043C47.3142 38.5878 47.4447 38.1713 47.549 37.7548C47.6534 37.3383 47.5751 36.8958 47.3142 36.4273C47.0533 36.0108 46.714 35.6984 46.2965 35.4901C45.9312 35.2819 45.5398 35.2038 45.1223 35.2559C44.7048 35.2559 44.3134 35.386 43.9481 35.6463C43.5828 35.8546 43.2957 36.193 43.087 36.6615L41.7562 39.551C41.1821 40.5922 40.5819 41.6074 39.9557 42.5966C39.3294 43.5337 38.5988 44.3927 37.7638 45.1736C37.1897 45.6942 36.5374 46.1888 35.8067 46.6574C35.1283 47.0739 34.3976 47.4123 33.6148 47.6726C32.8842 47.9329 32.1275 48.0631 31.3446 48.0631C30.5618 48.011 29.779 47.7767 28.9962 47.3602C27.9002 46.7355 27.1435 45.9025 26.726 44.8613C26.3607 43.82 26.2302 42.7267 26.3346 41.5814C26.439 40.3839 26.726 39.2126 27.1957 38.0672C27.7176 36.9218 28.3177 35.9587 28.9962 35.1778C30.6662 33.2515 32.7798 31.9239 35.337 31.1951C37.9464 30.4141 40.5037 30.0497 43.0087 30.1018C45.5659 30.2059 48.0448 30.7525 50.4455 31.7417C52.8983 32.6788 55.0119 34.1105 56.7863 36.0368C58.6129 38.0672 59.7611 40.3839 60.2307 42.987C60.7004 45.5901 60.7004 48.2192 60.2307 50.8744C59.8132 53.2692 59.1348 55.6641 58.1954 58.0589C57.256 60.4017 56.0557 62.5883 54.5944 64.6187C53.1854 66.597 51.4893 68.3411 49.5061 69.8509C47.523 71.3607 45.305 72.4279 42.8521 73.0527C40.608 73.6774 38.2857 73.9377 35.885 73.8336C33.5365 73.7295 31.2403 73.313 28.9962 72.5841C26.7521 71.8552 24.6385 70.814 22.6553 69.4604Z" fill="#6017D8"/>
<path fill-rule="evenodd" clip-rule="evenodd" d="M161.595 73.7555C160.864 73.7555 160.264 73.6514 159.795 73.4431C158.177 73.0266 156.976 72.4019 156.194 71.5689C155.463 70.7359 154.967 69.929 154.706 69.148C153.871 66.8053 154.21 63.8638 155.724 60.3236C156.402 58.6055 157.211 56.9656 158.151 55.4038C159.142 53.8419 160.056 52.5143 160.891 51.421C161.256 50.8484 161.752 50.5099 162.378 50.4058C163.004 50.3017 163.578 50.4579 164.1 50.8744C164.622 51.2388 164.935 51.7334 165.039 52.3581C165.196 52.9829 165.066 53.5816 164.648 54.1543C163.604 55.5599 162.691 56.9396 161.908 58.2932C161.178 59.5947 160.551 60.8442 160.029 62.0416C159.351 63.7076 159.012 64.9571 159.012 65.7901C159.012 66.623 159.064 67.2218 159.168 67.5862C159.273 67.8465 159.429 68.1068 159.638 68.3671C159.899 68.5754 160.343 68.7836 160.969 68.9919C161.125 69.0439 161.334 69.0699 161.595 69.0699C162.482 69.0699 163.343 68.6795 164.178 67.8986C165.066 67.0656 165.77 66.3107 166.292 65.6339C166.71 65.0612 167.101 64.4885 167.466 63.9158C167.884 63.2911 168.223 62.7445 168.484 62.2759C168.797 61.7032 169.084 61.1826 169.345 60.714C169.816 59.4391 170.409 58.1624 171.123 56.8875C172.114 55.1174 173.263 53.4775 174.567 51.9677C176.029 50.4579 177.464 49.2605 178.873 48.3754C180.647 47.3342 182.317 46.8917 183.883 47.0478C184.561 47.152 185.109 47.4383 185.527 47.9069C185.944 48.3754 186.101 48.9481 185.996 49.6249C185.892 50.2496 185.605 50.7703 185.135 51.1868C184.666 51.6032 184.118 51.7855 183.491 51.7334C182.813 51.6293 181.978 51.8896 180.986 52.5143C180.047 53.1391 179.082 53.9981 178.09 55.0914C177.046 56.2888 176.107 57.6424 175.272 59.1522C174.437 60.662 173.811 62.0937 173.393 63.4473C173.289 63.7076 173.184 64.072 173.08 64.5406C172.976 65.0091 172.923 65.5037 172.923 66.0243C172.923 66.545 172.976 67.0395 173.08 67.5081C173.184 67.9246 173.445 68.2109 173.863 68.3671C174.332 68.6274 175.22 68.4712 176.524 67.8986C178.142 67.0656 179.943 65.764 181.926 63.9939C182.187 63.7336 182.474 63.4733 182.787 63.213C183.1 62.9527 183.387 62.6664 183.648 62.354C183.805 61.3648 184.039 60.2715 184.353 59.0741C184.718 57.5643 185.188 55.9764 185.762 54.3105C186.336 52.6445 186.988 50.9785 187.719 49.3125C188.397 47.6466 189.102 46.0847 189.832 44.627C190.615 43.1172 191.424 41.7636 192.259 40.5662C193.146 39.1605 194.007 37.9891 194.842 37.052C195.677 36.1149 196.46 35.4121 197.191 34.9435C197.765 34.527 198.417 34.2667 199.148 34.1626C200.087 34.0585 200.896 34.2407 201.575 34.7092C201.992 34.9695 202.384 35.36 202.749 35.8806C203.166 36.3492 203.427 37.026 203.532 37.911C203.636 38.9523 203.532 40.0976 203.219 41.3471C202.644 43.4816 201.496 46.0847 199.774 49.1563C198.261 51.7594 196.46 54.4146 194.373 57.1218C192.337 59.829 190.224 62.3019 188.032 64.5406V66.1024C188.032 66.5189 188.084 67.1176 188.188 67.8986C188.345 68.6274 188.632 69.0699 189.049 69.2261C189.154 69.2261 189.389 69.2522 189.754 69.3042C190.172 69.3042 190.693 69.096 191.32 68.6795C192.311 68.1068 193.329 67.1437 194.373 65.7901C195.364 64.5926 196.147 63.4473 196.721 62.354C196.879 62.0776 197.018 61.8344 197.136 61.6246L197.146 61.5731C197.459 59.855 198.007 58.163 198.789 56.497C199.572 54.779 200.564 53.1911 201.764 51.7334C204.426 48.3494 207.348 46.6574 210.532 46.6574C211.889 46.6574 212.985 46.8656 213.82 47.2821C214.655 47.6986 215.281 48.1411 215.698 48.6097C216.847 49.8592 217.421 51.395 217.421 53.2172C217.421 54.5187 217.134 55.8463 216.56 57.1999C216.038 58.5535 215.281 59.829 214.289 61.0264C213.193 62.2759 212.019 63.239 210.767 63.9158C209.358 64.6968 207.844 65.0872 206.226 65.0872C205.235 65.1913 204.139 64.931 202.938 64.3063L201.608 63.4473C201.503 64.02 201.477 64.5666 201.529 65.0872C201.634 65.6078 201.738 66.0764 201.842 66.4929C202.208 67.4821 202.86 68.1589 203.8 68.5233C205.626 69.2001 207.322 69.4083 208.888 69.148C210.454 68.8357 211.863 68.263 213.115 67.43C214.368 66.545 215.437 65.5037 216.325 64.3063C217.264 63.1089 217.969 61.9375 218.438 60.7921C218.699 60.2195 219.117 59.803 219.691 59.5427C220.265 59.2303 220.865 59.2043 221.491 59.4646C222.065 59.7249 222.483 60.1674 222.744 60.7921C223.057 61.3648 223.083 61.9375 222.822 62.5102C221.987 64.4365 220.891 66.2066 219.534 67.8205C218.23 69.3823 216.742 70.6578 215.072 71.647C213.141 72.7924 211.132 73.4952 209.044 73.7555C208.784 73.8076 208.496 73.8336 208.183 73.8336H207.4C205.678 73.8336 203.93 73.5212 202.156 72.8965C200.169 72.1534 198.726 70.8683 197.827 69.041C197.197 69.7787 196.568 70.4391 195.938 71.0223C195.26 71.6991 194.555 72.2457 193.825 72.6622C193.042 73.1828 192.285 73.5212 191.554 73.6774C190.824 73.8857 190.172 73.9898 189.597 73.9898C189.18 73.9898 188.815 73.9638 188.501 73.9117C188.241 73.8596 187.98 73.7815 187.719 73.6774C186.362 73.2609 185.318 72.454 184.587 71.2565C184.379 70.8921 184.196 70.5016 184.039 70.0852C183.883 69.6687 183.752 69.2001 183.648 68.6795C178.69 72.7924 174.75 74.0939 171.827 72.5841C170.527 71.9355 169.577 70.9876 168.976 69.7403C167.747 71.1223 166.566 72.0963 165.431 72.6622C164.022 73.3911 162.743 73.7555 161.595 73.7555ZM197.974 40.4881C198.287 40.1236 198.574 39.8113 198.835 39.551L198.13 41.8937C197.295 44.0283 196.017 46.3971 194.294 49.0002C193.198 50.8223 191.998 52.5664 190.693 54.2324L191.633 51.8896C191.998 51.0566 192.39 50.2236 192.807 49.3906C193.433 47.9329 194.112 46.5533 194.842 45.2517C195.573 43.9502 196.304 42.8308 197.034 41.8937C197.4 41.3211 197.713 40.8525 197.974 40.4881ZM204.113 56.419C204.113 56.471 204.06 56.6012 203.956 56.8094C203.695 57.3821 203.591 57.8507 203.643 58.2151C203.695 58.5795 203.773 58.8659 203.878 59.0741C204.191 59.5427 204.582 59.9071 205.052 60.1674C205.522 60.3756 205.861 60.4798 206.07 60.4798H206.148C207.244 60.4798 208.157 60.1934 208.888 59.6207C209.671 58.996 210.271 58.4494 210.688 57.9808C211.315 57.2519 211.81 56.471 212.176 55.638C212.541 54.753 212.724 53.946 212.724 53.2172C212.724 52.9568 212.698 52.6965 212.645 52.4362C212.593 52.1759 212.489 51.9677 212.332 51.8115C212.071 51.6032 211.758 51.4731 211.393 51.421C211.08 51.3169 210.793 51.2648 210.532 51.2648C208.914 51.2648 207.192 52.4102 205.365 54.7009C204.948 55.2215 204.53 55.7942 204.113 56.419Z" fill="#6017D8"/>
<path d="M168.171 46.5012C167.649 46.0847 167.336 45.5901 167.231 45.0174C167.127 44.3927 167.284 43.794 167.701 43.2213L168.875 41.8156C169.293 41.295 169.815 40.9827 170.441 40.8785C171.067 40.7744 171.615 40.9306 172.085 41.3471C172.659 41.7636 172.972 42.2842 173.024 42.9089C173.129 43.5337 172.972 44.1064 172.555 44.627L171.459 46.1107C170.937 46.7355 170.31 47.0478 169.58 47.0478C169.11 47.0478 168.64 46.8656 168.171 46.5012Z" fill="#6017D8"/>
</svg>
